<?xml version="1.0" encoding="UTF-8" standalone="no"?><!DOCTYPE svg PUBLIC "-//W3C//DTD SVG 1.1//EN" "http://www.w3.org/Graphics/SVG/1.1/DTD/svg11.dtd"><svg width="100%" height="100%" viewBox="0 0 450 150" version="1.1" xmlns="http://www.w3.org/2000/svg" xmlns:xlink="http://www.w3.org/1999/xlink" xml:space="preserve" xmlns:serif="http://www.serif.com/" style="fill-rule:evenodd;clip-rule:evenodd;stroke-linejoin:round;stroke-miterlimit:1.41421;"><rect x="0" y="0" width="450" height="150" style="fill:#fcc254;fill-rule:nonzero;"/><path d="M236.914,35.256c-2.32,0 -6.117,0 -8.435,0l-32.713,0c-2.319,0 -4.217,1.899 -4.217,4.22l0,97.037c0,2.32 1.898,4.216 4.217,4.216l73.857,0c2.319,0 4.217,-1.896 4.217,-4.216l0,-97.037c0,-2.321 -1.898,-4.22 -4.217,-4.22l-32.709,0Z" style="fill:#a1645e;fill-rule:nonzero;"/><path d="M264.037,41.276l-62.688,0.002c-1.945,0 -3.543,1.593 -3.543,3.542l0,86.199c0,1.949 1.598,3.543 3.543,3.543l62.685,0c1.947,0 3.543,-1.594 3.543,-3.543l0,-72.08l0.003,-14.123c0,-1.947 -1.594,-3.54 -3.543,-3.54Z" style="fill:#fff;fill-rule:nonzero;"/><path d="M240.115,30.828c-0.017,-4.089 -3.33,-7.395 -7.422,-7.395c-4.091,0 -7.405,3.306 -7.422,7.395l-16.256,0l0,14.848l47.357,0l0,-14.848l-16.257,0Z" style="fill:#f26c5b;fill-rule:nonzero;"/><path d="M235.914,31.071c0,1.78 -1.441,3.222 -3.219,3.222c-1.78,0 -3.222,-1.442 -3.222,-3.222c0,-1.778 1.442,-3.22 3.222,-3.22c1.778,0 3.219,1.442 3.219,3.22Z" style="fill:#ffca47;fill-rule:nonzero;"/><rect x="209.015" y="41.276" width="47.357" height="4.4" style="fill:#e35044;fill-rule:nonzero;"/><path d="M207.514,54.621c-0.632,0 -1.147,0.515 -1.147,1.147l0,13.957c0,0.633 0.515,1.147 1.147,1.147l13.956,0c0.633,0 1.147,-0.514 1.147,-1.147l0,-13.957c0,-0.632 -0.514,-1.147 -1.147,-1.147l-13.956,0Zm13.956,18.127l-13.956,0c-1.667,0 -3.023,-1.356 -3.023,-3.023l0,-13.957c0,-1.666 1.356,-3.022 3.023,-3.022l13.956,0c1.667,0 3.023,1.356 3.023,3.022l0,13.957c0,1.667 -1.356,3.023 -3.023,3.023Z" style="fill:#e5e5e5;fill-rule:nonzero;"/><path d="M207.514,81.763c-0.632,0 -1.147,0.515 -1.147,1.147l0,13.957c0,0.632 0.515,1.147 1.147,1.147l13.956,0c0.633,0 1.147,-0.515 1.147,-1.147l0,-13.957c0,-0.632 -0.514,-1.147 -1.147,-1.147l-13.956,0Zm13.956,18.126l-13.956,0c-1.667,0 -3.023,-1.356 -3.023,-3.022l0,-13.957c0,-1.667 1.356,-3.022 3.023,-3.022l13.956,0c1.667,0 3.023,1.355 3.023,3.022l0,13.957c0,1.666 -1.356,3.022 -3.023,3.022Z" style="fill:#e5e5e5;fill-rule:nonzero;"/><path d="M220.129,93.993c-0.048,-0.127 -0.108,-0.233 -0.223,-0.311c-0.297,-0.201 -0.72,-0.289 -1.052,-0.429c-0.512,-0.213 -1.017,-0.447 -1.49,-0.739c-0.313,-0.193 -0.67,-0.416 -0.801,-0.77l-0.051,-0.218l0,-0.001l0,-0.001l-0.01,-0.113l-0.001,-0.016l-0.01,-0.168l0,-0.01l0.003,-0.117l0.008,-0.071l0.026,-0.09c0.078,-0.104 0.153,-0.219 0.227,-0.339c0.243,-0.36 0.47,-0.794 0.656,-1.322c0.225,0.01 0.486,-0.366 0.594,-0.874c0.107,-0.5 0.028,-0.939 -0.174,-1.034c0.028,-0.248 0.051,-0.506 0.064,-0.78c0,0 0.589,-3.831 -3.403,-3.831c-3.991,0 -3.402,3.831 -3.402,3.831c0.013,0.274 0.035,0.532 0.063,0.78c-0.201,0.095 -0.281,0.534 -0.174,1.034c0.109,0.508 0.369,0.884 0.594,0.874c0.187,0.528 0.413,0.962 0.657,1.322c0.073,0.12 0.148,0.235 0.226,0.339c0.07,0.094 0.026,0.467 0.017,0.585l-0.001,0.002l-0.051,0.218c-0.131,0.354 -0.487,0.577 -0.8,0.77c-0.474,0.292 -0.978,0.526 -1.491,0.739c-0.332,0.14 -0.754,0.228 -1.052,0.429c-0.114,0.078 -0.175,0.184 -0.223,0.311l-0.113,0.413c0.695,0.822 1.587,1.491 2.612,1.951l0.045,0.018l0.037,0.015c0.15,0.065 0.303,0.124 0.457,0.179l0.136,0.045c0.124,0.041 0.248,0.08 0.375,0.115l0.087,0.023c0.232,0.062 0.467,0.116 0.708,0.157c0.42,0.07 0.851,0.109 1.293,0.109c0.442,0 0.874,-0.039 1.294,-0.109c0.24,-0.041 0.476,-0.095 0.707,-0.157l0.088,-0.023c0.126,-0.035 0.251,-0.074 0.374,-0.115l0.136,-0.045c0.155,-0.055 0.307,-0.114 0.458,-0.179l0.036,-0.015l0.046,-0.018c1.025,-0.46 1.916,-1.129 2.611,-1.951l-0.113,-0.413Z" style="fill:#f58750;fill-rule:nonzero;"/><path d="M207.514,108.906c-0.632,0 -1.147,0.514 -1.147,1.147l0,13.955c0,0.633 0.515,1.148 1.147,1.148l13.956,0c0.633,0 1.147,-0.515 1.147,-1.148l0,-13.955c0,-0.633 -0.514,-1.147 -1.147,-1.147l-13.956,0Zm13.956,18.126l-13.956,0c-1.667,0 -3.023,-1.356 -3.023,-3.024l0,-13.955c0,-1.667 1.356,-3.023 3.023,-3.023l13.956,0c1.667,0 3.023,1.356 3.023,3.023l0,13.955c0,1.668 -1.356,3.024 -3.023,3.024Z" style="fill:#e5e5e5;fill-rule:nonzero;"/><path d="M220.129,121.136c-0.048,-0.128 -0.108,-0.233 -0.223,-0.312c-0.297,-0.201 -0.72,-0.289 -1.052,-0.428c-0.512,-0.214 -1.017,-0.447 -1.49,-0.74c-0.313,-0.193 -0.67,-0.415 -0.801,-0.77l-0.051,-0.218l0,-0.002l-0.01,-0.113l-0.001,-0.016l-0.01,-0.168l0,-0.009l0.003,-0.118l0.008,-0.071l0.026,-0.09c0.078,-0.104 0.153,-0.219 0.227,-0.339c0.243,-0.36 0.47,-0.794 0.656,-1.322c0.225,0.01 0.486,-0.366 0.594,-0.874c0.107,-0.499 0.028,-0.939 -0.174,-1.033c0.028,-0.249 0.051,-0.506 0.064,-0.781c0,0 0.589,-3.83 -3.403,-3.83c-3.991,0 -3.402,3.83 -3.402,3.83c0.013,0.275 0.035,0.532 0.063,0.781c-0.201,0.094 -0.281,0.533 -0.174,1.033c0.109,0.508 0.369,0.884 0.594,0.874c0.187,0.529 0.413,0.962 0.657,1.323c0.073,0.119 0.148,0.234 0.226,0.338c0.07,0.095 0.026,0.467 0.017,0.585l-0.001,0.002l-0.051,0.218l0,0.001c-0.131,0.354 -0.487,0.576 -0.8,0.769c-0.474,0.293 -0.978,0.526 -1.491,0.74c-0.332,0.139 -0.754,0.227 -1.052,0.428c-0.114,0.079 -0.175,0.184 -0.223,0.312l-0.113,0.412c0.695,0.823 1.587,1.491 2.612,1.951l0.045,0.019l0.037,0.014c0.15,0.065 0.303,0.124 0.457,0.179l0.136,0.046c0.124,0.04 0.248,0.08 0.375,0.114l0.087,0.024c0.232,0.061 0.467,0.116 0.708,0.156c0.42,0.07 0.851,0.109 1.293,0.109c0.442,0 0.874,-0.039 1.294,-0.109c0.24,-0.04 0.476,-0.095 0.707,-0.156l0.088,-0.024c0.126,-0.034 0.251,-0.074 0.374,-0.114l0.136,-0.046c0.155,-0.055 0.307,-0.114 0.458,-0.179l0.036,-0.014l0.046,-0.019c1.025,-0.46 1.916,-1.128 2.611,-1.951l-0.113,-0.412Z" style="fill:#64bc4f;fill-rule:nonzero;"/><path d="M220.023,66.852c-0.047,-0.128 -0.108,-0.233 -0.222,-0.311c-0.298,-0.202 -0.721,-0.29 -1.053,-0.429c-0.512,-0.214 -1.017,-0.447 -1.49,-0.74c-0.313,-0.192 -0.669,-0.415 -0.8,-0.769l-0.052,-0.218l0,-0.001l0,-0.002l-0.01,-0.113l-0.001,-0.016l-0.01,-0.168l0,-0.009l0.003,-0.118l0.008,-0.071l0.026,-0.09c0.078,-0.104 0.153,-0.219 0.228,-0.339c0.242,-0.36 0.469,-0.793 0.655,-1.322c0.226,0.01 0.486,-0.365 0.594,-0.874c0.107,-0.499 0.028,-0.939 -0.173,-1.033c0.028,-0.248 0.05,-0.506 0.063,-0.781c0,0 0.589,-3.83 -3.403,-3.83c-3.991,0 -3.402,3.83 -3.402,3.83c0.013,0.275 0.036,0.533 0.064,0.781c-0.201,0.094 -0.282,0.533 -0.174,1.033c0.109,0.509 0.369,0.884 0.594,0.874c0.186,0.529 0.413,0.963 0.656,1.323c0.073,0.12 0.149,0.234 0.226,0.338c0.07,0.095 0.027,0.468 0.017,0.585l-0.001,0.003l-0.051,0.218c-0.131,0.354 -0.487,0.577 -0.8,0.769c-0.473,0.293 -0.978,0.526 -1.491,0.74c-0.331,0.139 -0.754,0.227 -1.052,0.429c-0.114,0.078 -0.175,0.183 -0.222,0.311l-0.113,0.412c0.694,0.823 1.586,1.491 2.611,1.951l0.046,0.019l0.036,0.014c0.15,0.065 0.303,0.124 0.458,0.179l0.136,0.046c0.123,0.04 0.247,0.08 0.374,0.115l0.088,0.023c0.231,0.061 0.466,0.116 0.707,0.156c0.42,0.07 0.852,0.109 1.293,0.109c0.442,0 0.874,-0.039 1.294,-0.109c0.241,-0.04 0.476,-0.095 0.708,-0.156l0.087,-0.023c0.126,-0.035 0.251,-0.075 0.374,-0.115l0.137,-0.046c0.154,-0.055 0.307,-0.114 0.457,-0.179l0.036,-0.014l0.046,-0.019c1.025,-0.46 1.916,-1.128 2.611,-1.951l-0.113,-0.412Z" style="fill:#c984b9;fill-rule:nonzero;"/><rect x="228.916" y="54.411" width="11.466" height="2.164" style="fill:#e5e5e5;fill-rule:nonzero;"/><rect x="228.916" y="59.892" width="31.981" height="2.164" style="fill:#e5e5e5;fill-rule:nonzero;"/><rect x="228.916" y="65.226" width="31.981" height="2.164" style="fill:#e5e5e5;fill-rule:nonzero;"/><rect x="228.916" y="70.56" width="31.981" height="2.164" style="fill:#e5e5e5;fill-rule:nonzero;"/><rect x="228.916" y="87.072" width="31.981" height="2.164" style="fill:#e5e5e5;fill-rule:nonzero;"/><rect x="228.916" y="92.406" width="31.981" height="2.164" style="fill:#e5e5e5;fill-rule:nonzero;"/><rect x="228.916" y="97.74" width="31.981" height="2.164" style="fill:#e5e5e5;fill-rule:nonzero;"/><rect x="228.916" y="114.163" width="31.981" height="2.164" style="fill:#e5e5e5;fill-rule:nonzero;"/><rect x="228.916" y="119.497" width="31.981" height="2.164" style="fill:#e5e5e5;fill-rule:nonzero;"/><rect x="228.916" y="124.831" width="31.981" height="2.165" style="fill:#e5e5e5;fill-rule:nonzero;"/><rect x="228.916" y="81.55" width="11.466" height="2.165" style="fill:#e5e5e5;fill-rule:nonzero;"/><rect x="228.916" y="108.689" width="11.466" height="2.164" style="fill:#e5e5e5;fill-rule:nonzero;"/><path d="M233.554,107.677c10.638,-10.303 10.909,-27.272 0.61,-37.909c-10.302,-10.635 -27.278,-10.906 -37.914,-0.603c-10.634,10.299 -10.905,27.269 -0.605,37.906c10.3,10.634 27.276,10.906 37.909,0.606Z" style="fill:#6db3e3;fill-rule:nonzero;"/><path d="M214.566,109.581c-11.689,-0.187 -21.014,-9.814 -20.827,-21.503c0.187,-11.689 9.814,-21.014 21.503,-20.827c11.689,0.187 21.014,9.814 20.827,21.504c-0.187,11.688 -9.814,21.013 -21.503,20.826Z" style="fill:#fff;fill-rule:nonzero;"/><path d="M195.645,107.071c-1.012,-1.047 -1.894,-2.169 -2.701,-3.323l-4.472,4.332l6.615,6.827l4.576,-4.434c-1.421,-0.985 -2.771,-2.114 -4.018,-3.402Z" style="fill:#434b56;fill-rule:nonzero;"/><path d="M181.146,128.404l13.938,-13.497l-6.612,-6.827l-13.936,13.498c-0.943,0.916 -1.424,2.123 -1.443,3.337c-0.02,1.218 0.422,2.439 1.336,3.381c1.826,1.888 4.833,1.936 6.717,0.108Z" style="fill:#596274;fill-rule:nonzero;"/><path d="M226.69,76.631c6.506,6.505 6.506,17.057 0,23.567c-6.511,6.51 -17.063,6.51 -23.569,0.003c-6.511,-6.513 -6.511,-17.058 0,-23.57c6.506,-6.506 17.058,-6.506 23.569,0Z" style="fill:#f26c5b;fill-rule:nonzero;"/><path d="M224.527,95.424c-0.082,-0.218 -0.185,-0.398 -0.38,-0.532c-0.508,-0.344 -1.231,-0.494 -1.798,-0.731c-0.874,-0.366 -1.735,-0.763 -2.543,-1.263c-0.534,-0.329 -1.142,-0.709 -1.366,-1.314c-0.043,-0.117 -0.077,-0.238 -0.088,-0.372l0,-0.002l0,-0.002l-0.017,-0.193l-0.002,-0.028c-0.007,-0.087 -0.014,-0.187 -0.017,-0.286l0,-0.016l0.005,-0.201l0.014,-0.121l0.045,-0.154c0.132,-0.178 0.261,-0.374 0.388,-0.579c0.414,-0.614 0.801,-1.354 1.119,-2.257c0.385,0.018 0.829,-0.623 1.014,-1.491c0.182,-0.853 0.047,-1.603 -0.296,-1.764c0.047,-0.424 0.086,-0.864 0.107,-1.333c0,0 1.006,-6.539 -5.809,-6.539c-6.813,0 -5.806,6.539 -5.806,6.539c0.021,0.469 0.06,0.909 0.107,1.333c-0.343,0.161 -0.48,0.91 -0.297,1.764c0.187,0.868 0.63,1.509 1.014,1.491c0.319,0.903 0.705,1.644 1.121,2.258c0.125,0.205 0.254,0.4 0.386,0.578c0.119,0.162 0.045,0.798 0.029,0.999l-0.002,0.004l0.001,0c-0.011,0.134 -0.045,0.256 -0.088,0.372l0,0.001c-0.224,0.604 -0.831,0.984 -1.365,1.313c-0.809,0.5 -1.67,0.897 -2.546,1.263c-0.566,0.237 -1.286,0.387 -1.795,0.731c-0.196,0.134 -0.299,0.314 -0.38,0.532l-0.193,0.703c1.186,1.405 2.708,2.546 4.458,3.331l0.077,0.032l0.063,0.025c0.256,0.111 0.517,0.212 0.781,0.305l0.232,0.078c0.211,0.069 0.423,0.136 0.639,0.195l0.15,0.04c0.395,0.105 0.796,0.198 1.207,0.267c0.717,0.12 1.454,0.186 2.207,0.186l0.001,0c0.754,0 1.492,-0.066 2.209,-0.186c0.41,-0.069 0.812,-0.162 1.207,-0.267l0.15,-0.04c0.215,-0.059 0.428,-0.126 0.638,-0.195l0.233,-0.078c0.265,-0.093 0.524,-0.194 0.78,-0.305l0.063,-0.025l0.078,-0.032c1.75,-0.785 3.271,-1.926 4.457,-3.331l-0.192,-0.703Z" style="fill:#fff;fill-rule:nonzero;"/><path d="M425.775,56.576c0,24.676 -20.002,44.679 -44.687,44.679c-24.668,0 -44.676,-20.003 -44.676,-44.679c0,-24.671 20.008,-44.681 44.676,-44.681c24.685,0 44.687,20.01 44.687,44.681Z" style="fill:#4e9ec9;fill-rule:nonzero;"/><path d="M416.139,56.576c0,19.358 -15.687,35.043 -35.051,35.043c-19.347,0 -35.031,-15.685 -35.031,-35.043c0,-19.352 15.684,-35.037 35.031,-35.037c19.364,0 35.051,15.685 35.051,35.037Z" style="fill:#fff;fill-rule:nonzero;"/><path d="M404.963,56.576c0,13.186 -10.684,23.87 -23.875,23.87c-13.176,0 -23.864,-10.684 -23.864,-23.87c0,-13.18 10.688,-23.866 23.864,-23.866c13.191,0 23.875,10.686 23.875,23.866Z" style="fill:#f26c5b;fill-rule:nonzero;"/><path d="M392.756,56.576c0,6.44 -5.218,11.657 -11.668,11.657c-6.431,0 -11.648,-5.217 -11.648,-11.657c0,-6.438 5.217,-11.659 11.648,-11.659c6.45,0 11.668,5.221 11.668,11.659Z" style="fill:#fddd50;fill-rule:nonzero;"/><path d="M415.603,84.957l-8.374,-5.032c3.003,-3.358 5.368,-7.299 6.905,-11.633l8.384,5.032c-1.716,4.238 -4.053,8.158 -6.915,11.633Z" style="fill:#477f9e;fill-rule:nonzero;"/><path d="M407.229,79.925l-1.41,-0.847c-0.124,-0.076 -0.217,-0.196 -0.256,-0.337l-1.755,-6.242l-3.335,-1.983c0.808,-1.121 1.521,-2.316 2.128,-3.571l3.192,1.897l6.573,-1.429l0.123,-0.012c0.103,0 0.206,0.028 0.296,0.082l1.349,0.809c-1.537,4.334 -3.902,8.275 -6.905,11.633Z" style="fill:#c2c2c2;fill-rule:nonzero;"/><path d="M400.473,70.516l-10.578,-6.289c0.909,-1.044 1.634,-2.25 2.127,-3.571l10.579,6.289c-0.607,1.255 -1.32,2.45 -2.128,3.571Z" style="fill:#bf5b50;fill-rule:nonzero;"/><path d="M389.895,64.227l-9.859,-5.861c-0.482,-0.288 -0.822,-0.745 -0.956,-1.288c-0.135,-0.537 -0.052,-1.092 0.231,-1.563c0.373,-0.626 1.058,-1.017 1.786,-1.017c0.373,0 0.739,0.102 1.061,0.294l9.864,5.864c-0.493,1.321 -1.218,2.527 -2.127,3.571Z" style="fill:#c3ab47;fill-rule:nonzero;"/><path d="M429.763,35.521c-0.068,-0.42 -0.387,-0.755 -0.802,-0.847l-8.039,-1.754l2.227,-7.915c0.116,-0.409 -0.03,-0.848 -0.369,-1.106c-0.186,-0.142 -0.407,-0.214 -0.631,-0.214c-0.184,0 -0.369,0.05 -0.534,0.149l-15.426,9.247c-0.227,0.137 -0.393,0.355 -0.465,0.609l-2.528,8.976l-0.007,0.05l-0.024,0.192l0.002,0.126l0.001,0.081l0.029,0.089l0.042,0.13l0.077,0.151l0.077,0.111l0.119,0.122l0.053,0.055l0.055,0.029l0.161,0.086l0.144,0.055l0.047,0.018l9.114,1.984l0.22,0.024c0.187,0 0.372,-0.051 0.535,-0.148l15.433,-9.241c0.365,-0.219 0.559,-0.639 0.489,-1.059Z" style="fill:#f15c49;fill-rule:nonzero;"/><path d="M381.101,58.655c-0.734,0 -1.419,-0.391 -1.793,-1.02c-0.583,-0.979 -0.258,-2.256 0.727,-2.844l40.482,-24.076c0.324,-0.191 0.69,-0.291 1.062,-0.291c0.735,0 1.421,0.391 1.792,1.02c0.283,0.477 0.363,1.037 0.225,1.575c-0.137,0.537 -0.478,0.989 -0.958,1.272l-40.482,24.071c-0.327,0.192 -0.69,0.293 -1.055,0.293Z" style="fill:#596274;fill-rule:nonzero;"/><path d="M381.101,58.081c-0.515,0 -1.017,-0.264 -1.298,-0.738c-0.427,-0.716 -0.187,-1.632 0.527,-2.059l40.481,-24.075c0.715,-0.421 1.641,-0.19 2.065,0.526c0.424,0.716 0.19,1.637 -0.53,2.061l-40.483,24.072c-0.24,0.142 -0.503,0.213 -0.762,0.213Z" style="fill:#596274;fill-rule:nonzero;"/><path d="M348.632,140.729l-88.997,0c-2.824,0 -5.134,-2.31 -5.134,-5.134l0,-53.588c0,-2.824 2.31,-5.135 5.134,-5.135l88.997,0c2.823,0 5.134,2.311 5.134,5.135l0,53.588c0,2.824 -2.311,5.134 -5.134,5.134Z" style="fill:#434b56;fill-rule:nonzero;"/><path d="M329.537,71.571l-6.846,0l0,-9.786c0,-0.928 -0.783,-1.711 -1.711,-1.711l-33.693,0c-0.928,0 -1.711,0.783 -1.711,1.711l0,9.786l-6.846,0l0,-9.786c0,-4.718 3.839,-8.557 8.557,-8.557l33.693,0c4.718,0 8.557,3.839 8.557,8.557l0,9.786Z" style="fill:#434b56;fill-rule:nonzero;"/><path d="M353.766,116.108l-99.265,0c-2.824,0 -5.135,-2.31 -5.135,-5.134l0,-38.297c0,-2.824 2.311,-5.134 5.135,-5.134l99.265,0c2.824,0 5.134,2.31 5.134,5.134l0,38.297c0,2.824 -2.31,5.134 -5.134,5.134Z" style="fill:#596274;fill-rule:nonzero;"/><path d="M290.309,116.132l0,-4.229c0,-4.061 3.323,-7.383 7.383,-7.383l12.882,0c4.061,0 7.383,3.322 7.383,7.383l0,4.229l-27.648,0Z" style="fill:#ffc629;fill-rule:nonzero;"/><path d="M293.423,116.132l0,3.277c0,3.146 2.573,5.721 5.72,5.721l9.981,0c3.146,0 5.72,-2.575 5.72,-5.721l0,-3.277l-21.421,0Z" style="fill:#e7a722;fill-rule:nonzero;"/><rect x="302.257" y="110.326" width="3.753" height="10.305" style="fill:#b17029;fill-rule:nonzero;"/><path d="M420.843,94.102l8.563,12.084c0.996,1.405 -0.128,3.244 -1.983,3.244l-17.126,0c-1.855,0 -2.98,-1.839 -1.984,-3.244l8.563,-12.084c0.924,-1.304 3.043,-1.304 3.967,0Z" style="fill:#fff;fill-rule:nonzero;"/><path d="M424.33,103.809l0.032,34.405c0,1.389 -1.126,2.515 -2.516,2.515l-5.909,0c-1.39,0 -2.516,-1.126 -2.516,-2.515l-0.032,-34.405c0,-1.389 1.127,-2.515 2.516,-2.515l5.909,0c1.39,0 2.516,1.126 2.516,2.515Z" style="fill:#fff;fill-rule:nonzero;"/><path d="M378.977,119.989l8.563,12.084c0.996,1.405 -0.128,3.244 -1.983,3.244l-17.126,0c-1.855,0 -2.98,-1.839 -1.984,-3.244l8.563,-12.084c0.924,-1.304 3.043,-1.304 3.967,0Z" style="fill:#f26c5b;fill-rule:nonzero;"/><path d="M382.464,129.696l0.032,8.518c0,1.389 -1.126,2.515 -2.516,2.515l-5.909,0c-1.39,0 -2.516,-1.126 -2.516,-2.515l-0.032,-8.518c0,-1.389 1.127,-2.515 2.516,-2.515l5.909,0c1.39,0 2.516,1.126 2.516,2.515Z" style="fill:#f26c5b;fill-rule:nonzero;"/><path d="M399.91,107.384l8.563,12.084c0.996,1.405 -0.128,3.245 -1.983,3.245l-17.126,0c-1.855,0 -2.98,-1.84 -1.984,-3.245l8.563,-12.084c0.924,-1.304 3.043,-1.304 3.967,0Z" style="fill:#4e9ec9;fill-rule:nonzero;"/><path d="M403.397,117.091l0.032,21.123c0,1.389 -1.126,2.515 -2.516,2.515l-5.909,0c-1.39,0 -2.516,-1.126 -2.516,-2.515l-0.032,-21.123c0,-1.389 1.126,-2.515 2.516,-2.515l5.909,0c1.39,0 2.516,1.126 2.516,2.515Z" style="fill:#4e9ec9;fill-rule:nonzero;"/></svg>