<svg xmlns="http://www.w3.org/2000/svg" viewBox="0 0 48 48"><title>hourglass</title><g class="nc-icon-wrapper" stroke-linecap="square" stroke-linejoin="miter" stroke-width="3" transform="translate(0.5 0.5)" fill="#0061fc" stroke="#0061fc"><line data-cap="butt" data-color="color-2" fill="none" stroke-miterlimit="10" x1="11.533" y1="34" x2="36.467" y2="34" stroke-linecap="butt"/> <path data-cap="butt" fill="none" stroke="#0061fc" stroke-miterlimit="10" d="M37.936,46 C37.974,45.34,38,44.675,38,44c0-8.891-3.363-16.53-8.192-20C34.637,20.53,38,12.891,38,4c0-0.675-0.026-1.34-0.064-2" stroke-linecap="butt"/> <path data-cap="butt" fill="none" stroke="#0061fc" stroke-miterlimit="10" d="M10.064,2C10.026,2.66,10,3.325,10,4 c0,8.891,3.363,16.53,8.192,20C13.363,27.47,10,35.109,10,44c0,0.675,0.026,1.34,0.064,2" stroke-linecap="butt"/> <line fill="none" stroke="#0061fc" stroke-miterlimit="10" x1="6" y1="2" x2="42" y2="2"/> <line fill="none" stroke="#0061fc" stroke-miterlimit="10" x1="6" y1="46" x2="42" y2="46"/></g></svg>