<svg xmlns="http://www.w3.org/2000/svg" viewBox="0 0 64 64"><title>selfie 2</title><g class="nc-icon-wrapper" stroke-linecap="square" stroke-linejoin="miter" stroke-width="3" transform="translate(0.5 0.5)" fill="#0061fc" stroke="#0061fc"><polyline data-color="color-2" fill="none" stroke-miterlimit="10" points=" 15,2 7,2 7,10 "/> <polyline data-color="color-2" fill="none" stroke-miterlimit="10" points=" 57,10 57,2 49,2 "/> <polyline data-color="color-2" fill="none" stroke-miterlimit="10" points=" 49,40 57,40 57,32 "/> <polyline data-color="color-2" fill="none" stroke-miterlimit="10" points=" 7,32 7,40 15,40 "/> <path data-cap="butt" fill="none" stroke="#0061fc" stroke-miterlimit="10" d="M25,37.618V45L9.802,49.342 C6.368,50.323,4,53.463,4,57.034V62h56v-4.966c0-3.572-2.368-6.711-5.802-7.692L39,45v-7.382" stroke-linecap="butt"/> <path fill="none" stroke="#0061fc" stroke-miterlimit="10" d="M32,40L32,40 c-7.732,0-14-8.268-14-16v-4c0-7.732,6.268-14,14-14h0c7.732,0,14,6.268,14,14v4C46,31.732,39.732,40,32,40z"/></g></svg>