<svg xmlns="http://www.w3.org/2000/svg" viewBox="0 0 48 48"><title>selfie</title><g class="nc-icon-wrapper" stroke-linecap="square" stroke-linejoin="miter" stroke-width="3" transform="translate(0.5 0.5)" fill="#0061fc" stroke="#0061fc"><polyline data-color="color-2" fill="none" stroke-miterlimit="10" points=" 12,2 6,2 6,8 "/> <polyline data-color="color-2" fill="none" stroke-miterlimit="10" points=" 6,22 6,28 12,28 "/> <polyline data-color="color-2" fill="none" stroke-miterlimit="10" points=" 36,28 42,28 42,22 "/> <polyline data-color="color-2" fill="none" stroke-miterlimit="10" points=" 42,8 42,2 36,2 "/> <path fill="none" stroke="#0061fc" stroke-miterlimit="10" d="M24,27L24,27 c-5.523,0-10-6.477-10-12v-2c0-5.523,4.477-10,10-10h0c5.523,0,10,4.477,10,10v2C34,20.523,29.523,27,24,27z"/> <path fill="none" stroke="#0061fc" stroke-miterlimit="10" d="M44,46v-4.144 c0-3.101-2.034-5.828-5.007-6.712C35.477,34.098,30.288,33,24,33s-11.477,1.098-14.993,2.144C6.034,36.028,4,38.755,4,41.856V46H44z "/></g></svg>