<svg xmlns="http://www.w3.org/2000/svg" viewBox="0 0 48 48"><title>b check 2</title><g class="nc-icon-wrapper" fill="#292222"><path data-color="color-2" d="M32.707,3.293c-0.391-0.391-1.023-0.391-1.414,0L22,12.586l-3.293-3.293 c-0.391-0.391-1.023-0.391-1.414,0s-0.391,1.023,0,1.414l4,4C21.488,14.902,21.744,15,22,15s0.512-0.098,0.707-0.293l10-10 C33.098,4.316,33.098,3.684,32.707,3.293z"/> <path fill="#292222" d="M19.146,39.78C17.548,38.512,14.837,37,11,37s-6.548,1.512-8.146,2.78C1.676,40.715,1,42.134,1,43.672V46 c0,0.553,0.447,1,1,1h18c0.553,0,1-0.447,1-1v-2.328C21,42.134,20.324,40.715,19.146,39.78z"/> <circle fill="#292222" cx="11" cy="28" r="6"/> <path fill="#292222" d="M45.146,39.78C43.548,38.512,40.837,37,37,37s-6.548,1.512-8.146,2.78C27.676,40.715,27,42.134,27,43.672V46 c0,0.553,0.447,1,1,1h18c0.553,0,1-0.447,1-1v-2.328C47,42.134,46.324,40.715,45.146,39.78z"/> <circle fill="#292222" cx="37" cy="28" r="6"/></g></svg>