<svg xmlns="http://www.w3.org/2000/svg" viewBox="0 0 48 48"><title>b meeting 2</title><g class="nc-icon-wrapper" stroke-linecap="square" stroke-linejoin="miter" stroke-width="2" fill="#292222" stroke="#292222"><polygon data-color="color-2" fill="none" stroke-miterlimit="10" points=" 46,2 22,2 22,23 31,16 46,16 "/> <path fill="none" stroke="#292222" stroke-miterlimit="10" d="M20,43.672 c0-1.208-0.529-2.357-1.476-3.108C17.078,39.416,14.57,38,11,38s-6.078,1.416-7.524,2.564C2.529,41.315,2,42.464,2,43.672V46h18 V43.672z"/> <circle fill="none" stroke="#292222" stroke-miterlimit="10" cx="11" cy="28" r="5"/> <path fill="none" stroke="#292222" stroke-miterlimit="10" d="M46,43.672 c0-1.208-0.529-2.357-1.476-3.108C43.078,39.416,40.57,38,37,38s-6.078,1.416-7.524,2.564C28.529,41.315,28,42.464,28,43.672V46h18 V43.672z"/> <circle fill="none" stroke="#292222" stroke-miterlimit="10" cx="37" cy="28" r="5"/></g></svg>