<?xml version="1.0" encoding="UTF-8" standalone="no"?><!DOCTYPE svg PUBLIC "-//W3C//DTD SVG 1.1//EN" "http://www.w3.org/Graphics/SVG/1.1/DTD/svg11.dtd"><svg width="100%" height="100%" viewBox="0 0 2100 2134" version="1.1" xmlns="http://www.w3.org/2000/svg" xmlns:xlink="http://www.w3.org/1999/xlink" xml:space="preserve" style="fill:#fff;fill-rule:evenodd;clip-rule:evenodd;stroke-linejoin:round;stroke-miterlimit:1.41421;"><path id="Shape-1" d="M1838.88,808.892c18.482,0.037 36.816,7.397 51.49,22.076c14.711,14.716 22.069,33.112 22.069,51.507c-0.009,1.109 -0.021,2.222 -0.03,3.335c105.826,21.446 187.596,144.09 187.596,290.982c0,206.921 -121.765,431.734 -393.531,473.006c-66.571,78.6 -153.88,143.508 -268.195,189.21l448.417,0c55.229,0.07 95.618,44.188 95.618,95.659c0,44.1 -29.359,77.189 -80.912,88.295l-3.678,0l-500.174,33.111c-11.032,0 -22.064,7.36 -25.743,18.396c-14.695,36.749 -51.413,58.817 -91.944,58.863l-610.508,0c-40.458,0 -77.233,-22.071 -95.622,-58.863c-3.675,-11.036 -14.711,-18.396 -25.743,-18.396l-467.074,-33.111c-51.49,-11.036 -80.911,-44.148 -80.911,-88.295c0,-55.129 44.039,-95.57 95.622,-95.655l452.092,0c-402.429,-160.875 -471.315,-560.906 -474.16,-956.537c0,-18.395 7.357,-36.791 22.068,-51.507c14.674,-14.679 33.009,-22.039 51.49,-22.076l1691.76,0Zm51.49,1066.19l-1794.74,0c-11.558,0.396 -69.747,44.578 -67.901,55.409c1.875,11.002 37.5,48.536 55.889,52.216l443.054,33.111c36.775,3.68 69.875,-7.581 88.265,25.53c0.872,1.31 2.149,7.32 3.739,9.554c11.814,16.593 40.959,50.509 50.683,50.509l614.182,0c11.389,-0.436 51.263,-49.076 58.588,-60.063c18.39,-33.111 22.319,-21.85 59.099,-25.53l492.82,-28.945c18.39,-3.68 51.723,-48.536 51.723,-52.215c0,-10.991 -43.975,-59.145 -55.402,-59.576Zm-22.319,-1025.95l-1750.1,0c-11.219,531.533 124.514,992.999 875.052,989.87c735.483,-3.067 898.276,-411.766 875.048,-989.87Zm-1088.36,826.753c-261.121,-44.147 -414.352,-212.139 -469.521,-506.459c-3.679,-18.396 -4.91,-33.112 -23.299,-29.432c-18.39,3.68 -12.268,25.752 -8.589,44.148c58.844,327.427 196.155,467.986 486.698,519.488c3.679,0 40.458,13.965 44.137,-4.431c3.675,-22.071 -11.036,-19.634 -29.426,-23.314Zm1132.75,-745.814c62.522,22.076 147.833,143.704 147.833,246.715c0,143.365 -120.272,357.779 -303.826,420.448c3.074,-5.223 22.749,-52.153 25.695,-57.458c102.142,-177.236 123.157,-424.001 130.298,-609.705Zm-537.804,-922.846c-0.03,0.045 -0.062,0.091 0,0c8.271,-11.299 -10.686,-10.2 2.829,3.319c58.843,55.183 84.586,114.046 84.586,176.59c0,58.863 -29.422,117.726 -88.265,169.234c-40.454,36.787 -62.522,77.255 -62.522,117.726c0,40.472 22.068,80.939 62.522,125.087c14.711,14.715 31.122,62.543 23.765,62.543c-11.032,0 -18.386,-3.676 -25.743,-11.036c-55.165,-58.863 -84.587,-117.726 -84.587,-176.59c0,-58.863 29.422,-114.05 84.587,-169.234c40.454,-40.467 62.522,-77.255 62.522,-117.726c0,-40.472 -22.068,-80.939 -62.522,-125.087c-14.711,-14.715 -14.711,-36.791 0,-51.507c1.196,-1.197 2.138,-2.297 2.828,-3.319Zm-357.379,297.639c-55.165,55.184 -84.587,110.371 -84.587,169.234c0,58.864 29.422,117.727 84.587,176.59c7.357,7.36 16.197,-36.792 1.486,-51.507c-40.454,-44.148 -62.523,-84.615 -62.523,-125.087c0,-40.471 22.069,-80.939 62.523,-117.726c55.169,-51.504 84.59,-110.367 84.59,-169.23c0,-58.863 -25.743,-121.407 -84.586,-176.59c-14.711,-14.716 -36.779,-14.716 -51.49,0c-14.711,14.716 35.289,36.792 50,51.508c40.454,44.147 62.522,84.614 62.522,125.086c0,40.472 -22.068,80.931 -62.522,117.722Zm-456.529,169.234c0,58.864 12.755,96.893 67.919,155.757c7.358,7.36 33.356,-15.959 18.645,-30.674c-40.454,-44.148 -62.522,-84.615 -62.522,-125.087c0,-40.471 22.068,-80.939 62.522,-117.726c58.844,-51.508 88.265,-110.371 88.265,-169.234c0,-62.544 -25.743,-121.407 -84.586,-176.59c-14.711,-14.716 -36.779,-14.716 -51.49,0c-14.711,14.716 31.122,36.792 45.833,51.507c40.454,44.148 62.522,84.615 62.522,125.087c0,40.471 -22.068,77.259 -62.522,117.726c-55.165,55.184 -84.586,110.371 -84.586,169.234Z"/></svg>