<svg xmlns="http://www.w3.org/2000/svg" viewBox="0 0 48 48"><title>focus 2</title><g class="nc-icon-wrapper" stroke-linecap="square" stroke-linejoin="miter" stroke-width="2" fill="#292222" stroke="#292222"><path fill="none" stroke="#292222" stroke-miterlimit="10" d="M38,38H10v-2.625 c0-2.427,1.45-4.615,3.692-5.544C15.962,28.89,19.341,28,24,28s8.038,0.89,10.308,1.831C36.55,30.76,38,32.948,38,35.375V38z"/> <path fill="none" stroke="#292222" stroke-miterlimit="10" d="M16,14c0-4.418,3.582-8,8-8 s8,3.582,8,8s-3.582,9-8,9S16,18.418,16,14z"/> <polyline data-color="color-2" fill="none" stroke-miterlimit="10" points=" 2,10 2,2 10,2 "/> <polyline data-color="color-2" fill="none" stroke-miterlimit="10" points=" 46,10 46,2 38,2 "/> <polyline data-color="color-2" fill="none" stroke-miterlimit="10" points=" 2,38 2,46 10,46 "/> <polyline data-color="color-2" fill="none" stroke-miterlimit="10" points=" 46,38 46,46 38,46 "/></g></svg>