<svg xmlns="http://www.w3.org/2000/svg" viewBox="0 0 16 16" width="16" height="16"><title>home</title><g class="nc-icon-wrapper" fill="#111111"><path fill="#111111" d="M14,16H2c-0.55273,0-1-0.44775-1-1V6c0-0.29688,0.13184-0.57812,0.35938-0.76807l6-5 c0.37109-0.30957,0.91016-0.30957,1.28125,0l6,5C14.86816,5.42188,15,5.70312,15,6v9C15,15.55225,14.55273,16,14,16z M3,14h10 V6.46826l-5-4.1665l-5,4.1665V14z"/> <path data-color="color-2" d="M10.44696,7.09113C10.31464,7.11316,7.1983,7.64465,5.91278,8.93036 c-0.70276,0.70276-0.91846,1.48499-0.91101,2.16315c2.07452-1.10889,3.21698-1.24976,3.21698-1.24976l-2.80273,2.75647 l0.09979,0.05511C5.8302,12.8288,6.35107,13,6.94812,13c0.6756,0,1.4491-0.21936,2.1319-0.9024 c1.40381-1.40417,1.82404-4.41907,1.84125-4.54675l0.07422-0.55115L10.44696,7.09113z"/></g></svg>