<svg xmlns="http://www.w3.org/2000/svg" viewBox="0 0 48 48" width="48" height="48"><title>meeting</title><g class="nc-icon-wrapper" stroke-linecap="square" stroke-linejoin="miter" stroke-width="2" fill="#111111" stroke="#111111"><path fill="none" stroke="#111111" stroke-miterlimit="10" d="M20,46H2v-1.242 c0-1.775,1.164-3.334,2.866-3.838C6.46,40.448,8.604,40,11,40c2.356,0,4.514,0.456,6.125,0.932C18.83,41.436,20,42.994,20,44.773V46 z"/> <circle fill="none" stroke="#111111" stroke-miterlimit="10" cx="11" cy="31" r="5"/> <path fill="none" stroke="#111111" stroke-miterlimit="10" d="M46,46H28v-1.242 c0-1.775,1.164-3.334,2.866-3.838C32.46,40.448,34.604,40,37,40c2.356,0,4.514,0.456,6.125,0.932C44.83,41.436,46,42.994,46,44.773 V46z"/> <circle fill="none" stroke="#111111" stroke-miterlimit="10" cx="37" cy="31" r="5"/> <path data-color="color-2" fill="none" stroke-miterlimit="10" d="M33,22H15 v-1.242c0-1.775,1.164-3.334,2.866-3.838C19.46,16.448,21.604,16,24,16c2.356,0,4.514,0.456,6.125,0.932 C31.83,17.436,33,18.994,33,20.773V22z"/> <circle data-color="color-2" fill="none" stroke-miterlimit="10" cx="24" cy="7" r="5"/></g></svg>