<svg xmlns="http://www.w3.org/2000/svg" viewBox="0 0 48 48" width="48" height="48"><title>network</title><g class="nc-icon-wrapper" stroke-linecap="square" stroke-linejoin="miter" stroke-width="2" fill="#111111" stroke="#111111"><circle data-color="color-2" fill="none" stroke-miterlimit="10" cx="24" cy="6" r="4"/> <circle data-color="color-2" fill="none" stroke-miterlimit="10" cx="42" cy="16" r="4"/> <circle data-color="color-2" fill="none" stroke-miterlimit="10" cx="6" cy="16" r="4"/> <path data-cap="butt" fill="none" stroke="#111111" stroke-miterlimit="10" d="M18.91,36.172l-6.486,2.789 C10.954,39.591,10,41.037,10,42.638V46h28v-3.362c0-1.6-0.954-3.046-2.424-3.677l-6.501-2.776" stroke-linecap="butt"/> <path fill="none" stroke="#111111" stroke-miterlimit="10" d="M24,38L24,38 c-4.418,0-8-3.582-8-8v-2c0-4.418,3.582-8,8-8h0c4.418,0,8,3.582,8,8v2C32,34.418,28.418,38,24,38z"/></g></svg>