<svg xmlns="http://www.w3.org/2000/svg" viewBox="0 0 64 64" width="64" height="64"><title>network 2</title><g class="nc-icon-wrapper" stroke-linecap="square" stroke-linejoin="miter" stroke-width="2" fill="#111111" stroke="#111111"><path data-color="color-2" fill="none" stroke-miterlimit="10" d="M39,19H25v0 c0-3.314,2.686-6,6-6h2C36.314,13,39,15.686,39,19L39,19z"/> <circle data-color="color-2" fill="none" stroke-miterlimit="10" cx="32" cy="6" r="4"/> <path data-color="color-2" fill="none" stroke-miterlimit="10" d="M16,28H2v0 c0-3.314,2.686-6,6-6h2C13.314,22,16,24.686,16,28L16,28z"/> <circle data-color="color-2" fill="none" stroke-miterlimit="10" cx="9" cy="15" r="4"/> <path data-color="color-2" fill="none" stroke-miterlimit="10" d="M63,28H49v0 c0-3.314,2.686-6,6-6h2C60.314,22,63,24.686,63,28L63,28z"/> <circle data-color="color-2" fill="none" stroke-miterlimit="10" cx="56" cy="15" r="4"/> <circle fill="none" stroke="#111111" stroke-miterlimit="10" cx="32" cy="36" r="9"/> <path fill="none" stroke="#111111" stroke-miterlimit="10" d="M35,50h-6 c-6.627,0-12,5.373-12,12v0h30v0C47,55.373,41.627,50,35,50z"/></g></svg>