<svg xmlns="http://www.w3.org/2000/svg" viewBox="0 0 48 48"><title>pin 4 2</title><g class="nc-icon-wrapper" stroke-linecap="square" stroke-linejoin="miter" stroke-width="2" fill="#292222" stroke="#292222"><polygon fill="none" stroke="#292222" stroke-miterlimit="10" points="46,2 2,2 2,37 16,37 24,45 32,37 46,37 "/> <path data-color="color-2" fill="none" stroke-miterlimit="10" d="M33,30H15 v-2.242c0-1.775,1.164-3.334,2.866-3.838C19.46,23.448,21.604,23,24,23c2.356,0,4.514,0.456,6.125,0.932 C31.83,24.436,33,25.994,33,27.773V30z"/> <path data-color="color-2" fill="none" stroke-miterlimit="10" d="M19,14 c0-2.761,2.239-5,5-5s5,2.239,5,5s-2.239,6-5,6S19,16.761,19,14z"/></g></svg>