<svg xmlns="http://www.w3.org/2000/svg" viewBox="0 0 48 48"><title>coins</title><g class="nc-icon-wrapper" stroke-linecap="square" stroke-linejoin="miter" stroke-width="2" fill="#0082dd" stroke="#0082dd"><ellipse fill="none" stroke="#0082dd" stroke-miterlimit="10" cx="15" cy="7" rx="11" ry="5"/> <path data-cap="butt" fill="none" stroke="#0082dd" stroke-miterlimit="10" d="M26,7v7c0,2.761-4.925,5-11,5 S4,16.761,4,14V7" stroke-linecap="butt"/> <path data-cap="butt" fill="none" stroke="#0082dd" stroke-miterlimit="10" d="M22,24.857 C20.098,25.571,17.659,26,15,26c-6.075,0-11-2.239-11-5v-7" stroke-linecap="butt"/> <path data-cap="butt" fill="none" stroke="#0082dd" stroke-miterlimit="10" d="M21.999,31.857 C20.098,32.571,17.659,33,15,33c-6.075,0-11-2.239-11-5v-7" stroke-linecap="butt"/> <path data-cap="butt" fill="none" stroke="#0082dd" stroke-miterlimit="10" d="M22,38.857 C20.098,39.571,17.659,40,15,40c-6.075,0-11-2.239-11-5v-7" stroke-linecap="butt"/> <ellipse data-color="color-2" fill="none" stroke-miterlimit="10" cx="33" cy="20" rx="11" ry="5"/> <path data-cap="butt" data-color="color-2" fill="none" stroke-miterlimit="10" d="M44,20v7c0,2.761-4.925,5-11,5 s-11-2.239-11-5v-7" stroke-linecap="butt"/> <path data-cap="butt" data-color="color-2" fill="none" stroke-miterlimit="10" d="M44,27v7c0,2.761-4.925,5-11,5 s-11-2.239-11-5v-7" stroke-linecap="butt"/> <path data-cap="butt" data-color="color-2" fill="none" stroke-miterlimit="10" d="M44,34v7c0,2.761-4.925,5-11,5 s-11-2.239-11-5v-7" stroke-linecap="butt"/></g></svg>