<svg xmlns="http://www.w3.org/2000/svg" viewBox="0 0 48 48"><title>money bag 3</title><g class="nc-icon-wrapper" fill="#0082dd"><path data-color="color-2" d="M16.612,13H23V8c0-0.552,0.448-1,1-1s1,0.448,1,1v5h6.388l3.561-10.684 c0.102-0.305,0.05-0.64-0.138-0.901C34.623,1.154,34.321,1,34,1H14c-0.321,0-0.623,0.154-0.811,0.416 c-0.188,0.261-0.239,0.596-0.138,0.901L16.612,13z"/> <path fill="#0082dd" d="M41.231,35.604L31.573,15H16.427L6.769,35.604c-1.168,2.491-0.984,5.365,0.492,7.687 c1.476,2.322,4,3.708,6.751,3.708h19.976c2.751,0,5.275-1.386,6.751-3.708C42.215,40.97,42.399,38.096,41.231,35.604z"/></g></svg>