<svg xmlns="http://www.w3.org/2000/svg" viewBox="0 0 64 64"><title>money bag 2</title><g class="nc-icon-wrapper" fill="#0082dd"><path data-color="color-2" d="M22.557,17H31v-7c0-0.552,0.448-1,1-1s1,0.448,1,1v7h8.48l5.457-14.651 c0.114-0.307,0.071-0.65-0.116-0.919S46.328,1,46,1H18c-0.328,0-0.635,0.161-0.822,0.43c-0.187,0.27-0.229,0.614-0.115,0.921 L22.557,17z"/> <path fill="#0082dd" d="M53.904,47.647L41.56,19H22.479L10.112,47.639c-1.473,3.41-1.134,7.299,0.907,10.403 C13.06,61.147,16.496,63,20.21,63h23.592c3.713,0,7.148-1.852,9.189-4.954C55.032,54.944,55.374,51.057,53.904,47.647z"/></g></svg>