<svg xmlns="http://www.w3.org/2000/svg" viewBox="0 0 64 64"><title>users ww</title><g class="nc-icon-wrapper" stroke-linecap="square" stroke-linejoin="miter" stroke-width="2" fill="#0082dd" stroke="#0082dd"><path d="M39.486,45.994,28.1,41.438a2,2,0,0,1-1.241-1.609l-.462-3.693A17.529,17.529,0,0,0,37,36a27.345,27.345,0,0,1-4-14V21a11,11,0,0,0-22,0v1A27.345,27.345,0,0,1,7,36a17.529,17.529,0,0,0,10.608.136l-.462,3.693a2,2,0,0,1-1.241,1.609L4.514,45.994A4,4,0,0,0,2,49.708V57H42V49.708A4,4,0,0,0,39.486,45.994Z" fill="none" stroke="#0082dd" stroke-miterlimit="10"/> <path d="M48,57H62V45.708a4,4,0,0,0-2.514-3.714L48.1,37.438a2,2,0,0,1-1.241-1.609l-.462-3.693A17.529,17.529,0,0,0,57,32a27.345,27.345,0,0,1-4-14V17A11,11,0,0,0,34.45,9" fill="none" stroke-miterlimit="10" data-color="color-2"/></g></svg>