<svg xmlns="http://www.w3.org/2000/svg" viewBox="0 0 64 64"><title>wallet 2</title><g class="nc-icon-wrapper" stroke-linecap="square" stroke-linejoin="miter" stroke-width="2" fill="#0082dd" stroke="#0082dd"><path data-cap="butt" fill="none" stroke="#0082dd" stroke-miterlimit="10" d="M14,20L4.812,32.6 C2.979,35.35,2,38.582,2,41.888v0.003C2,51.139,8.752,58,18,58h28c9.248,0,16-6.861,16-16.109v-0.003 c0-3.306-0.979-6.538-2.812-9.289L50,20" stroke-linecap="butt"/> <line fill="none" stroke="#0082dd" stroke-miterlimit="10" x1="6" y1="20" x2="58" y2="20"/> <path data-color="color-2" fill="none" stroke-miterlimit="10" d="M18,7 c0-2.761,2.239-5,5-5s5,2.239,5,5s-5,7-5,7S18,9.761,18,7z"/> <path data-color="color-2" fill="none" stroke-miterlimit="10" d="M36,7 c0-2.761,2.239-5,5-5s5,2.239,5,5s-5,7-5,7S36,9.761,36,7z"/></g></svg>