<svg xmlns="http://www.w3.org/2000/svg" viewBox="0 0 48 48"><title>wallet</title><g class="nc-icon-wrapper" fill="#0082dd"><path fill="#0082dd" d="M44.77,23.352L39.868,16H44c0.553,0,1-0.447,1-1s-0.447-1-1-1H4c-0.553,0-1,0.447-1,1s0.447,1,1,1h4.132 L3.23,23.352C1.771,25.541,1,28.089,1,30.72C1,38.043,6.957,44,14.28,44H33.72C41.043,44,47,38.042,47,30.718 C47,28.088,46.229,25.541,44.77,23.352z"/> <path data-color="color-2" d="M15.45,10.771C15.604,10.924,15.802,11,16,11s0.396-0.076,0.55-0.229 C17.127,10.202,20,7.26,20,5.167C20,2.869,18.205,1,16,1s-4,1.869-4,4.167C12,7.26,14.873,10.202,15.45,10.771z"/> <path data-color="color-2" d="M32.55,10.771C32.396,10.924,32.198,11,32,11c-0.198,0-0.396-0.076-0.55-0.229 C30.873,10.202,28,7.26,28,5.167C28,2.869,29.795,1,32,1s4,1.869,4,4.167C36,7.26,33.127,10.202,32.55,10.771z"/></g></svg>