<svg xmlns="http://www.w3.org/2000/svg" viewBox="0 0 48 48"><title>wallet 3</title><g class="nc-icon-wrapper" stroke-linecap="square" stroke-linejoin="miter" stroke-width="2" fill="#0082dd" stroke="#0082dd"><path fill="none" stroke="#0082dd" stroke-miterlimit="10" d="M38,18H10l-5.9,8.9 c-1.3,2-2.1,4.4-2.1,6.8v0C2,40.5,7.5,46,14.3,46h19.4C40.5,46,46,40.5,46,33.7v0c0-2.4-0.7-4.8-2.1-6.8L38,18z"/> <line fill="none" stroke="#0082dd" stroke-miterlimit="10" x1="4" y1="18" x2="44" y2="18"/> <path data-color="color-2" fill="none" stroke-miterlimit="10" d="M13,8 c0-2.2,1.8-4,4-4s4,1.8,4,4s-4,6-4,6S13,10.2,13,8z"/> <path data-color="color-2" fill="none" stroke-miterlimit="10" d="M27,8 c0-2.2,1.8-4,4-4s4,1.8,4,4s-4,6-4,6S27,10.2,27,8z"/></g></svg>