<svg xmlns="http://www.w3.org/2000/svg" xmlns:xlink="http://www.w3.org/1999/xlink" width="100%" height="100%" viewBox="0 0 501 273" version="1.1" xml:space="preserve" style="fill-rule:evenodd;clip-rule:evenodd;stroke-linecap:round;stroke-linejoin:round;stroke-miterlimit:1.5;"><path d="M226.24,68.148c0.978,0.155 0.55,-0.669 0.55,-0.669l-9.4,-18.192c-0.052,-0.101 -0.052,-0.101 -0.104,-0.202c-0.053,-0.101 -0.154,-0.049 -0.206,-0.15l-59.557,-17.371l67.773,0.065c1.425,0.031 2.449,0.527 2.867,1.335c0.365,0.707 0.177,1.829 -0.726,2.808l-10.915,13.323c-0.251,0.258 -0.195,0.614 0.063,0.865c0.257,0.251 0.613,0.195 0.864,-0.063l10.914,-13.323c1.102,-1.338 1.437,-2.919 0.863,-4.031c-0.627,-1.213 -2.01,-1.907 -3.944,-1.932l-71.286,-0.062c0,0 -0.722,-0.022 -0.93,0.299c-0.194,0.298 0.277,0.837 0.277,0.837l35.076,42.817c0.982,1.157 2.058,1.754 3.382,1.838c1.272,-0.017 2.586,-0.696 3.638,-1.88l11.654,-13.08c0.251,-0.258 0.196,-0.613 -0.01,-0.763c-0.258,-0.251 -0.613,-0.195 -0.763,0.01l-11.654,13.08c-0.802,0.926 -1.812,1.448 -2.729,1.41c-0.916,-0.039 -1.787,-0.485 -2.511,-1.391l-33.775,-41.323l54.516,24.714l12.736,8.786l-15.82,-5.286c-0.307,-0.098 -0.61,0.059 -0.707,0.365c-0.098,0.307 0.059,0.61 0.365,0.708l19.499,6.458Zm-9.655,-18.188l8.251,15.968l-14.069,-9.633l-49.5,-22.441l55.318,16.106Z" style="fill: #036bf5;fill-rule:nonzero;"/><path d="M0.5,271.849l397.81,0c0,0 85.357,2.303 71.934,-75.574c-12.071,-70.037 -55.37,-66.469 -64.129,-43.411c-10.35,27.243 29.31,64.304 64.544,46.001c12.323,-6.401 63.876,-64.62 -6.165,-126.469c-91.188,-80.522 -186.137,14.132 -231.777,-2.076" style="fill:none;stroke:#ddd;stroke-width:1px;"/></svg>