<svg xmlns="http://www.w3.org/2000/svg" xmlns:xlink="http://www.w3.org/1999/xlink" width="104" height="100" viewBox="0 0 104 100"><defs><path id="rr2xa" d="M1386.69 2247c-14.353.051-26.825 8.03-33.341 19.784a39.126 39.126 0 0 0-12.389 8.131c-15.577 15.127-15.993 40.073-.926 55.716 8.747 9.08 20.788 13.02 32.398 11.775 15.405 7.933 34.755 5.617 47.896-7.144 15.211-14.773 16.774-38.369 4.44-54.958-2.501-18.77-18.476-33.24-37.811-33.304z"/><path id="rr2xb" d="M1388.846 2286.538c0-.721.586-1.307 1.308-1.307h1.308a1.308 1.308 0 0 1 0 2.615h-1.308a1.308 1.308 0 0 1-1.308-1.308zm-5.23 0c0-.721.585-1.307 1.307-1.307h1.308a1.308 1.308 0 0 1 0 2.615h-1.308a1.308 1.308 0 0 1-1.308-1.308zm14.384-5.23v10.461c0 .722-.586 1.308-1.308 1.308h-7.41l-4.882 3.661a1.305 1.305 0 0 1-1.37.124 1.309 1.309 0 0 1-.722-1.17v-2.615h-2.616a1.308 1.308 0 0 1-1.307-1.308v-10.461c0-.722.585-1.308 1.307-1.308h17c.722 0 1.308.586 1.308 1.308zm-2.615 1.307H1381v7.847h2.615c.722 0 1.308.585 1.308 1.307v1.308l3.139-2.354c.226-.17.501-.261.784-.261h6.539zm-14.311 17.653a9.148 9.148 0 0 1 1.234 4.578v7.846c0 .722-.586 1.308-1.308 1.308h-15.692a1.308 1.308 0 0 1-1.308-1.308v-7.846c0-1.601.427-3.184 1.235-4.579a1.307 1.307 0 0 1 2.262 0 6.562 6.562 0 0 0 5.657 3.271 6.563 6.563 0 0 0 5.656-3.27 1.307 1.307 0 0 1 2.264 0zm-1.382 4.578c0-.443-.045-.884-.136-1.316a9.17 9.17 0 0 1-6.402 2.624 9.17 9.17 0 0 1-6.403-2.624c-.09.432-.136.873-.136 1.316v6.539h13.077zm-11.769-7.846a5.237 5.237 0 0 1 5.23-5.23 5.237 5.237 0 0 1 5.232 5.23 5.237 5.237 0 0 1-5.231 5.23 5.237 5.237 0 0 1-5.23-5.23zm2.615 0a2.618 2.618 0 0 0 2.616 2.615 2.618 2.618 0 0 0 2.615-2.615 2.618 2.618 0 0 0-2.615-2.615 2.618 2.618 0 0 0-2.616 2.615z"/></defs><g><g transform="translate(-1329 -2247)"><use fill="#ffc052" xlink:href="#rr2xa"/></g><g transform="translate(-1329 -2247)"><use fill="#fff" xlink:href="#rr2xb"/></g></g></svg>