<?xml version="1.0" encoding="utf-8"?>
<!-- Generator: Adobe Illustrator 22.0.1, SVG Export Plug-In . SVG Version: 6.00 Build 0)  -->
<svg version="1.1" id="Layer_1" xmlns="http://www.w3.org/2000/svg" xmlns:xlink="http://www.w3.org/1999/xlink" x="0px" y="0px"
	 viewBox="0 0 204 248.5" style="enable-background:new 0 0 204 248.5;" xml:space="preserve">
<style type="text/css">
	.st0{fill:#E6E6E6;}
	.st1{fill:#FFC81A;}
	.st2{fill:#F3E073;}
	.st3{fill:#FFB821;}
	.st4{fill:#F1F1F1;}
	.st5{fill:#006CFB;}
	.st6{fill:#FFF190;}
</style>
<g>
	<ellipse class="st0" cx="126.1" cy="244.4" rx="77.4" ry="3.9"/>
	<path class="st1" d="M203.5,161.5l-18.1-77.5c0,0-64.8-11.7-82.5-14.2c-17.7-2.5-20.4,5.8-27,15.7s-61.3,84.9-61.3,84.9l46.9,73.9
		C61.4,244.4,151.4,225.6,203.5,161.5z"/>
	<path class="st2" d="M61.4,244.4l-46.9-73.9c0,0,93,21.8,188.9-9C203.5,161.5,160.4,220.7,61.4,244.4z"/>
	<path class="st3" d="M14.6,170.5c0,0,54.7-75,61.3-84.9s9.3-18.3,27-15.7c17.7,2.5,82.5,14.2,82.5,14.2S137.2,144.9,14.6,170.5z"/>
	<path class="st4" d="M169,119.9c0,0-7.3-46.5-35-119.9c0,0-31.6,38.9-134.2,78.6l59.8,98.1c0,0,45.3,3.5,72.4-0.7
		C132,176.1,156.8,145.5,169,119.9z"/>
	<g>
		<path class="st5" d="M73.1,109.9l2.5-4.8l24.2,6.9c0,0,8.9-16.9,11.1-50l5.6,1.1c0,0-1.5,35-14.2,56.2L73.1,109.9z"/>
	</g>
	<path class="st6" d="M61.4,244.4c0,0,94.3-21.7,142.1-82.9l-18.1-77.5C185.4,84.1,155.3,174.7,61.4,244.4z"/>
</g>
</svg>
