<svg xmlns="http://www.w3.org/2000/svg" xmlns:xlink="http://www.w3.org/1999/xlink" width="104" height="100" viewBox="0 0 104 100"><defs><path id="gpcqa" d="M965.69 2247c-14.353.051-26.825 8.03-33.341 19.784a39.126 39.126 0 0 0-12.389 8.131c-15.577 15.127-15.993 40.073-.926 55.716 8.747 9.08 20.788 13.02 32.398 11.775 15.405 7.933 34.755 5.617 47.896-7.144 15.211-14.773 16.774-38.369 4.44-54.958-2.501-18.77-18.476-33.24-37.811-33.304z"/><path id="gpcqb" d="M971.333 2304.083c0 .783-.634 1.417-1.416 1.417h-7.084a1.417 1.417 0 1 1 0-2.833h7.084c.782 0 1.416.634 1.416 1.416zm0-5.666c0 .782-.634 1.416-1.416 1.416h-7.084a1.417 1.417 0 1 1 0-2.833h7.084c.782 0 1.416.634 1.416 1.417zm-12.75 0v7.083c0 .782-.634 1.417-1.416 1.417h-7.084a1.417 1.417 0 0 1-1.416-1.417v-7.083c0-.783.634-1.417 1.416-1.417h7.084c.782 0 1.416.634 1.416 1.417zm-2.833 1.416h-4.25v4.25h4.25zM943 2311.167v-17a2.833 2.833 0 0 1 2.833-2.834v-2.833a2.833 2.833 0 0 1 2.834-2.833v-2.834A2.833 2.833 0 0 1 951.5 2280h16.979a2.833 2.833 0 0 1 2.833 2.88l-.046 2.787h.067a2.833 2.833 0 0 1 2.834 2.833v2.833a2.833 2.833 0 0 1 2.833 2.834v17a2.833 2.833 0 0 1-2.833 2.833h-28.334a2.833 2.833 0 0 1-2.833-2.833zm8.5-25.589h16.933l.046-2.745H951.5zm-2.833 5.755h22.666v-2.833h-22.666zm-2.834 19.834h28.334v-17h-28.334z"/></defs><g><g transform="translate(-908 -2247)"><use fill="#ffc052" xlink:href="#gpcqa"/></g><g transform="translate(-908 -2247)"><use fill="#fff" xlink:href="#gpcqb"/></g></g></svg>