<svg xmlns="http://www.w3.org/2000/svg" xmlns:xlink="http://www.w3.org/1999/xlink" width="419" height="538" viewBox="0 0 419 538">
    <defs>
        <path id="a" d="M133.799.232L.229 434h338.452L205.11.232z"/>
        <path id="c" d="M28.547 1.914C3.005 5.006-7.009 12.017 6.181 17.57c13.19 5.554 44.59 7.549 70.133 4.456 25.543-3.094 35.557-10.104 22.366-15.658C89.702 2.588 72.288.457 54.026.457c-8.568 0-17.322.469-25.479 1.457"/>
        <path id="e" d="M0 607h669.68V.37H0z"/>
        <path id="g" d="M55.52 3.539c-41.25 9.957-59.77 7.248-53.988 8.98 14.134 4.233 30.146 6.779 51.92 7.038 28.713.342 54.102-.833 53.244-10.31C106.394 5.925 97.098.405 79.88.405c-6.878 0-15.022.881-24.36 3.135"/>
        <path id="i" d="M0 607h669.68V.37H0z"/>
        <path id="k" d="M.546 6.122c0 3.114 14.466 5.64 41.736 5.64 27.27 0 49.378-2.526 49.378-5.64 0-3.115-22.107-5.64-49.378-5.64C15.012.481.546 3.006.546 6.121"/>
        <path id="m" d="M9.44 3.226a261.723 261.723 0 0 1-.613 3.164c-.212 1.057-.43 2.118-.652 3.181a598.538 598.538 0 0 1-1.027 4.807c-.233 1.073-.469 2.147-.704 3.225-.237 1.077-.473 2.157-.709 3.24a754.521 754.521 0 0 0-1.32 6.19 314.381 314.381 0 0 0-1.052 5.26c-.21 1.098-.414 2.198-.61 3.298-.39 2.203-.746 4.413-1.058 6.63-.157 1.108-.301 2.217-.433 3.328-.132 1.11-.25 2.222-.355 3.336a123.069 123.069 0 0 0-.268 3.343c-.073 1.116-.13 2.232-.17 3.35a99.287 99.287 0 0 0-.052 5.034 89.33 89.33 0 0 0 .22 5.044c.08 1.121.186 2.244.313 3.366.707 6.173 2.145 12.355 4.583 18.524a71.008 71.008 0 0 0 2.223 5.041c2.184 4.48 4.935 8.947 8.356 13.394.575-.119.89-.728.641-1.246-4.852-10.12-8.758-21.89-8.758-42.065 0-17.365 4.049-48.612 17.43-57.114 2.138-1.358 5.841-3.215 10.93-3.776 2.465-.272 3.511-.466 3.57-.68-6.983.594-16.807.634-29.928-.964a211.138 211.138 0 0 1-.556 3.09"/>
        <path id="o" d="M11.94 1.27C7.721 5.314 3.665 7.13 1.566 8.053l-.02.237.007-.183-.018.069a42.605 42.605 0 0 0-.083.34l-.05.214-.053.237a22.698 22.698 0 0 0-.117.546l-.056.265-.072.37-.056.295c-.026.136-.052.285-.077.43l-.056.32c-.027.156-.054.323-.08.489l-.055.342c-.027.176-.053.363-.08.549l-.05.358c-.026.193-.051.397-.076.6-.015.126-.032.25-.047.381-.024.207-.046.425-.069.64l-.042.409-.06.683c-.01.142-.024.28-.034.424-.018.238-.033.485-.048.73-.009.146-.019.288-.027.436-.013.25-.022.507-.032.763-.006.153-.013.302-.018.458-.007.259-.01.526-.014.792-.002.158-.006.313-.007.474 0 .269.003.544.006.82.002.163.002.323.005.488.007.279.019.563.03.845.006.168.01.332.02.502.014.286.035.577.055.866.011.171.02.34.034.514.023.29.054.584.083.877.018.177.032.352.053.53.032.293.073.588.113.884.024.182.045.364.072.548.043.296.096.595.146.893.032.185.058.369.092.555.055.3.12.6.182.902.039.187.073.372.115.56.067.3.145.6.219.9.047.19.09.38.14.57.08.297.169.594.256.891.058.195.11.39.17.585.092.295.196.589.296.884.067.195.128.391.2.587.106.294.225.587.341.88.077.196.148.391.23.587.12.29.254.579.386.868.088.195.17.392.262.587.137.287.288.57.435.855.1.194.194.39.298.584.153.283.322.562.486.843.112.191.217.385.333.575.174.283.364.562.55.84.122.185.234.37.362.553.2.288.416.57.629.853.127.169.245.341.376.51.24.304.498.602.753.902.12.14.23.285.353.424.386.436.789.864 1.21 1.285a50.757 50.757 0 0 0 2.448 2.293 55.357 55.357 0 0 0 3.828 3.069 61.295 61.295 0 0 0 2.607 1.808c10.893 7.153 21.888 9.582 21.888 9.582a1.99 1.99 0 0 0-1.2-2.827c-6.645-2.016-17.563-6.69-27.006-17.112-1.82-2.01-3.327-4.225-4.574-6.531-4.506-8.338-4.224-18.475.71-26.572a44.579 44.579 0 0 1 3.63-5.132C13.572 1.501 13.859.388 13.32.388c-.275 0-.764.29-1.382.883"/>
        <path id="q" d="M.581.556L.533.57S-.69 25.195 7.323 35.417c.353.451.71.9 1.07 1.344.1.125.203.249.304.373.263.322.525.644.79.963.11.134.222.268.334.402.266.32.533.64.802.959l.232.274c.523.619 1.048 1.234 1.574 1.85 1.703 1.991 3.414 3.977 5.07 6.007l.02.028a110.39 110.39 0 0 1 1.519 1.904l.153.197c.461.594.915 1.194 1.361 1.8.065.087.13.173.193.26a71.22 71.22 0 0 1 1.301 1.84l.16.232c.439.648.867 1.306 1.284 1.974.048.076.093.154.141.231 2.66 4.544-.186 11.23 6.067 15.19v.003c.126.648.238 1.306.336 1.976l.02.122a44.672 44.672 0 0 1 .342 3.132c.034.444.062.892.084 1.347a63.07 63.07 0 0 1 .057 2.364c0 .216-.003.435-.005.653-.006.588-.02 1.183-.046 1.79l-.027.49a57.863 57.863 0 0 1-.138 2.03c-.01.106-.022.215-.031.323a63.76 63.76 0 0 1-.25 2.275l-.02.156a72.542 72.542 0 0 1-.385 2.577c12.842 1.603 22.457 1.563 29.292.968.325-1.201-29.938-3.022-18.896-22.784 8.067-14.439-10.203-15.525-24.712-34.695C4.586 19.789 2.119 5.184 1.884.152L.58.555z"/>
    </defs>
    <g fill="none" fill-rule="evenodd">
        <g transform="translate(209 121)">
            <mask id="b" fill="#fff">
                <use xlink:href="#a"/>
            </mask>
            <path d="M133.799.232L.229 434h338.452L205.11.232z" mask="url(#b)"/>
        </g>
        <g transform="translate(195 485)">
            <mask id="d" fill="#fff">
                <use xlink:href="#c"/>
            </mask>
            <path d="M28.547 1.914C3.005 5.006-7.009 12.017 6.181 17.57c13.19 5.554 44.59 7.549 70.133 4.456 25.543-3.094 35.557-10.104 22.366-15.658C89.702 2.588 72.288.457 54.026.457c-8.568 0-17.322.469-25.479 1.457" mask="url(#d)"/>
        </g>
        <g transform="translate(-122 -53)">
            <path fill="#FFF" d="M540.275 172.978c0 4.643-17.53 8.408-39.152 8.408-21.624 0-39.153-3.765-39.153-8.408 0-4.643 17.53-34.779 39.153-34.779 21.623 0 39.152 30.136 39.152 34.78"/>
            <path fill="#A4D5FA" d="M536.598 173.897c0 2.664-15.996 4.824-35.728 4.824-19.733 0-35.729-2.16-35.729-4.824 0-2.665 15.996-4.824 35.729-4.824 19.732 0 35.728 2.16 35.728 4.824"/>
            <mask id="f" fill="#fff">
                <use xlink:href="#e"/>
            </mask>
            <path fill="#FFF" d="M499.1 140.967h2.023V.37H499.1z" mask="url(#f)" opacity=".186"/>
        </g>
        <g transform="translate(336 524)">
            <mask id="h" fill="#fff">
                <use xlink:href="#g"/>
            </mask>
            <path d="M55.52 3.539c-41.25 9.957-59.77 7.248-53.988 8.98 14.134 4.233 30.146 6.779 51.92 7.038 28.713.342 54.102-.833 53.244-10.31C106.394 5.925 97.098.405 79.88.405c-6.878 0-15.022.881-24.36 3.135" mask="url(#h)"/>
        </g>
        <g transform="translate(-122 -53)">
            <path fill="#A4D5FA" d="M365.224 542.316c7.845 3.813 4.354 9.6-7.798 12.925-12.151 3.325-28.361 2.928-36.207-.885-7.845-3.814-4.354-9.6 7.798-12.925 12.151-3.325 28.361-2.928 36.207.885"/>
            <mask id="j" fill="#fff">
                <use xlink:href="#i"/>
            </mask>
            <path fill="#A4D5FA" d="M341.536 545.621h3.65v-65.553h-3.65z" mask="url(#j)"/>
            <path fill="#E7F1FF" d="M347.667 545.621a2.48 2.48 0 0 1-2.48-2.48v-63.074h2.48v65.554z" mask="url(#j)"/>
            <path fill="#A4D5FA" d="M517.483 465.098L129.05 509.62V202.132l388.433 44.522z" mask="url(#j)"/>
            <path fill="#036BF5" d="M517.483 330.569l-358.72-9.526v-34.35l358.72 18.92z" mask="url(#j)"/>
            <path fill="#E3FFFF" d="M517.483 266.026L129.05 229.4v-27.269l388.433 44.28z" mask="url(#j)"/>
            <path fill="#A4D5FA" d="M517.483 305.614l-358.72-18.921v-54.49l358.72 33.823zM517.483 465.098l-358.72 41.116V321.042l358.72 9.527zM512.222 255.367c0 3.742-2.172 6.562-4.866 6.3-2.709-.266-4.916-3.546-4.916-7.326s2.207-6.599 4.916-6.295c2.694.302 4.866 3.578 4.866 7.32" mask="url(#j)"/>
            <path fill="#A4D5FA" d="M258.705 297.634l-70.91-3.408c-1.832-.088-3.321 1.395-3.321 3.313v24.186l77.181 2.05V301.04c0-1.804-1.319-3.329-2.95-3.407" mask="url(#j)"/>
            <path fill="#588FFC" d="M336.017 301.35l-61.919-2.976c-1.593-.077-2.889 1.311-2.889 3.1v22.555l67.394 1.79v-21.287c0-1.689-1.156-3.113-2.586-3.182M404.055 304.62L349.52 302c-1.4-.068-2.536 1.236-2.536 2.911v21.13l59.356 1.576v-20.013c0-1.587-1.022-2.923-2.285-2.984" mask="url(#j)"/>
            <path fill="#A4D5FA" d="M443.202 252.673l-36.862-3.748V237.64l36.862 4.138zM482.23 256.64l-34.067-3.463v-10.843l34.067 3.824z" mask="url(#j)"/>
            <path fill="#FFF" d="M497.626 464.754L194.953 498.63c-5.589.626-10.479-3.747-10.479-9.37V341.639c0-2.918 2.264-5.248 5.046-5.206l313.63 4.761c1.58.024 2.857 1.817 2.857 4.005v110.187c0 4.8-3.608 8.834-8.38 9.369" mask="url(#j)"/>
            <path fill="#E3E9F8" d="M467.937 320.195l-34.676-1.234c-.57-.02-1.032-.634-1.032-1.371v-10.28c0-.738.462-1.313 1.032-1.285l34.676 1.666c.532.026.962.623.962 1.333v9.918c0 .711-.43 1.272-.962 1.253" mask="url(#j)"/>
            <path fill="#A4D5FA" d="M505.115 321.518l-32.11-1.142c-.527-.02-.955-.61-.955-1.318v-9.886c0-.709.428-1.263.955-1.237l32.11 1.543c.493.024.892.598.892 1.282v9.551c0 .684-.399 1.225-.892 1.207M142.159 224.327a6.582 6.582 0 0 1-5.934-6.549v-.065c0-3.918 3.401-6.968 7.296-6.543a6.582 6.582 0 0 1 5.87 6.543v.065c0 3.891-3.36 6.933-7.232 6.55" mask="url(#j)"/>
            <path fill="#588FFC" d="M142.84 259.599c-3.645-.264-6.616-3.472-6.616-7.163 0-3.69 2.97-6.437 6.616-6.137 3.626.3 6.55 3.504 6.55 7.158 0 3.654-2.924 6.405-6.55 6.142M142.84 282.025c-3.645-.203-6.616-3.36-6.616-7.05 0-3.691 2.97-6.488 6.616-6.25 3.626.239 6.55 3.394 6.55 7.048s-2.924 6.454-6.55 6.252M142.84 304.452c-3.645-.142-6.616-3.249-6.616-6.94 0-3.69 2.97-6.538 6.616-6.36 3.626.177 6.55 3.282 6.55 6.936 0 3.655-2.924 6.504-6.55 6.364M142.84 326.878c-3.645-.08-6.616-3.136-6.616-6.827s2.97-6.589 6.616-6.472c3.626.115 6.55 3.17 6.55 6.825 0 3.655-2.924 6.554-6.55 6.474M142.84 349.304c-3.645-.018-6.616-3.025-6.616-6.716 0-3.69 2.97-6.638 6.616-6.583 3.626.055 6.55 3.06 6.55 6.715 0 3.654-2.924 6.602-6.55 6.584" mask="url(#j)"/>
            <path fill="#036BF5" d="M261.655 282.936l-77.363-4.668v-6.821l77.363 5.079zM274.36 286.522c-2.957-.171-5.367-3.005-5.367-6.328 0-3.324 2.41-5.855 5.367-5.654 2.944.2 5.32 3.033 5.32 6.327 0 3.293-2.376 5.826-5.32 5.655M288.952 287.369c-2.886-.168-5.236-2.965-5.236-6.249 0-3.282 2.35-5.783 5.236-5.587 2.873.195 5.191 2.99 5.191 6.245 0 3.253-2.318 5.757-5.19 5.59M303.192 288.194c-2.816-.163-5.11-2.925-5.11-6.168 0-3.243 2.294-5.717 5.11-5.525 2.804.191 5.067 2.95 5.067 6.166 0 3.215-2.263 5.69-5.067 5.527" mask="url(#j)"/>
            <path fill="#79E3FF" d="M252.056 354.572l-40.957-.045V350.2l40.957.184z" mask="url(#j)"/>
            <path fill="#E3FFFF" d="M243.297 359.413l-32.198.093v-3.074l32.198-.014zM233.109 363.422l-22.01.134v-3.073l22.01-.08z" mask="url(#j)"/>
            <path fill="#79E3FF" d="M206.143 356.881c0 4.32-3.31 7.846-7.418 7.875-4.134.028-7.505-3.492-7.505-7.863s3.371-7.897 7.505-7.875c4.108.023 7.418 3.543 7.418 7.863M252.056 378.563l-40.957.763v-4.33l40.957-.621z" mask="url(#j)"/>
            <path fill="#E3FFFF" d="M243.297 383.577l-32.198.727v-3.073l32.198-.649zM233.109 387.787l-22.01.567v-3.073l22.01-.514z" mask="url(#j)"/>
            <path fill="#79E3FF" d="M206.143 381.777c0 4.32-3.31 7.911-7.418 8.02-4.134.111-7.505-3.343-7.505-7.714s3.371-7.964 7.505-8.023c4.108-.059 7.418 3.397 7.418 7.717M252.056 402.554l-40.957 1.57v-4.329l40.957-1.428z" mask="url(#j)"/>
            <path fill="#E3FFFF" d="M243.297 407.741l-32.198 1.362v-3.074l32.198-1.283zM233.109 412.151l-22.01 1.002v-3.074l22.01-.947z" mask="url(#j)"/>
            <path fill="#79E3FF" d="M206.143 406.673c0 4.32-3.31 7.976-7.418 8.166-4.134.192-7.505-3.195-7.505-7.567 0-4.37 3.371-8.03 7.505-8.17 4.108-.139 7.418 3.25 7.418 7.57M252.056 426.546l-40.957 2.376v-4.329l40.957-2.235z" mask="url(#j)"/>
            <path fill="#E3FFFF" d="M243.297 431.906l-32.198 1.994v-3.073l32.198-1.917zM233.109 436.516l-22.01 1.435v-3.074l22.01-1.38z" mask="url(#j)"/>
            <path fill="#79E3FF" d="M206.143 431.569c0 4.32-3.31 8.041-7.418 8.312-4.134.273-7.505-3.047-7.505-7.419s3.371-8.096 7.505-8.318c4.108-.22 7.418 3.104 7.418 7.425M252.056 450.538l-40.957 3.182v-4.329l40.957-3.041z" mask="url(#j)"/>
            <path fill="#E3FFFF" d="M243.297 456.07l-32.198 2.629v-3.074l32.198-2.55zM233.109 460.881l-22.01 1.868v-3.074l22.01-1.814z" mask="url(#j)"/>
            <path fill="#79E3FF" d="M206.143 456.465c0 4.32-3.31 8.106-7.418 8.458-4.134.354-7.505-2.9-7.505-7.271s3.371-8.162 7.505-8.466c4.108-.302 7.418 2.958 7.418 7.279M324.834 354.65l-36.137-.04v-4.061l36.137.162z" mask="url(#j)"/>
            <path fill="#E3FFFF" d="M317.093 359.2l-28.396.082v-2.884l28.396-.012zM308.098 362.965l-19.401.118V360.2l19.401-.071z" mask="url(#j)"/>
            <path fill="#79E3FF" d="M284.334 356.82c0 4.053-2.913 7.358-6.526 7.384-3.636.025-6.599-3.277-6.599-7.374 0-4.098 2.963-7.404 6.599-7.385 3.613.02 6.526 3.321 6.526 7.374M324.834 377.208l-36.137.673v-4.062l36.137-.55z" mask="url(#j)"/>
            <path fill="#E3FFFF" d="M317.093 381.911l-28.396.641v-2.883l28.396-.572zM308.098 385.853l-19.401.5v-2.884l19.401-.453z" mask="url(#j)"/>
            <path fill="#79E3FF" d="M284.334 380.175c0 4.054-2.913 7.417-6.526 7.513-3.636.097-6.599-3.146-6.599-7.244s2.963-7.463 6.599-7.514c3.613-.052 6.526 3.192 6.526 7.245M324.834 399.766l-36.137 1.385v-4.062l36.137-1.26z" mask="url(#j)"/>
            <path fill="#E3FFFF" d="M317.093 404.622l-28.396 1.2v-2.884l28.396-1.13zM308.098 408.74l-19.401.883v-2.884l19.401-.835z" mask="url(#j)"/>
            <path fill="#79E3FF" d="M284.334 403.531c0 4.053-2.913 7.474-6.526 7.641-3.636.17-6.599-3.015-6.599-7.113 0-4.099 2.963-7.521 6.599-7.645 3.613-.123 6.526 3.064 6.526 7.117M324.834 422.325l-36.137 2.096v-4.062l36.137-1.972z" mask="url(#j)"/>
            <path fill="#E3FFFF" d="M317.093 427.333l-28.396 1.76v-2.885l28.396-1.69zM308.098 431.629l-19.401 1.265v-2.885l19.401-1.217z" mask="url(#j)"/>
            <path fill="#79E3FF" d="M284.334 426.887c0 4.054-2.913 7.531-6.526 7.77-3.636.24-6.599-2.886-6.599-6.984s2.963-7.58 6.599-7.774c3.613-.194 6.526 2.935 6.526 6.988M324.834 444.883l-36.137 2.808v-4.062l36.137-2.684z" mask="url(#j)"/>
            <path fill="#E3FFFF" d="M317.093 450.044l-28.396 2.318v-2.883l28.396-2.25zM308.098 454.517l-19.401 1.646v-2.884l19.401-1.599z" mask="url(#j)"/>
            <path fill="#79E3FF" d="M284.334 450.243c0 4.054-2.913 7.59-6.526 7.899-3.636.312-6.599-2.756-6.599-6.854 0-4.098 2.963-7.638 6.599-7.905 3.613-.265 6.526 2.807 6.526 6.86M389.408 354.719l-32.121-.035v-3.826l32.121.145z" mask="url(#j)"/>
            <path fill="#E3FFFF" d="M382.518 359.012l-25.232.072v-2.716l25.232-.01zM374.517 362.56l-17.23.104v-2.716l17.23-.063z" mask="url(#j)"/>
            <path fill="#79E3FF" d="M353.417 356.764c0 3.817-2.584 6.93-5.787 6.952-3.222.022-5.847-3.086-5.847-6.942 0-3.857 2.625-6.97 5.847-6.952 3.203.017 5.787 3.125 5.787 6.942M389.408 376.005l-32.121.598v-3.826l32.121-.487z" mask="url(#j)"/>
            <path fill="#E3FFFF" d="M382.518 380.434l-25.232.57v-2.717l25.232-.508zM374.517 384.14l-17.23.444v-2.716l17.23-.403z" mask="url(#j)"/>
            <path fill="#79E3FF" d="M353.417 378.76c0 3.817-2.584 6.98-5.787 7.065-3.222.087-5.847-2.97-5.847-6.827 0-3.856 2.625-7.02 5.847-7.067 3.203-.046 5.787 3.012 5.787 6.83" mask="url(#j)"/>
            <path fill="#A4D5FA" d="M523.942 236.855l-397.538-45.193-1.764 10.198 398.24 45.164h1.062c1.177-.212 2.13-1.756 2.13-3.214v-4.7c0-1.457-.651-2.091-2.13-2.255" mask="url(#j)"/>
            <path fill="#E3FFFF" d="M125.702 201.669l-1.061.19c-1.178.212-2.132-.798-2.132-2.256v-4.699c0-1.458.954-2.811 2.132-3.023l1.06-.19c1.178-.212 2.132.798 2.132 2.255v4.7c0 1.457-.954 2.81-2.131 3.023" mask="url(#j)"/>
            <path fill="#E7F1FF" d="M333.271 157.264a3.054 3.054 0 1 1 2.868-4.096c-.165-2.35-1.245-4.552-3.158-6.016-.086-.065-.173-.132-.262-.194-3.83-2.689-9.288-1.516-12.192 2.62-2.733 3.89-2.23 9.016 1.028 11.847l.109-.003c.253.244.524.474.81.69.45.29.923.528 1.408.717 3.618 1.406 8.011.044 10.512-3.516a9.702 9.702 0 0 0 1.59-3.701 3.051 3.051 0 0 1-2.713 1.652" mask="url(#j)"/>
            <path fill="#001032" d="M319.818 162.202l-.002.002.148.16c-.05-.053-.097-.108-.146-.162M320.845 163.204" mask="url(#j)"/>
            <path fill="#001032" d="M335.505 160.093c-2.629 3.742-7.552 4.915-11.53 2.951a9.185 9.185 0 0 1-1.218-.722c-.097-.068-.19-.139-.283-.21a7.802 7.802 0 0 1-.919-.687c-3.258-2.831-3.76-7.957-1.029-11.848 2.905-4.135 8.364-5.308 12.193-2.62.09.063.176.13.262.195.098.064.197.127.294.195a9.148 9.148 0 0 1 2.23 12.746m-1.154-14.277c-4.983-3.498-11.858-2.295-15.356 2.686-3.01 4.285-2.538 9.968.823 13.7.049.053.096.109.146.162l.054.057c.096.1.195.199.294.296l.15.143a11.687 11.687 0 0 0 .383.344c.121.103.243.205.37.305l.025.019c.13.101.264.202.405.301 0 0-1.227.026-2.38-.891l-9.442 13.367a2.503 2.503 0 1 0 4.1 2.878l9.758-13.818a2.58 2.58 0 0 0 .187-.32c4.653 1.893 10.16.408 13.169-3.877 3.498-4.98 2.295-11.855-2.686-15.352" mask="url(#j)"/>
            <path fill="#AEECFF" d="M322.474 162.113a9.175 9.175 0 0 1-.81-.69c-.036-.001-.073.001-.11.002a7.802 7.802 0 0 0 .92.688" mask="url(#j)"/>
            <path fill="#FFF" d="M320.462 162.86c-.052-.048-.102-.096-.15-.143l.15.143M320.748 163.12l.097.084-.097-.083M321.215 163.508l.025.02-.025-.02" mask="url(#j)"/>
            <path fill="#A4D5FA" d="M328.838 147.73a8.971 8.971 0 0 1 6.922 3.254 8.76 8.76 0 0 0-7.883-4.936 8.758 8.758 0 0 0-7.773 12.791 8.987 8.987 0 0 1 8.734-11.108" mask="url(#j)"/>
            <path fill="#FFD3D4" d="M307.476 168.391c4.242-2.217 6.3-5.198 9.547-2.28-.53 1.045 2.793 2.836 3.612 3.566 1.389 1.694.967 2.804-.41 4.113-2.326 2.21-4.962 6.458-8.357-.38l-3.591-.416-.801-4.603z" mask="url(#j)"/>
            <path fill="#E7F1FF" d="M466.459 402.217c-4.587 2.796-7.684 10.144-6.807 12.292 1.652 4.046 5.642 2.973 5.79 9.416.019.8-.076 1.469-.238 2.042-23.748.034-34.799-37.29-34.799-37.29s-.605-3.72-.93-8.043a27.7 27.7 0 0 1-.064-2.166l38.294-.712c-.028 3.717 2.365 3.138 3.581 7.481l.015.034a25.407 25.407 0 0 1 .266.597l.046.106a35.712 35.712 0 0 0 .164.382l.059.138.083.197c.016.035.03.07.045.106a86.93 86.93 0 0 1 .536 1.307c1.122 2.792 2.793 7.336 4.013 12.323-.09-.04-.176-.086-.268-.123-5.569-2.259-11.18-.248-9.786 1.913m8.873-18.374c.334-2.144.245-4.31-.047-6.228l4.473-.083a2.242 2.242 0 0 0 2.2-2.242v-20.414a2.242 2.242 0 0 0-2.277-2.242l-55.724.87a2.242 2.242 0 0 0-2.208 2.241v17.948s-3.742 3.846-1.622 8.848c.75 1.77 3.242 2.014 4.883 7.812 0 0-1.222 24.643 6.79 34.872.354.452.712.9 1.072 1.346.1.124.203.248.305.373.261.322.523.644.788.964.11.134.223.267.334.401l.802.96.233.274c.523.62 1.048 1.236 1.574 1.851 1.703 1.994 3.414 3.98 5.07 6.013a120.857 120.857 0 0 1 1.54 1.932 92.315 92.315 0 0 1 1.516 1.999c.063.087.127.173.19.262.443.606.877 1.22 1.302 1.84.052.078.107.154.16.232.439.648.867 1.307 1.284 1.975l.141.231c2.66 4.548-.187 11.24 6.067 15.202v.003c.127.648.238 1.307.337 1.977l.019.123a46.2 46.2 0 0 1 .426 4.482c.013.266.022.536.03.806.016.514.027 1.033.028 1.56 0 .216-.004.435-.006.653-.006.52-.02 1.047-.041 1.58l41.146-4.717c-.066-28.798-4.881-60.692-20.785-83.704" mask="url(#j)"/>
            <path fill="#FFD3D4" d="M475.561 420.924c-3.35-.68-3.901-4.379-1.801-7.639 3.027-4.698 1.409-7.79-2.402-10.226-.433-.277-.727-.56-.908-.842-4.587 2.797-7.683 10.144-6.806 12.292 1.651 4.045 5.64 2.973 5.79 9.416.019.8-.077 1.468-.239 2.041.12 0 .24.005.362.003 2.424-.042 4.415-.486 6.046-1.243a14.025 14.025 0 0 1-.042-3.802" mask="url(#j)"/>
            <path fill="#036BF5" d="M437.376 357.633c3.285-.046 5.936 3.28 5.936 7.432 0 4.152-2.65 7.589-5.936 7.676-3.303.088-5.993-3.239-5.993-7.431 0-4.193 2.69-7.63 5.993-7.677zm9.907 10.818l17.702-.413v2.911l-17.702.457v-2.955zm0-3.895l25.931-.522v2.892l-25.931.585v-2.955zm0-5.994l33.025-.502v4.05l-33.025.614v-4.162zm-21.456 18.35c.532 1.333 3.43 1.975 6.198-2.323 1.843-2.862 1.395.296 1.378 3.88l38.292-.713h.023l.515-.01c.59-.012 1.013-.021 1.377-.025l.397-.008c.62-1.194-1.705-6.657 2.875-6.471.557.022 1.84 2.755 2.393 6.373l4.474-.083a2.243 2.243 0 0 0 2.2-2.242v-20.414a2.242 2.242 0 0 0-2.277-2.241l-55.725.869a2.243 2.243 0 0 0-2.207 2.241v20.581c0 .204.036.398.087.586z" mask="url(#j)"/>
            <path fill="#FFD3D4" d="M430.353 389.933l4.044-1.255s-.605-3.72-.93-8.044a27.164 27.164 0 0 1-.064-2.166l-5.379.1a2.236 2.236 0 0 1-2.197-1.656 1.194 1.194 0 0 1-.087-.443v-2.776s-3.742 3.847-1.622 8.848c.75 1.769 3.243 2.014 4.884 7.811l.055-.017 1.296-.402z" mask="url(#j)"/>
            <path fill="#FFD3D4" d="M432.024 374.59c-2.767 4.297-5.665 3.655-6.197 2.322a2.236 2.236 0 0 0 2.197 1.657l5.38-.1c.016-3.584.464-6.742-1.38-3.88M474.005 377.718c-.127 0-.258 0-.395.002l-1.377.026-.514.01h-.023c-.027 3.717 2.365 3.138 3.581 7.482l.25-.087.09-.03 1.729-.597.224-.077 1.754-.605c.333-2.143.245-4.31-.048-6.227l-5.269.098c0 .001 0 .003-.002.005M471.695 377.756h.023-.023" mask="url(#j)"/>
            <path fill="#FFD3D4" d="M472.233 377.746l1.377-.026c-.364.005-.788.015-1.377.026M476.882 371.241c-4.58-.185-2.255 5.278-2.875 6.472l5.269-.098c-.553-3.618-1.837-6.351-2.394-6.374" mask="url(#j)"/>
            <path fill="#246DBD" d="M476.826 516.158c.016-.069.031-.126.045-.181l-.045.181M476.738 516.534l.05-.215-.05.215M439.325 429.544l-.233-.275.233.275M458.525 463.183l-.019-.123.019.123M438.29 428.31c-.11-.135-.223-.268-.333-.403.11.135.222.268.334.402M437.167 426.944l-.304-.373c.1.125.203.248.304.373" mask="url(#j)"/>
            <path fill="#36115A" d="M517.483 565.835s-26.233-17.675-20.58-55.193a292.645 292.645 0 0 0 2.99-31.627c-1.815.609-5.838 1.706-12.493 2.286-.057.215-1.083.41-3.496.682-4.98.564-8.604 2.429-10.696 3.792-13.098 8.534-17.062 39.9-17.062 57.331 0 20.253 3.824 32.068 8.573 42.225a.894.894 0 0 1-.627 1.251l4.867-1.029s-9.556-33.51 7.906-69.71c.006-.012.017-.012.026-.006.006.004.012.008.01.017 2.089-.927 6.126-2.752 10.324-6.815 1.816-1.757 2.527-.869-.14 2.387-3.843 4.689-9.236 13.791-8.366 21.08 1.458 5.867 4.039 12.256 8.6 17.339 9.397 10.473 20.264 15.169 26.878 17.194a2.005 2.005 0 0 1 1.193 2.841s-10.943-2.44-21.784-9.628c10.841 7.187 21.784 9.628 21.784 9.628 0 1.93-1.525 6.225-2.113 7.808-.13.352.207.714.56.586 2.727-.988 6.796-10.597 6.796-10.597l-3.15-1.842z" mask="url(#j)"/>
            <path fill="#246DBD" d="M454.628 497.867c.231-1.082.462-2.16.69-3.237a2195.66 2195.66 0 0 1-.69 3.237M478.362 543.321c-.081-.196-.152-.393-.229-.59.077.197.148.394.229.59M479.008 544.783c-.093-.195-.174-.393-.262-.589.088.196.17.394.262.59M479.737 546.23c-.104-.195-.197-.392-.297-.588.1.196.193.393.297.588M477.793 541.848c-.07-.197-.13-.394-.197-.59.066.196.127.393.197.59M476.876 538.886c-.05-.19-.092-.381-.14-.572.048.191.09.381.14.572M477.3 540.369c-.06-.196-.112-.391-.17-.587.058.196.11.391.17.587M482.46 550.423c-.13-.17-.248-.342-.375-.512.127.17.245.343.375.512M483.561 551.756c-.123-.14-.233-.285-.352-.427.12.142.229.287.352.427M480.552 547.655c-.116-.192-.22-.386-.332-.58.112.194.216.388.332.58M481.46 549.054c-.127-.183-.24-.37-.36-.555.12.185.233.372.36.555M476.52 537.41c-.043-.19-.077-.376-.115-.564.038.188.072.375.114.563M475.802 533.047c-.02-.18-.034-.356-.052-.534.018.178.032.355.052.534M475.663 523.908c.01-.145.023-.284.035-.426l-.035.426M475.757 522.794c.013-.14.028-.273.042-.409-.014.136-.029.27-.042.41M475.539 526.305l.017-.459-.017.46M475.589 525.08c.008-.15.017-.292.027-.439-.01.147-.02.29-.027.438M475.867 521.741c.015-.131.032-.256.047-.384-.015.128-.032.253-.047.384M475.99 520.755c.016-.124.034-.24.05-.36-.016.12-.034.236-.05.36M475.518 527.577c0-.16.005-.316.007-.475-.002.159-.007.314-.007.475M476.224 535.94c-.034-.187-.061-.372-.092-.558.031.186.058.37.092.558M475.986 534.485c-.027-.185-.047-.367-.071-.55.024.183.044.365.071.55M475.667 531.632c-.013-.174-.023-.344-.034-.516.011.172.02.342.034.516M475.578 530.246c-.009-.17-.013-.336-.02-.504.007.168.011.333.02.504M475.53 528.893c-.004-.166-.004-.328-.006-.492.002.164.002.326.005.492M475.558 385.867l-.061-.139c.019.043.04.09.06.14M464.092 586.582c-3.349-4.464-6.042-8.948-8.18-13.444 2.138 4.496 4.831 8.98 8.18 13.444M475.827 386.494l-.059-.139.06.14M475.468 385.663c-.122-.276-.191-.425-.191-.425l.754-.26-.414.142-.09.031-.25.087s.069.15.19.425M475.956 386.797l-.045-.106.045.106" mask="url(#j)"/>
            <path fill="#246DBD" d="M477.57 384.447c1.46 2.644 5.403 10.413 6.432 18.786 3.09 4.06 3.198 10.57.377 14.3.324.128.644.299.955.528 3.996 2.953-2.373 10.586-6.756 8.446 0 0-1.602-.313-2.138-2.215-.268.155-.546.299-.836.434.253 1.728.811 3.275 1.573 4.36 2.303 3.278-7.952 4.464-11.231 0 0 0 2.465-.343 3.249-3.12-23.747.034-34.798-37.288-34.798-37.288l-4.044 1.255c.237 5.036 2.702 19.653 13.436 33.846 14.51 19.185 32.782 20.271 24.714 34.721-11.043 19.777 19.222 21.6 18.898 22.801 6.654-.58 10.677-1.677 12.492-2.286 1.251-31.49-2.52-69.053-20.57-95.173l-1.754.605M429.002 390.352l.048-.015zM458.17 461.08v0M476.888 515.908a48.17 48.17 0 0 0-.007.183l.02-.237a1.255 1.255 0 0 1-.013.054M476.338 387.724l-.023-.057.023.057" mask="url(#j)"/>
            <path fill="#246DBD" d="M469.195 425.967c-.784 2.776-3.25 3.119-3.25 3.119 3.28 4.464 13.534 3.278 11.233 0-.762-1.085-1.321-2.632-1.575-4.36-1.631.757-3.622 1.201-6.046 1.243-.122.003-.241-.002-.362-.002M429.057 390.335l-.055.017.048-.015zM434.397 388.678l-4.044 1.255 4.044-1.255zM475.527 385.151l-.25.086.25-.086M477.345 384.524l-1.728.596.414-.143 1.314-.453zM477.57 384.447l1.754-.605-1.755.605z" mask="url(#j)"/>
            <path fill="#36115A" d="M464.092 586.582l-7.946 1.19c5.039 2.086 8.361 2.5 10.461 2.829.675.105 1.228.119 1.68.077a1.753 1.753 0 0 0 1.514-2.24l-.842-2.885-4.867 1.03z" mask="url(#j)"/>
            <path fill="#246DBD" d="M464.092 586.582l4.867-1.029z" mask="url(#j)"/>
            <path fill="#A4D4FC" d="M480.307 358.06l-33.024.502v4.163l33.024-.615zM473.214 364.034l-25.931.522v2.956l25.931-.586zM464.985 368.038l-17.702.413v2.955l17.702-.457z" mask="url(#j)"/>
            <path fill="#A4D5FA" d="M437.376 372.74c3.285-.086 5.936-3.523 5.936-7.675 0-4.151-2.65-7.478-5.936-7.431-3.303.047-5.993 3.483-5.993 7.676 0 4.192 2.69 7.519 5.993 7.43" mask="url(#j)"/>
            <path fill="#0084E5" d="M476.492 388.104c1.121 2.792 2.792 7.336 4.012 12.323l.002.001c-1.222-4.99-2.892-9.533-4.014-12.324M475.497 385.729l-.03-.066.03.066M475.604 385.974l-.046-.106.046.106M475.91 386.691l-.082-.197.083.197M475.768 386.355l-.086-.201.086.201M477.57 384.447l-.224.077.223-.077z" mask="url(#j)"/>
            <path fill="#0084E5" d="M475.277 385.237s.069.15.19.426l.03.066a10.785 10.785 0 0 0 .108.245l.076.18.087.201.06.139.083.197.044.106a87.757 87.757 0 0 1 .52 1.267l.017.04c1.121 2.792 2.793 7.333 4.014 12.324 1.423.634 2.589 1.613 3.496 2.805-1.03-8.373-4.972-16.143-6.433-18.786l-1.538.53-.754.26z" mask="url(#j)"/>
            <path fill="#0084E5" d="M477.57 384.447l-.224.077-1.314.453 1.537-.53" mask="url(#j)"/>
            <path fill="#5E1A15" d="M481.354 417.547l.004-.001c1.37-4.94.565-11.327-.852-17.118l-.002-.001c1.417 5.792 2.222 12.18.85 17.12" mask="url(#j)"/>
            <path fill="#5E1A15" d="M480.855 419.044c.192-.482.36-.981.503-1.498a.008.008 0 0 1-.004.001 14.3 14.3 0 0 1-.499 1.497" mask="url(#j)"/>
            <path fill="#001032" d="M485.334 418.061c-.31-.23-.631-.4-.955-.527 2.82-3.731 2.712-10.242-.377-14.3-.908-1.194-2.073-2.171-3.496-2.806 1.417 5.792 2.222 12.177.852 17.118-.143.516-.31 1.016-.503 1.498.192-.481.356-.982.499-1.497 1.373-4.94.567-11.328-.85-17.12-.09-.04-.175-.086-.267-.123-5.57-2.26-11.181-.248-9.787 1.914.181.28.475.564.908.84 3.81 2.436 5.429 5.528 2.402 10.227-2.1 3.26-1.549 6.959 1.801 7.639.48.097 1.016.131 1.61.095-.612.946-.95 1.887-.871 2.576.029.256.08.484.14.697.536 1.902 2.138 2.214 2.138 2.214 4.383 2.14 10.752-5.492 6.756-8.445" mask="url(#j)"/>
            <path fill="#246DBD" d="M476.89 515.837h.001" mask="url(#j)"/>
            <path fill="#0084E5" d="M483.209 551.33c-.254-.301-.51-.601-.749-.908.239.307.495.607.749.907M478.746 544.194c-.13-.29-.264-.581-.384-.873.12.292.254.582.384.873M479.44 545.642c-.146-.286-.296-.57-.432-.859.136.289.286.573.432.86M480.22 547.076c-.163-.282-.33-.562-.483-.846.152.284.32.564.483.846M475.525 527.102c.004-.267.006-.536.014-.797-.008.261-.01.53-.014.797M482.085 549.911c-.211-.285-.427-.568-.626-.857.2.29.415.572.626.857M475.75 532.513c-.03-.294-.06-.59-.083-.881.023.292.054.586.083.881M481.099 548.499c-.184-.28-.373-.56-.547-.844.174.284.363.563.547.844M476.405 536.846c-.062-.303-.127-.605-.181-.906.054.3.119.603.18.906M476.132 535.382c-.05-.3-.103-.6-.146-.897.043.297.095.597.146.897M475.915 533.934c-.04-.296-.08-.593-.113-.887.032.294.073.59.113.887M476.737 538.314c-.075-.302-.151-.604-.218-.905.067.3.143.603.218.905M478.133 542.732c-.115-.295-.234-.589-.34-.885.106.296.225.59.34.885M477.131 539.782c-.086-.298-.176-.597-.255-.896.08.299.169.598.255.896M477.595 541.258c-.1-.297-.203-.593-.295-.89.092.297.195.593.295.89M475.633 531.116c-.02-.29-.04-.584-.056-.87.015.286.036.58.056.87M476.685 516.772l.053-.238-.053.238M476.788 516.32l.038-.162-.038.162M476.568 517.32l.064-.308-.064.308M476.442 517.958l.071-.37-.071.37M476.888 515.907l-.017.07.017-.07M475.557 525.846c.01-.257.018-.516.032-.767-.014.25-.023.51-.032.767M475.698 523.481c.019-.23.038-.463.059-.687-.021.224-.04.456-.059.687M475.799 522.385c.022-.217.044-.435.068-.644-.024.21-.046.426-.068.644M476.04 520.395c.027-.186.052-.374.08-.551-.028.177-.053.364-.08.551M476.174 519.5l.079-.492-.08.492M475.914 521.357c.025-.203.05-.408.076-.602-.026.195-.05.399-.076.602M458.982 468.47c-.01-.269-.018-.539-.03-.805.012.266.02.536.03.806M458.93 472.965c.01-.163.02-.328.027-.49l-.027.49M429.002 390.352s-1.223 24.644 6.79 34.873c-8.013-10.23-6.79-34.873-6.79-34.873M458.49 477.754l.022-.156-.021.156M459.008 470.031c.001.216-.002.435-.005.654.003-.219.006-.437.005-.654M458.76 475.321c.01-.108.023-.217.032-.324l-.031.324M430.353 389.933l-1.296.402 1.296-.402z" mask="url(#j)"/>
            <path fill="#5A3F8D" d="M464.092 586.582c.563-.12.87-.73.627-1.251-4.749-10.157-8.573-21.972-8.573-42.224 0-17.432 3.964-48.799 17.062-57.332 2.092-1.363 5.717-3.228 10.697-3.792 2.413-.273 3.437-.467 3.496-.682-6.836.596-16.451.636-29.295-.968a216.855 216.855 0 0 1-.545 3.102 268.704 268.704 0 0 1-.6 3.176 367.38 367.38 0 0 1-.638 3.194c-.327 1.602-.664 3.21-1.005 4.825-.228 1.077-.459 2.156-.69 3.237l-.693 3.252a896.07 896.07 0 0 0-.688 3.268 535.26 535.26 0 0 0-1.002 4.926 311.097 311.097 0 0 0-.633 3.3 255.011 255.011 0 0 0-.595 3.311c-.382 2.212-.732 4.43-1.037 6.654a158.432 158.432 0 0 0-.424 3.342 139.112 139.112 0 0 0-.347 3.349 115.822 115.822 0 0 0-.428 6.719 102.204 102.204 0 0 0-.052 5.053 91.995 91.995 0 0 0 .215 5.062 84.29 84.29 0 0 0 .308 3.379c.691 6.196 2.099 12.402 4.485 18.594a72.227 72.227 0 0 0 2.176 5.062c2.137 4.496 4.83 8.98 8.179 13.444" mask="url(#j)"/>
            <path fill="#0084E5" d="M487.4 481.301c.325-1.202-29.94-3.024-18.898-22.8 8.069-14.45-10.203-15.537-24.713-34.722-10.734-14.194-13.2-28.81-13.436-33.846l-1.302.404-.049.015s-1.223 24.643 6.79 34.873c.353.452.71.9 1.071 1.346.1.125.203.249.304.373.263.322.525.644.79.963.11.135.222.268.333.402l.802.96.233.275c7.805 9.241 16.21 17.96 18.844 31.536v.003c.127.648.239 1.307.337 1.977l.019.123a43.218 43.218 0 0 1 .263 2.198 52.195 52.195 0 0 1 .163 2.284 51.81 51.81 0 0 1 .057 2.366c.001.216-.002.435-.005.654-.007.589-.02 1.184-.046 1.79l-.027.49a56.542 56.542 0 0 1-.138 2.031c-.009.108-.022.217-.032.325a63.83 63.83 0 0 1-.248 2.277l-.021.156a71.539 71.539 0 0 1-.375 2.525l-.01.054c12.844 1.604 22.459 1.564 29.295.968" mask="url(#j)"/>
            <path fill="#0084E5" d="M429.057 390.335l-.007.002 1.303-.404zM476.901 515.854z" mask="url(#j)"/>
            <path fill="#5A3F8D" d="M514.197 567.04c-6.614-2.026-17.48-6.722-26.879-17.195-1.812-2.02-3.311-4.246-4.552-6.563-4.486-8.378-4.205-18.564.705-26.7a44.804 44.804 0 0 1 3.613-5.156c2.668-3.255 1.957-4.145.14-2.387-4.197 4.063-8.234 5.889-10.323 6.815l-.02.237.007-.183-.017.069-.046.181-.037.162-.05.215-.053.237-.053.24-.063.308c-.02.089-.037.173-.056.268l-.071.37a43.998 43.998 0 0 0-.133.73l-.056.32-.08.492-.054.344c-.027.177-.052.365-.079.551-.017.12-.034.236-.05.36-.026.194-.051.399-.076.603l-.047.383c-.024.209-.046.427-.068.644-.014.136-.029.27-.042.41-.021.223-.04.455-.059.686l-.035.427c-.018.239-.032.486-.047.733-.01.146-.02.29-.027.438-.014.251-.023.51-.032.767-.006.154-.014.304-.018.46-.008.26-.01.528-.014.796-.003.159-.007.315-.008.475 0 .271.003.548.007.824.002.164.002.326.005.492.007.279.018.564.03.849.006.168.01.334.019.504.014.287.035.579.055.87.011.172.02.342.034.516.023.292.054.587.083.881.018.179.032.355.052.534.033.293.073.59.113.887.024.184.044.366.071.55.043.298.096.599.146.898.03.186.058.371.092.558.054.3.119.604.18.906.04.188.074.375.115.563.067.301.144.603.218.905.047.19.089.381.14.573.078.298.167.597.254.895.057.196.108.391.17.587.09.296.194.592.294.888.067.197.128.394.198.59.107.296.225.59.34.885.077.196.147.393.229.589.12.292.254.582.384.873.088.196.17.393.262.59.136.287.286.572.432.858.1.196.192.393.297.588.152.284.32.564.483.846.112.193.216.387.332.579.174.284.363.563.547.844.12.185.233.372.36.555.199.289.415.572.627.857.126.17.243.343.374.511.239.307.495.607.749.907.12.142.23.286.352.427.384.437.784.868 1.204 1.292a50.73 50.73 0 0 0 2.436 2.304 54.9 54.9 0 0 0 3.81 3.083 61.5 61.5 0 0 0 2.595 1.817c10.841 7.187 21.784 9.628 21.784 9.628a2.005 2.005 0 0 0-1.193-2.84" mask="url(#j)"/>
            <path fill="#A4D5FA" d="M250.012 181.882c-.947-.153-1.691-.431-2.284-.796-19.346-3.796-31.928-.735-39.615 3.182-4.622 2.356 17.409 18.705 17.409 18.705l-10.19 58.54-3.173 2.535 7.138 9.704-1.09-9.28s20.696-25.086 31.39-47.702c.389-.821 1.594-.675 1.772.214l8.616 43.206-1.277 2.103 9.875 6.645-4.029-7.797s7.938-37.814 9.63-48.336c2.455-15.26 2.602-26.598-24.172-30.923" mask="url(#j)"/>
            <path fill="#00B891" d="M308.277 172.994s-.04.014-.103.039l.103-.039M215.446 151.674l.116-.15-.116.15M203.459 182.329c.047-.32.093-.64.144-.955-.05.315-.097.635-.144.955M203.83 180.032c.053-.296.104-.593.159-.884-.055.29-.106.588-.158.884M202.588 194.843c-.002-.354.004-.7.006-1.05-.002.35-.008.696-.006 1.05M215.168 152.04l.138-.183-.138.183M202.72 189.62c.021-.36.046-.717.07-1.073-.024.357-.049.712-.07 1.073M209.726 161.313l.244-.514-.244.514M301.104 175.327" mask="url(#j)"/>
            <path fill="#FFC052" d="M236.233 149.49c-15.96 5.961-5.391 18.512-1.358 24.474 4.034 5.961-21.032.482-23.195 10.243a3.82 3.82 0 0 0-.071.457c7.687-3.917 20.27-6.978 39.615-3.182-5.036-3.102 1.615-12.891 1.615-12.891 7.438 15.11 31.826 11.148 45.65 7.463-13.821 3.684-38.202 7.646-45.645-7.454 2-4.306 4.753-10.716 5.545-14.96 2.69.7-3.157 16.733 11.575 20.24 11.941 2.843 31.177-.932 38.038-2.464l-.526-3.025s-26.657-2.133-27.75-2.332c-9.645-1.753-8.906-3.03-7.736-18.81.736-9.94-6.038-19.553-19.124-23.337-.077.347-.139.7-.185 1.056 7.942 9.305-3.478 19.677-16.448 24.522" mask="url(#j)"/>
            <path fill="#00B891" d="M204.262 177.787c.054-.261.106-.527.162-.785-.056.258-.108.523-.162.785M214.83 152.503l.158-.218-.159.218M231.305 122.873c.153-.022.306-.044.458-.064-.152.02-.306.042-.458.064M205.981 171.027c.049-.159.1-.31.148-.467-.049.157-.1.308-.148.467M206.564 169.203c.068-.204.138-.4.207-.6-.07.2-.139.396-.207.6M305.835 173.853l-.034.011.034-.011M204.765 175.525c.046-.194.09-.393.137-.585-.047.192-.09.391-.137.585M212.033 129.513" mask="url(#j)"/>
            <path fill="#FF6B12" d="M253.508 182.278c-.946-.153-1.69-.43-2.284-.796-19.345-3.796-31.928-.735-39.615 3.182-.42 4.436 7.491 7.966 17.609 9.888 9.138 1.735 11.224 2.98 8.418 11.221-2.456 7.214-14.986 47.065-18.074 56.892l2.14 2.203s20.697-25.086 31.392-47.702c.388-.82 1.593-.675 1.77.215l8.618 43.205-8.603-43.367c9.939-22.933-11.754-28.293-11.754-28.293s10.938-1.973 20.525 4.617c14.155 9.728 4.099 57.864 1.794 67.452l2.606.542s7.938-37.813 9.63-48.335c2.456-15.26 2.602-26.6-24.172-30.924" mask="url(#j)"/>
            <path fill="#00B891" d="M202.643 191.351c-.01.28-.02.561-.028.844.007-.285.02-.564.03-.846l-.002.002M211.691 157.487c.048-.085.096-.176.143-.259l-.143.259" mask="url(#j)"/>
            <path fill="#00B891" d="M202.654 191.116l-.011.235.003-.003.008-.232M212.987 155.274c.041-.066.08-.125.119-.189l-.119.189M211.028 158.71c.067-.126.134-.257.2-.38-.066.123-.133.254-.2.38M210.376 159.977c.077-.153.153-.308.23-.457-.077.15-.153.304-.23.457M207.793 165.803c.082-.211.166-.417.248-.624-.082.207-.166.413-.248.624M213.51 154.444l.173-.264-.172.264M214.437 153.057l.174-.247c-.057.081-.114.16-.174.247M234.002 122.541c.149-.015.294-.026.44-.04-.146.014-.291.025-.44.04M202.643 197.564c-.011-.307-.013-.605-.02-.909.007.304.009.602.02.909" mask="url(#j)"/>
            <path fill="#FFC052" d="M196.306 164.744c-7.91 13.432-10.987 29.53-11.66 33.536l-1.815-.208 5.723.656s9.278-37.157 26.694-47.25c-2.564.004-11.683.938-18.942 13.266" mask="url(#j)"/>
            <path fill="#00B891" d="M213.996 153.705l.18-.266-.18.266M207.17 167.462c.077-.214.156-.422.234-.632-.078.21-.157.417-.234.632M244.693 122.503l.028-.077c-2.718-.24-5.622-.268-8.71-.05 3.11-.21 5.984-.155 8.682.127" mask="url(#j)"/>
            <path fill="#FFA140" d="M215.758 151.277l.074-.091.029-.034.028-.035c-.215.116-.428.239-.641.362.133 0 .248.002.344.005a14.82 14.82 0 0 1 .166-.207" mask="url(#j)"/>
            <path fill="#001032" d="M215.86 151.151l-.027.035.028-.035M215.89 151.117" mask="url(#j)"/>
            <path fill="#009461" d="M308.174 173.032l-.217.08.217-.08M308.002 171.416l.275 1.578zM298.537 176.042l-.048.012.048-.012M305.976 173.805l-.141.047.141-.047M302.778 174.83l-.112.034.112-.034M301.116 175.324l-.012.003.012-.003" mask="url(#j)"/>
            <path fill="#FFA140" d="M269.964 173.88c-14.732-3.507-8.886-19.54-11.575-20.24-.792 4.244-3.544 10.654-5.545 14.96 7.443 15.1 31.824 11.138 45.644 7.455l.048-.014a124.45 124.45 0 0 0 4.13-1.177l.112-.034a117.324 117.324 0 0 0 3.023-.966l.034-.011.141-.048a81.097 81.097 0 0 0 2.198-.773l.103-.038-.275-1.578c-6.86 1.532-26.097 5.307-38.038 2.464" mask="url(#j)"/>
            <path fill="#FF2300" d="M263.65 193.543c-9.587-6.59-20.525-4.617-20.525-4.617s21.66 5.433 11.722 28.367l8.635 43.293 1.962.409c2.305-9.588 12.36-57.724-1.793-67.452" mask="url(#j)"/>
            <path fill="#009461" d="M214.176 153.44c.089-.132.178-.262.262-.383-.085.121-.172.25-.262.382M183.62 180.995c.622-4.238 1.546-8.98 2.916-13.885-1.37 4.904-2.294 9.647-2.917 13.885M215.306 151.857l.14-.183-.14.183M231.305 122.873a72.412 72.412 0 0 1 0 0M215.687 151.366l-.094.118.094-.118M215.832 151.186c-.02.023-.044.054-.074.091l.074-.091M215.89 151.117l-.03.034.03-.034M215.593 151.484l-.031.04.031-.04zM229.018 203.37l-26.23-3.013 26.23 3.013-10.19 58.539zM182.357 198.018s-.125-4.676.599-11.703c-.724 7.027-.6 11.703-.6 11.703l.475.054-.474-.054zM206.77 168.604" mask="url(#j)"/>
            <path fill="#FF2300" d="M218.828 261.909l.735.755c3.087-9.826 15.617-49.677 18.073-56.891 2.806-8.24.72-9.486-8.418-11.222-10.118-1.92-18.028-5.451-17.609-9.886-4.621 2.355-7.474 5.017-8.963 6.684-.01.282-.024.562-.03.847-.014.526-.018 1.062-.022 1.597-.002.35-.008.697-.006 1.05.003.597.018 1.205.034 1.812.008.304.01.602.021.909.033.919.08 1.849.144 2.793l26.23 3.013-10.189 58.539z" mask="url(#j)"/>
            <path fill="#FFA140" d="M211.61 184.664a3.72 3.72 0 0 1 .07-.458c2.163-9.76 27.229-4.28 23.195-10.242-4.033-5.962-14.601-18.513 1.358-24.474 12.97-4.845 24.39-15.217 16.448-24.522-.138 1.073-.12 2.173.17 3.218 1.236 4.472-1.48 6.478-4.43 5.716-.137-.035-.265-.073-.396-.111-6.55-1.885-5.055-6.508-3.364-11.2l.032-.088c-2.698-.282-5.573-.337-8.683-.128-.517.036-1.039.076-1.567.126-.148.014-.293.025-.441.04-.736.075-1.483.165-2.24.268-.151.02-.304.042-.458.064a73.94 73.94 0 0 0-2.379.375 50.384 50.384 0 0 0-9.893 2.782 47.967 47.967 0 0 0-5.367 2.535 45.4 45.4 0 0 0-1.632.948c-.782.476-1.55.964-2.292 1.478a47.046 47.046 0 0 0-5.885 4.83c-.903.87-1.768 1.77-2.597 2.697a53.962 53.962 0 0 0-2.38 2.853 60.892 60.892 0 0 0-5.059 7.668 70.16 70.16 0 0 0-1.693 3.223 80.025 80.025 0 0 0-3.488 8.245 91.995 91.995 0 0 0-1.63 4.964 95.126 95.126 0 0 0-.473 1.64c-1.37 4.903-2.294 9.646-2.917 13.884a124.046 124.046 0 0 0-.663 5.32c-.724 7.027-.6 11.702-.6 11.702l.475.055 1.815.208c.673-4.006 3.75-20.104 11.66-33.536 7.26-12.329 16.378-13.262 18.942-13.265.212-.123.426-.246.641-.362l-.028.035-.028.034a5.875 5.875 0 0 0-.147.18l-.093.118c.23.008.355.022.355.022s-.125-.014-.355-.022l-.031.04a26.325 26.325 0 0 0-.256.333l-.138.183-.18.245-.158.218c-.07.096-.144.2-.219.307l-.174.247c-.083.12-.172.251-.261.383l-.18.265c-.1.15-.207.312-.313.475l-.172.264c-.13.203-.267.42-.405.641-.04.064-.078.123-.118.189-.365.59-.752 1.242-1.154 1.954-.047.083-.095.174-.143.259-.152.274-.306.552-.462.843-.067.123-.134.254-.201.38-.14.265-.28.533-.423.81l-.228.456c-.135.27-.27.542-.407.824l-.244.513a71.2 71.2 0 0 0-.398.854l-.252.563a61.309 61.309 0 0 0-.645 1.494c-.13.312-.26.632-.39.955-.082.206-.166.413-.248.624-.13.336-.26.68-.389 1.026-.078.21-.157.419-.234.633-.135.373-.267.756-.4 1.141-.068.2-.138.396-.205.6-.149.443-.293.899-.436 1.357-.049.157-.1.309-.148.467a75.491 75.491 0 0 0-1.079 3.913c-.047.192-.09.391-.137.585-.116.487-.231.976-.34 1.477-.057.258-.11.523-.163.785-.093.45-.186.9-.273 1.36-.055.292-.106.59-.159.885-.078.444-.156.889-.228 1.342-.05.315-.096.635-.143.955a79.924 79.924 0 0 0-.312 2.36 75.056 75.056 0 0 0-.247 2.43c-.041.472-.076.949-.11 1.428-.024.356-.049.712-.069 1.073a86.544 86.544 0 0 0-.076 1.729c1.49-1.667 4.342-4.329 8.964-6.685" mask="url(#j)"/>
            <path fill="#FFD3D4" d="M254.925 118.832l-.012.019c.004-.007.009-.013.012-.02M255.102 118.535c-.005.008-.01.015-.014.024l.014-.024M270.831 99.332c-.009-.037-.015-.077-.025-.113l-.004-.004.029.117M257.942 99.582c-4.807 4.28.385 5.98-2.268 8.437-2.486 2.302-3.92 7.843-.455 10.328l.079-.12s1.712 1.522 6.947 1.141c4.97-.362 9.937-13.76 8.631-19.835-2.55-1.129-9.016-3.44-12.934.05M248.199 122.859c1.636.27 3.19.626 4.667 1.053.141-.638.329-1.254.537-1.831-1.353-.141-3.768-.209-5.204.778M254.707 119.217l-.002.002.002-.002" mask="url(#j)"/>
            <path fill="#FFD3D4" d="M248.022 122.974c1.202.218 2.371.48 3.513.785.42.4.8.804 1.146 1.21.046-.356.108-.71.185-1.057a40.537 40.537 0 0 0-4.667-1.053c-.058.039-.122.072-.177.115M244.661 122.59c-1.69 4.693-3.185 9.316 3.364 11.2-6.55-1.884-5.054-6.507-3.364-11.2" mask="url(#j)"/>
            <path fill="#FFD3D4" d="M251.535 123.759a43.972 43.972 0 0 0-3.513-.785c-.014.012-.033.019-.047.031-2.202 1.818-3.391 8.225.05 10.786.131.038.259.076.397.111 2.95.762 5.665-1.244 4.428-5.716-.29-1.045-.307-2.145-.169-3.218a16.002 16.002 0 0 0-1.146-1.21" mask="url(#j)"/>
            <path fill="#001032" d="M265.444 260.995l-1.962-.409-1.279 2.103 9.877 6.645-4.03-7.797zM265.444 260.995l-1.962-.409 1.962.409zM218.828 261.909l-3.173 2.535 7.138 9.705-1.09-9.281-3.141-1.428z" mask="url(#j)"/>
            <path fill="#001032" d="M219.224 263.742l-.663-.301 3.141 1.426-2.14-2.203-.338 1.078M218.828 261.909l-.266 1.531z" mask="url(#j)"/>
            <path fill="#001032" d="M218.562 263.44l.662.301c.095-.3.21-.665.338-1.076l-.734-.756-.266 1.531z" mask="url(#j)"/>
            <path fill="#F1BDBC" d="M244.505 109.81c-.034-.031-.066-.064-.1-.097l.1.098M245.522 120.323c.41-1.024.817-1.997 1.145-2.917-.328.92-.734 1.893-1.145 2.917M270.882 99.535c-.015-.07-.035-.135-.051-.203.016.065.03.133.045.201l.006.002M244.693 122.503l.028-.077-.028.077M244.693 122.503l-.032.088.032-.088M248.025 133.79z" mask="url(#j)"/>
            <path fill="#F1BDBC" d="M244.72 122.426a46.3 46.3 0 0 1 3.478.433c1.437-.987 3.852-.92 5.204-.778a19.987 19.987 0 0 1 1.817-3.734c-3.465-2.485-2.032-8.025.455-10.328 2.653-2.457-2.538-4.156 2.268-8.437 3.918-3.49 10.384-1.178 12.934-.049a7.23 7.23 0 0 0-.074-.318c-.096-.106-5.217-5.678-14.088-2.397-7.098 2.625-6.685 9.246-8.41 9.246-1.242 0-3.285-3.537-4.856-1.063-1.24 1.956-.058 3.704.957 4.712l.1.098a10.802 10.802 0 0 0 .99.804c.232.166.44.337.623.513.185.177.347.358.487.543.421.557.652 1.158.74 1.799.029.214.042.432.04.655 0 .222-.015.45-.043.682a8.056 8.056 0 0 1-.119.71c-.101.481-.246.981-.42 1.498-.044.13-.089.26-.136.391-.328.92-.734 1.893-1.145 2.917a56.21 56.21 0 0 0-.693 1.805l-.108.298" mask="url(#j)"/>
            <path fill="#F1BDBC" d="M248.199 122.859a46.336 46.336 0 0 0-3.478-.433l-.028.077c1.139.119 2.249.275 3.33.47.054-.042.118-.075.176-.114" mask="url(#j)"/>
            <path fill="#F1BDBC" d="M247.975 123.005c.014-.012.033-.02.047-.031a44.834 44.834 0 0 0-3.33-.471l-.03.088c-1.692 4.692-3.187 9.315 3.363 11.2-3.441-2.56-2.252-8.968-.05-10.786" mask="url(#j)"/>
            <path fill="#001032" d="M243.92 109.216c-.552-.619-.993-1.306-1.268-2.056a5.243 5.243 0 0 1-.281-1.172 5.25 5.25 0 0 1 .084-1.704c.094-.445.246-.904.463-1.377.144-.315.317-.636.521-.963.102-.164.212-.329.33-.495.235-.333.502-.671.803-1.015.903-1.031 2.113-2.111 3.683-3.235a19.628 19.628 0 0 1 5.862-2.846 20.736 20.736 0 0 1 6.036-.846 19.2 19.2 0 0 1 1.64.088c.535.052 1.058.126 1.566.222 2.284.432 4.253 1.298 5.612 2.503a6.45 6.45 0 0 1 1.144 1.315 5.209 5.209 0 0 1 .663 1.482l.028.102v.001c7.23-2.45 8.278-18.413-6.777-18.404-19.719.011-18.169 13.35-18.169 13.35s-7.128-.96-8.531 6.097c-1.37 6.893 8.166 10.351 8.166 10.351s-.518-.333-1.09-.9a8.61 8.61 0 0 1-.485-.498" mask="url(#j)"/>
            <path fill="#001032" d="M270.802 99.215l.004.004-.028-.103c.009.032.015.067.024.1M243.92 109.216a8.417 8.417 0 0 1 0 0M270.778 99.117a5.253 5.253 0 0 0 0 0" mask="url(#j)"/>
            <path fill="#001032" d="M270.62 98.626c-.131-.345-.3-.676-.504-.992a6.435 6.435 0 0 0-1.145-1.314c-1.359-1.205-3.329-2.07-5.612-2.503a17.579 17.579 0 0 0-1.566-.222 18.977 18.977 0 0 0-1.64-.088 20.64 20.64 0 0 0-6.037.846c-2.029.6-4.03 1.534-5.861 2.845-1.57 1.124-2.78 2.205-3.683 3.236-.301.344-.568.682-.804 1.015-.117.166-.227.331-.33.495a8.572 8.572 0 0 0-.52.963 6.558 6.558 0 0 0-.463 1.377 5.248 5.248 0 0 0-.02 2.105c.052.264.126.52.217.77.275.751.717 1.438 1.268 2.056.153.172.316.337.485.498-1.014-1.008-2.198-2.756-.956-4.712 1.57-2.474 3.613 1.063 4.856 1.063 1.724 0 1.31-6.621 8.41-9.246 8.87-3.28 13.99 2.29 14.087 2.397-.009-.033-.015-.066-.024-.098-.048-.17-.1-.336-.158-.491" mask="url(#j)"/>
            <path fill="#FFD3D4" d="M183.506 202.92c1.779 2.566-1.902 3.474-.92 4.738.984 1.263 5.605 3.456 7.818-1.31 1.363-2.937-1.85-7.62-1.85-7.62l-6.197-.71s-.56 2.439 1.149 4.902" mask="url(#j)"/>
        </g>
        <g transform="translate(-54 518)">
            <mask id="l" fill="#fff">
                <use xlink:href="#k"/>
            </mask>
            <path d="M.546 6.122c0 3.114 14.466 5.64 41.736 5.64 27.27 0 49.378-2.526 49.378-5.64 0-3.115-22.107-5.64-49.378-5.64C15.012.481.546 3.006.546 6.121" mask="url(#l)"/>
        </g>
        <g transform="translate(326 428)">
            <mask id="n" fill="#fff">
                <use xlink:href="#m"/>
            </mask>
            <path d="M9.44 3.226a261.723 261.723 0 0 1-.613 3.164c-.212 1.057-.43 2.118-.652 3.181a598.538 598.538 0 0 1-1.027 4.807c-.233 1.073-.469 2.147-.704 3.225-.237 1.077-.473 2.157-.709 3.24a754.521 754.521 0 0 0-1.32 6.19 314.381 314.381 0 0 0-1.052 5.26c-.21 1.098-.414 2.198-.61 3.298-.39 2.203-.746 4.413-1.058 6.63-.157 1.108-.301 2.217-.433 3.328-.132 1.11-.25 2.222-.355 3.336a123.069 123.069 0 0 0-.268 3.343c-.073 1.116-.13 2.232-.17 3.35a99.287 99.287 0 0 0-.052 5.034 89.33 89.33 0 0 0 .22 5.044c.08 1.121.186 2.244.313 3.366.707 6.173 2.145 12.355 4.583 18.524a71.008 71.008 0 0 0 2.223 5.041c2.184 4.48 4.935 8.947 8.356 13.394.575-.119.89-.728.641-1.246-4.852-10.12-8.758-21.89-8.758-42.065 0-17.365 4.049-48.612 17.43-57.114 2.138-1.358 5.841-3.215 10.93-3.776 2.465-.272 3.511-.466 3.57-.68-6.983.594-16.807.634-29.928-.964a211.138 211.138 0 0 1-.556 3.09" mask="url(#n)"/>
        </g>
        <g transform="translate(353 455)">
            <mask id="p" fill="#fff">
                <use xlink:href="#o"/>
            </mask>
            <path d="M11.94 1.27C7.721 5.314 3.665 7.13 1.566 8.053l-.02.237.007-.183-.018.069a42.605 42.605 0 0 0-.083.34l-.05.214-.053.237a22.698 22.698 0 0 0-.117.546l-.056.265-.072.37-.056.295c-.026.136-.052.285-.077.43l-.056.32c-.027.156-.054.323-.08.489l-.055.342c-.027.176-.053.363-.08.549l-.05.358c-.026.193-.051.397-.076.6-.015.126-.032.25-.047.381-.024.207-.046.425-.069.64l-.042.409-.06.683c-.01.142-.024.28-.034.424-.018.238-.033.485-.048.73-.009.146-.019.288-.027.436-.013.25-.022.507-.032.763-.006.153-.013.302-.018.458-.007.259-.01.526-.014.792-.002.158-.006.313-.007.474 0 .269.003.544.006.82.002.163.002.323.005.488.007.279.019.563.03.845.006.168.01.332.02.502.014.286.035.577.055.866.011.171.02.34.034.514.023.29.054.584.083.877.018.177.032.352.053.53.032.293.073.588.113.884.024.182.045.364.072.548.043.296.096.595.146.893.032.185.058.369.092.555.055.3.12.6.182.902.039.187.073.372.115.56.067.3.145.6.219.9.047.19.09.38.14.57.08.297.169.594.256.891.058.195.11.39.17.585.092.295.196.589.296.884.067.195.128.391.2.587.106.294.225.587.341.88.077.196.148.391.23.587.12.29.254.579.386.868.088.195.17.392.262.587.137.287.288.57.435.855.1.194.194.39.298.584.153.283.322.562.486.843.112.191.217.385.333.575.174.283.364.562.55.84.122.185.234.37.362.553.2.288.416.57.629.853.127.169.245.341.376.51.24.304.498.602.753.902.12.14.23.285.353.424.386.436.789.864 1.21 1.285a50.757 50.757 0 0 0 2.448 2.293 55.357 55.357 0 0 0 3.828 3.069 61.295 61.295 0 0 0 2.607 1.808c10.893 7.153 21.888 9.582 21.888 9.582a1.99 1.99 0 0 0-1.2-2.827c-6.645-2.016-17.563-6.69-27.006-17.112-1.82-2.01-3.327-4.225-4.574-6.531-4.506-8.338-4.224-18.475.71-26.572a44.579 44.579 0 0 1 3.63-5.132C13.572 1.501 13.859.388 13.32.388c-.275 0-.764.29-1.382.883" mask="url(#p)"/>
        </g>
        <path fill="#0084E5" d="M346.927 406.756c8.142-14.49-10.296-15.579-24.938-34.817-10.831-14.233-13.32-28.889-13.558-33.939l-1.315.405-.048.016s-1.235 24.71 6.852 34.969c.356.452.717.901 1.08 1.349l.307.374c.265.323.53.646.796.966l.338.403c.269.32.538.642.809.962l.235.276c.527.62 1.057 1.238 1.587 1.855 1.72 2 3.446 3.992 5.116 6.03l.022.027c.517.632 1.028 1.268 1.532 1.91l.155.199c.465.596.923 1.198 1.374 1.805l.194.263c.447.607.885 1.223 1.314 1.846l.16.232c.444.65.876 1.31 1.296 1.981.049.077.095.155.143.231 2.684 4.56-.188 11.27 6.122 15.244l.001.004c.126.649.24 1.31.339 1.982l.019.123a44.33 44.33 0 0 1 .346 3.143c.033.445.062.895.084 1.351.013.267.022.538.03.808.017.516.027 1.036.028 1.565 0 .217-.003.436-.006.655a54.97 54.97 0 0 1-.046 1.796l-.027.49c-.035.67-.08 1.347-.14 2.038-.009.107-.021.217-.031.326-.07.748-.15 1.508-.251 2.283l-.021.156a71.309 71.309 0 0 1-.389 2.586c12.96 1.61 22.663 1.568 29.561.97.328-1.204-30.212-3.032-19.07-22.863"/>
        <g transform="translate(306 338)">
            <mask id="r" fill="#fff">
                <use xlink:href="#q"/>
            </mask>
            <path d="M.581.556L.533.57S-.69 25.195 7.323 35.417c.353.451.71.9 1.07 1.344.1.125.203.249.304.373.263.322.525.644.79.963.11.134.222.268.334.402.266.32.533.64.802.959l.232.274c.523.619 1.048 1.234 1.574 1.85 1.703 1.991 3.414 3.977 5.07 6.007l.02.028a110.39 110.39 0 0 1 1.519 1.904l.153.197c.461.594.915 1.194 1.361 1.8.065.087.13.173.193.26a71.22 71.22 0 0 1 1.301 1.84l.16.232c.439.648.867 1.306 1.284 1.974.048.076.093.154.141.231 2.66 4.544-.186 11.23 6.067 15.19v.003c.126.648.238 1.306.336 1.976l.02.122a44.672 44.672 0 0 1 .342 3.132c.034.444.062.892.084 1.347a63.07 63.07 0 0 1 .057 2.364c0 .216-.003.435-.005.653-.006.588-.02 1.183-.046 1.79l-.027.49a57.863 57.863 0 0 1-.138 2.03c-.01.106-.022.215-.031.323a63.76 63.76 0 0 1-.25 2.275l-.02.156a72.542 72.542 0 0 1-.385 2.577c12.842 1.603 22.457 1.563 29.292.968.325-1.201-29.938-3.022-18.896-22.784 8.067-14.439-10.203-15.525-24.712-34.695C4.586 19.789 2.119 5.184 1.884.152L.58.555z" mask="url(#r)"/>
        </g>
    </g>
</svg>
