<?xml version="1.0" encoding="utf-8"?>
<!-- Generator: Adobe Illustrator 22.0.1, SVG Export Plug-In . SVG Version: 6.00 Build 0)  -->
<svg version="1.1" id="Layer_1" xmlns="http://www.w3.org/2000/svg" xmlns:xlink="http://www.w3.org/1999/xlink" x="0px" y="0px"
	 viewBox="0 0 1349 672" style="enable-background:new 0 0 1349 672;" xml:space="preserve">
<style type="text/css">
	.st0{fill:#FFFFFF;}
	.st1{fill:#4F86FF;}
	.st2{fill:#3168FF;}
	.st3{fill:#CEDBFF;}
	.st4{fill:#3D6BF1;}
	.st5{fill:#FFFFFF;stroke:#3D6BF1;stroke-width:3;stroke-miterlimit:10;}
	.st6{fill:#0593FF;}
	.st7{fill:#FFD2D3;}
	.st8{fill:#F0BCBB;}
	.st9{fill:#FFBF53;}
	.st10{fill:#FFA040;}
	.st11{fill:#0093FF;}
	.st12{fill:#A3D4FA;}
	.st13{fill:#004B97;}
	.st14{fill:#E5F0FF;}
	.st15{fill:#FF6B12;}
	.st16{fill:none;stroke:#000E32;stroke-width:1.6806;stroke-miterlimit:10;}
	.st17{fill:#FFC046;}
	.st18{fill:#001634;}
	.st19{fill:#456DB9;}
	.st20{fill:none;}
	.st21{fill:#F4D2D3;}
	.st22{fill:#E3BCBB;}
	.st23{fill:#FF8B2E;}
	.st24{fill:none;stroke:#FFC046;stroke-width:2;stroke-miterlimit:10;}
</style>
<rect x="42" y="61" class="st0" width="1254" height="529.6"/>
<g>
	<path class="st1" d="M997.3,591.3c161,0,253.3-108.1,211.1-132c-42.2-23.9-211.1,57.9-211.1,105.1V591.3z"/>
	<g>
		<path class="st2" d="M1176.8,455.6c-63.8,6.9-179.5,69.7-179.5,108.7v19.5l-1.6,1.8c11.2-0.1,22-0.6,32.5-1.7
			C1098.4,562.8,1160.6,499,1176.8,455.6z"/>
	</g>
	<path class="st3" d="M989.8,587.3c110.2-8.3,204.6-151.8,175.7-173.5c-28.9-21.7-175.7,99.4-175.7,146.6V587.3z"/>
</g>
<path class="st3" d="M257.4,441.4c-17.9-5.2-15.8,21.2-26.4,12c-10.6-9.1,1.2-86.2-15.3-87S207,386.8,190,388
	c-17,1.2-10.5-63.9-37-57.6c-0.9,0.2-1.8,0.5-2.6,0.8c-24.5,9.2,16.6,52.7,1.5,62.9c-9.4,6.3-30-16.2-39.4,0.4
	c-12.8,22.5,43.4,28.3,37.1,40.1c-6.9,12.9-33.2-5.6-40.5,9.3c-8.1,16.5,49.4,40.1,54.3,56.9c4.9,16.7-36,0.1-38.9,20.2
	c-2.9,20.2,110.2,48.1,137.5,69.6h21h13.3C256.1,558.2,275.4,446.6,257.4,441.4z"/>
<path class="st0" d="M278.2,578.5c-0.2-0.2-22.6-21.5-47.3-55.5c-0.6-0.8-1.2-1.6-1.7-2.4c4.7-5.2,25.1-29.2,26.6-56.4
	c0.1-1-0.9-1.8-2-1.9c0,0-0.1,0-0.1,0c-1.1,0-2.1,0.7-2.1,1.7c-1.3,24.1-18.9,46.4-24.7,53.2c-10.9-15.4-22.8-34.5-33.3-55.9
	c17.5-20.6,18.5-50.1,18.5-51.3c0-1-0.9-1.8-2.1-1.8c0,0,0,0-0.1,0c-1.2,0-2.1,0.8-2.1,1.8c0,0.3-0.9,27.8-16.2,47.4
	c-10-21-18.5-44.3-23.3-68.6c-0.2-1-1.3-1.6-2.5-1.5c-1.2,0.2-2,1.1-1.8,2.1c1.9,9.5,4.3,18.9,7.2,28c-4.8-0.5-15.4-2.4-29-8.9
	c-1-0.5-2.3-0.2-2.9,0.7c-0.6,0.9-0.2,2,0.8,2.4c16,7.7,28.1,9.2,32.3,9.5c4.7,14.2,10.3,27.7,16.5,40.4c0.1,0.3,0.2,0.5,0.3,0.7
	c2.4,4.9,4.9,9.7,7.4,14.3c-11.5-2.9-42.5-11.4-56.8-22.2c-0.9-0.7-2.2-0.6-3,0.1c-0.8,0.7-0.7,1.9,0.2,2.5
	c17.2,13,55.5,22.3,62,23.8c8.5,15.3,17.5,29,25.7,40.6c0,0,0,0,0,0c0.9,1.2,1.7,2.4,2.6,3.6c4.1,5.7,8.2,11,12.1,16
	c-20,0.8-56.9-5.5-84.2-17c-1.1-0.4-2.3-0.1-2.9,0.8c-0.5,0.9-0.1,2,1,2.4c24.4,10.3,59.2,17.5,82.3,17.5c2.3,0,4.5-0.1,6.6-0.2
	c18.3,22.7,32.6,36.3,32.8,36.5c0.4,0.4,1,0.6,1.6,0.6c0.5,0,1-0.1,1.4-0.4C278.9,580.4,279,579.2,278.2,578.5z"/>
<g>
	<path class="st0" d="M281.3,613.7c-10.1,0-18.2-7.1-18.2-15.8V200c0-7.8,7.3-14.1,16.3-14.1h790.4c9,0,16.3,6.3,16.3,14.1v398
		c0,8.7-8.2,15.8-18.2,15.8L281.3,613.7L281.3,613.7z"/>
	<path class="st4" d="M1069.7,186.8c8.4,0,15.2,5.9,15.2,13.1v398c0,8.2-7.7,14.9-17.2,14.9H281.3c-9.5,0-17.2-6.7-17.2-14.9V200
		c0-7.2,6.8-13.1,15.2-13.1L1069.7,186.8 M1069.7,185H279.3c-9.6,0-17.3,6.7-17.3,15v398c0,9.2,8.6,16.7,19.3,16.7h786.4
		c10.7,0,19.3-7.5,19.3-16.7V200C1087,191.7,1079.3,185,1069.7,185L1069.7,185z"/>
</g>
<path class="st5" d="M1071.3,641H277.7c-18.2,0-35.2-6.1-45-16.2l-0.9-1c-3.5-3.7-0.4-9.1,5.2-9.1H1112c5.6,0,8.7,5.5,5.2,9.1
	l-0.9,1C1106.5,634.9,1089.5,641,1071.3,641z"/>
<path class="st6" d="M225.9,289.5l-37.6-1.2c0,0-4.4,5.5-10.2,5.3c1.1-0.8,2.4-3,2.5-5.6c-1-0.1-2.5-0.1-2.5-0.1
	c-8.8-0.3-15.8-7.7-15.5-16.5v0c0.3-8.8,7.7-15.8,16.5-15.5l47.8,1.5c8.8,0.3,15.8,7.7,15.5,16.5v0
	C242.1,282.8,234.7,289.7,225.9,289.5z"/>
<g>
	<circle class="st0" cx="189.5" cy="272" r="4.6"/>
	<circle class="st0" cx="204" cy="272.4" r="4.6"/>
	<circle class="st0" cx="218.4" cy="272.9" r="4.6"/>
</g>
<g>
	<g>
		<path class="st7" d="M210.8,324.8c-7.8,10.3-24.6,26.6-36.2,18s-25.3-24.7-36.3-18.1c-11,6.6,10.5,28.2,22.4,36.4
			s26.2,12,39.7-6.6c13.5-18.5,15.8-30.6,20.3-34.2c3.5-2.9-1.9-9.3-1.7-10.6s7.1-12.6-2.5-0.9c-2.5,3-5.2,6.6-4.2,8.9
			C213.3,320.1,212.4,322.7,210.8,324.8z"/>
		<g>
			<g>
				<g>
					<path class="st8" d="M138.4,324.7c4.9-3,10.5-1.3,16.1,2.2c0.7,7.2,4.4,28,23.1,32.6c22.7,5.7,36.3-39.9,39.7-41.1
						c2.4-0.9,4-2.3,3.8-4.3c1,2.2,1.6,4.7-0.3,6.2c-4.5,3.6-6.7,15.7-20.3,34.2c-13.5,18.5-27.9,14.8-39.7,6.6
						C148.9,352.8,127.4,331.2,138.4,324.7z"/>
				</g>
			</g>
		</g>
		<g>
			<path class="st9" d="M138.4,324.7c10.3-6.2,23.1,7.7,34.1,16.5c-10.5,5.5-9.3,17.2-8.2,22.2c-1.2-0.7-2.4-1.5-3.6-2.3
				C148.9,352.8,127.4,331.2,138.4,324.7z"/>
		</g>
		<g>
			<path class="st10" d="M138.4,324.7c5.2-3.1,10.9-1.2,16.8,2.6c1.1,8.7,3.3,17.5,9.2,23.9c-1.3,4.6-0.6,9.4,0,12.1
				c-1.2-0.7-2.4-1.5-3.6-2.3C148.9,352.8,127.4,331.2,138.4,324.7z"/>
		</g>
	</g>
	<path class="st11" d="M158.7,395.1c31.2,56.6,9.7,148.3-7,201.9l-9.9,0.1c0,0,11.9-109.6-6-152.4c0,0,1.7,57.4-24.9,78.1
		c-22.8,17.7-61.9,28.8-61.9,28.8l-2.8-9.6c0,0,49.3-23.1,49.5-49.2c0.4-40.5-6.4-76.5,12.8-97.4L158.7,395.1z"/>
	<path class="st9" d="M158.7,395.1c-10.7-32-2.8-34.8-0.2-44.9c3.7-14.2-6.5-28.8-6.5-28.8s-11.4-8.8-24.7-8.8
		c-6.2,0-15.7,5.4-19.8,9c-8.9,6.8-12.3,15.7-3.4,37.5c10.5,25.8,4.5,36.2,4.5,36.2L158.7,395.1z"/>
	<path class="st12" d="M141.9,597l9.9-0.1l18.2,8c0,0-15.1,0.4-23.4,0.4C141.4,605.4,142,602.5,141.9,597z"/>
	<g>
		<g>
			<g>
				<path class="st10" d="M107.5,321.7c4.1-3.6,13.6-9,19.8-9c13.3-0.1,24.7,8.8,24.7,8.8s1.9,2.3,3.7,6.2c-0.9,2.1-2.8,7.1-8.3,8.9
					c-6.7,2.1-17.8-6.4-24-6c-15.9,1.2-21.8,18.9-11.7,26.4c11,8.2,8.7,20.6,8.7,20.6s6.5,0,11.2-0.1c4.7,0,4,3.9,4,3.9l0.1,13.9
					l-27.1,0.1c0,0,6-10.3-4.5-36.2C95.2,337.4,98.6,328.5,107.5,321.7z"/>
			</g>
		</g>
	</g>
	<g>
		<g>
			<g>
				<path class="st10" d="M121.9,320.6c3.3,2,3.4,5.4,1.7,9.8c-11.6-0.9-23.2,8.2-27,17c-1.8-0.6-3.9-1.1-6.1-1.3
					C99.3,324,112.8,315.2,121.9,320.6z"/>
			</g>
		</g>
	</g>
	<g>
		<path class="st13" d="M146.2,597l-4.3,0c0,0,11.9-109.3-6-152.2C165,479.7,156.3,544.4,146.2,597z"/>
		<path class="st13" d="M95.8,492.7c0.4-40.5-6.4-76.5,12.8-97.4l26.9-0.1c-0.2,4.6-0.8,17.6-0.8,22.2c0,5.7-5.8,5.3-5.8,5.3
			s-9.7,0.1-14.5,0.1c-4.8,0-1.5,3.4-9.2,7.2s-1.1,20.6,1.6,51.4c2.7,30.5-23,49.6-59.4,64.3l-1.1-3.7
			C46.3,541.9,95.6,518.8,95.8,492.7z"/>
	</g>
	<g>
		<path class="st0" d="M80.3,380.3l49.3-0.3c1.4,0,2.5,1.1,2.6,2.5l0.2,34.7c0,1.4-1.1,2.5-2.5,2.6L80.5,420c-1.4,0-2.5-1.1-2.6-2.5
			l-0.2-34.7C77.8,381.4,78.9,380.3,80.3,380.3z"/>
		<ellipse transform="matrix(1 -5.314743e-03 5.314743e-03 1 -2.1246 0.5639)" class="st14" cx="105" cy="400" rx="6" ry="6.3"/>
	</g>
	<g>
		<path class="st7" d="M121.9,320.6c10.2,6.1-10.5,25.7-17.6,46.4s-6,44.8-2.8,52.9c0,0,3.1-0.1,6.7-0.1c-0.5,3.1-8.5,9.1-15.1-1.1
			c-6.6-10.2-15-36.7-4.6-67.4C97.2,325.4,112.1,314.8,121.9,320.6z"/>
		<g>
			<g>
				<path class="st8" d="M101.4,419.9c0.3,0.1,0.6,0.1,0.9,0.2C101.8,420,101.5,420,101.4,419.9C101.4,420,101.4,420,101.4,419.9z"
					/>
				<g>
					<path class="st8" d="M88.5,351.4c8.6-25.5,23.1-36.1,32.8-31.1l-24.4,26c-6.8,15-12.5,68.8,4.5,73.7c0,0,0,0,0,0.1
						c0,0,4.2-0.1,6.7-0.1c-0.5,3.1-8.5,9.1-15.1-1.1C86.5,408.6,78.1,382.1,88.5,351.4z"/>
				</g>
			</g>
		</g>
		<g>
			<path class="st9" d="M90.4,346c8.9-22.1,22.4-30.8,31.4-25.4c8.3,4.9-3.8,18.7-12.4,34.8C107.6,353.4,101,347.3,90.4,346z"/>
		</g>
	</g>
	<g>
		<path class="st8" d="M136.5,329.5c1.3,0.7,4.9,2.1,6.2,1.4c4.4-2.5-4.3-13.9-2.8-19.8c2.1-8,7.6-6.2,9.9-7.9
			c4-2.9,8.6-17.7,1.4-27c-7.2-9.3-17.3-6.1-21.3,0.5c-3.2,5.1-1.9,12.1,1.3,17.4c2.5,4.3,1.8,19.4-2.6,21.9
			C124.8,318.2,130.1,325.9,136.5,329.5z"/>
		<path class="st15" d="M155.7,327.6c4.5-9.9-0.2-20.1,2.4-34.2c2.6-14.1-3.5-31.6-22-27.7c-16,3.3-13.6,21.3-26.7,26.6
			c-17.3,7.1-5.5,24.8-22.6,34.9c-20.4,12.2-13.3,29.5-1.3,35.2c0,0,2.8-17.4,14-32.7c12.5-16.9,24.1-4,31.6-10.6
			c7.5-6.6,1.2-25.1,1.4-30.5c0.1-4.5,3.4-2.8,7.8-5.6c6-3.7,8.1-9.9,8.1-9.9s5.5,6.2,6.4,11.2c0,0,0.7,4.3-0.2,8.8
			c-0.8,3.8-3.2,8.9-4.7,9.8c-2.6,1.5-7.6,0.1-9.7,7.2c-1.4,3.1,1,8.6,1,8.6S148.3,321.8,155.7,327.6z"/>
		<g>
			<path class="st7" d="M141.1,289.7c7.3-1.9,7.9-12,7.9-12c3,2,5.2,6.4,6.1,10.6c0,6.8-2.7,13.2-5.2,14.9c-2.3,1.7-7.8-0.1-9.9,7.9
				c-0.4,1.6-0.1,3.5,0.5,5.6C136.5,308.4,134.1,291.6,141.1,289.7z"/>
		</g>
		<g>
			<path class="st16" d="M149.7,285.9c-0.2,3.9-2.5,6.1-7.4,4.9c-4.7-1.2-3.9-7.5-3.9-7.5l11.5,1.7L149.7,285.9z"/>
			<path class="st16" d="M152.1,286.6c-0.7,3.8,0.5,5.3,4.3,5.5c3.6,0.2,4.8-5.6,4.8-5.6l-8.9-1.1L152.1,286.6z"/>
			<line class="st16" x1="152.4" y1="285.4" x2="149.7" y2="285"/>
			<path class="st16" d="M152,289.1c-0.1-2.3-1.6-2.6-2.7-1"/>
		</g>
	</g>
	<path class="st12" d="M47.9,541.2l2.4,9.6l-3.4,19.6c0,0-4-14.6-6-22.6C39.6,542.7,42.6,542.6,47.9,541.2z"/>
</g>
<g>
	<g>
		<path class="st17" d="M1180.9,438.1c-12.1,67-29.3,146.8-29.3,146.8h11c0,0,31.8-63.3,54.1-154.8c0,0,5.9,79.1,0,154.8h11
			c0,0,24-103.4,25.5-191h-65.7C1185.9,407.5,1183.7,422.3,1180.9,438.1z"/>
		<path class="st6" d="M1250,336l18.6-2.5c0,0-4-44.8-40-50.3c-36-5.6-56.5,27.1-56.5,27.1l14.6,15.9l6-7c0,0,0.3,29.9-5.2,74.9
			h65.7C1253.6,373.2,1252.8,353.4,1250,336z"/>
	</g>
	<path class="st18" d="M1162.6,584.9l-3.2,7.9h-29.6c0,0,0.3-2.6,5.4-3.9c7-1.8,16.4-3.9,16.4-3.9L1162.6,584.9L1162.6,584.9z"/>
	<path class="st18" d="M1216.7,584.9l-1.2,7.9h21.4c0,0,2.6-4.5-4-5.5c-3.8-0.6-5.2-2.3-5.2-2.3L1216.7,584.9L1216.7,584.9z"/>
	<path class="st19" d="M1230.7,283.5c1.3,4.3-2.3,11.3-11.8,10.5c-10-0.8-7.8-8.8-5-11.2C1213.9,282.9,1223.5,281.4,1230.7,283.5z"
		/>
	<g>
		<path class="st20" d="M1230.6,262.3c0,0,0.1-0.1,0.1-0.1c-0.8,0.6-1.5,0.8-1.5,0.8c0.3-0.1,0.6-0.3,0.9-0.5
			C1230.3,262.4,1230.4,262.3,1230.6,262.3z"/>
		<path class="st21" d="M1226.3,266.1c0.3-0.8,0.7-1.5,1.3-2C1226.9,264.6,1226.5,265.3,1226.3,266.1z"/>
		<path class="st21" d="M1215.9,270.7C1215.9,270.8,1215.9,270.8,1215.9,270.7C1215.9,270.8,1215.9,270.8,1215.9,270.7z"/>
		<path class="st21" d="M1215.8,270.3C1215.8,270.3,1215.8,270.4,1215.8,270.3C1215.8,270.4,1215.8,270.3,1215.8,270.3z"/>
		<path class="st21" d="M1228.3,263.5c0.3-0.2,0.6-0.3,0.9-0.5C1228.9,263.1,1228.6,263.3,1228.3,263.5z"/>
		<path class="st21" d="M1201.9,242.2c0,0,0-0.1,0.1-0.1c0,0,0,0,0,0C1201.9,242.2,1201.9,242.2,1201.9,242.2z"/>
		<path class="st21" d="M1226,266.9c0.1-0.3,0.1-0.5,0.2-0.8C1226.2,266.3,1226.1,266.6,1226,266.9z"/>
		<path class="st21" d="M1217.2,246c4.6,6.6,3.2,21.9-1.5,24.1l0,0c0-0.1-0.1-0.2-0.1-0.2s-2.4,1.4-8.6-0.4
			c-5.8-1.8-8.3-19.8-5.3-27C1205.1,241.8,1213.4,240.6,1217.2,246z"/>
		<g>
			<path class="st21" d="M1216.9,275.2L1216.9,275.2L1216.9,275.2z"/>
			<path class="st21" d="M1217.1,277.6c0-0.8-0.1-1.7-0.2-2.4c1.6,0.2,4.5,0.7,6,2.3c0.1,0.1,0.1,0.1,0.2,0.2c0,0,0,0,0,0.1
				c2.2,2.8,2,11.1-2.8,13.4c-0.2,0-0.3,0-0.5,0c-3.7,0.2-6.4-3-3.8-8.3c0.6-1.2,0.9-2.6,1-4C1217,278.5,1217.1,278.1,1217.1,277.6z
				"/>
		</g>
		<path class="st22" d="M1225.9,267.7c0-0.3,0.1-0.6,0.1-0.9C1226,267.2,1225.9,267.4,1225.9,267.7z"/>
		<path class="st22" d="M1230.6,262.3c0,0,0.1-0.1,0.1-0.1l0,0C1230.6,262.2,1230.6,262.2,1230.6,262.3z"/>
		<path class="st22" d="M1215.9,270.8c0,0.2,0.1,0.3,0.2,0.5C1216,271.1,1215.9,270.9,1215.9,270.8z"/>
		<path class="st22" d="M1229.2,263c0.3-0.1,0.6-0.3,0.9-0.5C1229.8,262.7,1229.5,262.9,1229.2,263z"/>
		<path class="st22" d="M1215.8,270.4c0,0.1,0.1,0.2,0.1,0.4C1215.8,270.6,1215.8,270.5,1215.8,270.4z"/>
		<path class="st22" d="M1226,270.6c-0.1-0.7-0.1-1.3-0.1-2C1225.9,269.3,1225.9,269.9,1226,270.6z"/>
		<path class="st22" d="M1226.7,275.1c-0.2-1.4-0.5-2.7-0.6-3.9C1226.2,272.4,1226.5,273.7,1226.7,275.1z"/>
		<path class="st22" d="M1225.9,268.7c0-0.3,0-0.6,0-0.9C1225.9,268,1225.9,268.3,1225.9,268.7z"/>
		<path class="st22" d="M1215.7,270.1c0,0.1,0.1,0.2,0.1,0.3C1215.7,270.2,1215.7,270.1,1215.7,270.1z"/>
		<path class="st22" d="M1201.8,242.5c0-0.1,0.1-0.2,0.1-0.2C1201.9,242.3,1201.8,242.4,1201.8,242.5
			C1201.8,242.5,1201.8,242.5,1201.8,242.5z"/>
		<path class="st22" d="M1201.9,242.2c0,0,0-0.1,0.1-0.1c0.1-0.1,7.6-5.7,17.4,0.7c7.8,5.1,5.6,13.3,7.7,13.7c1.5,0.3,5-2.8,6.3,0.6
			c0.9,2.3-1.1,4-2.6,4.9c0,0-0.1,0.1-0.1,0.1c-0.1,0.1-0.3,0.2-0.4,0.3c-0.3,0.2-0.6,0.3-0.9,0.5c-0.3,0.1-0.6,0.3-0.9,0.5
			c-0.3,0.2-0.5,0.4-0.7,0.5c-0.6,0.6-1.1,1.3-1.3,2c-0.1,0.3-0.2,0.5-0.2,0.8c-0.1,0.3-0.1,0.6-0.1,0.9c0,0.3,0,0.6,0,0.9
			c0,0.6,0,1.3,0.1,2c0,0.2,0,0.3,0.1,0.5c0.2,1.2,0.4,2.6,0.6,3.9c0.1,0.8,0.3,1.6,0.4,2.4c0,0.1,0,0.3,0.1,0.4c0,0,0,0.1,0,0.1
			c0,0,0,0.1,0,0.1c0.8,6.3,1.4,12.5-6.8,13.1l0,0c4.7-2.3,4.9-10.6,2.8-13.4c0,0,0,0,0-0.1c-0.1-0.1-0.1-0.1-0.2-0.2
			c-1.5-1.6-4.4-2.2-6-2.3l0,0c-0.2-1.6-0.5-2.9-0.8-3.9l0,0c-0.1-0.2-0.1-0.4-0.2-0.5c0,0,0,0,0,0c0-0.1-0.1-0.3-0.1-0.4
			c0,0,0,0,0,0c0-0.1-0.1-0.2-0.1-0.3c4.8-2.2,6.1-17.5,1.5-24.1c-3.8-5.4-12.1-4.2-15.4-3.5
			C1201.8,242.4,1201.9,242.3,1201.9,242.2z"/>
		<path class="st18" d="M1201.9,242.1C1201.9,242.1,1201.9,242.1,1201.9,242.1c0,0,0-0.1,0.1-0.1C1202,242,1202,242.1,1201.9,242.1z
			"/>
		<path class="st18" d="M1231.4,261.7c-0.2,0.2-0.5,0.3-0.7,0.5l0,0C1230.9,262,1231.2,261.8,1231.4,261.7z"/>
		<path class="st18" d="M1211.6,222.2c16,2.1,21.9,19.5,21.9,19.5s8.3,3.1,8,10.7c-0.4,8.9-12.3,10.7-12.3,10.7s0.7-0.3,1.5-0.8
			c0,0,0,0,0,0c1.5-1,3.9-3.2,2.3-5.6c-1.6-2.6-4.6,0.4-6,0c-2.1-0.5,0.1-8.6-7.7-13.7c-9.7-6.4-17.2-0.8-17.4-0.7c0,0,0,0,0,0l0,0
			C1193.9,237.2,1194.4,219.9,1211.6,222.2z"/>
	</g>
	<path class="st19" d="M1250,336l-0.8-12.2c0,0-4.9,0.7-6.3,20.4c-1.3,18.5-1.7,30.5-1.7,49.7h6.8C1248,393.9,1249.9,358.3,1250,336
		z"/>
	<g>
		<path class="st23" d="M1192.4,485.4c-6.6,20.7-22.8,71.5-31.8,99.5h2c0,0,31.6-62.9,53.9-154
			C1210.1,428.7,1201.6,456.5,1192.4,485.4z"/>
		<path class="st23" d="M1253.3,393.9h-12c-0.1,69.8-13.9,170.1-16.9,191h3.4C1227.8,584.9,1251.8,481.6,1253.3,393.9z"/>
	</g>
	<g>
		<path class="st0" d="M1278.1,380.7h-58.6c-1,0-1.9,0.9-1.9,2v41.6c0,1.1,0.8,2,1.9,2h58.6c1,0,1.9-0.9,1.9-2v-41.6
			C1280,381.5,1279.2,380.7,1278.1,380.7z"/>
		<path class="st21" d="M1250,336c0,13.5-0.6,29.9-1.3,44.6c-1,21.2-2.3,38.7-2.3,38.7c-5.8,3.8-4.4,6.9-4.4,6.9h-2.8
			c0,2.2,3.3,2.5,6.5,2.4c3.3-0.1,6-2,7.7-8.9c10.3-38.8,10.3-85.6,10.3-85.6L1250,336z"/>
	</g>
	<path class="st21" d="M1172.1,310.2l-10.5,12.5L1131,295c-7.6-6.5-12.8-6.9-16.3-5.9c-3.5,1-4.2,2.6-3.7,2.8c0.4,0.2,1.1,0,2.3,0
		c1.5,0-1.2,0.9-1.6,1.1c-2.5,0.9-12,4.3-9.2,5.7c6.1,3.1,19.3-4.5,22.9,0.5c0,0,26.5,36.5,33,45c4.5,5.9,25.2-21.5,25.2-21.5
		L1172.1,310.2z"/>
	<path class="st3" d="M1240.2,426.2c0,0-1.3-3.1,4.4-6.9c0,0,1.3-17.6,2.3-38.7h1.9c-1,21.2-2.3,38.7-2.3,38.7
		c-5.8,3.8-4.4,6.9-4.4,6.9H1240.2z"/>
	<g>
		<g>
			<path class="st22" d="M1160,340.4c-2.5-1-2.2-6.9-16.4-22.8c-11.9-13.4-15.5-19.9-20.7-19.9c1,0.2,1.9,0.7,2.5,1.5
				c0,0,26.5,36.5,33,45c4.5,5.9,25.2-21.5,25.2-21.5l-2.7-2.9C1172.8,328.9,1162.2,341.2,1160,340.4z"/>
		</g>
	</g>
</g>
<path class="st17" d="M1111.4,255.6l2.6,5.3c0.2,0.5,0.7,0.8,1.2,0.9l5.8,0.8c1.3,0.2,1.8,1.8,0.9,2.7l-4.2,4.1
	c-0.4,0.4-0.5,0.9-0.4,1.4l1,5.8c0.2,1.3-1.1,2.3-2.3,1.7l-5.2-2.7c-0.5-0.2-1-0.2-1.5,0l-5.2,2.7c-1.2,0.6-2.5-0.4-2.3-1.7l1-5.8
	c0.1-0.5-0.1-1-0.4-1.4l-4.2-4.1c-0.9-0.9-0.4-2.5,0.9-2.7l5.8-0.8c0.5-0.1,0.9-0.4,1.2-0.9l2.6-5.3
	C1109.2,254.4,1110.9,254.4,1111.4,255.6z"/>
<g>
	<path class="st3" d="M630.6,37c-9.9-7.4-94.7,14.2-114.3,28.3c3.9,1,29.1,10,29.1,10L630.6,37z"/>
	<polygon class="st4" points="545.5,75.3 553.8,99.5 630.6,37 	"/>
	<polygon class="st6" points="552.7,79.6 553.8,99.5 630.6,37 	"/>
	<path class="st3" d="M630.6,37l-7.1,3.2l-70.8,39.4c0,0,30.6,18.7,40.8,24.6C612.1,89.6,636.3,40.1,630.6,37z"/>
</g>
<path class="st24" d="M193.2,245.7c-18.2-55.4-87.6-77.5-133-60c-57.2,22-47.8,82.7-1,84.6C156.6,274.4,279,136,257.8,41.2
	C237.3-1.9,179.5,21.3,201.7,64C216,91.8,392.3,140.9,537,85"/>
</svg>
