<?xml version="1.0" encoding="utf-8"?>
<!-- Generator: Adobe Illustrator 22.0.1, SVG Export Plug-In . SVG Version: 6.00 Build 0)  -->
<svg version="1.1" id="Layer_1" xmlns="http://www.w3.org/2000/svg" xmlns:xlink="http://www.w3.org/1999/xlink" x="0px" y="0px"
	 viewBox="0 0 1284 726" style="enable-background:new 0 0 1284 726;" xml:space="preserve">
<style type="text/css">
	.st0{fill:#FFFFFF;}
	.st1{fill:#4F86FF;}
	.st2{fill:#3168FF;}
	.st3{fill:#CEDBFF;}
	.st4{fill:#3D6BF1;}
	.st5{fill:#FFFFFF;stroke:#3D6BF1;stroke-width:3;stroke-miterlimit:10;}
	.st6{fill:#004B97;}
	.st7{fill:#FFD2D3;}
	.st8{fill:#F0BCBB;}
	.st9{fill:#FFBF53;}
	.st10{fill:#FFA040;}
	.st11{fill:#0093FF;}
	.st12{fill:#A3D4FA;}
	.st13{fill:#E5F0FF;}
	.st14{fill:#FF6B12;}
	.st15{fill:none;stroke:#000E32;stroke-width:1.6806;stroke-miterlimit:10;}
	.st16{fill:#FFC046;}
	.st17{fill:#0593FF;}
	.st18{fill:#001634;}
	.st19{fill:#456DB9;}
	.st20{fill:none;}
	.st21{fill:#F4D2D3;}
	.st22{fill:#E3BCBB;}
	.st23{fill:#FF8B2E;}
	.st24{fill:none;stroke:#FFC046;stroke-width:2;stroke-miterlimit:10;}
</style>
<rect x="30" y="77" class="st0" width="1254" height="529.6"/>
<g>
	<path class="st1" d="M985.3,607.3c161,0,253.3-108.1,211.1-132c-42.2-23.9-211.1,57.9-211.1,105.1V607.3z"/>
	<g>
		<path class="st2" d="M1164.8,471.6c-63.8,6.9-179.5,69.7-179.5,108.7v19.5l-1.6,1.8c11.2-0.1,22-0.6,32.5-1.7
			C1086.4,578.8,1148.6,515,1164.8,471.6z"/>
	</g>
	<path class="st3" d="M977.8,603.3c110.2-8.3,204.6-151.8,175.7-173.5c-28.9-21.7-175.7,99.4-175.7,146.6V603.3z"/>
</g>
<path class="st3" d="M245.4,457.4c-17.9-5.2-15.8,21.2-26.4,12c-10.6-9.1,1.2-86.2-15.3-87S195,402.8,178,404
	c-17,1.2-10.5-63.9-37-57.6c-0.9,0.2-1.8,0.5-2.6,0.8c-24.5,9.2,16.6,52.7,1.5,62.9c-9.4,6.3-30-16.2-39.4,0.4
	c-12.8,22.5,43.4,28.3,37.1,40.1c-6.9,12.9-33.2-5.6-40.5,9.3c-8.1,16.5,49.4,40.1,54.3,56.9c4.9,16.7-36,0.1-38.9,20.2
	c-2.9,20.2,110.2,48.1,137.5,69.6h21h13.3C244.1,574.2,263.4,462.6,245.4,457.4z"/>
<path class="st0" d="M266.2,594.5c-0.2-0.2-22.6-21.5-47.3-55.5c-0.6-0.8-1.2-1.6-1.7-2.4c4.7-5.2,25.1-29.2,26.6-56.4
	c0.1-1-0.9-1.8-2-1.9c0,0-0.1,0-0.1,0c-1.1,0-2.1,0.7-2.1,1.7c-1.3,24.1-18.9,46.4-24.7,53.2c-10.9-15.4-22.8-34.5-33.3-55.9
	c17.5-20.6,18.5-50.1,18.5-51.3c0-1-0.9-1.8-2.1-1.8c0,0,0,0-0.1,0c-1.2,0-2.1,0.8-2.1,1.8c0,0.3-0.9,27.8-16.2,47.4
	c-10-21-18.5-44.3-23.3-68.6c-0.2-1-1.3-1.6-2.5-1.5c-1.2,0.2-2,1.1-1.8,2.1c1.9,9.5,4.3,18.9,7.2,28c-4.8-0.5-15.4-2.4-29-8.9
	c-1-0.5-2.3-0.2-2.9,0.7c-0.6,0.9-0.2,2,0.8,2.4c16,7.7,28.1,9.2,32.3,9.5c4.7,14.2,10.3,27.7,16.5,40.4c0.1,0.3,0.2,0.5,0.3,0.7
	c2.4,4.9,4.9,9.7,7.4,14.3c-11.5-2.9-42.5-11.4-56.8-22.2c-0.9-0.7-2.2-0.6-3,0.1s-0.7,1.9,0.2,2.5c17.2,13,55.5,22.3,62,23.8
	c8.5,15.3,17.5,29,25.7,40.6c0,0,0,0,0,0c0.9,1.2,1.7,2.4,2.6,3.6c4.1,5.7,8.2,11,12.1,16c-20,0.8-56.9-5.5-84.2-17
	c-1.1-0.4-2.3-0.1-2.9,0.8c-0.5,0.9-0.1,2,1,2.4c24.4,10.3,59.2,17.5,82.3,17.5c2.3,0,4.5-0.1,6.6-0.2
	c18.3,22.7,32.6,36.3,32.8,36.5c0.4,0.4,1,0.6,1.6,0.6c0.5,0,1-0.1,1.4-0.4C266.9,596.4,267,595.2,266.2,594.5z"/>
<g>
	<path class="st0" d="M269.3,707.4c-10.1,0-18.2-9.7-18.2-21.5V143.4c0-10.6,7.3-19.2,16.3-19.2h790.4c9,0,16.3,8.6,16.3,19.2v542.5
		c0,11.9-8.2,21.5-18.2,21.5L269.3,707.4L269.3,707.4z"/>
	<path class="st4" d="M1057.7,125.5c8.4,0,15.2,8,15.2,17.9v542.5c0,11.2-7.7,20.3-17.2,20.3H269.3c-9.5,0-17.2-9.1-17.2-20.3V143.4
		c0-9.9,6.8-17.9,15.2-17.9L1057.7,125.5 M1057.7,123H267.3c-9.6,0-17.3,9.2-17.3,20.4v542.5c0,12.6,8.6,22.8,19.3,22.8h786.4
		c10.7,0,19.3-10.2,19.3-22.8V143.4C1075,132.1,1067.3,123,1057.7,123L1057.7,123z"/>
</g>
<path class="st5" d="M1059.3,725H265.7c-18.2,0-35.2-6.1-45-16.2l-0.9-1c-3.5-3.7-0.4-9.1,5.2-9.1H1100c5.6,0,8.7,5.5,5.2,9.1
	l-0.9,1C1094.5,718.9,1077.5,725,1059.3,725z"/>
<g>
	<path class="st6" d="M213.9,305.5l-37.6-1.2c0,0-4.4,5.5-10.2,5.3c1.1-0.8,2.4-3,2.5-5.6c-1-0.1-2.5-0.1-2.5-0.1
		c-8.8-0.3-15.8-7.7-15.5-16.5v0c0.3-8.8,7.7-15.8,16.5-15.5l47.8,1.5c8.8,0.3,15.8,7.7,15.5,16.5v0
		C230.1,298.8,222.7,305.7,213.9,305.5z"/>
	<g>
		<circle class="st0" cx="177.5" cy="288" r="4.6"/>
		<circle class="st0" cx="192" cy="288.4" r="4.6"/>
		<circle class="st0" cx="206.4" cy="288.9" r="4.6"/>
	</g>
</g>
<g>
	<g>
		<path class="st7" d="M198.8,340.8c-7.8,10.3-24.6,26.6-36.2,18s-25.3-24.7-36.3-18.1c-11,6.6,10.5,28.2,22.4,36.4
			s26.2,12,39.7-6.6c13.5-18.5,15.8-30.6,20.3-34.2c3.5-2.9-1.9-9.3-1.7-10.6s7.1-12.6-2.5-0.9c-2.5,3-5.2,6.6-4.2,8.9
			C201.3,336.1,200.4,338.7,198.8,340.8z"/>
		<g>
			<g>
				<g>
					<path class="st8" d="M126.4,340.7c4.9-3,10.5-1.3,16.1,2.2c0.7,7.2,4.4,28,23.1,32.6c22.7,5.7,36.3-39.9,39.7-41.1
						c2.4-0.9,4-2.3,3.8-4.3c1,2.2,1.6,4.7-0.3,6.2c-4.5,3.6-6.7,15.7-20.3,34.2c-13.5,18.5-27.9,14.8-39.7,6.6
						C136.9,368.8,115.4,347.2,126.4,340.7z"/>
				</g>
			</g>
		</g>
		<g>
			<path class="st9" d="M126.4,340.7c10.3-6.2,23.1,7.7,34.1,16.5c-10.5,5.5-9.3,17.2-8.2,22.2c-1.2-0.7-2.4-1.5-3.6-2.3
				C136.9,368.8,115.4,347.2,126.4,340.7z"/>
		</g>
		<g>
			<path class="st10" d="M126.4,340.7c5.2-3.1,10.9-1.2,16.8,2.6c1.1,8.7,3.3,17.5,9.2,23.9c-1.3,4.6-0.6,9.4,0,12.1
				c-1.2-0.7-2.4-1.5-3.6-2.3C136.9,368.8,115.4,347.2,126.4,340.7z"/>
		</g>
	</g>
	<path class="st11" d="M146.7,411.1c31.2,56.6,9.7,148.3-7,201.9l-9.9,0.1c0,0,11.9-109.6-6-152.4c0,0,1.7,57.4-24.9,78.1
		c-22.8,17.7-61.9,28.8-61.9,28.8l-2.8-9.6c0,0,49.3-23.1,49.5-49.2c0.4-40.5-6.4-76.5,12.8-97.4L146.7,411.1z"/>
	<path class="st9" d="M146.7,411.1c-10.7-32-2.8-34.8-0.2-44.9c3.7-14.2-6.5-28.8-6.5-28.8s-11.4-8.8-24.7-8.8
		c-6.2,0-15.7,5.4-19.8,9c-8.9,6.8-12.3,15.7-3.4,37.5c10.5,25.8,4.5,36.2,4.5,36.2L146.7,411.1z"/>
	<path class="st12" d="M129.9,613l9.9-0.1l18.2,8c0,0-15.1,0.4-23.4,0.4C129.4,621.4,130,618.5,129.9,613z"/>
	<g>
		<g>
			<g>
				<path class="st10" d="M95.5,337.7c4.1-3.6,13.6-9,19.8-9c13.3-0.1,24.7,8.8,24.7,8.8s1.9,2.3,3.7,6.2c-0.9,2.1-2.8,7.1-8.3,8.9
					c-6.7,2.1-17.8-6.4-24-6c-15.9,1.2-21.8,18.9-11.7,26.4c11,8.2,8.7,20.6,8.7,20.6s6.5,0,11.2-0.1c4.7,0,4,3.9,4,3.9l0.1,13.9
					l-27.1,0.1c0,0,6-10.3-4.5-36.2C83.2,353.4,86.6,344.5,95.5,337.7z"/>
			</g>
		</g>
	</g>
	<g>
		<g>
			<g>
				<path class="st10" d="M109.9,336.6c3.3,2,3.4,5.4,1.7,9.8c-11.6-0.9-23.2,8.2-27,17c-1.8-0.6-3.9-1.1-6.1-1.3
					C87.3,340,100.8,331.2,109.9,336.6z"/>
			</g>
		</g>
	</g>
	<g>
		<path class="st6" d="M134.2,613l-4.3,0c0,0,11.9-109.3-6-152.2C153,495.7,144.3,560.4,134.2,613z"/>
		<path class="st6" d="M83.8,508.7c0.4-40.5-6.4-76.5,12.8-97.4l26.9-0.1c-0.2,4.6-0.8,17.6-0.8,22.2c0,5.7-5.8,5.3-5.8,5.3
			s-9.7,0.1-14.5,0.1c-4.8,0-1.5,3.4-9.2,7.2s-1.1,20.6,1.6,51.4c2.7,30.5-23,49.6-59.4,64.3l-1.1-3.7
			C34.3,557.9,83.6,534.8,83.8,508.7z"/>
	</g>
	<g>
		<path class="st0" d="M68.3,396.3l49.3-0.3c1.4,0,2.5,1.1,2.6,2.5l0.2,34.7c0,1.4-1.1,2.5-2.5,2.6L68.5,436c-1.4,0-2.5-1.1-2.6-2.5
			l-0.2-34.7C65.8,397.4,66.9,396.3,68.3,396.3z"/>
		<ellipse transform="matrix(1 -5.314743e-03 5.314743e-03 1 -2.2098 0.5004)" class="st13" cx="93" cy="416" rx="6" ry="6.3"/>
	</g>
	<g>
		<path class="st7" d="M109.9,336.6c10.2,6.1-10.5,25.7-17.6,46.4s-6,44.8-2.8,52.9c0,0,3.1-0.1,6.7-0.1c-0.5,3.1-8.5,9.1-15.1-1.1
			c-6.6-10.2-15-36.7-4.6-67.4C85.2,341.4,100.1,330.8,109.9,336.6z"/>
		<g>
			<g>
				<path class="st8" d="M89.4,435.9c0.3,0.1,0.6,0.1,0.9,0.2C89.8,436,89.5,436,89.4,435.9C89.4,436,89.4,436,89.4,435.9z"/>
				<g>
					<path class="st8" d="M76.5,367.4c8.6-25.5,23.1-36.1,32.8-31.1l-24.4,26c-6.8,15-12.5,68.8,4.5,73.7c0,0,0,0,0,0.1
						c0,0,4.2-0.1,6.7-0.1c-0.5,3.1-8.5,9.1-15.1-1.1C74.5,424.6,66.1,398.1,76.5,367.4z"/>
				</g>
			</g>
		</g>
		<g>
			<path class="st9" d="M78.4,362c8.9-22.1,22.4-30.8,31.4-25.4c8.3,4.9-3.8,18.7-12.4,34.8C95.6,369.4,89,363.3,78.4,362z"/>
		</g>
	</g>
	<g>
		<path class="st8" d="M124.5,345.5c1.3,0.7,4.9,2.1,6.2,1.4c4.4-2.5-4.3-13.9-2.8-19.8c2.1-8,7.6-6.2,9.9-7.9
			c4-2.9,8.6-17.7,1.4-27c-7.2-9.3-17.3-6.1-21.3,0.5c-3.2,5.1-1.9,12.1,1.3,17.4c2.5,4.3,1.8,19.4-2.6,21.9
			C112.8,334.2,118.1,341.9,124.5,345.5z"/>
		<path class="st14" d="M143.7,343.6c4.5-9.9-0.2-20.1,2.4-34.2c2.6-14.1-3.5-31.6-22-27.7c-16,3.3-13.6,21.3-26.7,26.6
			c-17.3,7.1-5.5,24.8-22.6,34.9c-20.4,12.2-13.3,29.5-1.3,35.2c0,0,2.8-17.4,14-32.7c12.5-16.9,24.1-4,31.6-10.6
			c7.5-6.6,1.2-25.1,1.4-30.5c0.1-4.5,3.4-2.8,7.8-5.6c6-3.7,8.1-9.9,8.1-9.9s5.5,6.2,6.4,11.2c0,0,0.7,4.3-0.2,8.8
			c-0.8,3.8-3.2,8.9-4.7,9.8c-2.6,1.5-7.6,0.1-9.7,7.2c-1.4,3.1,1,8.6,1,8.6S136.3,337.8,143.7,343.6z"/>
		<g>
			<path class="st7" d="M129.1,305.7c7.3-1.9,7.9-12,7.9-12c3,2,5.2,6.4,6.1,10.6c0,6.8-2.7,13.2-5.2,14.9c-2.3,1.7-7.8-0.1-9.9,7.9
				c-0.4,1.6-0.1,3.5,0.5,5.6C124.5,324.4,122.1,307.6,129.1,305.7z"/>
		</g>
		<g>
			<path class="st15" d="M137.7,301.9c-0.2,3.9-2.5,6.1-7.4,4.9c-4.7-1.2-3.9-7.5-3.9-7.5l11.5,1.7L137.7,301.9z"/>
			<path class="st15" d="M140.1,302.6c-0.7,3.8,0.5,5.3,4.3,5.5c3.6,0.2,4.8-5.6,4.8-5.6l-8.9-1.1L140.1,302.6z"/>
			<line class="st15" x1="140.4" y1="301.4" x2="137.7" y2="301"/>
			<path class="st15" d="M140,305.1c-0.1-2.3-1.6-2.6-2.7-1"/>
		</g>
	</g>
	<path class="st12" d="M35.9,557.2l2.4,9.6l-3.4,19.6c0,0-4-14.6-6-22.6C27.6,558.7,30.6,558.6,35.9,557.2z"/>
</g>
<g>
	<g>
		<path class="st16" d="M1168.9,454.1c-12.1,67-29.3,146.8-29.3,146.8h11c0,0,31.8-63.3,54.1-154.8c0,0,5.9,79.1,0,154.8h11
			c0,0,24-103.4,25.5-191h-65.7C1173.9,423.5,1171.7,438.3,1168.9,454.1z"/>
		<path class="st17" d="M1238,352l18.6-2.5c0,0-4-44.8-40-50.3c-36-5.6-56.5,27.1-56.5,27.1l14.6,15.9l6-7c0,0,0.3,29.9-5.2,74.9
			h65.7C1241.6,389.2,1240.8,369.4,1238,352z"/>
	</g>
	<path class="st18" d="M1150.6,600.9l-3.2,7.9h-29.6c0,0,0.3-2.6,5.4-3.9c7-1.8,16.4-3.9,16.4-3.9L1150.6,600.9L1150.6,600.9z"/>
	<path class="st18" d="M1204.7,600.9l-1.2,7.9h21.4c0,0,2.6-4.5-4-5.5c-3.8-0.6-5.2-2.3-5.2-2.3L1204.7,600.9L1204.7,600.9z"/>
	<path class="st19" d="M1218.7,299.5c1.3,4.3-2.3,11.3-11.8,10.5c-10-0.8-7.8-8.8-5-11.2C1201.9,298.9,1211.5,297.4,1218.7,299.5z"
		/>
	<g>
		<path class="st20" d="M1218.6,278.3c0,0,0.1-0.1,0.1-0.1c-0.8,0.6-1.5,0.8-1.5,0.8c0.3-0.1,0.6-0.3,0.9-0.5
			C1218.3,278.4,1218.4,278.3,1218.6,278.3z"/>
		<path class="st21" d="M1214.3,282.1c0.3-0.8,0.7-1.5,1.3-2C1214.9,280.6,1214.5,281.3,1214.3,282.1z"/>
		<path class="st21" d="M1203.9,286.7C1203.9,286.8,1203.9,286.8,1203.9,286.7C1203.9,286.8,1203.9,286.8,1203.9,286.7z"/>
		<path class="st21" d="M1203.8,286.3C1203.8,286.3,1203.8,286.4,1203.8,286.3C1203.8,286.4,1203.8,286.3,1203.8,286.3z"/>
		<path class="st21" d="M1216.3,279.5c0.3-0.2,0.6-0.3,0.9-0.5C1216.9,279.1,1216.6,279.3,1216.3,279.5z"/>
		<path class="st21" d="M1189.9,258.2c0,0,0-0.1,0.1-0.1c0,0,0,0,0,0C1189.9,258.2,1189.9,258.2,1189.9,258.2z"/>
		<path class="st21" d="M1214,282.9c0.1-0.3,0.1-0.5,0.2-0.8C1214.2,282.3,1214.1,282.6,1214,282.9z"/>
		<path class="st21" d="M1205.2,262c4.6,6.6,3.2,21.9-1.5,24.1l0,0c0-0.1-0.1-0.2-0.1-0.2s-2.4,1.4-8.6-0.4
			c-5.8-1.8-8.3-19.8-5.3-27C1193.1,257.8,1201.4,256.6,1205.2,262z"/>
		<g>
			<path class="st21" d="M1204.9,291.2L1204.9,291.2L1204.9,291.2z"/>
			<path class="st21" d="M1205.1,293.6c0-0.8-0.1-1.7-0.2-2.4c1.6,0.2,4.5,0.7,6,2.3c0.1,0.1,0.1,0.1,0.2,0.2c0,0,0,0,0,0.1
				c2.2,2.8,2,11.1-2.8,13.4c-0.2,0-0.3,0-0.5,0c-3.7,0.2-6.4-3-3.8-8.3c0.6-1.2,0.9-2.6,1-4C1205,294.5,1205.1,294.1,1205.1,293.6z
				"/>
		</g>
		<path class="st22" d="M1213.9,283.7c0-0.3,0.1-0.6,0.1-0.9C1214,283.2,1213.9,283.4,1213.9,283.7z"/>
		<path class="st22" d="M1218.6,278.3c0,0,0.1-0.1,0.1-0.1l0,0C1218.6,278.2,1218.6,278.2,1218.6,278.3z"/>
		<path class="st22" d="M1203.9,286.8c0,0.2,0.1,0.3,0.2,0.5C1204,287.1,1203.9,286.9,1203.9,286.8z"/>
		<path class="st22" d="M1217.2,279c0.3-0.1,0.6-0.3,0.9-0.5C1217.8,278.7,1217.5,278.9,1217.2,279z"/>
		<path class="st22" d="M1203.8,286.4c0,0.1,0.1,0.2,0.1,0.4C1203.8,286.6,1203.8,286.5,1203.8,286.4z"/>
		<path class="st22" d="M1214,286.6c-0.1-0.7-0.1-1.3-0.1-2C1213.9,285.3,1213.9,285.9,1214,286.6z"/>
		<path class="st22" d="M1214.7,291.1c-0.2-1.4-0.5-2.7-0.6-3.9C1214.2,288.4,1214.5,289.7,1214.7,291.1z"/>
		<path class="st22" d="M1213.9,284.7c0-0.3,0-0.6,0-0.9C1213.9,284,1213.9,284.3,1213.9,284.7z"/>
		<path class="st22" d="M1203.7,286.1c0,0.1,0.1,0.2,0.1,0.3C1203.7,286.2,1203.7,286.1,1203.7,286.1z"/>
		<path class="st22" d="M1189.8,258.5c0-0.1,0.1-0.2,0.1-0.2C1189.9,258.3,1189.8,258.4,1189.8,258.5
			C1189.8,258.5,1189.8,258.5,1189.8,258.5z"/>
		<path class="st22" d="M1189.9,258.2c0,0,0-0.1,0.1-0.1c0.1-0.1,7.6-5.7,17.4,0.7c7.8,5.1,5.6,13.3,7.7,13.7c1.5,0.3,5-2.8,6.3,0.6
			c0.9,2.3-1.1,4-2.6,4.9c0,0-0.1,0.1-0.1,0.1c-0.1,0.1-0.3,0.2-0.4,0.3c-0.3,0.2-0.6,0.3-0.9,0.5c-0.3,0.1-0.6,0.3-0.9,0.5
			c-0.3,0.2-0.5,0.4-0.7,0.5c-0.6,0.6-1.1,1.3-1.3,2c-0.1,0.3-0.2,0.5-0.2,0.8c-0.1,0.3-0.1,0.6-0.1,0.9c0,0.3,0,0.6,0,0.9
			c0,0.6,0,1.3,0.1,2c0,0.2,0,0.3,0.1,0.5c0.2,1.2,0.4,2.6,0.6,3.9c0.1,0.8,0.3,1.6,0.4,2.4c0,0.1,0,0.3,0.1,0.4c0,0,0,0.1,0,0.1
			c0,0,0,0.1,0,0.1c0.8,6.3,1.4,12.5-6.8,13.1l0,0c4.7-2.3,4.9-10.6,2.8-13.4c0,0,0,0,0-0.1c-0.1-0.1-0.1-0.1-0.2-0.2
			c-1.5-1.6-4.4-2.2-6-2.3l0,0c-0.2-1.6-0.5-2.9-0.8-3.9l0,0c-0.1-0.2-0.1-0.4-0.2-0.5c0,0,0,0,0,0c0-0.1-0.1-0.3-0.1-0.4
			c0,0,0,0,0,0c0-0.1-0.1-0.2-0.1-0.3c4.8-2.2,6.1-17.5,1.5-24.1c-3.8-5.4-12.1-4.2-15.4-3.5
			C1189.8,258.4,1189.9,258.3,1189.9,258.2z"/>
		<path class="st18" d="M1189.9,258.1C1189.9,258.1,1189.9,258.1,1189.9,258.1c0,0,0-0.1,0.1-0.1C1190,258,1190,258.1,1189.9,258.1z
			"/>
		<path class="st18" d="M1219.4,277.7c-0.2,0.2-0.5,0.3-0.7,0.5l0,0C1218.9,278,1219.2,277.8,1219.4,277.7z"/>
		<path class="st18" d="M1199.6,238.2c16,2.1,21.9,19.5,21.9,19.5s8.3,3.1,8,10.7c-0.4,8.9-12.3,10.7-12.3,10.7s0.7-0.3,1.5-0.8
			c0,0,0,0,0,0c1.5-1,3.9-3.2,2.3-5.6c-1.6-2.6-4.6,0.4-6,0c-2.1-0.5,0.1-8.6-7.7-13.7c-9.7-6.4-17.2-0.8-17.4-0.7c0,0,0,0,0,0l0,0
			C1181.9,253.2,1182.4,235.9,1199.6,238.2z"/>
	</g>
	<path class="st19" d="M1238,352l-0.8-12.2c0,0-4.9,0.7-6.3,20.4c-1.3,18.5-1.7,30.5-1.7,49.7h6.8C1236,409.9,1237.9,374.3,1238,352
		z"/>
	<g>
		<path class="st23" d="M1180.4,501.4c-6.6,20.7-22.8,71.5-31.8,99.5h2c0,0,31.6-62.9,53.9-154
			C1198.1,444.7,1189.6,472.5,1180.4,501.4z"/>
		<path class="st23" d="M1241.3,409.9h-12c-0.1,69.8-13.9,170.1-16.9,191h3.4C1215.8,600.9,1239.8,497.6,1241.3,409.9z"/>
	</g>
	<g>
		<path class="st0" d="M1266.1,396.7h-58.6c-1,0-1.9,0.9-1.9,2v41.6c0,1.1,0.8,2,1.9,2h58.6c1,0,1.9-0.9,1.9-2v-41.6
			C1268,397.5,1267.2,396.7,1266.1,396.7z"/>
		<path class="st21" d="M1238,352c0,13.5-0.6,29.9-1.3,44.6c-1,21.2-2.3,38.7-2.3,38.7c-5.8,3.8-4.4,6.9-4.4,6.9h-2.8
			c0,2.2,3.3,2.5,6.5,2.4c3.3-0.1,6-2,7.7-8.9c10.3-38.8,10.3-85.6,10.3-85.6L1238,352z"/>
	</g>
	<path class="st21" d="M1160.1,326.2l-10.5,12.5L1119,311c-7.6-6.5-12.8-6.9-16.3-5.9c-3.5,1-4.2,2.6-3.7,2.8c0.4,0.2,1.1,0,2.3,0
		c1.5,0-1.2,0.9-1.6,1.1c-2.5,0.9-12,4.3-9.2,5.7c6.1,3.1,19.3-4.5,22.9,0.5c0,0,26.5,36.5,33,45c4.5,5.9,25.2-21.5,25.2-21.5
		L1160.1,326.2z"/>
	<path class="st3" d="M1228.2,442.2c0,0-1.3-3.1,4.4-6.9c0,0,1.3-17.6,2.3-38.7h1.9c-1,21.2-2.3,38.7-2.3,38.7
		c-5.8,3.8-4.4,6.9-4.4,6.9H1228.2z"/>
	<g>
		<g>
			<path class="st22" d="M1148,356.4c-2.5-1-2.2-6.9-16.4-22.8c-11.9-13.4-15.5-19.9-20.7-19.9c1,0.2,1.9,0.7,2.5,1.5
				c0,0,26.5,36.5,33,45c4.5,5.9,25.2-21.5,25.2-21.5l-2.7-2.9C1160.8,344.9,1150.2,357.2,1148,356.4z"/>
		</g>
	</g>
</g>
<path class="st16" d="M1099.4,271.6l2.6,5.3c0.2,0.5,0.7,0.8,1.2,0.9l5.8,0.8c1.3,0.2,1.8,1.8,0.9,2.7l-4.2,4.1
	c-0.4,0.4-0.5,0.9-0.4,1.4l1,5.8c0.2,1.3-1.1,2.3-2.3,1.7l-5.2-2.7c-0.5-0.2-1-0.2-1.5,0l-5.2,2.7c-1.2,0.6-2.5-0.4-2.3-1.7l1-5.8
	c0.1-0.5-0.1-1-0.4-1.4l-4.2-4.1c-0.9-0.9-0.4-2.5,0.9-2.7l5.8-0.8c0.5-0.1,0.9-0.4,1.2-0.9l2.6-5.3
	C1097.2,270.4,1098.9,270.4,1099.4,271.6z"/>
<g>
	<path class="st3" d="M612.6,22c-9.9-7.4-94.7,14.2-114.3,28.3c3.9,1,29.1,10,29.1,10L612.6,22z"/>
	<polygon class="st4" points="527.5,60.3 535.8,84.5 612.6,22 	"/>
	<polygon class="st17" points="534.7,64.6 535.8,84.5 612.6,22 	"/>
	<path class="st3" d="M612.6,22l-7.1,3.2l-70.8,39.4c0,0,30.6,18.7,40.8,24.6C594.1,74.6,618.3,25.1,612.6,22z"/>
</g>
<path class="st24" d="M173,256c-6-61-86-104-131.7-86.3c-57.2,22-47.8,82.7-1,84.6C137.6,258.4,260,120,238.8,25.2
	C218.3-17.9,160.5,5.3,182.7,48C197,75.8,373.3,124.9,518,69"/>
</svg>
