<svg xmlns="http://www.w3.org/2000/svg" xmlns:xlink="http://www.w3.org/1999/xlink" width="104" height="100" viewBox="0 0 104 100"><defs><path id="lygja" d="M965.69 2593c-14.353.051-26.825 8.03-33.341 19.784a39.126 39.126 0 0 0-12.389 8.131c-15.577 15.127-15.993 40.073-.926 55.716 8.747 9.08 20.788 13.02 32.398 11.775 15.405 7.933 34.755 5.617 47.896-7.144 15.211-14.773 16.774-38.369 4.44-54.958-2.501-18.77-18.476-33.24-37.811-33.304z"/><path id="lygjb" d="M957.747 2656.5c-7.88-.003-14.547-5.828-15.603-13.637-1.057-7.808 3.82-15.196 11.417-17.293 7.597-2.097 15.575 1.742 18.675 8.987a1.5 1.5 0 1 1-2.76 1.181c-2.75-6.422-10.154-9.437-16.608-6.761-6.454 2.675-9.552 10.044-6.95 16.526 2.603 6.482 9.938 9.664 16.45 7.135a1.501 1.501 0 0 1 1.088 2.797 15.754 15.754 0 0 1-5.709 1.065zm20.253-3a4.5 4.5 0 0 1-4.5 4.5v1.5a1.5 1.5 0 0 1-3 0v-1.5h-1.501a1.5 1.5 0 1 1 0-3h4.5a1.5 1.5 0 1 0 0-3h-3a4.5 4.5 0 1 1 0-8.999v-1.5a1.5 1.5 0 0 1 3 0v1.5h1.5a1.5 1.5 0 1 1 0 3h-4.5a1.5 1.5 0 1 0 0 3h3a4.5 4.5 0 0 1 4.501 4.5zm-19.502-20.998v7.5h4.5a1.5 1.5 0 1 1 0 3h-6a1.5 1.5 0 0 1-1.5-1.5v-9a1.5 1.5 0 0 1 3 0z"/></defs><g><g transform="translate(-908 -2593)"><use fill="#ffc052" xlink:href="#lygja"/></g><g transform="translate(-908 -2593)"><use fill="#fff" xlink:href="#lygjb"/></g></g></svg>