<svg xmlns="http://www.w3.org/2000/svg" xmlns:xlink="http://www.w3.org/1999/xlink" width="54" height="54" viewBox="0 0 54 54"><defs><path id="ak3ia" d="M992 3331.5c-9.665 0-17.5 7.835-17.5 17.5s7.835 17.5 17.5 17.5 17.5-7.835 17.5-17.5-7.835-17.5-17.5-17.5zm20 17.5c0 11.046-8.954 20-20 20s-20-8.954-20-20 8.954-20 20-20 20 8.954 20 20z"/><path id="ak3id" d="M998.483 3349.99l-8.8 5.833a1.054 1.054 0 0 1-1.116.03 1.18 1.18 0 0 1-.567-1.02v-11.666c0-.424.217-.814.567-1.02.35-.207.777-.194 1.116.03l8.8 5.834c.321.213.517.587.517.99 0 .401-.196.775-.517.989z"/><mask id="ak3ic" width="2" height="2" x="-1" y="-1"><path fill="#fff" d="M972 3329h40v40h-40z"/><use xlink:href="#ak3ia"/></mask><filter id="ak3ib" width="80" height="80" x="952" y="3309" filterUnits="userSpaceOnUse"><feOffset in="SourceGraphic" result="FeOffset1080Out"/><feGaussianBlur in="FeOffset1080Out" result="FeGaussianBlur1081Out" stdDeviation="4 4"/></filter></defs><g><g transform="translate(-965 -3322)"><g><g filter="url(#ak3ib)"><use fill="none" stroke-opacity=".1" stroke-width="0" mask="url(&quot;#ak3ic&quot;)" xlink:href="#ak3ia"/><use fill-opacity=".1" xlink:href="#ak3ia"/></g><use fill="#ffc052" xlink:href="#ak3ia"/></g><g><use fill="#ffc052" xlink:href="#ak3id"/></g></g></g></svg>