<svg xmlns="http://www.w3.org/2000/svg" xmlns:xlink="http://www.w3.org/1999/xlink" width="95" height="95" viewBox="0 0 95 95"><defs><path id="43cha" d="M960 1025c-22.091 0-40 17.909-40 40s17.909 40 40 40 40-17.909 40-40-17.909-40-40-40z"/><path id="43chd" d="M960 1030c-19.33 0-35 15.67-35 35s15.67 35 35 35 35-15.67 35-35-15.67-35-35-35z"/><path id="43che" d="M972.966 1066.98l-17.6 11.666a2.096 2.096 0 0 1-2.233.062c-.7-.412-1.133-1.193-1.133-2.041v-23.333c0-.848.434-1.629 1.133-2.04a2.087 2.087 0 0 1 2.233.061l17.6 11.667c.643.427 1.034 1.174 1.034 1.979 0 .804-.391 1.551-1.034 1.978z"/><mask id="43chc" width="2" height="2" x="-1" y="-1"><path fill="#fff" d="M920 1025h80v80h-80z"/><use xlink:href="#43cha"/></mask><filter id="43chb" width="120" height="120" x="900" y="1005" filterUnits="userSpaceOnUse"><feOffset in="SourceGraphic" result="FeOffset1025Out"/><feGaussianBlur in="FeOffset1025Out" result="FeGaussianBlur1026Out" stdDeviation="4 4"/></filter></defs><g><g transform="translate(-912 -1018)"><g><g filter="url(#43chb)"><use fill="none" stroke-opacity=".1" stroke-width="0" mask="url(&quot;#43chc&quot;)" xlink:href="#43cha"/><use fill-opacity=".1" xlink:href="#43cha"/></g><use fill="#ffc052" xlink:href="#43cha"/></g><g><use fill="#fff" xlink:href="#43chd"/></g><g><use fill="#ffc052" xlink:href="#43che"/></g></g></g></svg>