<svg xmlns="http://www.w3.org/2000/svg" xmlns:xlink="http://www.w3.org/1999/xlink" width="104" height="100" viewBox="0 0 104 100"><defs><path id="2h1sa" d="M1386.69 2593c-14.353.051-26.825 8.03-33.341 19.784a39.126 39.126 0 0 0-12.389 8.131c-15.577 15.127-15.993 40.073-.926 55.716 8.747 9.08 20.788 13.02 32.398 11.775 15.405 7.933 34.755 5.617 47.896-7.144 15.211-14.773 16.774-38.369 4.44-54.958-2.501-18.77-18.476-33.24-37.811-33.304z"/><path id="2h1sb" d="M1391.889 2632.111v5.196h-5.196v-5.196zm0 13.471h-5.196v-5.164h5.196zm0 8.307h-5.196v-5.196h5.196zm-13.471 0v-5.196h5.185v5.196zm-8.307 0v-5.196h5.196v5.196zm0-13.471h5.196v5.185h-5.196zm0-8.307h5.196v5.196h-5.196zm13.471 0v5.196h-5.164v-5.196zm0 8.307v5.185h-5.164v-5.185zM1367 2629v28h28v-28z"/></defs><g><g transform="translate(-1329 -2593)"><use fill="#ffc052" xlink:href="#2h1sa"/></g><g transform="translate(-1329 -2593)"><use fill="#fff" xlink:href="#2h1sb"/></g></g></svg>