<svg xmlns="http://www.w3.org/2000/svg" xmlns:xlink="http://www.w3.org/1999/xlink" width="104" height="100" viewBox="0 0 104 100"><defs><path id="qwxia" d="M546.69 2593c-14.353.051-26.825 8.03-33.341 19.784a39.126 39.126 0 0 0-12.389 8.131c-15.577 15.127-15.993 40.073-.926 55.716 8.747 9.08 20.788 13.02 32.397 11.775 15.406 7.933 34.756 5.617 47.897-7.144 15.211-14.773 16.774-38.369 4.44-54.958-2.501-18.77-18.476-33.24-37.811-33.304z"/><path id="qwxib" d="M545.05 2641.073a4.5 4.5 0 1 1-7.23-1.257 4.616 4.616 0 0 1 5.093-.85l3.357-3.353a9.09 9.09 0 0 0-11.708 13.826 1.5 1.5 0 1 1-2.122 2.122c-4.61-4.748-4.555-12.317.125-16.997s12.25-4.735 16.997-.125a1.5 1.5 0 0 1 0 2.122zm-2.988.866a1.5 1.5 0 0 0-2.122 2.122 1.538 1.538 0 0 0 2.122 0 1.5 1.5 0 0 0 0-2.122zm7.939 1.061a1.5 1.5 0 1 1 3 0 1.5 1.5 0 0 1-3 0zm-10.5 10.5a1.5 1.5 0 1 1 3 0 1.5 1.5 0 0 1-3 0zm7.5-3a1.5 1.5 0 1 1 3 0 1.5 1.5 0 0 1-3 0zm6.727 5.227a18 18 0 1 1 0-25.454c7.03 7.029 7.03 18.425 0 25.454zm-2.118-23.332c-5.858-5.857-15.356-5.857-21.213 0-5.858 5.858-5.858 15.355 0 21.213 5.857 5.858 15.355 5.858 21.213 0 5.843-5.863 5.843-15.349 0-21.213z"/></defs><g><g transform="translate(-489 -2593)"><use fill="#ffc052" xlink:href="#qwxia"/></g><g transform="translate(-489 -2593)"><use fill="#fff" xlink:href="#qwxib"/></g></g></svg>