<svg xmlns="http://www.w3.org/2000/svg" xmlns:xlink="http://www.w3.org/1999/xlink" width="104" height="100" viewBox="0 0 104 100"><defs><path id="mgzua" d="M546.69 2247c-14.353.051-26.825 8.03-33.341 19.784a39.126 39.126 0 0 0-12.389 8.131c-15.577 15.127-15.993 40.073-.926 55.716 8.747 9.08 20.788 13.02 32.397 11.775 15.406 7.933 34.756 5.617 47.897-7.144 15.211-14.773 16.774-38.369 4.44-54.958-2.501-18.77-18.476-33.24-37.811-33.304z"/><path id="mgzub" d="M542.417 2281.417v13.458l3.269-3.13a1.418 1.418 0 1 1 1.962 2.046l-5.667 5.423a1.417 1.417 0 0 1-1.962 0l-5.667-5.423a1.418 1.418 0 0 1 1.962-2.047l3.27 3.131v-13.458a1.417 1.417 0 0 1 2.833 0zm15.498 19.348c.056.155.085.32.085.485v8.5a4.25 4.25 0 0 1-4.25 4.25h-25.5a4.25 4.25 0 0 1-4.25-4.25v-8.5c0-.165.029-.33.085-.485l5.667-15.584c.204-.56.736-.931 1.331-.931h4.25a1.417 1.417 0 1 1 0 2.833h-3.258l-4.636 12.75h7.894c.609 0 1.15.39 1.343.967l1.094 3.283h6.46l1.094-3.283a1.417 1.417 0 0 1 1.343-.967h7.894l-4.636-12.75h-3.258a1.417 1.417 0 1 1 0-2.833h4.25c.595 0 1.127.372 1.331.931zm-2.748 8.985v-7.083h-7.48l-1.095 3.283a1.417 1.417 0 0 1-1.342.967h-8.5c-.609 0-1.149-.39-1.342-.967l-1.095-3.283h-7.48v7.083c0 .782.635 1.417 1.417 1.417h25.5c.782 0 1.417-.635 1.417-1.417z"/></defs><g><g transform="translate(-489 -2247)"><use fill="#ffc052" xlink:href="#mgzua"/></g><g transform="translate(-489 -2247)"><use fill="#fff" xlink:href="#mgzub"/></g></g></svg>