<?xml version="1.0" encoding="UTF-8" standalone="no"?><!DOCTYPE svg PUBLIC "-//W3C//DTD SVG 1.1//EN" "http://www.w3.org/Graphics/SVG/1.1/DTD/svg11.dtd"><svg width="100%" height="100%" viewBox="0 0 800 800" version="1.1" xmlns="http://www.w3.org/2000/svg" xmlns:xlink="http://www.w3.org/1999/xlink" xml:space="preserve" xmlns:serif="http://www.serif.com/" style="fill-rule:evenodd;clip-rule:evenodd;stroke-linejoin:round;stroke-miterlimit:1.41421;"><g><rect x="0" y="0" width="800" height="800" style="fill:#f2f6fb;fill-rule:nonzero;"/><path d="M660.667,394.128c0,143.962 -116.703,260.667 -260.667,260.667c-143.962,0 -260.666,-116.705 -260.666,-260.667c0,-143.962 116.704,-260.665 260.666,-260.665c143.964,0 260.667,116.703 260.667,260.665Z" style="fill:#a8aaff;fill-rule:nonzero;"/><path d="M622.491,394.128c0,122.878 -99.611,222.491 -222.491,222.491c-122.878,0 -222.49,-99.613 -222.49,-222.491c0,-122.878 99.612,-222.49 222.49,-222.49c122.88,0 222.491,99.612 222.491,222.49Z" style="fill:#f2fbf0;fill-rule:nonzero;"/><path d="M446.595,199.821l-15.961,0c-1.112,0 -2.011,-0.9 -2.011,-2.01c0,-1.111 0.899,-2.01 2.011,-2.01l15.961,0c1.11,0 2.009,0.899 2.009,2.01c0,1.11 -0.899,2.01 -2.009,2.01Z" style="fill:#22a899;fill-rule:nonzero;"/><path d="M438.615,207.8c-1.111,0 -2.011,-0.9 -2.011,-2.01l0,-15.961c0,-1.11 0.9,-2.009 2.011,-2.009c1.111,0 2.01,0.899 2.01,2.009l0,15.961c0,1.11 -0.899,2.01 -2.01,2.01Z" style="fill:#22a899;fill-rule:nonzero;"/><path d="M190.355,453.983l-15.96,0c-1.111,0 -2.011,-0.9 -2.011,-2.011c0,-1.11 0.9,-2.01 2.011,-2.01l15.96,0c1.11,0 2.01,0.9 2.01,2.01c0,1.111 -0.9,2.011 -2.01,2.011Z" style="fill:#22a899;fill-rule:nonzero;"/><path d="M182.376,461.963c-1.11,0 -2.01,-0.898 -2.01,-2.01l0,-15.961c0,-1.11 0.9,-2.01 2.01,-2.01c1.11,0 2.01,0.9 2.01,2.01l0,15.961c0,1.112 -0.9,2.01 -2.01,2.01Z" style="fill:#22a899;fill-rule:nonzero;"/><path d="M638.452,453.985l-15.961,0c-1.11,0 -2.01,-0.9 -2.01,-2.011c0,-1.11 0.9,-2.01 2.01,-2.01l15.961,0c1.111,0 2.01,0.9 2.01,2.01c0,1.111 -0.899,2.011 -2.01,2.011Z" style="fill:#22a899;fill-rule:nonzero;"/><path d="M630.473,461.963c-1.112,0 -2.01,-0.898 -2.01,-2.01l0,-15.96c0,-1.11 0.898,-2.01 2.01,-2.01c1.111,0 2.009,0.9 2.009,2.01l0,15.96c0,1.112 -0.898,2.01 -2.009,2.01Z" style="fill:#22a899;fill-rule:nonzero;"/><path d="M379.691,219.048l-11.868,0c-1.11,0 -2.01,-0.9 -2.01,-2.01c0,-1.111 0.9,-2.01 2.01,-2.01l11.868,0c1.11,0 2.011,0.899 2.011,2.01c0,1.11 -0.901,2.01 -2.011,2.01Z" style="fill:#22a899;fill-rule:nonzero;"/><path d="M248.174,230.362c-34.619,0 -62.784,28.165 -62.784,62.783c0,34.618 28.165,62.782 62.784,62.782c34.621,0 62.787,-28.164 62.787,-62.782c0,-34.618 -28.166,-62.783 -62.787,-62.783Zm0,131.596c-37.944,0 -68.814,-30.87 -68.814,-68.813c0,-37.944 30.87,-68.813 68.814,-68.813c37.946,0 68.817,30.869 68.817,68.813c0,37.943 -30.871,68.813 -68.817,68.813Z" style="fill-rule:nonzero;"/><rect x="182.375" y="290.13" width="131.601" height="6.03" style="fill-rule:nonzero;"/><rect x="245.159" y="227.347" width="6.03" height="131.596" style="fill-rule:nonzero;"/><path d="M245.104,361.254c-20.368,-16.854 -32.049,-41.681 -32.047,-68.115c0.002,-26.431 11.682,-51.252 32.047,-68.099l3.844,4.646c-18.976,15.698 -29.861,38.826 -29.862,63.453c-0.001,24.631 10.883,47.765 29.862,63.469l-3.844,4.646Z" style="fill-rule:nonzero;"/><path d="M251.488,361.254l-3.843,-4.646c18.98,-15.704 29.865,-38.838 29.864,-63.469c-0.001,-24.627 -10.887,-47.754 -29.864,-63.453l3.843,-4.646c20.367,16.846 32.049,41.668 32.051,68.099c0.002,26.434 -11.681,51.261 -32.051,68.115Z" style="fill-rule:nonzero;"/><path d="M245.104,361.254c-20.368,-16.854 -32.049,-41.681 -32.047,-68.115c0.002,-26.431 11.682,-51.252 32.047,-68.099l3.844,4.646c-18.976,15.698 -29.861,38.826 -29.862,63.453c-0.001,24.631 10.883,47.765 29.862,63.469l-3.844,4.646Z" style="fill-rule:nonzero;"/><path d="M251.488,361.254l-3.843,-4.646c18.98,-15.704 29.865,-38.838 29.864,-63.469c-0.001,-24.627 -10.887,-47.754 -29.864,-63.453l3.843,-4.646c20.367,16.846 32.049,41.668 32.051,68.099c0.002,26.434 -11.681,51.261 -32.051,68.115Z" style="fill-rule:nonzero;"/><rect x="190.419" y="321.674" width="115.513" height="6.03" style="fill-rule:nonzero;"/><rect x="190.419" y="258.613" width="115.513" height="6.03" style="fill-rule:nonzero;"/><path d="M399.498,454.967c10.491,0 18.995,8.502 18.995,18.994c0,10.474 -8.504,18.976 -18.995,18.976c-10.494,0 -18.996,-8.502 -18.996,-18.976c0,-10.492 8.502,-18.994 18.996,-18.994Z" style="fill:#a296b6;fill-rule:nonzero;"/><path d="M365.246,488.294c0,-0.563 -0.1,-1.146 -0.301,-1.71c-0.723,-1.988 -2.593,-3.236 -4.603,-3.236c-0.583,0 -1.166,0.101 -1.729,0.322c-2.573,0.904 -3.88,3.739 -2.934,6.313c0.723,2.009 2.613,3.276 4.642,3.276c0.563,0 1.126,-0.12 1.689,-0.342c2.011,-0.724 3.236,-2.593 3.236,-4.623Zm18.252,-50.432c0,-0.845 -0.221,-1.709 -0.684,-2.494c-0.904,-1.567 -2.573,-2.451 -4.282,-2.451c-0.844,0 -1.688,0.221 -2.472,0.683c-2.352,1.387 -3.156,4.402 -1.809,6.753c0.925,1.569 2.574,2.473 4.302,2.473c0.844,0 1.709,-0.241 2.492,-0.703c1.568,-0.905 2.453,-2.553 2.453,-4.261Zm-0.543,74.714c0.462,-0.786 0.683,-1.629 0.683,-2.473c0,-1.728 -0.904,-3.376 -2.492,-4.281c-0.764,-0.442 -1.609,-0.644 -2.432,-0.644c-1.709,0 -3.378,0.865 -4.282,2.451c-1.387,2.393 -0.563,5.408 1.81,6.755c0.763,0.461 1.607,0.663 2.432,0.663c1.708,0 3.396,-0.885 4.281,-2.471Zm28.523,-78.875c0.041,-0.282 0.08,-0.563 0.08,-0.845c0,-2.392 -1.708,-4.462 -4.101,-4.884c-0.28,-0.04 -0.563,-0.08 -0.844,-0.08c-2.371,0 -4.462,1.708 -4.844,4.08c-0.462,2.713 1.307,5.286 4.02,5.749c0.28,0.02 0.563,0.06 0.824,0.06c2.371,0 4.462,-1.708 4.865,-4.08Zm0.241,81.346c0,-0.28 -0.041,-0.563 -0.08,-0.844c-0.423,-2.432 -2.513,-4.1 -4.865,-4.1c-0.281,0 -0.583,0.039 -0.864,0.08c-2.673,0.462 -4.483,3.015 -4.02,5.73c0.442,2.371 2.533,4.078 4.884,4.078c0.3,0 0.583,-0.039 0.844,-0.099c2.432,-0.422 4.101,-2.513 4.101,-4.845Zm6.774,-41.086c0,-10.492 -8.504,-18.994 -18.995,-18.994c-10.494,0 -18.996,8.502 -18.996,18.994c0,10.474 8.502,18.976 18.996,18.976c10.491,0 18.995,-8.502 18.995,-18.976Zm17.788,-26.933c0,-1.126 -0.381,-2.272 -1.144,-3.197c-0.966,-1.165 -2.373,-1.769 -3.782,-1.769c-1.124,0 -2.249,0.382 -3.175,1.187c-2.111,1.768 -2.33,4.884 -0.603,6.974c1.005,1.125 2.373,1.749 3.801,1.749c1.124,0 2.229,-0.402 3.154,-1.186c1.166,-0.985 1.749,-2.371 1.749,-3.758Zm-1.025,56.883c0.783,-0.924 1.146,-2.048 1.146,-3.156c0,-1.405 -0.583,-2.812 -1.768,-3.776c-0.926,-0.785 -2.051,-1.147 -3.156,-1.147c-1.427,0 -2.834,0.581 -3.8,1.767c-1.728,2.072 -1.467,5.207 0.604,6.956c0.945,0.742 2.069,1.146 3.196,1.146c1.407,0 2.793,-0.604 3.778,-1.79Zm-35.758,32.624c-34.553,0 -62.573,-28.02 -62.573,-62.574c0,-17.647 7.296,-33.587 19.034,-44.944c1.408,-1.367 2.895,-2.673 4.423,-3.899c0.764,-0.604 1.548,-1.206 2.332,-1.789c1.588,-1.147 3.236,-2.231 4.924,-3.236c0.864,-0.523 1.709,-1.005 2.593,-1.467c0.704,-0.363 1.427,-0.724 2.15,-1.086c0.222,-0.101 0.443,-0.201 0.664,-0.322c0.844,-0.381 1.708,-0.763 2.573,-1.125c0.925,-0.382 1.849,-0.745 2.794,-1.065c0.945,-0.343 1.89,-0.664 2.855,-0.946c0.844,-0.26 1.708,-0.502 2.593,-0.743c0.16,-0.041 0.341,-0.081 0.522,-0.121c0.905,-0.241 1.829,-0.442 2.754,-0.623c1.005,-0.201 2.01,-0.382 3.034,-0.522c0.885,-0.141 1.77,-0.262 2.674,-0.342c0.302,-0.04 0.623,-0.08 0.925,-0.101c0.824,-0.08 1.668,-0.14 2.512,-0.181c0.021,0 0.04,0 0.061,0c1.045,-0.06 2.091,-0.08 3.156,-0.08c1.065,0 2.109,0.02 3.156,0.08c0.02,0 0.039,0 0.059,0c0.844,0.041 1.71,0.101 2.554,0.181c0.28,0.021 0.583,0.061 0.863,0.08c0.905,0.101 1.81,0.222 2.693,0.363c1.027,0.14 2.032,0.321 3.037,0.522c0.924,0.181 1.849,0.382 2.752,0.623c0.183,0.04 0.364,0.08 0.525,0.121c2.834,0.743 5.586,1.649 8.24,2.754c0.924,0.381 1.829,0.784 2.734,1.206c0.905,0.422 1.788,0.863 2.652,1.327c5.247,2.793 10.031,6.291 14.272,10.391l0.02,0c11.738,11.357 19.035,27.297 19.035,44.944c0,34.554 -28.02,62.574 -62.592,62.574Zm-43.88,-78.432c-0.904,2.554 0.422,5.366 2.955,6.33c0.563,0.182 1.126,0.263 1.688,0.263c2.01,0 3.92,-1.227 4.644,-3.237c0.201,-0.563 0.301,-1.125 0.301,-1.688c0,-2.03 -1.247,-3.94 -3.257,-4.662c-0.542,-0.202 -1.105,-0.302 -1.667,-0.302c-2.031,0 -3.941,1.266 -4.664,3.296Z" style="fill:#ffe5a5;fill-rule:nonzero;"/><path d="M443.055,429.017l-0.02,0c-4.241,-4.1 -9.025,-7.598 -14.272,-10.391c-0.864,-0.464 -1.747,-0.905 -2.652,-1.327c-0.905,-0.422 -1.81,-0.825 -2.734,-1.206c-2.654,-1.105 -5.406,-2.011 -8.24,-2.754c-0.161,-0.041 -0.342,-0.081 -0.525,-0.121c-0.903,-0.241 -1.828,-0.442 -2.752,-0.623c-1.005,-0.201 -2.01,-0.382 -3.037,-0.522c-0.883,-0.141 -1.788,-0.262 -2.693,-0.363c-0.28,-0.019 -0.583,-0.059 -0.863,-0.08c-0.844,-0.08 -1.71,-0.14 -2.554,-0.181c-0.02,0 -0.039,0 -0.059,0c-1.047,-0.06 -2.091,-0.08 -3.156,-0.08c-1.065,0 -2.111,0.02 -3.156,0.08c-0.021,0 -0.04,0 -0.061,0c-0.844,0.041 -1.688,0.101 -2.512,0.181c-0.302,0.021 -0.623,0.061 -0.925,0.101c-0.904,0.08 -1.789,0.201 -2.674,0.342c-0.244,0.033 -0.481,0.087 -0.723,0.124c0.775,0.121 1.547,0.246 2.313,0.398c0.924,0.181 1.848,0.382 2.752,0.623c0.182,0.04 0.363,0.08 0.524,0.121c2.834,0.743 5.586,1.649 8.24,2.754c0.925,0.381 1.829,0.784 2.735,1.206c0.904,0.422 1.788,0.863 2.651,1.327c5.247,2.793 10.031,6.291 14.273,10.391l0.02,0c4.132,3.998 7.698,8.574 10.606,13.581c0.586,0.294 1.132,0.697 1.576,1.233c0.763,0.925 1.144,2.071 1.144,3.197c0,0.223 -0.041,0.445 -0.071,0.669c3.698,7.985 5.779,16.879 5.779,26.264c0,9.284 -2.04,18.09 -5.669,26.013c0.041,0.259 0.082,0.52 0.082,0.781c0,1.108 -0.363,2.232 -1.146,3.156c-0.465,0.56 -1.025,0.978 -1.627,1.277c-9.218,15.964 -25.275,27.48 -44.179,30.533c3.272,0.528 6.626,0.814 10.048,0.814c34.572,0 62.592,-28.02 62.592,-62.574c0,-17.647 -7.297,-33.587 -19.035,-44.944Z" style="fill:#ffd264;fill-rule:nonzero;"/><rect x="274.332" y="556.937" width="250.33" height="38.431" style="fill:#857b95;fill-rule:nonzero;"/><rect x="504.562" y="556.937" width="20.1" height="38.431" style="fill:#675f74;fill-rule:nonzero;"/><path d="M317.448,429.017l0,26.573l-0.564,0l-66.412,0l0,-18.332l0,-11.175c0,-18.493 14.995,-33.468 33.488,-33.468c0.643,0 1.266,0.061 1.91,0.08l0,-0.08l228.38,0l0,0.021c0.143,-0.021 0.283,-0.021 0.403,-0.021c18.493,0 33.488,14.975 33.488,33.468l0,29.507l-66.975,0l0,-26.573l-38.111,0c-4.242,-4.121 -9.045,-7.618 -14.292,-10.391c-0.864,-0.483 -1.747,-0.926 -2.652,-1.327c-0.885,-0.443 -1.81,-0.844 -2.734,-1.206c-2.654,-1.105 -5.406,-2.03 -8.24,-2.754c-0.161,-0.041 -0.342,-0.081 -0.525,-0.121c-0.903,-0.241 -1.828,-0.442 -2.752,-0.623c-1.005,-0.201 -2.01,-0.382 -3.037,-0.522c-0.883,-0.141 -1.788,-0.262 -2.693,-0.363c-0.28,-0.019 -0.583,-0.059 -0.863,-0.08c-0.844,-0.08 -1.689,-0.14 -2.554,-0.181c-0.02,0 -0.039,0 -0.059,0c-1.047,-0.06 -2.091,-0.08 -3.156,-0.08c-1.065,0 -2.111,0.02 -3.156,0.08c-0.021,0 -0.04,0 -0.061,0c-0.844,0.041 -1.688,0.101 -2.512,0.181c-0.302,0.021 -0.623,0.061 -0.925,0.101c-0.904,0.08 -1.789,0.201 -2.674,0.342c-1.024,0.14 -2.029,0.321 -3.034,0.522c-0.925,0.181 -1.849,0.382 -2.754,0.623c-0.181,0.04 -0.362,0.08 -0.522,0.121c-0.865,0.221 -1.749,0.462 -2.593,0.743c-0.965,0.282 -1.91,0.583 -2.855,0.946c-0.945,0.32 -1.869,0.683 -2.794,1.065c-0.865,0.362 -1.729,0.723 -2.573,1.125c-0.221,0.121 -0.442,0.221 -0.664,0.322c-0.723,0.342 -1.446,0.703 -2.15,1.086c-0.884,0.462 -1.749,0.944 -2.593,1.467c-1.709,0.984 -3.336,2.07 -4.924,3.236c-0.805,0.562 -1.568,1.166 -2.332,1.789c-1.528,1.205 -3.015,2.513 -4.423,3.899l-5.708,0l-32.803,0Z" style="fill:#857b95;fill-rule:nonzero;"/><path d="M388.723,412.073c-0.884,-0.141 -1.788,-0.262 -2.693,-0.363c-0.281,-0.019 -0.583,-0.059 -0.864,-0.08c-0.844,-0.08 -1.688,-0.14 -2.554,-0.181c-0.019,0 -0.039,0 -0.059,0c-1.046,-0.06 -2.091,-0.08 -3.156,-0.08c-1.065,0 -2.11,0.02 -3.155,0.08c-0.021,0 -0.041,0 -0.061,0c-0.845,0.041 -1.688,0.101 -2.513,0.181c-0.301,0.021 -0.623,0.061 -0.924,0.101c-0.904,0.08 -1.79,0.201 -2.674,0.342c-1.025,0.14 -2.029,0.321 -3.035,0.522c-0.924,0.181 -1.848,0.382 -2.754,0.623c-0.18,0.04 -0.362,0.08 -0.522,0.121c-0.864,0.221 -1.749,0.462 -2.593,0.743c-0.965,0.282 -1.91,0.583 -2.855,0.946c-0.944,0.32 -1.869,0.683 -2.793,1.065c-0.865,0.362 -1.729,0.723 -2.574,1.125c-0.22,0.121 -0.441,0.221 -0.663,0.322c-0.723,0.342 -1.447,0.703 -2.151,1.086c-0.884,0.462 -1.749,0.944 -2.592,1.467c-1.709,0.984 -3.336,2.07 -4.925,3.236c-0.804,0.562 -1.568,1.166 -2.332,1.789c-1.528,1.205 -3.014,2.513 -4.422,3.899l20.1,0c1.408,-1.386 2.895,-2.694 4.423,-3.899c0.764,-0.623 1.527,-1.227 2.332,-1.789c1.588,-1.166 3.215,-2.252 4.924,-3.236c0.844,-0.523 1.709,-1.005 2.593,-1.467c0.704,-0.383 1.427,-0.744 2.15,-1.086c0.222,-0.101 0.443,-0.201 0.664,-0.322c0.844,-0.402 1.708,-0.763 2.573,-1.125c0.925,-0.382 1.849,-0.745 2.794,-1.065c0.945,-0.363 1.89,-0.664 2.855,-0.946c0.844,-0.281 1.728,-0.522 2.593,-0.743c0.16,-0.041 0.341,-0.081 0.522,-0.121c0.905,-0.241 1.829,-0.442 2.754,-0.623c0.765,-0.152 1.537,-0.277 2.311,-0.398c-0.243,-0.037 -0.48,-0.091 -0.724,-0.124Z" style="fill:#675f74;fill-rule:nonzero;"/><path d="M514.653,392.615c-0.12,0 -0.26,0 -0.403,0.021l0,-0.021l-1.508,0l-18.189,0c18.493,0 33.488,14.975 33.488,33.468l0,29.507l20.1,0l0,-18.332l0,-11.175c0,-18.493 -14.995,-33.468 -33.488,-33.468Z" style="fill:#675f74;fill-rule:nonzero;"/><path d="M494.15,392.636c0.142,-0.021 0.284,-0.021 0.403,-0.021l-0.403,0l0,0.021Z" style="fill:#857b95;fill-rule:nonzero;"/><path d="M336.925,473.961c0,34.554 28.02,62.574 62.573,62.574c34.572,0 62.592,-28.02 62.592,-62.574c11.196,6.594 26.835,20.622 39.679,36.362c12.502,15.298 22.351,32.243 22.874,45.528c0.019,0.361 0.019,0.724 0.019,1.086l-250.33,0c0,-25.246 39.336,-71.399 62.593,-82.976Z" style="fill:#a296b6;fill-rule:nonzero;"/><path d="M524.643,555.851c-0.523,-13.285 -10.372,-30.23 -22.874,-45.528c-12.844,-15.74 -28.483,-29.768 -39.679,-36.362c0,4.849 -0.569,9.564 -1.613,14.094c7.142,6.438 14.541,14.119 21.191,22.268c12.502,15.298 22.353,32.243 22.874,45.528c0.02,0.361 0.02,0.724 0.02,1.086l20.1,0c0,-0.362 0,-0.725 -0.019,-1.086Z" style="fill:#857b95;fill-rule:nonzero;"/><path d="M379.397,536.535c3.423,0 6.779,-0.286 10.053,-0.814c-29.776,-4.812 -52.525,-30.628 -52.525,-61.76c-5.548,2.762 -12.011,7.506 -18.636,13.448c6.156,28.087 31.173,49.126 61.108,49.126Z" style="fill:#857b95;fill-rule:nonzero;"/><path d="M436.402,500.755c0,1.108 -0.363,2.232 -1.146,3.156c-0.985,1.186 -2.371,1.79 -3.778,1.79c-1.127,0 -2.251,-0.404 -3.196,-1.146c-2.071,-1.749 -2.332,-4.884 -0.604,-6.956c0.966,-1.186 2.373,-1.767 3.8,-1.767c1.105,0 2.23,0.362 3.156,1.147c1.185,0.964 1.768,2.371 1.768,3.776Z" style="fill-rule:nonzero;"/><path d="M435.137,443.831c0.763,0.925 1.144,2.071 1.144,3.197c0,1.387 -0.583,2.773 -1.749,3.758c-0.925,0.784 -2.03,1.186 -3.154,1.186c-1.428,0 -2.796,-0.624 -3.801,-1.749c-1.727,-2.09 -1.508,-5.206 0.603,-6.974c0.926,-0.805 2.051,-1.187 3.175,-1.187c1.409,0 2.816,0.604 3.782,1.769Z" style="fill-rule:nonzero;"/><path d="M411.639,514.203c0.039,0.281 0.08,0.564 0.08,0.844c0,2.332 -1.669,4.423 -4.101,4.845c-0.261,0.06 -0.544,0.099 -0.844,0.099c-2.351,0 -4.442,-1.707 -4.884,-4.078c-0.463,-2.715 1.347,-5.268 4.02,-5.73c0.281,-0.041 0.583,-0.08 0.864,-0.08c2.352,0 4.442,1.668 4.865,4.1Z" style="fill-rule:nonzero;"/><path d="M411.558,432.856c0,0.282 -0.039,0.563 -0.08,0.845c-0.403,2.372 -2.494,4.08 -4.865,4.08c-0.261,0 -0.544,-0.04 -0.824,-0.06c-2.713,-0.463 -4.482,-3.036 -4.02,-5.749c0.382,-2.372 2.473,-4.08 4.844,-4.08c0.281,0 0.564,0.04 0.844,0.08c2.393,0.422 4.101,2.492 4.101,4.884Z" style="fill-rule:nonzero;"/><path d="M383.638,510.103c0,0.844 -0.221,1.687 -0.683,2.473c-0.885,1.586 -2.573,2.471 -4.281,2.471c-0.825,0 -1.669,-0.202 -2.432,-0.663c-2.373,-1.347 -3.197,-4.362 -1.81,-6.755c0.904,-1.586 2.573,-2.451 4.282,-2.451c0.823,0 1.668,0.202 2.432,0.644c1.588,0.905 2.492,2.553 2.492,4.281Z" style="fill-rule:nonzero;"/><path d="M382.814,435.368c0.463,0.785 0.684,1.649 0.684,2.494c0,1.708 -0.885,3.356 -2.453,4.261c-0.783,0.462 -1.648,0.703 -2.492,0.703c-1.728,0 -3.377,-0.904 -4.302,-2.473c-1.347,-2.351 -0.543,-5.366 1.809,-6.753c0.784,-0.462 1.628,-0.683 2.472,-0.683c1.709,0 3.378,0.884 4.282,2.451Z" style="fill-rule:nonzero;"/><path d="M364.945,486.584c0.201,0.564 0.301,1.147 0.301,1.71c0,2.03 -1.225,3.899 -3.236,4.623c-0.563,0.222 -1.126,0.342 -1.689,0.342c-2.029,0 -3.919,-1.267 -4.642,-3.276c-0.946,-2.574 0.361,-5.409 2.934,-6.313c0.563,-0.221 1.146,-0.322 1.729,-0.322c2.01,0 3.88,1.248 4.603,3.236Z" style="fill-rule:nonzero;"/><path d="M365.206,459.771c0,0.563 -0.1,1.125 -0.301,1.688c-0.724,2.01 -2.634,3.237 -4.644,3.237c-0.562,0 -1.125,-0.081 -1.688,-0.263c-2.533,-0.964 -3.859,-3.776 -2.955,-6.33c0.723,-2.03 2.633,-3.296 4.664,-3.296c0.562,0 1.125,0.1 1.667,0.302c2.01,0.722 3.257,2.632 3.257,4.662Z" style="fill-rule:nonzero;"/><path d="M465.104,473.961l-6.03,0c0,-16.283 -6.433,-31.474 -18.115,-42.776c-4.05,-3.934 -8.625,-7.261 -13.605,-9.894c-0.846,-0.472 -1.655,-0.877 -2.466,-1.236c-0.873,-0.433 -1.709,-0.802 -2.611,-1.155c-2.6,-1.082 -5.233,-1.962 -7.886,-2.64l1.491,-5.842c2.934,0.749 5.846,1.722 8.653,2.891c1.013,0.395 2.016,0.838 2.925,1.293c0.853,0.375 1.829,0.863 2.775,1.392c5.424,2.867 10.466,6.532 14.92,10.861c12.864,12.445 19.949,29.175 19.949,47.106Z" style="fill-rule:nonzero;"/><path d="M413.837,416.132c-0.839,-0.224 -1.696,-0.41 -2.554,-0.577c-0.96,-0.191 -1.904,-0.363 -2.868,-0.495c-0.903,-0.143 -1.761,-0.257 -2.62,-0.353l0.671,-5.993c0.95,0.106 1.902,0.234 2.831,0.38c1.024,0.14 2.09,0.332 3.156,0.545c0.976,0.191 1.967,0.408 2.935,0.665l-1.551,5.828Z" style="fill-rule:nonzero;"/><path d="M404.984,414.631c-0.797,-0.075 -1.594,-0.132 -2.411,-0.17l0.28,-6.024c0.914,0.043 1.805,0.107 2.696,0.191l-0.565,6.003Z" style="fill-rule:nonzero;"/><path d="M402.481,414.459c-1.977,-0.114 -3.992,-0.114 -5.966,0l-0.346,-6.02c2.206,-0.126 4.449,-0.126 6.657,0l-0.345,6.02Z" style="fill-rule:nonzero;"/><path d="M394.058,414.631l-0.579,-6.003c0.873,-0.084 1.766,-0.148 2.659,-0.191l0.286,6.024c-0.795,0.038 -1.59,0.095 -2.366,0.17Z" style="fill-rule:nonzero;"/><path d="M385.156,416.132l-1.549,-5.828c0.97,-0.257 1.96,-0.474 2.951,-0.668c1.052,-0.21 2.117,-0.402 3.203,-0.551c0.889,-0.141 1.843,-0.271 2.816,-0.357l0.534,6.006c-0.834,0.075 -1.652,0.187 -2.467,0.316c-1.027,0.142 -1.972,0.314 -2.916,0.502c-0.873,0.17 -1.732,0.356 -2.572,0.58Z" style="fill-rule:nonzero;"/><path d="M374.342,419.94l-2.594,-5.443c0.871,-0.416 1.763,-0.791 2.655,-1.164c1.049,-0.434 2.033,-0.818 3.038,-1.16c0.914,-0.353 1.936,-0.68 2.981,-0.985c0.802,-0.27 1.756,-0.531 2.689,-0.77l1.497,5.842c-0.795,0.204 -1.61,0.423 -2.387,0.683c-0.994,0.292 -1.863,0.568 -2.731,0.901c-0.991,0.338 -1.856,0.679 -2.72,1.035c-0.84,0.352 -1.644,0.687 -2.428,1.061Z" style="fill-rule:nonzero;"/><path d="M339.94,473.961l-6.03,0c0,-17.931 7.086,-34.661 19.953,-47.111c1.447,-1.426 3.019,-2.812 4.652,-4.099c0.782,-0.64 1.606,-1.288 2.471,-1.893c1.733,-1.273 3.435,-2.391 5.146,-3.378c0.824,-0.512 1.752,-1.03 2.702,-1.526c0.71,-0.386 1.485,-0.774 2.26,-1.14l2.575,5.453c-0.672,0.317 -1.343,0.651 -1.997,1.008c-0.863,0.451 -1.664,0.897 -2.446,1.381c-1.601,0.924 -3.12,1.922 -4.728,3.103c-0.801,0.561 -1.504,1.12 -2.21,1.695c-1.499,1.182 -2.903,2.421 -4.212,3.711c-11.702,11.322 -18.136,26.513 -18.136,42.796Z" style="fill-rule:nonzero;"/><path d="M277.347,592.354l244.299,0l0,-35.417c0,-0.307 0.003,-0.615 -0.014,-0.923c-0.444,-11.275 -8.325,-26.808 -22.197,-43.783c-10.712,-13.127 -23.788,-25.525 -34.548,-32.906c-2.739,33.669 -31.021,60.226 -65.389,60.226c-34.471,0 -62.815,-26.733 -65.397,-60.553c-23.501,14.547 -56.754,56.562 -56.754,77.939l0,35.417Zm247.315,6.03l-250.33,0c-1.666,0 -3.016,-1.351 -3.016,-3.016l0,-38.431c0,-27.155 40.663,-73.925 64.265,-85.675c0.935,-0.467 2.045,-0.414 2.931,0.136c0.888,0.549 1.428,1.518 1.428,2.563c0,32.842 26.717,59.56 59.558,59.56c32.852,0 59.576,-26.718 59.576,-59.56c0,-1.082 0.579,-2.081 1.52,-2.619c0.94,-0.537 2.096,-0.525 3.025,0.02c11.985,7.059 27.877,21.602 40.485,37.054c8.51,10.414 22.886,30.41 23.552,47.317c0.02,0.369 0.022,0.787 0.022,1.204l0,38.431c0,1.665 -1.351,3.016 -3.016,3.016Z" style="fill-rule:nonzero;"/><path d="M399.498,457.983c-8.812,0 -15.981,7.169 -15.981,15.978c0,8.8 7.169,15.961 15.981,15.961c8.811,0 15.98,-7.161 15.98,-15.961c0,-8.809 -7.169,-15.978 -15.98,-15.978Zm0,37.968c-12.138,0 -22.011,-9.865 -22.011,-21.99c0,-12.135 9.873,-22.009 22.011,-22.009c12.137,0 22.01,9.874 22.01,22.009c0,12.125 -9.873,21.99 -22.01,21.99Z" style="fill-rule:nonzero;"/><path d="M319.899,456.154l-6.03,0l0,-29.509c0,-4.908 -1.131,-9.582 -3.36,-13.89l5.354,-2.772c2.679,5.174 4.036,10.779 4.036,16.662l0,29.509Z" style="fill-rule:nonzero;"/><rect x="429.87" y="470.946" width="32.22" height="6.03" style="fill-rule:nonzero;"/><rect x="250.472" y="434.243" width="38.975" height="6.03" style="fill-rule:nonzero;"/><path d="M484.181,429.017l-6.031,0l0,-2.934c0,-5.839 1.357,-11.441 4.031,-16.654l5.366,2.754c-2.234,4.352 -3.366,9.029 -3.366,13.9l0,2.934Z" style="fill-rule:nonzero;"/><path d="M484.181,452.574l60.945,0l0,-26.491c0,-16.792 -13.67,-30.453 -30.473,-30.453c-0.286,0.041 -0.577,0.041 -0.856,0l-227.276,0c-0.242,0.06 -0.492,0.079 -0.744,0.079c-0.288,-0.009 -0.573,-0.025 -0.857,-0.041c-0.319,-0.018 -0.636,-0.038 -0.96,-0.038c-16.803,0 -30.473,13.661 -30.473,30.453l0,26.491l60.946,0l0,-23.557c0,-1.665 1.349,-3.015 3.015,-3.015l37.306,0c1.188,-1.109 2.443,-2.194 3.742,-3.236c0.803,-0.635 1.611,-1.256 2.419,-1.857c1.702,-1.228 3.433,-2.367 5.181,-3.407c0.9,-0.545 1.798,-1.057 2.738,-1.548c0.731,-0.377 1.466,-0.745 2.201,-1.111c0.263,-0.123 0.414,-0.188 0.563,-0.27c0.067,-0.037 0.134,-0.07 0.204,-0.102c0.87,-0.394 1.761,-0.786 2.651,-1.16c0.999,-0.412 1.983,-0.796 2.988,-1.138c0.949,-0.344 1.954,-0.685 2.981,-0.985c0.83,-0.257 1.726,-0.508 2.644,-0.759l0.636,-0.148c0.875,-0.234 1.865,-0.451 2.856,-0.645c1.052,-0.21 2.117,-0.402 3.203,-0.551c0.889,-0.141 1.843,-0.271 2.816,-0.357c0.232,-0.035 0.621,-0.081 0.986,-0.107c0.789,-0.077 1.682,-0.141 2.575,-0.184c0.048,-0.002 0.156,-0.003 0.204,-0.003c1.859,-0.116 4.276,-0.121 6.484,0.005c0.921,0.041 1.834,0.105 2.723,0.189l0.791,0.074c1.076,0.118 2.028,0.246 2.957,0.392c1.024,0.14 2.09,0.332 3.156,0.545c0.976,0.191 1.967,0.408 2.935,0.665l0.48,0.11c3.088,0.809 5.991,1.781 8.667,2.895c0.959,0.395 1.903,0.816 2.85,1.257c0.956,0.446 1.89,0.913 2.803,1.403c5.083,2.706 9.807,6.079 14.05,10.033l36.928,0c1.664,0 3.015,1.35 3.015,3.015l0,23.557Zm63.96,6.031l-66.975,0c-1.665,0 -3.016,-1.351 -3.016,-3.015l0,-23.558l-35.095,0c-0.782,0 -1.553,-0.304 -2.116,-0.846c-4.065,-3.931 -8.639,-7.261 -13.593,-9.899c-0.823,-0.441 -1.655,-0.858 -2.509,-1.256c-0.863,-0.402 -1.73,-0.787 -2.61,-1.152c-2.431,-1.011 -5.069,-1.893 -7.856,-2.624l-0.409,-0.093c-0.964,-0.254 -1.821,-0.44 -2.679,-0.607c-0.96,-0.191 -1.904,-0.363 -2.868,-0.495c-0.903,-0.143 -1.761,-0.257 -2.62,-0.353l-0.75,-0.07c-0.86,-0.081 -1.679,-0.138 -2.476,-0.176c-2.153,-0.117 -4.078,-0.116 -6.054,-0.002c-0.058,0.003 -0.176,0.005 -0.234,0.005c-0.652,0.035 -1.447,0.092 -2.223,0.167c-0.322,0.023 -0.576,0.057 -0.814,0.088c-0.967,0.09 -1.785,0.202 -2.6,0.331c-1.027,0.142 -1.972,0.314 -2.916,0.502c-0.873,0.17 -1.732,0.356 -2.572,0.58l-0.561,0.13c-0.794,0.217 -1.625,0.45 -2.437,0.701c-0.949,0.278 -1.835,0.578 -2.719,0.899c-0.94,0.32 -1.805,0.661 -2.669,1.017c-0.794,0.333 -1.602,0.689 -2.391,1.045c-0.244,0.128 -0.486,0.241 -0.732,0.353c-0.63,0.317 -1.343,0.673 -2.036,1.029c-0.812,0.425 -1.602,0.876 -2.413,1.366c-1.613,0.961 -3.195,2.001 -4.719,3.102c-0.727,0.54 -1.487,1.125 -2.228,1.71c-1.464,1.174 -2.88,2.423 -4.19,3.696c-0.563,0.546 -1.317,0.852 -2.102,0.852l-35.496,0l0,23.558c0,1.664 -1.35,3.015 -3.015,3.015l-66.976,0c-1.665,0 -3.015,-1.351 -3.015,-3.015l0,-29.507c0,-20.117 16.375,-36.483 36.503,-36.483c0.439,0 0.872,0.023 1.305,0.048l0.064,0.003c0.176,-0.034 0.356,-0.051 0.541,-0.051l228.38,0c0.052,0 0.101,0.001 0.15,0.004c0.087,-0.003 0.173,-0.004 0.253,-0.004c20.128,0 36.503,16.366 36.503,36.483l0,29.507c0,1.664 -1.35,3.015 -3.015,3.015Z" style="fill-rule:nonzero;"/><rect x="509.165" y="434.243" width="38.976" height="6.03" style="fill-rule:nonzero;"/><rect x="274.332" y="553.921" width="250.33" height="6.03" style="fill-rule:nonzero;"/><path d="M564.543,558.865l-39.881,0l0,-6.029l39.881,0c6.096,0 11.056,-4.961 11.056,-11.055l0,-10.412c0,-6.107 -4.96,-11.075 -11.056,-11.075l-18.779,-0.019c-9.42,-0.026 -17.081,-7.701 -17.081,-17.108l0,-11.235c0,-9.42 7.665,-17.086 17.085,-17.086l18.775,0c6.096,0 11.056,-4.958 11.056,-11.055l0,-12.463c0,-6.096 -4.96,-11.055 -11.056,-11.055l-16.402,0l0,-6.03l16.402,0c9.421,0 17.086,7.664 17.086,17.085l0,12.463c0,9.42 -7.665,17.085 -17.086,17.085l-18.775,0c-6.095,0 -11.055,4.961 -11.055,11.056l0,11.235c0,6.091 4.962,11.06 11.062,11.077l18.772,0.02c9.417,0 17.082,7.673 17.082,17.105l0,10.412c0,9.419 -7.665,17.084 -17.086,17.084Z" style="fill-rule:nonzero;"/><path d="M598.714,228.073l-22.071,0l0,-22.071l22.071,22.071Z" style="fill:#fff;fill-rule:nonzero;"/><path d="M598.714,247.55l0,31.558l-36.241,30.211l-18.352,15.296l-18.351,-15.296l-36.625,-30.533l0,-30.895l0,-41.889l87.498,0l0,22.071l22.071,0l0,19.477Z" style="fill:#fff;fill-rule:nonzero;"/><path d="M489.145,247.891l0,30.895l-18.532,-15.457l18.532,-15.438Z" style="fill:#25b9a8;fill-rule:nonzero;"/><path d="M617.627,263.329l-18.913,15.779l0,-31.558l18.913,15.779Z" style="fill:#25b9a8;fill-rule:nonzero;"/><path d="M525.748,309.339l-15.778,13.106l-39.357,32.723l0,-91.659l55.135,45.83Z" style="fill:#e8bf5b;fill-rule:nonzero;"/><path d="M617.627,263.49l0,91.678l-42.934,-35.698l-12.22,-10.151l55.154,-45.829Z" style="fill:#e8bf5b;fill-rule:nonzero;"/><path d="M617.627,355.168l-147.014,0l39.357,-32.723l15.778,-13.106l0.022,-0.02l18.351,15.296l18.352,-15.296l12.22,10.151l42.934,35.698Z" style="fill:#ffda7e;fill-rule:nonzero;"/><path d="M617.627,358.183l-147.014,0c-1.665,0 -3.015,-1.35 -3.015,-3.015l0,-91.659c0,-1.169 0.675,-2.232 1.735,-2.729c1.054,-0.495 2.309,-0.338 3.207,0.411l55.136,45.83l-3.856,4.636l-50.192,-41.721l0,82.217l140.984,0l0,-82.238l-50.212,41.722l-3.855,-4.638l55.154,-45.828c0.904,-0.748 2.152,-0.907 3.208,-0.411c1.06,0.497 1.736,1.561 1.736,2.73l0,91.678c0,1.665 -1.351,3.015 -3.016,3.015Z" style="fill-rule:nonzero;"/><path d="M600.646,281.423l-3.863,-4.631l16.137,-13.463l-16.137,-13.464l3.863,-4.631l18.913,15.779c0.687,0.574 1.084,1.422 1.084,2.316c0,0.894 -0.397,1.742 -1.084,2.315l-18.913,15.779Z" style="fill-rule:nonzero;"/><path d="M487.213,281.101l-18.531,-15.457c-0.688,-0.573 -1.084,-1.421 -1.084,-2.316c0,-0.895 0.398,-1.743 1.086,-2.316l18.531,-15.437l3.859,4.632l-15.752,13.124l15.754,13.139l-3.863,4.631Z" style="fill-rule:nonzero;"/><rect x="508.684" y="243.61" width="70.491" height="6.03" style="fill:#22a899;fill-rule:nonzero;"/><rect x="508.684" y="258.706" width="70.491" height="6.03" style="fill:#22a899;fill-rule:nonzero;"/><rect x="508.684" y="273.801" width="49.888" height="6.03" style="fill:#22a899;fill-rule:nonzero;"/><rect x="508.684" y="223.811" width="22.533" height="6.03" style="fill:#22a899;fill-rule:nonzero;"/><path d="M598.714,231.087l-22.071,0c-1.664,0 -3.015,-1.349 -3.015,-3.014l0,-22.071l6.03,0l0,19.055l19.056,0l0,6.03Z" style="fill-rule:nonzero;"/><path d="M492.16,277.374l51.961,43.317l51.578,-42.995l0,-48.374l-20.304,-20.305l-83.235,0l0,68.357Zm51.961,50.257c-0.685,0 -1.372,-0.233 -1.93,-0.699l-54.978,-45.83c-0.687,-0.573 -1.083,-1.422 -1.083,-2.316l0,-72.784c0,-1.665 1.35,-3.015 3.015,-3.015l87.498,0c0.798,0 1.566,0.318 2.131,0.883l22.072,22.071c0.565,0.565 0.883,1.332 0.883,2.132l0,51.035c0,0.895 -0.396,1.743 -1.085,2.316l-54.593,45.508c-0.558,0.466 -1.245,0.699 -1.93,0.699Z" style="fill-rule:nonzero;"/><path d="M511.896,324.764l-3.852,-4.639l15.778,-13.105l1.796,2.164l2.235,2.315c-0.052,0.048 -0.124,0.115 -0.179,0.159l-15.778,13.106Z" style="fill-rule:nonzero;"/><path d="M472.54,357.486l-3.854,-4.637l39.356,-32.723l3.855,4.637l-39.357,32.723Z" style="fill-rule:nonzero;"/><path d="M615.699,357.486l-42.932,-35.698l3.854,-4.636l42.934,35.697l-3.856,4.637Z" style="fill-rule:nonzero;"/><path d="M572.769,321.789l-12.222,-10.152l3.851,-4.638l12.221,10.152l-3.85,4.638Z" style="fill-rule:nonzero;"/><path d="M401.23,297.552c-3.034,-2.348 -6.653,-3.522 -10.465,-3.424c-7.533,0.094 -14.475,5.767 -15.357,15.747c-0.685,7.922 2.446,14.965 11.053,14.965c8.312,0 12.913,-7.337 13.596,-14.769l1.173,-12.519Zm-0.781,26.602c-3.229,6.261 -9.586,9.975 -16.335,9.975c-14.084,0.098 -20.638,-11.149 -19.366,-24.254c1.564,-16.139 13.693,-24.749 28.07,-24.552c6.261,0.098 14.478,3.132 19.076,7.239l-2.447,28.07c-0.392,4.012 -0.097,6.552 2.348,6.552c5.869,0.098 9.489,-10.074 10.172,-17.702c1.661,-20.344 -9.587,-32.961 -29.93,-32.961c-19.856,0 -35.017,13.595 -36.874,33.354c-2.348,26.017 16.529,39.121 40.494,29.735l-0.589,6.257c-27.093,9.587 -49.1,-6.163 -46.361,-35.992c2.151,-23.477 20.441,-39.906 43.915,-39.906c23.868,0 38.148,15.55 35.898,39.513c-1.371,14.184 -10.075,25.236 -20.639,25.236c-5.771,0 -7.922,-3.62 -7.529,-9.097l0.097,-1.467Z" style="fill:#857b95;fill-rule:nonzero;"/><path d="M333.583,231.838c0,23.2 -18.808,42.008 -42.009,42.008c-23.2,0 -42.008,-18.808 -42.008,-42.008c0,-23.201 18.808,-42.009 42.008,-42.009c23.201,0 42.009,18.808 42.009,42.009Z" style="fill:#25b9a8;fill-rule:nonzero;"/><path d="M263.161,242.122l11.457,-14.794c0.444,-0.595 0.745,-1.15 0.907,-1.662c0.107,-0.485 0.161,-0.943 0.161,-1.371c0,-1.137 -0.342,-2.127 -1.028,-2.972c-0.711,-0.845 -1.719,-1.281 -3.021,-1.309c-1.156,0 -2.116,0.381 -2.881,1.143c-0.793,0.762 -1.262,1.835 -1.41,3.221l-4.185,0c0.107,-2.513 0.924,-4.589 2.453,-6.232c1.541,-1.601 3.438,-2.416 5.691,-2.443c2.52,0.027 4.565,0.858 6.133,2.49c1.595,1.619 2.407,3.674 2.433,6.165c0,1.992 -0.59,3.763 -1.768,5.313l-9.428,12.204l11.196,0l0,4.311l-16.71,0l0,-4.064Z" style="fill:#fff;fill-rule:nonzero;"/><path d="M281.565,237.624l9.785,-21.673l4.667,0l-9.891,21.673l7.648,0l0,-8.708l4.185,0l0,8.708l2.35,0l0,4.06l-2.35,0l0,4.502l-4.185,0l0,-4.499l-12.209,-0.003l0,-4.06Z" style="fill:#fff;fill-rule:nonzero;"/><path d="M302.27,215.951l4.185,0l0,10.992l0.081,0c1.378,-1.701 3.184,-2.551 5.418,-2.551c1.726,0 3.305,0.629 4.737,1.886c1.417,1.272 2.16,3.139 2.227,5.6l0,14.308l-4.185,0l0,-12.831c0,-1.51 -0.389,-2.658 -1.165,-3.448c-0.764,-0.802 -1.748,-1.205 -2.953,-1.205c-1.207,0 -2.198,0.403 -2.974,1.205c-0.791,0.79 -1.186,1.938 -1.186,3.448l0,12.831l-4.185,0l0,-30.235Z" style="fill:#fff;fill-rule:nonzero;"/><rect x="191.829" y="592.35" width="420.36" height="6.03" style="fill-rule:nonzero;"/><path d="M401.695,233.848l-29.314,0c-1.11,0 -2.01,-0.9 -2.01,-2.01c0,-1.11 0.9,-2.01 2.01,-2.01l29.314,0c1.11,0 2.009,0.9 2.009,2.01c0,1.11 -0.899,2.01 -2.009,2.01Z" style="fill:#22a899;fill-rule:nonzero;"/><path d="M631.827,384.14l-38.862,0c-1.111,0 -2.01,-0.9 -2.01,-2.01c0,-1.11 0.899,-2.01 2.01,-2.01l38.862,0c1.111,0 2.01,0.9 2.01,2.01c0,1.11 -0.899,2.01 -2.01,2.01Z" style="fill:#22a899;fill-rule:nonzero;"/><path d="M649.918,391.51l-32.291,0c-1.11,0 -2.01,-0.9 -2.01,-2.01c0,-1.111 0.9,-2.01 2.01,-2.01l32.291,0c1.11,0 2.01,0.899 2.01,2.01c0,1.11 -0.9,2.01 -2.01,2.01Z" style="fill:#22a899;fill-rule:nonzero;"/><path d="M223.786,382.13l-23.451,0c-1.109,0 -2.009,-0.9 -2.009,-2.01c0,-1.11 0.9,-2.01 2.009,-2.01l23.451,0c1.11,0 2.01,0.9 2.01,2.01c0,1.11 -0.9,2.01 -2.01,2.01Z" style="fill:#22a899;fill-rule:nonzero;"/><path d="M207.035,394.625l-29.525,0c-1.111,0 -2.01,-0.9 -2.01,-2.01c0,-1.11 0.899,-2.01 2.01,-2.01l29.525,0c1.11,0 2.01,0.9 2.01,2.01c0,1.11 -0.9,2.01 -2.01,2.01Z" style="fill:#22a899;fill-rule:nonzero;"/><path d="M250.472,495.269l-18.924,0c-1.11,0 -2.01,-0.9 -2.01,-2.01c0,-1.111 0.9,-2.011 2.01,-2.011l18.924,0c1.11,0 2.01,0.9 2.01,2.011c0,1.11 -0.9,2.01 -2.01,2.01Z" style="fill:#22a899;fill-rule:nonzero;"/><path d="M237.186,507.188l-25.125,0c-1.111,0 -2.011,-0.9 -2.011,-2.01c0,-1.111 0.9,-2.011 2.011,-2.011l25.125,0c1.11,0 2.01,0.9 2.01,2.011c0,1.11 -0.9,2.01 -2.01,2.01Z" style="fill:#22a899;fill-rule:nonzero;"/><path d="M622.491,515.047l-14.321,0c-1.111,0 -2.01,-0.898 -2.01,-2.01c0,-1.111 0.899,-2.009 2.01,-2.009l14.321,0c1.112,0 2.01,0.898 2.01,2.009c0,1.112 -0.898,2.01 -2.01,2.01Z" style="fill:#22a899;fill-rule:nonzero;"/><path d="M636.517,522.877l-18.89,0c-1.11,0 -2.01,-0.898 -2.01,-2.01c0,-1.111 0.9,-2.009 2.01,-2.009l18.89,0c1.111,0 2.009,0.898 2.009,2.009c0,1.112 -0.898,2.01 -2.009,2.01Z" style="fill:#22a899;fill-rule:nonzero;"/></g></svg>