<svg xmlns="http://www.w3.org/2000/svg" width="122" height="65" viewBox="0 0 122 65">
    <g fill="#FFF" fill-rule="nonzero">
        <path d="M15.36 13.236C7.19 13.236.572 19.853.572 28.024c0 8.17 6.618 14.787 14.788 14.787s14.788-6.617 14.788-14.787c0-8.17-6.618-14.788-14.788-14.788zm0 22.386a7.497 7.497 0 0 1-7.517-7.517 7.497 7.497 0 0 1 7.517-7.516 7.497 7.497 0 0 1 7.516 7.516c.082 4.085-3.35 7.517-7.516 7.517zM58.988 13.236c-8.17 0-14.788 6.617-14.788 14.788 0 8.17 6.618 14.787 14.788 14.787s14.788-6.617 14.788-14.787c0-8.17-6.618-14.788-14.788-14.788zm0 22.386a7.497 7.497 0 0 1-7.516-7.517 7.497 7.497 0 0 1 7.516-7.516 7.497 7.497 0 0 1 7.517 7.516c0 4.085-3.35 7.517-7.517 7.517zM39.38.49h-4.33c-.817 0-1.47.654-1.47 1.47v39.217c0 .817.653 1.471 1.47 1.471h4.33c.817 0 1.47-.654 1.47-1.47V1.96c-.081-.817-.735-1.47-1.47-1.47zM119.938 13.562h-4.33c-.818 0-1.471.654-1.471 1.471v26.144c0 .817.653 1.471 1.47 1.471h4.33c.818 0 1.471-.654 1.471-1.47V15.032c0-.817-.653-1.47-1.47-1.47zM91.669 13.562h-3.595c-5.8 0-10.458 4.494-10.866 10.131v17.403c0 .817.653 1.47 1.47 1.47h4.33c.818 0 1.471-.653 1.471-1.47V24.429a3.574 3.574 0 0 1 3.595-3.595h3.595c.817 0 1.47-.654 1.47-1.47v-4.331c-.081-.817-.735-1.47-1.47-1.47zM109.807 13.562h-3.595c-5.801 0-10.458 4.494-10.867 10.131v17.403c0 .817.654 1.47 1.471 1.47h4.33c.817 0 1.47-.653 1.47-1.47V24.429a3.574 3.574 0 0 1 3.596-3.595h3.595c.817 0 1.47-.654 1.47-1.47v-4.331c0-.817-.653-1.47-1.47-1.47zM29.494 47.55l-4.984-3.023c-.653-.408-1.552.082-1.552.899v4.003c0 4.085-3.186 7.599-7.353 7.68-4.249.082-7.762-3.268-7.762-7.516v-4.167c0-.817-.898-1.307-1.552-.899L1.307 47.55c-.408.245-.735.735-.735 1.226v.572c0 8.17 6.454 14.87 14.624 15.033 8.252.081 14.952-6.536 14.952-14.788v-.736c0-.572-.245-1.062-.654-1.307z"/>
        <circle cx="117.813" cy="7.108" r="3.922"/>
    </g>
</svg>
