<svg xmlns="http://www.w3.org/2000/svg" xmlns:xlink="http://www.w3.org/1999/xlink" width="541" height="403" viewBox="0 0 541 403">
    <defs>
        <path id="a" d="M0 403h541V0H0z"/>
    </defs>
    <g fill="none" fill-rule="evenodd">
        <path fill="#035FDA" d="M430.69 101.376c134.893 149.743 0 296.638-157.934 238.687-122.631-45-207.093-17.552-245.158-150.57C3.146 104.044 78.51 10.286 199.052 11.003c78.652.468 160.692 11.616 231.637 90.372"/>
        <mask id="b" fill="#fff">
            <use xlink:href="#a"/>
        </mask>
        <path fill="#FFF" d="M80 207h95V69H80zM183 125h274V69H183z" mask="url(#b)"/>
        <path fill="#E7F1FF" d="M216 85.5a7.5 7.5 0 1 1-15 0 7.5 7.5 0 0 1 15 0M231 85h65v-7h-65zM231 94h45v-7h-45z" mask="url(#b)"/>
        <path fill="#A4D5FA" d="M193 116h33v-10h-33z" mask="url(#b)"/>
        <path fill="#E7F1FF" d="M92 88h69V78H92zM92 106h69V96H92zM92 126h69v-10H92zM92 145h69v-10H92zM92 163h69v-10H92zM92 182h69v-10H92zM362 90h43V78h-43z" mask="url(#b)"/>
        <path fill="#A4D5FA" d="M413 90h33V78h-33z" mask="url(#b)"/>
        <path fill="#E7F1FF" d="M398 115h50v-8h-50z" mask="url(#b)"/>
        <path fill="#FFF" d="M183 188h274v-56H183z" mask="url(#b)"/>
        <path fill="#E7F1FF" d="M216 149.5a7.5 7.5 0 1 1-15 0 7.5 7.5 0 0 1 15 0M231 149h65v-7h-65zM231 158h45v-7h-45z" mask="url(#b)"/>
        <path fill="#036BF5" d="M193 179h33v-10h-33z" mask="url(#b)"/>
        <path fill="#E7F1FF" d="M362 154h43v-12h-43z" mask="url(#b)"/>
        <path fill="#A4D5FA" d="M413 154h33v-12h-33z" mask="url(#b)"/>
        <path fill="#E7F1FF" d="M398 180h50v-8h-50z" mask="url(#b)"/>
        <path fill="#FFF" d="M183 253h274v-56H183z" mask="url(#b)"/>
        <path fill="#E7F1FF" d="M216 213.5a7.5 7.5 0 1 1-15 0 7.5 7.5 0 0 1 15 0M231 213h65v-7h-65zM231 222h45v-7h-45z" mask="url(#b)"/>
        <path fill="#A4D5FA" d="M193 244h33v-10h-33z" mask="url(#b)"/>
        <path fill="#E7F1FF" d="M362 218h43v-12h-43z" mask="url(#b)"/>
        <path fill="#A4D5FA" d="M413 218h33v-12h-33z" mask="url(#b)"/>
        <path fill="#E7F1FF" d="M398 243h50v-8h-50z" mask="url(#b)"/>
        <path fill="#004A97" d="M479 392c0 6.075-36.971 11-82.578 11C350.815 403 257 398.075 257 392s93.815-11 139.422-11S479 385.925 479 392" mask="url(#b)"/>
        <path fill="#035FDA" d="M229 397c0 3.314-17.653 6-39.43 6-21.776 0-66.57-2.686-66.57-6s44.794-6 66.57-6c21.777 0 39.43 2.686 39.43 6" mask="url(#b)"/>
        <path stroke="#036BF5" stroke-dasharray="0,7.988" stroke-linecap="round" stroke-width="3" d="M96 166.474C-1.937 230.98-18.625 169.629 20.79 143" mask="url(#b)"/>
        <path fill="#A4D5FA" d="M145 133.501c-4.884-3.46-54.61 11.978-53.994 16.154.15 1.022 14.093 4.345 14.093 4.345L145 133.501z" mask="url(#b)"/>
        <path fill="#036BF5" d="M105 152.038L109.451 163 145 133z" mask="url(#b)"/>
        <path fill="#0094FF" d="M109 153.888l.902 9.112L145 133z" mask="url(#b)"/>
        <path fill="#A4D5FA" d="M144.697 133L109 154.252s14.693 8.129 19.566 10.703c2.647 1.4 18.834-30.617 16.13-31.955" mask="url(#b)"/>
        <path fill="#0094FF" d="M304.983 132.142h-18.849s-2.1 2.858-5.044 2.858c.54-.43 1.159-1.568 1.159-2.842-.517-.021-1.232-.016-1.232-.016-4.428 0-8.017-3.613-8.017-8.07 0-4.458 3.59-8.072 8.017-8.072h23.966c4.428 0 8.017 3.614 8.017 8.071 0 4.458-3.59 8.071-8.017 8.071" mask="url(#b)"/>
        <path fill="#FFF" d="M288 123a2 2 0 1 1-4 0 2 2 0 0 1 4 0M294 123a2 2 0 1 1-4 0 2 2 0 0 1 4 0M303 123a2 2 0 1 1-4 0 2 2 0 0 1 4 0M144.679 356.622s-21.246-13.465-15.78-32.304c0 0 17.63 5.273 18.84 26.373l8.225-24.703s-14.644-3.27-12.716-26.52c0 0 14.55 6.302 14.599 21.652l11.384-21.948s-11.773-3.142-9.756-19.126c0 0 8.923 3.8 11.211 15.148 0 0 5.542-10.939 8.485-14.627 0 0-1.04-14.17 14.829-16.567 0 0-3.434 13.936-13.353 17.493l-7.008 13.494s8.456-5.119 18.418-.925c0 0-8.523 8.958-18.755 4.962l-12.144 20.698s7.27-7.538 23.665-2.138c0 0-12.024 12.278-24.302 6.243 0 0-15.023 32.923-15.701 47.173l-3.019-4.212 2.878-10.166z" mask="url(#b)"/>
        <path fill="#004A97" d="M121 345l7.284 46.161c.531 3.36 3.464 5.839 6.91 5.839h18.28c3.429 0 6.351-2.453 6.902-5.792L168 345h-47z" mask="url(#b)"/>
        <path fill="#A4D5FA" d="M146 184c-12.91.172-4.636 30.68-13.594 33.136-5.581 1.531-9.557-14.11-17.457-7.256-10.775 9.348 17.834 17.472 7.07 27.09-6.013 5.373-13.153-8.28-19.798-1.936-14.02 13.386 12.659 30.313 11.036 39.988-1.624 9.674-15.905-6.773-21.747 3.224-5.842 9.997 40.247 50.308 47.388 66.754h6.611c-19.012-51.932-2.971-143 .491-161" mask="url(#b)"/>
        <path fill="#036BF5" d="M167.092 261.8c-6.775-6.127-11.88 8.062-14.5 1.29-2.618-6.772 20.294-44.825 13.093-48.372-7.2-3.547-8.51 9.03-16.365 6.45-7.856-2.58 9.973-35.367-3.273-37.085a9.513 9.513 0 0 0-1.348-.082c-3.492 18-19.668 109.067-.494 160.999h6.424c-10.474-24.508 23.239-77.073 16.463-83.2" mask="url(#b)"/>
        <path fill="#036BF5" d="M135.656 338.717s-21.12 5.844-30.053-8.65c0 0 13.726-8.285 28.025 3.224l-11.092-19.686s-10.687 7.529-24.532-7.254c0 0 12.583-5.702 22.499 3.206l-7.468-20.116s-8.92 5.754-18.035-4.855c0 0 7.675-3.535 16.326 1.6 0 0-3.8-9.94-4.451-13.985 0 0-9.737-7.582-1.983-19.201 0 0 6.965 10.328 3.444 18.79l4.586 12.374s1.657-8.428 10.194-12.404c0 0 .778 10.708-7.79 14.973l6.216 19.877s-.595-9.073 12.488-16.49c0 0 .864 14.896-10.217 19.292 0 0 12.405 28.852 21.187 37.588l-4.482-.508-4.862-7.775z" mask="url(#b)"/>
        <path fill="#FFD3D4" d="M229.958 188.53c5.629 7.56 17.713 19.396 25.933 13.092 8.22-6.302 18.016-18.23 25.913-13.448 7.897 4.782-7.406 20.708-15.856 26.786-8.45 6.078-18.692 8.874-28.454-4.67-9.763-13.545-11.413-22.381-14.633-25.04-2.537-2.094 1.356-6.854 1.177-7.75-.18-.895-5.12-9.228 1.77-.673 1.79 2.222 3.733 4.785 3.04 6.543-.69 1.758-.02 3.642 1.11 5.16" mask="url(#b)"/>
        <path fill="#F1BDBC" d="M281.804 189.387c-3.549-2.136-7.483-.913-11.484 1.645-.491 5.269-3.056 20.397-16.387 23.859-16.212 4.21-26.155-28.927-28.536-29.805-1.715-.633-2.84-1.629-2.752-3.086-.683 1.602-1.104 3.401.216 4.484 3.22 2.64 4.87 11.417 14.632 24.871 9.763 13.453 20.005 10.676 28.455 4.639 8.45-6.038 23.753-21.857 15.856-26.607" mask="url(#b)"/>
        <path fill="#FFC052" d="M280.85 188.082c-7.25-4.395-16.134 5.605-23.85 11.965 7.36 3.945 6.562 12.35 5.82 15.953a37.343 37.343 0 0 0 2.5-1.655c8.276-5.96 23.264-21.574 15.53-26.263" mask="url(#b)"/>
        <path fill="#FFA140" d="M282.77 188.082c-3.765-2.202-7.956-.79-12.206 1.967-.736 6.231-2.323 12.595-6.564 17.252.935 3.325.5 6.73.08 8.699a38.862 38.862 0 0 0 2.591-1.655c8.58-5.96 24.117-21.574 16.1-26.263" mask="url(#b)"/>
        <path fill="#0094FF" d="M268.333 239c-22.568 41.079-6.516 107.276 5.863 146h7.219s-9.118-79.238 3.824-110.287c0 0-1.047 41.497 18.485 56.387 16.703 12.734 45.288 20.581 45.288 20.581l1.988-6.92s-36.051-16.539-36.355-35.37c-.474-29.31 4.397-55.39-9.689-70.391h-36.623z" mask="url(#b)"/>
        <path fill="#FFC052" d="M267.61 239c7.638-22.868 1.927-24.877 0-32.041-2.735-10.163 4.617-20.594 4.617-20.594s8.253-6.355 17.97-6.365c4.505-.005 11.459 3.79 14.47 6.365 6.499 4.824 9.012 11.169 2.63 26.796-7.545 18.474-3.16 25.839-3.16 25.839H267.61z" mask="url(#b)"/>
        <path fill="#246DBD" d="M281 385h-7.404L260 390.78s11.317.22 17.544.22c3.893 0 3.405-2.067 3.456-6M348.702 345L347 351.911 349.549 366s2.818-10.51 4.249-16.323c.895-3.634-1.247-3.679-5.096-4.677" mask="url(#b)"/>
        <path fill="#FFA140" d="M304.735 186.365c-2.98-2.576-9.86-6.37-14.318-6.365-9.615.01-17.782 6.365-17.782 6.365s-1.371 1.66-2.635 4.455c.633 1.491 2.039 5.08 5.993 6.306 4.844 1.5 12.78-4.663 17.248-4.36 11.428.776 15.771 13.389 8.547 18.803-7.909 5.927-6.168 14.744-6.168 14.744h-8.098c-3.406 0-2.839 2.776-2.839 2.776V239h19.526s-4.338-7.364 3.127-25.84c6.314-15.626 3.827-21.971-2.601-26.795" mask="url(#b)"/>
        <path fill="#FFA140" d="M294.996 185.165c-2.408 1.48-2.424 4.017-1.174 7.293 8.441-.743 16.965 6.04 19.768 12.542a22.586 22.586 0 0 1 4.41-1.027c-6.562-16.387-16.46-22.834-23.004-18.808" mask="url(#b)"/>
        <path fill="#004A97" d="M278.176 385h3.118s-8.942-78.892 3.706-110c-20.778 25.325-14.28 72.052-6.824 110M314.032 309.73c-.468-29.451 4.351-55.657-9.584-70.73H285c.18 3.362.67 12.765.67 16.126 0 4.122 4.199 3.817 4.199 3.817h10.47c3.44 0 1.113 2.443 6.689 5.19 5.576 2.75.898 14.964-.923 37.357-1.803 22.175 16.835 35.964 43.123 46.51l.772-2.729s-35.667-16.62-35.968-35.54" mask="url(#b)"/>
        <path fill="#FFF" d="M326.429 228h-36.857c-.868 0-1.572.697-1.572 1.557v25.886c0 .86.704 1.557 1.572 1.557h36.857c.867 0 1.571-.697 1.571-1.557v-25.886c0-.86-.704-1.557-1.571-1.557" mask="url(#b)"/>
        <path fill="#E7F1FF" d="M311 243c0 2.761-1.79 5-4 5s-4-2.239-4-5 1.79-5 4-5 4 2.239 4 5" mask="url(#b)"/>
        <path fill="#FFD3D4" d="M294.99 185.13c-7.38 4.417 7.76 18.49 12.954 33.429 5.194 14.939 4.533 32.26 2.243 38.173 0 0-2.283-.041-4.9-.041.394 2.269 6.227 6.552 10.972-.843 4.745-7.395 10.716-26.559 3.106-48.644-6.448-18.71-17.35-26.278-24.375-22.074" mask="url(#b)"/>
        <path fill="#F1BDBC" d="M310.5 257c-.163.048-.33.09-.5.12l.489-.087.011-.033" mask="url(#b)"/>
        <path fill="#F1BDBC" d="M319.313 207.198c-6.416-18.36-17.18-25.983-24.313-22.293l18.044 18.641c5.055 10.795 9.448 49.585-3.026 53.145-.004.012-.008.027-.014.04 0 0-3.115-.04-4.97-.04.399 2.269 6.316 6.552 11.128-.843 4.813-7.395 10.87-26.562 3.15-48.65" mask="url(#b)"/>
        <path fill="#FFC052" d="M318 203.203c-6.562-15.756-16.458-21.954-23.003-18.083-6 3.55 2.838 13.39 9.18 24.88 1.367-1.442 6.113-5.847 13.823-6.797" mask="url(#b)"/>
        <path fill="#F1BDBC" d="M284.12 192.833c-.99.535-3.668 1.558-4.654 1.01-3.29-1.827 3.212-10.12 2.021-14.366-1.62-5.776-5.755-4.463-7.52-5.665-3.032-2.065-6.57-12.844-1.148-19.588 5.424-6.743 12.982-4.473 16.061.267 2.4 3.694 1.46 8.778-.886 12.631-1.887 3.1-1.243 14.11 2.065 15.913 2.819 1.536-1.143 7.205-5.94 9.798" mask="url(#b)"/>
        <path fill="#FF6B12" d="M270.328 191.16c-3.326-7.16.103-14.502-1.875-24.684-1.98-10.181 2.39-22.828 15.925-20.1 11.658 2.35 10.004 15.284 19.572 19.128 12.637 5.075 4.092 17.847 16.586 25.134 14.921 8.701 9.786 21.208 1.078 25.362 0 0-2.1-12.581-10.323-23.527-9.152-12.18-17.567-2.771-23.027-7.503-5.472-4.74-.99-18.094-1.14-22.018-.123-3.23-2.479-2.025-5.687-3.98-4.39-2.677-5.95-7.094-5.95-7.094s-4.005 4.482-4.616 8.126c0 0-.518 3.112.152 6.361.565 2.74 2.331 6.41 3.473 7.046 1.935 1.079 5.519.063 7.095 5.147 1.04 2.223-.687 6.224-.687 6.224s-5.197 2.156-10.576 6.378" mask="url(#b)"/>
        <path fill="#FFD3D4" d="M280.563 162.599c-5.51-1.368-6.007-8.599-6.007-8.599-2.244 1.426-3.886 4.65-4.556 7.63.024 4.89 2.103 9.463 3.99 10.73 1.775 1.194 5.936-.109 7.566 5.623.319 1.12.088 2.525-.357 4.017 2.932-5.956 4.71-18.074-.636-19.401" mask="url(#b)"/>
        <path stroke="#001032" stroke-width="2" d="M274.093 160.055c.17 2.955 1.796 4.636 5.19 3.673 3.248-.92 2.679-5.728 2.679-5.728L274 159.317l.093.738zM272.855 161.05c.535 3.41-.381 4.757-3.208 4.945-2.715.181-3.647-5-3.647-5l6.67-.995.185 1.05zM273 160.523l1-.523M273 162c.04-1.127.588-1.301 1-.523" mask="url(#b)"/>
        <path fill="#FFC052" d="M220 143.5a3.5 3.5 0 1 1-7 0 3.5 3.5 0 0 1 7 0" mask="url(#b)"/>
        <path fill="#FF2300" d="M220 81.5a3.5 3.5 0 1 1-7 0 3.5 3.5 0 0 1 7 0" mask="url(#b)"/>
        <path fill="#0094FF" d="M220 209.5a3.5 3.5 0 1 1-7 0 3.5 3.5 0 0 1 7 0" mask="url(#b)"/>
        <path fill="#FFC052" d="M302 27c0 8.836-7.164 16-16 16s-16-7.164-16-16 7.164-16 16-16 16 7.164 16 16" mask="url(#b)"/>
        <path stroke="#FFF" stroke-width="5" d="M281 25.872L285.649 30 293 23" mask="url(#b)"/>
        <path stroke="#FFC052" stroke-dasharray="0,8" stroke-linecap="round" stroke-width="3" d="M123.778 64c-4.702-33.821 12.068-58.245 45.935-62.67C217.75-4.947 249.634 80.93 281 42.677" mask="url(#b)"/>
        <path stroke="#FF2300" stroke-dasharray="0,8" stroke-linecap="round" stroke-width="3" d="M396 273.77c68.182 43.054 139.195 24.474 142.827-22.359 2.908-37.504-31.472-57.618-52.453-51.245" mask="url(#b)"/>
        <path fill="#FF2300" d="M412 256c0 13.807-11.193 25-25 25s-25-11.193-25-25 11.193-25 25-25 25 11.193 25 25" mask="url(#b)"/>
        <path fill="#FFF" d="M389.207 267h-15.415c-.99 0-1.792-.802-1.792-1.792v-15.415c0-.99.802-1.793 1.792-1.793h15.415c.99 0 1.793.803 1.793 1.793v15.415c0 .99-.803 1.792-1.793 1.792" mask="url(#b)"/>
        <path fill="#FFF" d="M399.972 265.71l-8.497-7.163c-.633-.535-.633-1.56 0-2.093l8.497-7.164c.82-.691 2.028-.068 2.028 1.047v14.326c0 1.116-1.208 1.739-2.028 1.047" mask="url(#b)"/>
        <path fill="#004A97" d="M381.534 330.357l-5.89-5.89a5.608 5.608 0 0 1 0-7.933l5.89-5.891a5.61 5.61 0 0 1 7.933 0l5.89 5.89a5.61 5.61 0 0 1 0 7.934l-5.89 5.89a5.61 5.61 0 0 1-7.933 0M237 296.5a9.5 9.5 0 1 1-19 0 9.5 9.5 0 0 1 19 0M74 84.5C74 98.583 62.583 110 48.5 110S23 98.583 23 84.5 34.417 59 48.5 59 74 70.417 74 84.5" mask="url(#b)"/>
        <path fill="#FFF" d="M60.237 95H35.763A1.759 1.759 0 0 1 34 93.247V77.753c0-.968.79-1.753 1.763-1.753h24.474c.973 0 1.763.785 1.763 1.753v15.494c0 .968-.79 1.753-1.763 1.753" mask="url(#b)"/>
        <path fill="#E7F1FF" d="M41.5 78c-.829 0-1.5-.547-1.5-1.222v-1.556c0-.675.671-1.222 1.5-1.222s1.5.547 1.5 1.222v1.556c0 .675-.671 1.222-1.5 1.222M56.5 78c-.829 0-1.5-.547-1.5-1.222v-1.556c0-.675.671-1.222 1.5-1.222s1.5.547 1.5 1.222v1.556c0 .675-.671 1.222-1.5 1.222M44 84h3v-3h-3zM47 84h3v-3h-3zM51 84h3v-3h-3zM54 84h3v-3h-3zM58 84h3v-3h-3zM37 87h3v-3h-3zM47 87h3v-3h-3zM54 87h3v-3h-3zM58 87h3v-3h-3zM44 91h3v-3h-3zM47 91h3v-3h-3zM51 91h3v-3h-3zM58 91h3v-3h-3z" mask="url(#b)"/>
    </g>
</svg>
