<svg xmlns="http://www.w3.org/2000/svg" width="46" height="47" viewBox="0 0 46 47">
    <g fill="none" fill-rule="evenodd" stroke="#0061FC" stroke-linecap="round" stroke-linejoin="round" stroke-width="2" transform="translate(1 1.852)">
        <path d="M36 44v-4l7.123-8.9A4 4 0 0 0 44 28.6V17a3 3 0 0 0-6 0v7"/>
        <path d="M26 44V33.657a4 4 0 0 1 1.172-2.829L34 24a2.828 2.828 0 1 1 4 4l-6 6M8 44v-4L.877 31.1A4 4 0 0 1 0 28.6V17a3 3 0 0 1 6 0v7"/>
        <path d="M18 44V33.657a4 4 0 0 0-1.172-2.829L10 24a2.828 2.828 0 1 0-4 4l6 6M11 11h22"/>
        <circle cx="22" cy="11" r="11"/>
        <ellipse cx="22" cy="11" rx="4.714" ry="11"/>
    </g>
</svg>
