<?xml version="1.0" encoding="UTF-8" standalone="no"?><!DOCTYPE svg PUBLIC "-//W3C//DTD SVG 1.1//EN" "http://www.w3.org/Graphics/SVG/1.1/DTD/svg11.dtd"><svg width="100%" height="100%" viewBox="0 0 457 346" version="1.1" xmlns="http://www.w3.org/2000/svg" xmlns:xlink="http://www.w3.org/1999/xlink" xml:space="preserve" xmlns:serif="http://www.serif.com/" style="fill-rule:evenodd;clip-rule:evenodd;stroke-linejoin:round;stroke-miterlimit:1.41421;"><g><path d="M386.616,273.348l-42.3,-0.248c-18.732,-7.387 -34.79,-20.532 -45.309,-33.919l36.82,0.31l-0.805,-139.442l-6.113,-0.086c7.176,-13.071 17.672,-21.877 32.184,-21.877c5.708,0 12.046,1.364 19.038,4.365c65.593,28.152 -2.656,135.04 -2.656,135.04c0,0 13.173,-10.115 23.924,-10.115c3.191,0 6.169,0.891 8.527,3.203c13.065,12.815 -32.705,50.2 -32.705,50.2c0,0 9.351,-7.318 17.303,-7.318c2.729,0 5.293,0.862 7.258,3.178c6.194,7.303 -15.166,16.709 -15.166,16.709Z" style="fill:url(#_Linear1);"/><path d="M366.056,273.496l1.088,-0.531c-14.382,-29.469 -12.536,-71.983 -8.454,-102.457c4.43,-33.069 12.375,-59.491 12.455,-59.754l-1.158,-0.351c-0.08,0.264 -8.051,26.763 -12.494,59.926c-2.611,19.486 -3.512,37.431 -2.679,53.337c1.043,19.916 4.826,36.682 11.242,49.83Z" style="fill:#fff;fill-rule:nonzero;"/><path d="M355.628,206.931c17.139,-19.099 22.758,-51.915 22.813,-52.244l-1.194,-0.199c-0.054,0.326 -5.619,32.801 -22.52,51.634l0.901,0.809Z" style="fill:#fff;fill-rule:nonzero;"/><path d="M357.196,244.28l0.794,-0.914c-13.562,-11.782 -17.122,-34.007 -17.72,-50.578c-0.65,-18.021 1.966,-33.421 1.993,-33.575l-1.193,-0.206c-0.027,0.155 -2.665,15.68 -2.009,33.825c0.385,10.673 1.816,20.158 4.255,28.192c3.062,10.09 7.732,17.915 13.88,23.256Z" style="fill:#fff;fill-rule:nonzero;"/><path d="M361.114,258.728c17.725,-8.139 29.488,-28.821 29.605,-29.03l-1.055,-0.592c-0.116,0.205 -11.693,20.55 -29.055,28.522l0.505,1.1Z" style="fill:#fff;fill-rule:nonzero;"/><path d="M363.407,266.682l0.225,-1.189c-16.047,-3.044 -29.009,-14.077 -37.056,-22.797c-8.748,-9.479 -13.746,-18.353 -13.795,-18.442l-1.057,0.59c0.05,0.089 5.104,9.069 13.943,18.652c8.174,8.862 21.358,20.079 37.74,23.186Z" style="fill:#fff;fill-rule:nonzero;"/><path d="M365.349,270.937c14.001,-2.103 20.062,-6.142 20.313,-6.313l-0.68,-1.001l0.34,0.501l-0.34,-0.501c-0.059,0.041 -6.123,4.061 -19.813,6.117l0.18,1.197Z" style="fill:#fff;fill-rule:nonzero;"/><path d="M339.139,254.626c-31.592,12.458 -32.545,44.28 4.462,59.525c37.007,15.244 67.395,-6.886 61.177,-23.827c-6.218,-16.942 -27.39,-50.782 -65.639,-35.698Z" style="fill:#d1d3d4;fill-rule:nonzero;"/><path d="M402.146,284.136c-0.921,9.162 -4.051,17.27 -12.343,16.712c-18.612,-1.252 -12.571,-8.22 -34.604,-8.198c-22.034,0.023 -36.814,-15.769 -37.132,-20.514c-6.963,14.262 0.821,31.834 25.534,42.015c37.007,15.244 67.395,-6.886 61.177,-23.827c-0.691,-1.884 -1.568,-3.977 -2.632,-6.188Z" style="fill:#bcbec0;fill-rule:nonzero;"/><path d="M382.738,285.763c-6.032,-21.112 -1.253,-40.989 10.674,-44.397c11.928,-3.408 26.488,10.944 32.517,32.056c6.034,21.112 1.253,40.99 -10.67,44.398c-11.93,3.408 -26.489,-10.945 -32.521,-32.057Z" style="fill:#150063;fill-rule:nonzero;"/><path d="M399.307,240.017l-5.698,1.295l0.224,1.576l6.968,-1.191l-1.494,-1.68Z" style="fill:#150063;fill-rule:nonzero;"/><path d="M419.353,317.07l-4.872,0.983l-1.531,-1.579c0,0 3.086,-0.742 3.201,-0.759c0.12,-0.017 3,1.003 3,1.003l0.202,0.352Z" style="fill:#150063;fill-rule:nonzero;"/><path d="M387.641,284.748c-6.041,-21.146 -1.255,-41.056 10.692,-44.469c11.948,-3.413 26.53,10.962 32.569,32.108c6.043,21.147 1.257,41.056 -10.69,44.469c-11.947,3.414 -26.529,-10.961 -32.571,-32.108Z" style="fill:#f1f2f2;fill-rule:nonzero;"/><path d="M417.659,304.46c0.873,-0.264 2.155,-1.954 3.201,-6.304c1.488,-6.206 1.027,-14.371 -1.262,-22.401c-2.218,-7.751 -5.837,-14.537 -10.195,-19.106c-3.605,-3.78 -6.111,-4.314 -6.611,-4.244c-0.489,0.161 -2.153,1.954 -3.199,6.305c-1.492,6.206 -1.031,14.37 1.263,22.4c2.214,7.751 5.834,14.536 10.193,19.107c3.605,3.779 5.736,4.507 6.61,4.243Zm-11.137,0.074c-5.045,-5.29 -9.194,-12.999 -11.681,-21.705c-2.582,-9.035 -3.066,-18.36 -1.33,-25.582c1.427,-5.935 4.182,-9.892 7.563,-10.858c0.284,-0.081 0.575,-0.143 0.866,-0.183c3.441,-0.489 7.813,1.744 11.989,6.125c5.045,5.289 9.192,12.998 11.683,21.706c2.578,9.035 3.063,18.359 1.33,25.581c-1.431,5.935 -4.186,9.892 -7.565,10.858c-0.283,0.081 -0.576,0.143 -0.864,0.184c-3.442,0.488 -7.814,-1.745 -11.991,-6.126Z" style="fill:#ff002f;fill-rule:nonzero;"/><path d="M413.91,288.902c0.057,-0.008 0.11,-0.02 0.163,-0.034c0.802,-0.228 1.55,-1.424 1.958,-3.12c0.586,-2.439 0.413,-5.618 -0.475,-8.719c-0.854,-2.991 -2.265,-5.625 -3.974,-7.417c-1.464,-1.536 -2.703,-1.981 -3.375,-1.886c-0.055,0.008 -0.11,0.02 -0.163,0.035c-0.798,0.228 -1.547,1.423 -1.954,3.119c-0.587,2.44 -0.416,5.618 0.471,8.72c0.854,2.991 2.266,5.625 3.974,7.417c1.464,1.535 2.703,1.98 3.375,1.885Z" style="fill:#ff002f;fill-rule:nonzero;"/><path d="M434.094,219.718c0,0 -4.877,11.02 -6.836,14.336c0,0 2.775,7.696 3.404,9.698l6.254,-14.836c0,0 -1.353,-6.551 -2.822,-9.198Z" style="fill:#3b35c6;fill-rule:nonzero;"/><path d="M436.22,242.26l-5.558,1.492l6.254,-14.836l7.498,-2.845l-8.194,16.189Z" style="fill:#3b35c6;fill-rule:nonzero;"/><path d="M411.908,279.166c0.245,-0.035 0.48,-0.164 0.639,-0.379c10.66,-14.329 25.55,-49.893 25.699,-50.251c0.206,-0.49 -0.024,-1.054 -0.519,-1.259c-0.489,-0.205 -1.051,0.027 -1.257,0.518c-0.149,0.355 -14.947,35.703 -25.469,49.843c-0.317,0.427 -0.226,1.03 0.197,1.347c0.216,0.158 0.47,0.215 0.71,0.181Z" style="fill:#bcbec0;fill-rule:nonzero;"/><path d="M76.105,105.024l11.997,-16.724l-15.203,-10.906c0,0 18.586,-9.276 3.878,-20.873c-14.708,-11.598 -15.906,13.71 -15.906,13.71l-13.446,-9.855l-10.608,14.789c0,0 -9.49,-20.623 -22.04,-4.295c-12.549,16.327 10.259,21.593 13.332,17.309l-10.59,15.639l37.907,28.867l11.065,-15.717c0,0 -18.272,-3.479 -7.398,-18.287c9.062,-12.339 17.012,6.343 17.012,6.343Z" style="fill:#0061fc;fill-rule:nonzero;"/><path d="M7.967,199.075c-3.89,-1.156 -6.195,-2.779 -6.851,-4.822c-0.329,-1.023 -0.172,-1.974 0.101,-2.671c-0.736,-0.879 -1.125,-1.856 -1.159,-2.914c-0.044,-1.338 0.515,-2.487 0.985,-3.209c-0.643,-0.877 -0.956,-1.842 -0.93,-2.88c0.037,-1.531 0.834,-2.855 1.485,-3.688c-0.416,-0.523 -0.654,-1.173 -0.69,-1.912c-0.088,-1.801 1.061,-3.697 2.175,-4.422c0.594,-0.387 1.534,-0.466 4.787,0.223c2.411,0.511 5.431,1.312 8.096,2.018c1.954,0.519 3.642,0.966 4.619,1.174l0.035,0.007c-0.102,-0.645 -0.403,-1.684 -0.639,-2.499c-0.408,-1.407 -0.869,-3.002 -1.015,-4.437c-0.215,-2.125 0.653,-4.546 2.321,-6.475c1.183,-1.369 2.546,-2.184 3.74,-2.236c0.196,-0.008 0.39,0.007 0.575,0.047c2.03,0.43 2.423,3.194 2.878,6.395c0.169,1.185 0.343,2.41 0.599,3.527c0.868,3.774 6.082,11.15 6.135,11.224l0.279,0.393l-4.754,22.441l-1.058,-0.201c-0.023,-0.004 -2.313,-0.441 -5.569,-1.131c-4.522,-0.958 -10.995,-2.421 -16.145,-3.952Z" style="fill:#0061fc;fill-rule:nonzero;"/><path d="M40.957,211.98l-13.406,-4.867l6.377,-30.107c0,0 11.888,3.43 13.622,3.849c0,0 -3.952,25.352 -6.593,31.125Z" style="fill:#000e32;fill-rule:nonzero;"/><path d="M431.228,75.307l-2.198,-2.151c0,0 -16.416,18.352 -29.612,23.225c-13.195,4.874 -15.909,4.22 -15.955,6.887c-0.045,2.668 3.003,15.535 6.89,21.57c0,0 10.761,-4.217 15.721,-5.249c4.961,-1.032 32.849,-0.204 38.489,0.097l-6.432,-23.71l-6.903,-20.669Z" style="fill:#150063;fill-rule:nonzero;"/><path d="M408.038,117.061c0,0 10.221,34.811 10.312,36.495c0.096,1.685 -7.527,6.883 -9.871,2.673c-2.342,-4.211 -11.25,-38.367 -11.25,-38.367l10.809,-0.801Z" style="fill:#150063;fill-rule:nonzero;"/><path d="M399.418,96.381c0.587,-0.217 1.181,-0.461 1.78,-0.729c-2.75,8.191 0.811,21.613 7.864,23.624c-1.314,0.077 -2.345,0.179 -2.988,0.313c-4.96,1.032 -15.721,5.249 -15.721,5.249c-3.887,-6.035 -6.935,-18.902 -6.889,-21.57c0.045,-2.667 2.759,-2.013 15.954,-6.887Z" style="fill:#150063;fill-rule:nonzero;"/><path d="M430.138,98.644c4.292,12.849 10.877,22.227 14.717,20.945c3.836,-1.281 3.471,-12.736 -0.82,-25.585c-4.292,-12.849 -10.882,-22.227 -14.717,-20.945c-3.835,1.281 -3.471,12.736 0.82,25.585Z" style="fill:#78ceff;fill-rule:nonzero;"/><path d="M430.138,98.644c4.292,12.849 10.877,22.227 14.717,20.945c3.836,-1.281 3.471,-12.736 -0.82,-25.585c-4.292,-12.849 -10.882,-22.227 -14.717,-20.945c-3.835,1.281 -3.471,12.736 0.82,25.585Z" style="fill:#ffac0f;fill-rule:nonzero;"/><path d="M430.782,100.262l-0.072,0.034c-0.192,-0.545 -0.384,-1.094 -0.572,-1.652c-0.436,-1.307 -0.83,-2.598 -1.185,-3.866c2.39,-0.943 11.467,0.862 1.829,5.484Z" style="fill:#fff;fill-rule:nonzero;"/><path d="M410.372,133.39l2.184,-0.809l4.191,6.988l-4.536,1.933l-1.839,-8.112Z" style="fill:#ff002f;fill-rule:nonzero;"/><path d="M446.915,84.095c2.63,-2.348 5.26,-4.696 7.891,-7.044c0.888,-0.795 2.246,0.482 1.349,1.283c-2.626,2.347 -5.256,4.696 -7.887,7.043c-0.893,0.795 -2.251,-0.482 -1.353,-1.282Z" style="fill:#d1d3d4;fill-rule:nonzero;"/><path d="M286.397,276.406c-4.019,11.146 -112.87,15.913 -123.027,-2.034c-9.681,-17.106 118.855,-24.842 123.409,-4.412c0.224,1.004 0.024,5.32 -0.382,6.446Z" style="fill:#625dd1;fill-rule:nonzero;"/><path d="M286.397,272.446c-4.019,11.146 -112.87,15.913 -123.027,-2.034c-10.157,-17.947 131.695,-22.003 123.027,2.034Z" style="fill:#150063;fill-rule:nonzero;"/><path d="M335.022,100.049l0.805,139.442l-219.463,-1.846l-1.5,-140.718l220.158,3.122Z" style="fill:#625dd1;fill-rule:nonzero;"/><path d="M327.534,105.692l-205.096,-2.908l1.338,125.648l204.477,1.721l-0.719,-124.461Z" style="fill:#f1f2f2;fill-rule:nonzero;"/><path d="M252.66,230.594l-1.973,36.872c0,0 -52.078,-0.444 -52.119,-1.931c-0.04,-1.486 -0.909,-33.447 -0.909,-33.447l55.001,-1.494Z" style="fill:#3b35c6;fill-rule:nonzero;"/><path d="M335.827,239.491l-219.463,-1.846l-0.206,-19.325c43.15,0.092 181.316,0.384 219.55,0.442l0.119,20.729Z" style="fill:#150063;fill-rule:nonzero;"/><path d="M327.82,102.314c0,0 37.388,1.815 55,-15.292c12.414,-12.057 19.286,-55.806 -6.116,-76.088c-19.437,-15.519 -63.686,-14.749 -87.942,0.212c-24.87,15.34 -27.633,83.876 16.435,89.476c0,0 6.638,8.001 -2.456,31.959c0,0 21.096,-1.961 25.079,-30.267Z" style="fill:#ffc046;fill-rule:nonzero;"/><g><clipPath id="_clip2"><path d="M328.253,218.75l-205.815,-115.966l0.589,116.325l205.226,-0.359Z"/></clipPath><g clip-path="url(#_clip2)"><path d="M251.233,212.822l11.576,-26.877c2.947,8.557 5.889,17.327 5.889,17.327c-0.845,1.328 -10.525,6.186 -17.465,9.55Z" style="fill:#fff;"/><path d="M328.253,218.75c-0.021,0 -0.045,0 -0.066,0l0,-0.037l0.066,0.037" style="fill:#fff;fill-rule:nonzero;"/><path d="M328.187,218.75c-10.636,-0.018 -25.445,-0.046 -42.441,-0.08c3.189,-1.294 5.447,-2.669 6.132,-4.087c1.454,-3.008 0.742,-9.362 -1.038,-16.913l37.347,21.043l0,0.037Z" style="fill:#fff;fill-rule:nonzero;"/><path d="M285.36,218.825c0.13,-0.051 0.258,-0.103 0.386,-0.155c16.996,0.034 31.805,0.062 42.441,0.08l0.066,0l-42.893,0.075Z" style="fill:#fff;fill-rule:nonzero;"/><path d="M123.668,218.336c-0.218,-0.001 -0.429,-0.001 -0.644,-0.002l-0.586,-115.55l1.23,115.552Z" style="fill:#fff;fill-rule:nonzero;"/><path d="M168.886,218.431c-17.814,-0.037 -33.595,-0.071 -45.218,-0.095l-1.23,-115.552l48.977,27.596c-7.807,15.853 -3.095,31.687 7.936,39.072c-7.447,17.419 -15.182,41.118 -10.465,48.979Zm42.356,-7.934c-9.363,-2.508 -18.191,-5.283 -18.191,-6.829c0,0 1.53,-4.517 6.517,-17.617c3.269,5.24 9.619,16.098 11.674,24.446Z" style="fill:#fff;fill-rule:nonzero;"/><path d="M123.159,219.109l-0.132,0l-0.003,-0.775c0.215,0.001 0.426,0.001 0.644,0.002c11.623,0.024 27.404,0.058 45.218,0.095c0.126,0.211 0.262,0.41 0.406,0.597l-46.133,0.081Z" style="fill:#fff;fill-rule:nonzero;"/></g></g><path d="M258.027,85.468c-1.503,10.704 3.42,24.136 24.701,40.128c8.351,6.276 11.873,16.422 9.285,27.009c-4.98,20.37 -28.338,31.329 -28.338,31.329l-29.369,-45.316l-2.089,-37.156l11.572,-14.917l14.238,-1.077Z" style="fill:#150063;fill-rule:nonzero;"/><path d="M253.98,145.079c0,0 19.26,5.05 20.774,7.164c1.514,2.115 22.123,51.999 17.124,62.34c-3.503,7.245 -48.077,13.375 -48.077,13.375c0,0 -0.949,-4.178 0.38,-11.774c0,0 23.188,-10.824 24.517,-12.912c0,0 -11.225,-33.462 -11.794,-33.442c-0.57,0.02 -2.924,-24.751 -2.924,-24.751Z" style="fill:#ffc046;fill-rule:nonzero;"/><path d="M196.621,84.16c0,0 -3.967,19.956 -17.906,35.546c-21.254,23.774 -9.452,52.032 12.718,53.944c24.659,2.126 37.156,-32.017 37.156,-32.017l-4.976,-24.044l-15.281,-28.564l-11.711,-4.865Z" style="fill:#150063;fill-rule:nonzero;"/><path d="M218.469,227.479c2.779,0.763 5.105,4.098 12.959,4.917c0,0 10.065,11.881 11.95,10.898c1.885,-0.983 -0.491,-5.162 -0.491,-5.162c0,0 3.851,6.391 5.08,6.309c1.229,-0.082 2.2,-2.95 0.854,-5.572c0,0 2.505,5.081 4.308,3.278c1.802,-1.803 -2.704,-7.539 -2.704,-7.539c0,0 3.114,5.326 5.326,3.933c2.213,-1.393 -4.261,-7.046 -6.391,-9.914c-2.131,-2.868 -4.097,-7.948 -24.254,-9.423c-20.157,-1.475 -6.637,8.275 -6.637,8.275Z" style="fill:#f7d5a0;fill-rule:nonzero;"/><path d="M209.266,145.347c0,0 -17.312,2.827 -19.506,4.261c-4.169,2.727 -33.521,67.226 -17.647,71.278c15.874,4.051 52.842,6.076 52.842,6.076c0,0 7.87,-5.823 8.113,-11.14c0,0 -40.017,-8.863 -40.017,-12.154c0,0 1.801,-5.317 7.864,-21.143l7.138,-19.102l1.213,-18.076Z" style="fill:#ffc046;fill-rule:nonzero;"/><path d="M197.578,182.953c0,0 14.177,21.059 14.321,32.092l12.782,6.456l22.16,1.52l20.201,-46.904l-10.674,-30.443c0,0 -23.391,6.556 -24.151,6.916c-0.759,0.36 -25.771,-1.877 -25.771,-1.877l-10.308,14.443l1.44,17.797Z" style="fill:#ffc046;fill-rule:nonzero;"/><path d="M221.074,126.82c0,0 4.305,10.508 1.773,14.053c-2.532,3.545 -13.581,4.474 -13.581,4.474c0,0 -4.159,15.945 23.982,13.884c22.472,-1.646 20.146,-14.305 20.146,-14.305c0,0 -9.278,-2.154 -10.544,-3.8c-1.266,-1.646 1.216,-31.777 1.216,-31.777l-22.992,17.471Z" style="fill:#f7d5a0;fill-rule:nonzero;"/><path d="M200.505,89.04c0,0 -2.723,17.083 -0.602,26.349l11.67,-3.456c0,0 2.225,-14.242 2.225,-16.331c0,-2.089 -7.352,-10.134 -7.352,-10.134l-5.941,3.572Z" style="fill:#f7d5a0;fill-rule:nonzero;"/><path d="M214.677,149.339c0,0 4.372,10.255 19.15,9.174c14.778,-1.081 15.732,-10.297 15.732,-10.297l2.616,20.341c0,0 -1.941,12.323 -2.363,13.082c-0.422,0.76 -7.09,16.29 -7.09,16.29l-8.895,5.343l-13.724,-11.167l-8.188,-20.594c0,0 -0.506,-11.816 -0.506,-12.576c0,-0.759 -0.76,-9.537 -0.76,-9.537l4.028,-0.059Z" style="fill:#fff;fill-rule:nonzero;"/><path d="M215.414,144.028c0,0 -7.132,29.241 18.413,59.244c0,0 -21.835,-9.872 -32.231,-29.622l8.024,-5.86l-8.827,-3.79c0,0 3.255,-10.184 7.75,-18.498l6.871,-1.474Z" style="fill:#ffa031;fill-rule:nonzero;"/><path d="M246.841,142.678c0,0 9.019,37.806 -13.014,60.594c0,0 15.359,0.003 25.77,-32.661l-5.921,-2.47l7.025,-2.089c0,0 -0.91,-13.653 -6.721,-20.973l-7.139,-2.401Z" style="fill:#ffa031;fill-rule:nonzero;"/><path d="M222.998,132.884c0,-0.001 0,-0.002 -0.001,-0.003c-0.743,-3.145 -1.867,-5.923 -1.921,-6.056c0.054,0.133 1.179,2.912 1.922,6.059Z" style="fill:#14003e;fill-rule:nonzero;"/><path d="M242.721,129.435c0,-0.001 0,-0.003 0,-0.004c0,0.001 0,0.003 0,0.004Zm0.019,-0.396c0,-0.003 0,-0.006 0.001,-0.009c-0.001,0.004 -0.001,0.005 -0.001,0.009Zm0.002,-0.044c0.001,-0.006 0.001,-0.013 0.001,-0.02c0,0.007 0,0.013 -0.001,0.02Zm0.004,-0.076c0.001,-0.01 0.001,-0.02 0.002,-0.03c-0.001,0.01 -0.001,0.02 -0.002,0.03Zm0.003,-0.05c0.002,-0.056 0.005,-0.11 0.008,-0.165c-0.003,0.055 -0.006,0.11 -0.008,0.165Zm0.008,-0.168c0.376,-7.465 1.039,-15.987 1.246,-18.57c-0.207,2.583 -0.87,11.104 -1.246,18.57Z" style="fill:#14003e;fill-rule:nonzero;"/><path d="M221.076,126.825c0,-0.002 -0.001,-0.003 -0.001,-0.003c0,0 0.001,0.001 0.001,0.003Zm-0.002,-0.004c0,-0.001 0,-0.001 0,-0.001c0,0 0,0 0,0.001Z" style="fill:#14003e;fill-rule:nonzero;"/><path d="M244.004,110.116c0.007,-0.096 0.015,-0.183 0.021,-0.262c-0.006,0.079 -0.014,0.166 -0.021,0.262Zm0.022,-0.272c0.001,-0.023 0.003,-0.044 0.005,-0.065c-0.002,0.02 -0.004,0.042 -0.005,0.065Zm0.006,-0.076c0,-0.004 0.001,-0.009 0.001,-0.013c0,0.004 -0.001,0.009 -0.001,0.013Zm0.001,-0.016c0.002,-0.023 0.003,-0.045 0.005,-0.066c-0.002,0.021 -0.003,0.043 -0.005,0.066Zm0.007,-0.088c0.001,-0.004 0.001,-0.009 0.001,-0.014c0,0.005 0,0.01 -0.001,0.014Zm0.002,-0.018c0,-0.005 0,-0.01 0.001,-0.014c-0.001,0.004 -0.001,0.009 -0.001,0.014Zm0.002,-0.024c0,-0.002 0,-0.004 0,-0.007c0,0.002 0,0.005 0,0.007Zm0.001,-0.016c0,-0.009 0.001,-0.018 0.002,-0.028c-0.001,0.01 -0.002,0.019 -0.002,0.028Zm0.003,-0.036c0,-0.004 0,-0.007 0,-0.01c0,0.003 0,0.006 0,0.01Zm0.001,-0.017c0,-0.001 0,-0.003 0,-0.004c0,0.001 0,0.003 0,0.004Zm0.001,-0.017c0.001,-0.002 0.001,-0.004 0.001,-0.005c0,0.001 0,0.003 -0.001,0.005Zm0.001,-0.012c0.001,-0.012 0.002,-0.023 0.003,-0.034c-0.001,0.011 -0.002,0.022 -0.003,0.034Zm0.005,-0.056c0,-0.001 0,-0.003 0.001,-0.005c-0.001,0.002 -0.001,0.004 -0.001,0.005Zm0.005,-0.057c0,-0.001 0,-0.002 0,-0.003c0,0.001 0,0.002 0,0.003Zm0,-0.006c0,-0.003 0,-0.005 0.001,-0.008c-0.001,0.003 -0.001,0.005 -0.001,0.008Zm0.001,-0.01c0,-0.001 0,-0.002 0,-0.003c0,0.001 0,0.002 0,0.003Zm0,-0.006c0.001,-0.001 0.001,-0.002 0.001,-0.003c0,0.001 0,0.002 -0.001,0.003Zm0.001,-0.005c0,-0.001 0,-0.001 0,-0.001c0,0 0,0 0,0.001Zm0,-0.003c0,-0.001 0,-0.002 0,-0.004c0,0.002 0,0.003 0,0.004Zm0.001,-0.006c0,0 0,-0.001 0,-0.002c0,0.001 0,0.002 0,0.002Zm0,-0.003c0,-0.001 0,-0.001 0,-0.001c0,0 0,0 0,0.001Zm0,-0.003c0.001,-0.005 0.001,-0.008 0.001,-0.011c0,0.003 0,0.006 -0.001,0.011Zm0.001,-0.016c0.001,-0.001 0.001,-0.002 0.001,-0.003c0,0.001 0,0.002 -0.001,0.003Zm0.001,-0.003c0,-0.001 0,-0.001 0,-0.001c0,0 0,0 0,0.001Z" style="fill:#14003e;fill-rule:nonzero;"/><path d="M231.494,134.343c-4.984,-0.001 -8.42,-1.242 -8.496,-1.459c-0.743,-3.147 -1.868,-5.926 -1.922,-6.059l0,0c0,-0.002 -0.001,-0.003 -0.001,-0.003c0,-0.001 0,-0.001 -0.001,-0.001c0,-0.001 0,-0.001 0,-0.001l22.992,-17.471l0,0.001c0,0.001 0,0.002 -0.001,0.003c0,0.001 0,0.003 0,0.005c0,0.003 0,0.006 -0.001,0.011c0,0 0,0.001 0,0.002c0,0 0,0 0,0.001l0,0.003c0,0.001 -0.001,0.002 -0.001,0.002c0,0.002 0,0.003 0,0.004c0,0 0,0.001 0,0.002l0,0.003c0,0.001 0,0.002 -0.001,0.003c0,0.001 0,0.002 0,0.003c0,0.001 0,0.002 0,0.003c0,0.001 0,0.001 0,0.002c-0.001,0.003 -0.001,0.005 -0.001,0.008c0,0.001 0,0.002 0,0.003c0,0.001 0,0.002 0,0.003c-0.002,0.015 -0.003,0.032 -0.004,0.052c-0.001,0.002 -0.001,0.004 -0.001,0.005c0,0.007 -0.001,0.014 -0.002,0.022c-0.001,0.011 -0.002,0.022 -0.003,0.034c0,0.003 0,0.004 0,0.007c0,0.001 0,0.003 -0.001,0.005c0,0.004 0,0.008 -0.001,0.013c0,0.001 0,0.003 0,0.004c0,0.002 0,0.005 -0.001,0.007c0,0.003 0,0.006 0,0.01c-0.001,0.003 -0.001,0.006 -0.001,0.008c-0.001,0.01 -0.002,0.019 -0.002,0.028c0,0.003 0,0.006 -0.001,0.009c0,0.003 0,0.005 0,0.007c-0.001,0.003 -0.001,0.007 -0.001,0.01c-0.001,0.004 -0.001,0.009 -0.001,0.014c0,0.001 -0.001,0.002 -0.001,0.004c0,0.005 0,0.01 -0.001,0.014c-0.001,0.008 -0.001,0.015 -0.002,0.022c-0.002,0.021 -0.003,0.043 -0.005,0.066c0,0.001 0,0.002 0,0.003c0,0.004 -0.001,0.009 -0.001,0.013c0,0.004 -0.001,0.007 -0.001,0.011c-0.002,0.021 -0.004,0.042 -0.005,0.065c-0.001,0.003 -0.001,0.007 -0.001,0.01c-0.006,0.079 -0.014,0.166 -0.021,0.262c-0.001,0.005 -0.001,0.01 -0.001,0.015c-0.207,2.583 -0.87,11.105 -1.246,18.57c0,0.001 0,0.002 0,0.003c-0.003,0.055 -0.006,0.109 -0.008,0.165c0,0.007 -0.001,0.013 -0.001,0.02c-0.001,0.01 -0.001,0.02 -0.002,0.03c-0.001,0.019 -0.002,0.038 -0.003,0.056c0,0.007 0,0.014 -0.001,0.02c0,0.011 -0.001,0.024 -0.001,0.035c-0.001,0.003 -0.001,0.006 -0.001,0.009c-0.006,0.13 -0.013,0.262 -0.019,0.392c0,0.001 0,0.003 0,0.004c-0.045,0.94 -0.086,1.86 -0.119,2.744c-4.025,1.646 -7.889,2.164 -11.108,2.164Z" style="fill:#efb264;fill-rule:nonzero;"/><path d="M201.766,86.545c0,0 -3.526,44.898 21.595,44.9c26.029,0.002 29.238,-52.348 18.979,-55c-10.259,-2.651 -35.944,-1.839 -40.574,10.1Z" style="fill:#f7d5a0;fill-rule:nonzero;"/><path d="M199.094,93.651c-9.46,-2.786 -12.752,-22.474 5.479,-32.57c18.23,-10.096 54.511,-8.824 55.015,13.566c0.436,19.377 -12.394,20.053 -12.394,20.053c0,0 0.867,-8.238 -9.742,-11.128c-10.609,-2.889 -23.811,14.361 -38.358,10.079Z" style="fill:#150063;fill-rule:nonzero;"/><path d="M243.507,97.872c0,0 7.624,-7.763 8.652,-3.524c1.029,4.24 -3.084,16.688 -8.37,15.401c-5.287,-1.286 -0.282,-11.877 -0.282,-11.877Z" style="fill:#f7d5a0;fill-rule:nonzero;"/><path d="M231.429,232.398c0,0 0,-0.001 0,-0.001c0,0 0,0.001 0,0.001Z" style="fill:#14003e;fill-rule:nonzero;"/><path d="M233.537,233.45c-0.676,0 -1.151,-0.054 -1.32,-0.138c-0.475,-0.546 -0.765,-0.888 -0.788,-0.914c0,0 0,-0.001 0,-0.001c-0.001,0 -0.001,-0.001 -0.001,-0.001c-0.871,-0.091 -1.673,-0.213 -2.415,-0.358l2.399,-5.194l6.154,-4.459l5.113,0.351c1.235,0.562 2.212,1.151 3.004,1.742c1.784,7.301 -8.354,8.972 -12.146,8.972Z" style="fill:#efb264;fill-rule:nonzero;"/><path d="M242.679,222.736l-5.113,-0.351l1.383,-1.003c1.459,0.423 2.687,0.879 3.73,1.354Z" style="fill:#ba9f95;fill-rule:nonzero;"/><path d="M222.917,222.843c0,0 -13.552,0.842 -15.67,3.553c-2.118,2.712 9.414,1.844 9.414,1.844l6.256,-5.397Z" style="fill:#f7d5a0;fill-rule:nonzero;"/><path d="M220.161,223.075c1.641,-0.163 2.756,-0.232 2.756,-0.232l0,0c-0.028,0.002 -1.136,0.072 -2.756,0.232Z" style="fill:#ba9f95;fill-rule:nonzero;"/><path d="M212.884,228.372c-0.027,0 -0.055,0 -0.082,0c0,0 3.322,-2.275 4.151,-4.922c1.162,-0.158 2.263,-0.281 3.195,-0.373c0.004,-0.001 0.008,-0.001 0.013,-0.002c1.62,-0.16 2.728,-0.23 2.756,-0.232l-6.256,5.397c0,0 -1.759,0.132 -3.777,0.132Z" style="fill:#efb264;fill-rule:nonzero;"/><path d="M244.983,223.989c-1.037,1.618 -5.364,7.588 -13.217,8.407c0,0 -10.066,11.881 -11.951,10.898c-1.884,-0.983 0.492,-5.162 0.492,-5.162c0,0 -3.851,6.391 -5.081,6.309c-1.229,-0.082 -2.2,-2.949 -0.854,-5.572c0,0 -2.505,5.081 -4.308,3.278c-1.803,-1.803 2.704,-7.539 2.704,-7.539c0,0 -3.114,5.326 -5.326,3.933c-2.212,-1.393 4.004,-7.257 6.391,-9.914c4.366,-4.86 10.552,-9.899 30.709,-11.374l0.441,6.736Z" style="fill:#f7d5a0;fill-rule:nonzero;"/><path d="M143.053,296.078c-10.62,5.327 -26.583,7.693 -47.129,0c-6.312,-2.364 -16.679,-12.071 -14.427,-18.498c2.248,-6.416 10.685,-3.881 10.685,-3.881c0,0 -33.608,-24.79 -22.707,-36.291c8.694,-9.174 28.213,12.664 28.213,12.664c0,0 -45.298,-61.381 -19.255,-76.422c29.976,-17.312 49.692,45.794 49.692,45.794c0,0 1.041,-14.071 11.588,-15.881c13.05,-2.24 43.415,46.989 3.34,92.515Z" style="fill:url(#_Linear3);"/><path d="M123.466,296.109c1.497,-32.975 -8.232,-61.001 -16.658,-78.705c-9.129,-19.184 -18.753,-30.741 -18.85,-30.856l-1.059,0.89c0.095,0.114 9.625,11.564 18.679,30.601c8.349,17.553 17.989,45.336 16.506,78.007l1.382,0.063Z" style="fill:#fff;fill-rule:nonzero;"/><path d="M122.36,278.797l0.33,-1.344c-16.223,-3.994 -43.871,-31.756 -44.148,-32.036l-0.983,0.973c1.144,1.155 28.202,28.32 44.801,32.407Z" style="fill:#fff;fill-rule:nonzero;"/><path d="M121.511,291.345c0.48,0 0.956,-0.008 1.435,-0.025l-0.048,-1.382c-13.469,0.467 -27.579,-6.121 -27.72,-6.188l-0.592,1.251c0.14,0.066 13.574,6.344 26.925,6.344Z" style="fill:#fff;fill-rule:nonzero;"/><path d="M123.069,285.053c10.18,-2.083 19.544,-5.908 23.836,-13.786c5.569,-10.224 2.897,-24.677 1.375,-33.973c-1.643,-10.028 -4.633,-17.774 -4.663,-17.85l-1.289,0.501c0.118,0.303 13.686,31.714 3.36,50.663c-4.087,7.502 -13.136,11.093 -22.896,13.09l0.277,1.355Z" style="fill:#fff;fill-rule:nonzero;"/><path d="M133.654,294.29c4.641,5.365 11.303,8.406 27.617,4.206c5.37,-1.383 16.887,-7.095 14.236,-17.007c-2.652,-9.912 -13.705,1.638 -13.705,1.638c0,0 31.346,-49.241 8.692,-57.115c-23.979,-8.335 -26.399,43.937 -26.399,43.937c0,0 -2.14,-7.097 -7.036,-6.136c-5.748,1.128 -15.287,16.743 -3.405,30.477Z" style="fill:url(#_Linear4);"/><path d="M147.402,295.625c0.148,-0.217 14.803,-22.141 20.027,-57.737l-1.694,-0.249c-5.168,35.213 -19.605,56.81 -19.75,57.025l1.417,0.961Z" style="fill:#fff;fill-rule:nonzero;"/><path d="M154.085,292.373c8.389,0 11.702,-3.149 11.863,-3.307l-1.197,-1.225c-0.042,0.04 -4.293,3.962 -15.554,2.482l-0.223,1.698c1.88,0.247 3.581,0.352 5.111,0.352Z" style="fill:#fff;fill-rule:nonzero;"/><path d="M147.885,293.433l0.7,-1.563c-12.297,-5.512 -10.21,-19.809 -10.187,-19.953l-1.692,-0.265c-0.025,0.157 -2.299,15.74 11.179,21.781Z" style="fill:#fff;fill-rule:nonzero;"/><path d="M150.835,298.509c-3.472,-3.401 -6.298,-7.385 -11.481,-7.385c-5.183,0 -15.609,2.027 -17.213,4.199c-1.604,2.172 -7.729,10.064 -0.656,12.598c7.072,2.535 38.885,-0.072 29.35,-9.412Z" style="fill:#d1d3d4;fill-rule:nonzero;"/><path d="M127.942,299.98c5.466,0.939 7.961,1.86 12.892,2.053c4.932,0.193 7.546,-5.02 7.481,-6.103c0.831,0.848 1.655,1.732 2.52,2.579c9.535,9.34 -22.278,11.947 -29.35,9.412c-4.142,-1.484 -3.758,-4.805 -2.406,-7.739l0,0c1.594,-0.79 3.397,-1.142 8.863,-0.202Z" style="fill:#bcbec0;fill-rule:nonzero;"/><path d="M118.967,284.207c12.901,13.35 5.796,31.756 -16.428,33.202c-22.223,1.445 -32.216,-17.205 -25.054,-25.681c7.161,-8.476 25.861,-23.684 41.482,-7.521Z" style="fill:#d1d3d4;fill-rule:nonzero;"/><path d="M80.282,288.703c-1.721,5.427 -2.081,10.685 2.217,11.997c9.649,2.946 8.275,-2.232 19.338,2.117c11.063,4.349 22.251,-1.784 23.541,-4.438c0.099,9.535 -7.998,18.065 -22.839,19.03c-22.223,1.445 -32.216,-17.205 -25.054,-25.681c0.796,-0.943 1.735,-1.969 2.797,-3.025Z" style="fill:#bcbec0;fill-rule:nonzero;"/><path d="M100.539,340.822c0,0 -10.955,2.581 -13.774,4.409l-7.494,-20.702l4.819,-24.341l8.39,-8.218c0,0 10.713,33.1 8.059,48.852Z" style="fill:#ff6f06;fill-rule:nonzero;"/><path d="M86.765,345.231l-63.074,-7.897c0,0 1.401,-40.58 6.839,-54.62l61.95,9.256c0,0 -1.787,45.847 -5.715,53.261Z" style="fill:#ffac0f;fill-rule:nonzero;"/><path d="M43.338,271.83c-1.095,0.233 -1.826,1.829 -1.954,4.27c-0.135,2.568 0.389,5.497 1.429,7.962c1.67,-3.953 2.202,-9.532 1.221,-11.666c-0.228,-0.496 -0.438,-0.58 -0.582,-0.58c-0.045,0 -0.083,0.008 -0.114,0.014Zm8.083,7.11c-0.302,1.516 0.067,4.214 1.092,6.885c0.858,-2.336 1.028,-5.23 0.418,-6.886c-0.129,-0.347 -0.408,-0.935 -0.843,-0.978l-0.038,-0.002c-0.357,0 -0.539,0.529 -0.629,0.981Zm11.599,-2.506c-0.4,0.096 -1.127,0.981 -1.491,3.024c-0.488,2.744 -0.227,7.396 2.422,11.837c2.399,-3.974 1.999,-11.52 -0.139,-14.343c-0.155,-0.204 -0.443,-0.527 -0.715,-0.527l-0.077,0.009Zm11.618,8.985c-2.147,3.076 -2.321,6.523 -0.489,9.708c0.614,1.068 1.438,2.055 2.376,2.903c0.273,-0.259 0.529,-0.566 0.768,-0.92c2.767,-4.086 2.159,-12.132 0.194,-13.483c-0.159,-0.11 -0.326,-0.158 -0.499,-0.158c-0.846,0 -1.801,1.163 -2.35,1.95Zm1.839,14.336c-1.562,0.934 -3.881,1.189 -7.143,-0.987c-2.338,-1.56 -4.133,-3.34 -5.494,-5.199c-1.371,1.246 -3.11,1.615 -5.019,1.037c-2.738,-0.83 -4.889,-3.119 -6.385,-5.79c-0.149,0.194 -0.305,0.376 -0.47,0.547c-1.349,1.401 -3.035,1.826 -4.877,1.227c-1.765,-0.574 -3.194,-1.921 -4.294,-3.647c-0.486,0.719 -1.025,1.327 -1.617,1.778c-1.282,0.981 -3.368,1.683 -6.022,-0.539c-6.557,-5.488 -2.815,-13.33 -2.776,-13.409c0.164,-0.334 0.568,-0.472 0.902,-0.308c0.335,0.163 0.474,0.567 0.311,0.903c-0.138,0.282 -3.304,6.979 2.43,11.778c1.603,1.342 3.021,1.506 4.335,0.502c0.627,-0.479 1.191,-1.183 1.688,-2.035c-1.499,-3.013 -2.16,-6.743 -2.011,-9.584c0.165,-3.135 1.267,-5.147 3.022,-5.52c0.437,-0.093 1.527,-0.15 2.205,1.323c1.223,2.66 0.533,9.41 -1.69,13.782c1.02,1.801 2.358,3.179 3.935,3.692c1.353,0.439 2.493,0.152 3.486,-0.88c0.272,-0.283 0.522,-0.614 0.748,-0.98c-1.477,-3.208 -2.06,-6.69 -1.645,-8.77c0.4,-2.009 1.618,-2.109 2.125,-2.059c0.613,0.061 1.453,0.432 1.977,1.855c0.828,2.249 0.503,6.215 -0.944,9.04c1.321,2.645 3.314,4.999 5.959,5.801c1.518,0.461 2.811,0.166 3.858,-0.873c-3.105,-4.912 -3.416,-10.161 -2.872,-13.219c0.414,-2.323 1.326,-3.817 2.505,-4.101c0.447,-0.108 1.325,-0.118 2.184,1.016c2.748,3.628 2.703,12.324 -0.084,16.324l-0.049,0.069c1.295,1.827 3.032,3.584 5.328,5.115c2.079,1.387 3.848,1.773 5.285,1.161c-0.936,-0.887 -1.757,-1.903 -2.39,-3.005c-2.107,-3.664 -1.911,-7.625 0.552,-11.154c2.207,-3.162 3.906,-2.693 4.723,-2.132c2.962,2.036 3.056,11.076 0.159,15.353c-0.223,0.33 -0.5,0.684 -0.834,1.02c1.926,1.412 4.151,2.241 6.021,2.088c1.631,-0.135 2.746,-0.975 3.315,-2.498c2.748,-7.36 -3.238,-12.682 -4.276,-13.254c-0.293,-0.103 -0.485,-0.399 -0.445,-0.72c0.046,-0.37 0.384,-0.631 0.754,-0.586c0.6,0.075 2.734,1.904 4.193,4.315c1.423,2.348 2.758,6.114 1.039,10.717c-0.746,1.998 -2.333,3.196 -4.469,3.372c-0.185,0.015 -0.372,0.023 -0.561,0.023c-2.172,-0.001 -4.604,-0.99 -6.672,-2.589Z" style="fill:#150063;fill-rule:nonzero;"/><path d="M86.066,321.426c0,0 -7.65,-0.412 -10.359,-1.637l0.909,-12.699l11.121,0.983l-1.671,13.353Z" style="fill:#fff;fill-rule:nonzero;"/><path d="M70.705,319.276c-0.313,-0.039 -10.909,-1.775 -12.144,-2.429l1.83,-12.447l11.72,2.194l-1.406,12.682Z" style="fill:#fff;fill-rule:nonzero;"/><path d="M54.942,316.394c0,0 -11.49,-2.211 -12.575,-2.256l1.982,-12.564l12.424,2.373l-1.831,12.447Z" style="fill:#fff;fill-rule:nonzero;"/><path d="M39.062,313.27l-9.332,-0.942l0.981,-12.916l9.892,1.556l-1.541,12.302Z" style="fill:#fff;fill-rule:nonzero;"/><path d="M85.466,326.213c0,0 -7.917,-1.355 -10.109,-1.993l-2.582,13.544c0,0 8.789,1.284 10.267,1.276l2.424,-12.827Z" style="fill:#fff;fill-rule:nonzero;"/><path d="M69.877,324.443c0,0 -10.965,-2.418 -11.474,-2.346l-1.21,13.298c0,0 9.905,1.44 11.265,1.828l1.419,-12.78Z" style="fill:#fff;fill-rule:nonzero;"/><path d="M53.944,322.145c0,0 -9.677,-1.806 -11.812,-1.734l-1.483,11.844l10.954,2.136l2.341,-12.246Z" style="fill:#fff;fill-rule:nonzero;"/><path d="M37.872,319.515l-9.53,-1.181l-1.384,13.23l10.518,0.908l0.396,-12.957Z" style="fill:#fff;fill-rule:nonzero;"/><path d="M58.133,306.962c-1.916,2.477 -6.747,5.951 -9.978,3.994c-1.63,-0.988 -2.692,-3.332 -3.635,-4.919c-1.173,-1.975 -2.224,-4.015 -3.18,-6.103c-1.071,-2.337 2.396,-4.384 3.474,-2.03c1.315,2.871 2.82,5.647 4.545,8.293c0.316,0.484 0.545,1.129 1.055,1.188c0.513,0.059 1.345,-0.405 1.792,-0.629c1.254,-0.629 2.23,-1.537 3.081,-2.639c0.67,-0.867 2.139,-0.692 2.846,0c0.858,0.839 0.661,1.99 0,2.845Z" style="fill:#ff002f;fill-rule:nonzero;"/><path d="M314.69,307.09l2.594,23.408c0,0 -121.944,10.873 -138.079,14.408l-33.309,-8.685l27.361,-17.376c0,0 133.778,-10.201 141.433,-11.755Z" style="fill:#f1f2f2;fill-rule:nonzero;"/><path d="M314.69,307.09c-7.405,1.503 -134.168,11.257 -141.077,11.73l13.456,9.073l-12.355,6.907l8.773,4.447l-4.282,5.659c16.135,-3.534 138.079,-14.408 138.079,-14.408l-2.594,-23.408Z" style="fill:#ff002f;fill-rule:nonzero;"/><path d="M145.896,336.221l14.774,3.852l-2.165,-11.86l-12.609,8.008Z" style="fill:#ff002f;fill-rule:nonzero;"/><path d="M187.099,328.181l128.476,-13.088l-0.059,-0.576l-128.475,13.088l0.058,0.576Z" style="fill:#fff;fill-rule:nonzero;"/><path d="M183.522,339.534l132.895,-16.356l-0.071,-0.575l-132.895,16.357l0.071,0.574Z" style="fill:#fff;fill-rule:nonzero;"/><path d="M208.968,195.888c0.013,0.007 4.463,2.85 10.721,2.851c3.128,0.001 6.709,-0.713 10.401,-2.848l-0.152,-0.262c-3.643,2.107 -7.166,2.807 -10.249,2.807c-3.083,0 -5.725,-0.702 -7.596,-1.404c-0.935,-0.351 -1.677,-0.702 -2.185,-0.965c-0.254,-0.131 -0.449,-0.24 -0.58,-0.317c-0.131,-0.076 -0.197,-0.118 -0.197,-0.118l-0.163,0.256Z" style="fill:#fff;fill-rule:nonzero;"/><path d="M236.061,195.685c0.013,0.008 4.566,3.251 10.837,3.253c3.112,0 6.648,-0.803 10.241,-3.2l-0.168,-0.252c-3.543,2.362 -7.012,3.148 -10.073,3.149c-3.082,0 -5.751,-0.8 -7.647,-1.601c-0.949,-0.4 -1.704,-0.8 -2.221,-1.1c-0.259,-0.15 -0.458,-0.274 -0.593,-0.361c-0.066,-0.043 -0.117,-0.077 -0.151,-0.101l-0.05,-0.034l-0.175,0.247Z" style="fill:#fff;fill-rule:nonzero;"/></g><defs><linearGradient id="_Linear1" x1="0" y1="0" x2="1" y2="0" gradientUnits="userSpaceOnUse" gradientTransform="matrix(21.5989,-183.591,183.591,21.5989,336.468,319.955)"><stop offset="0" style="stop-color:#0a02b8;stop-opacity:1"/><stop offset="0.2" style="stop-color:#1601b1;stop-opacity:1"/><stop offset="1" style="stop-color:#ff002f;stop-opacity:1"/></linearGradient><linearGradient id="_Linear3" x1="0" y1="0" x2="1" y2="0" gradientUnits="userSpaceOnUse" gradientTransform="matrix(-34.6221,-143.645,143.645,-34.6221,129.647,301.691)"><stop offset="0" style="stop-color:#0a02b8;stop-opacity:1"/><stop offset="0.2" style="stop-color:#1601b1;stop-opacity:1"/><stop offset="1" style="stop-color:#ff002f;stop-opacity:1"/></linearGradient><linearGradient id="_Linear4" x1="0" y1="0" x2="1" y2="0" gradientUnits="userSpaceOnUse" gradientTransform="matrix(17.9991,-102.955,102.955,17.9991,145.419,318.949)"><stop offset="0" style="stop-color:#0a02b8;stop-opacity:1"/><stop offset="0.2" style="stop-color:#1601b1;stop-opacity:1"/><stop offset="1" style="stop-color:#ff002f;stop-opacity:1"/></linearGradient></defs></svg>