<?xml version="1.0" encoding="UTF-8" standalone="no"?><!DOCTYPE svg PUBLIC "-//W3C//DTD SVG 1.1//EN" "http://www.w3.org/Graphics/SVG/1.1/DTD/svg11.dtd"><svg width="100%" height="100%" viewBox="0 0 149 114" version="1.1" xmlns="http://www.w3.org/2000/svg" xmlns:xlink="http://www.w3.org/1999/xlink" xml:space="preserve" xmlns:serif="http://www.serif.com/" style="fill-rule:evenodd;clip-rule:evenodd;stroke-linejoin:round;stroke-miterlimit:1.41421;"><path d="M57.353,104.829c-8.638,0 -18.334,-3.142 -21.638,-7.48c-2.466,-3.238 1.72,-3.829 0.337,-7.618c-1.908,-5.228 -6.94,-6.297 -11.735,-6.297c-0.098,0 -0.197,0.001 -0.295,0.001c-2.468,0.022 -4.723,0.107 -6.758,0.107c-7.627,0 -12.15,-1.187 -13.138,-11.297c-0.294,-3.008 2.467,-6.106 4.266,-9.257c0.374,0.301 0.787,0.566 1.241,0.788c2.948,1.444 6.379,1.567 7.075,5.27c0.483,2.574 -1.093,5.036 -0.126,7.557c2.316,6.041 9.463,3.899 14.334,5.3c3.161,0.91 5.587,1.916 9.055,2.043c0.679,0.025 1.358,0.037 2.038,0.037c0.46,0 0.921,-0.006 1.382,-0.015c0.021,0.217 0.04,0.441 0.044,0.69l-0.841,0c-0.444,0 -0.804,0.376 -0.804,0.841l0,4.477c0,0.464 0.36,0.841 0.804,0.841l3.375,0c0.054,0.004 0.109,0.006 0.162,0.006c0.056,0 0.112,-0.002 0.167,-0.006l1.316,0c1.302,2.976 4.25,5.053 7.677,5.053l24.557,0c4.633,0 8.389,-3.795 8.389,-8.476l0,-8.377c8.336,-0.466 16.315,-2.256 24.387,-4.485c5.694,-1.572 15.125,-12.249 12.044,-21.756c0.212,0.031 0.424,0.067 0.635,0.106c8.835,1.668 19.317,22.446 5.83,24.582c-6.658,1.054 -11.215,-0.482 -14.526,6.487c-1.507,3.171 -4.762,14.105 -20.535,14.104c-0.508,0 -1.033,-0.011 -1.568,-0.035c-5.028,-0.22 -8.854,-0.69 -12.217,-0.69c-4.57,0 -8.284,0.868 -12.991,4.41c-2.874,2.163 -7.253,3.089 -11.943,3.089Z" style="fill:#ffc154;fill-rule:nonzero;"/><path d="M6.207,65.751c-5.993,-4.714 -3.599,-17.158 3.358,-20.478c3.343,-1.596 10.371,-6.59 8.942,-9.306c-5.115,-9.716 0.566,-21.011 10.963,-24.945c2.028,-0.768 4.016,-1.03 5.993,-1.03c2.128,0 4.244,0.304 6.387,0.607c2.143,0.304 4.313,0.607 6.547,0.607c0.947,0 1.906,-0.054 2.879,-0.186c0.44,-0.06 0.805,-0.105 1.109,-0.138c-0.357,1.012 -0.551,2.1 -0.551,3.233l0,26.542c-3.322,1.026 -5.821,2.127 -8.748,4.247c-2.779,2.013 -6.917,4.109 -10.222,4.703c-0.339,0.061 -0.67,0.089 -0.992,0.089c-2.292,0 -4.22,-1.434 -6.438,-2.869c-2.217,-1.434 -4.723,-2.869 -8.17,-2.869c-2.069,0 -4.477,0.517 -7.367,1.862c-4.551,2.118 -2.651,9.628 -2.001,13.838c0.316,2.045 -0.513,4.078 -1.689,6.093Zm33.467,-38.698c0.179,0.354 1.957,0.048 2.626,0.048c0.023,0 -0.563,-5.253 -0.539,-5.254c0.701,-0.022 0.772,-0.337 0.539,5.254c0.147,-0.063 0.239,-0.145 0.237,-0.211c0.001,-0.008 0.001,-0.015 -0.001,-0.023c-0.007,-0.031 -0.033,-0.056 -0.076,-0.073c0.011,-0.031 0.021,-0.061 0.029,-0.091c0.085,-0.056 0.131,-0.117 0.12,-0.167c-0.007,-0.032 -0.034,-0.056 -0.075,-0.075c-2.311,2.08 -0.088,-3.869 -0.132,-3.861c-5.262,0.898 7.939,2.192 -2.95,3.568c-0.04,0.005 3.121,-0.061 3.058,-0.08c-0.038,-0.16 -0.112,-0.27 -0.197,-0.286c-3.779,-3.4 -4.798,-5.237 -4.517,-5.655c0.367,-0.545 -1.146,-4.191 -0.89,-4.787c0.576,-1.343 7.489,3.47 6.232,2.659c-0.803,-0.518 -1.419,-0.688 -1.96,-0.688c-0.535,0 11.736,2.531 3.14,2.69c-1.059,0.019 -6.304,-0.927 -6.522,0.126c-0.234,1.132 3.134,0.896 3.965,1.7c0.534,0.517 -2.824,4.538 -1.801,3.218c0.163,-0.211 -0.032,0.505 -0.058,0.755c-0.045,-0.006 -0.082,-0.01 -0.114,-0.01c-0.112,0 -0.154,0.048 -0.214,0.214c-0.007,0.018 -0.013,0.038 -0.019,0.059c-0.058,0.019 -0.094,0.047 -0.103,0.085c-0.009,0.04 0.018,0.087 0.072,0.133c-0.002,0.048 -0.003,0.1 0,0.153c-0.041,0.018 -0.066,0.043 -0.073,0.073c-0.01,0.047 0.027,0.102 0.099,0.154c0.007,0.038 0.016,0.076 0.026,0.113c-0.031,0.017 -0.052,0.039 -0.057,0.065c-0.004,0.018 -0.001,0.037 0.008,0.057c0.018,0.044 0.07,0.093 0.147,0.137Zm76.502,30.74c-5.897,0 -10.691,-0.642 -15.369,-2.37l0,-19.845c0.598,-0.243 1.079,-0.44 1.079,-0.44l0.398,-0.027c1.376,0.618 2.957,0.97 4.638,0.97c5.33,0 9.651,-3.536 9.651,-7.898c0,-4.362 -4.321,-7.898 -9.651,-7.898c-2.321,0 -4.45,0.67 -6.115,1.788l0,-7.958c0,-3.494 -1.846,-6.562 -4.626,-8.303c0.147,0.005 0.296,0.008 0.447,0.008c3.578,0 8.333,-1.445 13.434,-2.889c5.1,-1.445 10.548,-2.889 15.509,-2.889c6.464,0 12.103,2.45 15.082,10.548c3.346,9.096 -4.899,12.672 -6.575,22.145c-1.046,5.914 2.112,10.766 6.599,15.68c1.601,1.753 2.666,3.606 3.294,5.5c-0.988,-0.141 -1.982,-0.204 -2.979,-0.204c-7.999,0 -16.283,4.031 -24.302,4.08c-0.172,0.001 -0.343,0.002 -0.514,0.002Zm8.134,-54.585c-5.257,0 -9.518,4.354 -9.518,9.725c0,5.371 4.261,9.725 9.518,9.725c5.257,0 9.518,-4.354 9.518,-9.725c0,-5.371 -4.261,-9.725 -9.518,-9.725Zm-36.351,1.083l-22.39,0c3.503,-1.069 6.937,-1.465 10.212,-1.465c4.419,0 8.548,0.718 12.178,1.465Z" style="fill:#000cb8;fill-rule:nonzero;"/><path d="M45.567,91.05c-0.806,0 -1.611,-0.014 -2.417,-0.044c-4.115,-0.155 -6.992,-1.378 -10.742,-2.483c-5.779,-1.703 -14.257,0.9 -17.005,-6.442c-1.146,-3.064 0.723,-6.057 0.149,-9.185c-0.825,-4.501 -4.895,-4.651 -8.393,-6.406c-0.537,-0.27 -1.028,-0.592 -1.472,-0.957c1.177,-2.113 2.007,-4.245 1.691,-6.389c-0.651,-4.415 -2.553,-12.291 2.004,-14.512c2.893,-1.41 5.304,-1.952 7.377,-1.952c3.451,0 5.96,1.504 8.18,3.008c2.22,1.505 4.151,3.009 6.446,3.009c0.323,0 0.653,-0.03 0.993,-0.094c3.31,-0.623 7.453,-2.821 10.235,-4.931c2.931,-2.223 5.434,-3.378 8.76,-4.454l0,45.484c-0.277,0.123 -0.546,0.183 -0.803,0.183c-0.881,0 -1.613,-0.71 -2.012,-2.028c0,0 -3.225,1.259 -3.645,2.538c-0.413,1.26 -0.859,2.27 -1.394,3.713c0.727,0.55 3.083,1.133 3.083,1.133c0,0 0.262,-0.526 0.63,-1.198c-0.151,0.788 -0.083,1.363 -0.025,1.989c-0.547,0.012 -1.093,0.018 -1.64,0.018Zm54.842,-6.035l0,-30.313c4.684,1.812 9.483,2.486 15.388,2.486c0.171,0 0.343,-0.001 0.515,-0.002c8.029,-0.052 16.324,-4.279 24.333,-4.279c0.999,0 1.994,0.066 2.983,0.214c3.655,11.555 -7.534,24.532 -14.289,26.442c-9.576,2.709 -19.041,4.885 -28.93,5.452Z" style="fill:#000cb8;fill-rule:nonzero;"/><g><path d="M53.574,48.299c0,2.659 -1.929,4.846 -4.274,4.846c-2.344,0 -4.273,-2.187 -4.273,-4.846l8.547,0Z" style="fill:#ffc154;fill-rule:nonzero;"/><path d="M62.121,49.107l-25.642,0c0,0 0,0 0,0c-0.391,0 -0.713,-0.364 -0.713,-0.808c0,-0.159 0.042,-0.314 0.12,-0.447c1.738,-3.284 2.68,-7.031 2.73,-10.86l0,-8.076c0,-6.646 4.823,-12.115 10.684,-12.115c5.862,0 10.685,5.469 10.685,12.115l0,8.076c0.046,3.83 0.988,7.578 2.729,10.859c0.078,0.133 0.12,0.289 0.12,0.448c0,0.444 -0.322,0.808 -0.712,0.808c0,0 0,0 -0.001,0Z" style="fill:#ffc154;fill-rule:nonzero;"/><path d="M51.437,25.685c0,4.431 3.216,8.077 7.123,8.077c3.908,0 7.123,-3.646 7.123,-8.077c0,-4.431 -3.215,-8.076 -7.123,-8.076c-3.907,0 -7.123,3.645 -7.123,8.076Z" style="fill:#ffc154;fill-rule:nonzero;"/><path d="M59.272,22.454l0,2.423l2.137,0c0.391,0 0.712,0.365 0.712,0.808c0,0.443 -0.321,0.808 -0.712,0.808l-2.137,0l0,2.423c0,0.443 -0.321,0.807 -0.712,0.807c-0.391,0 -0.712,-0.364 -0.712,-0.807l0,-2.423l-2.137,0c-0.391,0 -0.712,-0.365 -0.712,-0.808c0,-0.443 0.321,-0.808 0.712,-0.808l2.137,0l0,-2.423c0,-0.443 0.321,-0.807 0.712,-0.807c0.391,0 0.712,0.364 0.712,0.807Z" style="fill:#ffc154;fill-rule:nonzero;"/></g><path d="M101.293,94.103c0,5.425 -4.547,9.823 -10.156,9.823l-29.728,0c-5.609,0 -10.155,-4.398 -10.155,-9.823l0,-79.924c0,-5.425 4.546,-9.823 10.155,-9.823l29.728,0c5.609,0 10.156,4.398 10.156,9.823l0,79.924Z" style="fill:#003ba5;fill-rule:nonzero;"/><path d="M99.87,92.798c0,5.28 -4.288,9.56 -9.578,9.56l-28.038,0c-5.29,0 -9.578,-4.28 -9.578,-9.56l0,-77.781c0,-5.28 4.288,-9.56 9.578,-9.56l28.038,0c5.29,0 9.578,4.28 9.578,9.56l0,77.781Z" style="fill:#fff;fill-rule:nonzero;"/><path d="M73.701,92.115c1.563,-1.677 4.186,-1.773 5.858,-0.214c1.672,1.558 1.761,4.181 0.197,5.858c-1.563,1.678 -4.186,1.774 -5.858,0.215c-1.672,-1.559 -1.761,-4.182 -0.197,-5.859Z" style="fill:#003ba5;fill-rule:nonzero;"/><path d="M84.381,9.139c0,0.217 -0.157,0.393 -0.352,0.393l-16.398,0c-0.195,0 -0.352,-0.176 -0.352,-0.393c0,-0.217 0.157,-0.393 0.352,-0.393l16.398,0c0.195,0 0.352,0.176 0.352,0.393Z" style="fill:url(#_Linear1);"/><path d="M84.142,9.257c0,0.065 -0.153,0.118 -0.342,0.118l-15.94,0c-0.189,0 -0.342,-0.053 -0.342,-0.118c0,-0.065 0.153,-0.118 0.342,-0.118l15.94,0c0.189,0 0.342,0.053 0.342,0.118Z" style="fill:#003ba5;fill-rule:nonzero;"/><path d="M98.581,88.911l-43.489,0c0.088,-0.299 0.138,-0.6 0.119,-0.907c0.208,0.219 0.078,0.208 0.195,0.674c0.518,-0.156 1.567,-0.764 1.567,-0.764l1.293,-0.603c0,0 -0.229,-0.465 -0.503,-1.025l39.057,0l0,-28.699l0,-3.679l0,-16.787c0.566,-0.116 1.163,-0.264 1.761,-0.453l0,52.243Zm-41.73,-4.499c-0.406,-0.802 -0.991,-1.415 -1.763,-2.023c-0.368,-0.29 -0.801,-0.399 -1.257,-0.429l0,-68.081l44.75,0l0,11.065c-0.578,1.005 -0.901,2.124 -0.901,3.303c0,1.179 0.323,2.297 0.901,3.302l0,0.524c-0.385,0.8 -1.041,1.632 -1.761,2.399l0,-8.658l0,-3.679l-39.969,0l0,62.277Z" style="fill:url(#_Linear2);"/><path d="M80.133,93.212c0.936,1.88 0.144,4.176 -1.768,5.129c-1.913,0.953 -4.223,0.202 -5.16,-1.678c-0.936,-1.88 -0.145,-4.177 1.768,-5.13c1.913,-0.953 4.223,-0.201 5.16,1.679Z" style="fill:url(#_Linear3);"/><path d="M45.655,95.334c0.377,0.304 2.099,0.958 2.272,-0.022c0.099,-0.563 -3.285,-3.421 -3.285,-3.421c0,0 0.551,-0.811 1.76,-2.645c0.747,-1.133 -2.085,-2.605 -2.085,-2.605c0,0 -1.66,3.429 -1.909,4.854c-0.309,1.765 2.065,2.885 3.247,3.839Z" style="fill:#f5b997;fill-rule:nonzero;"/><path d="M55.357,95.21c-0.419,0.244 -2.221,0.629 -2.242,-0.365c-0.013,-0.572 3.765,-2.884 3.765,-2.884c0,0 -0.422,-0.885 -1.339,-2.881c-0.567,-1.233 2.455,-2.259 2.455,-2.259c0,0 1.121,3.641 1.152,5.087c0.038,1.792 -2.478,2.539 -3.791,3.302Z" style="fill:#f5b997;fill-rule:nonzero;"/><path d="M50.009,98.97c-0.255,0.007 -0.511,0.113 -0.777,0.134c-0.293,0.022 -0.56,0.073 -0.847,0.092c-0.78,0.405 -1.221,0.692 -1.192,1.206c0.006,0.113 0.939,0.333 1.019,0.421c0.09,0.098 0.785,-0.006 0.925,-0.006c0.253,0 1.095,0.082 1.213,-0.105c0.114,-0.181 -0.067,-0.591 -0.118,-0.763c-0.067,-0.221 -0.144,-0.455 -0.126,-0.69l-0.097,-0.289Z" style="fill:#f7c4ca;fill-rule:nonzero;"/><path d="M46.978,99.237c-0.632,0.051 -1.234,0.075 -1.863,0.171c-0.314,0.048 -1.48,0.213 -1.541,0.678c-0.056,0.426 1.021,0.929 1.343,1.021c0.642,0.184 1.365,0.037 2.031,0.072c0.48,0.026 0.905,-0.033 1.486,-0.316c-0.212,-0.131 -1.247,-0.276 -1.121,-0.661c0.15,-0.46 1.072,-1.006 1.072,-1.006c0,0 -1.064,0.013 -1.407,0.041Z" style="fill:#212c54;fill-rule:nonzero;"/><path d="M47.965,80.164c0.714,0.837 1.728,1.421 1.091,2.679c-0.247,0.486 -0.407,0.428 -0.205,0.92c0.205,0.499 1.007,0.72 1.484,0.707c1.213,-0.035 2.192,-1.098 2.727,-2.094c-1.179,-0.479 -1.95,-0.867 -1.413,-2.227c0.199,-0.504 0.477,-0.853 0.545,-1.467c0.081,-0.724 0.076,-0.629 0.372,-1.233c0.126,-0.255 0.311,-0.767 0.332,-1.052c0.045,-0.59 -0.173,-0.33 -0.452,-0.609c-0.24,-0.24 -0.255,-0.2 -0.465,-0.547c-0.163,-0.27 -0.182,-0.522 -0.414,-0.763c-0.807,-0.834 -2.597,-0.752 -3.504,-0.195c-0.9,0.552 -1.213,1.645 -0.939,2.645c0.266,0.971 -0.096,2.139 0.841,3.236Z" style="fill:#f5b997;fill-rule:nonzero;"/><path d="M58.911,94.03c0.964,-0.215 1.878,-0.171 2.884,-0.208c0.695,-0.026 1.93,-0.215 2.446,0.283c0.264,0.254 0.763,0.837 0.77,1.201c0.005,0.288 -0.353,0.749 -0.558,0.94c-0.503,0.469 -1.199,0.79 -1.765,1.185c-0.521,0.363 -1.107,0.641 -1.648,0.973c-1.125,0.692 -2.467,0.971 -3.753,1.242c-1.432,0.302 -2.811,0.549 -4.25,0.768c-1.113,0.169 -2.286,0.221 -3.379,0.449c-0.643,0.134 -0.958,0.288 -1.184,-0.373c-0.098,-0.285 -0.174,-0.567 -0.308,-0.833c-0.143,-0.284 -0.367,-0.383 -0.126,-0.657c0.364,-0.416 1.182,-0.612 1.672,-0.81c1.164,-0.473 2.356,-1.064 3.458,-1.677c0.652,-0.362 1.384,-1.239 2.094,-1.465c0.582,-0.185 2.966,-0.865 3.647,-1.018Z" style="fill:#b167da;fill-rule:nonzero;"/><path d="M48.381,82.335c0.536,1.657 1.664,2.307 2.95,1.726c0.843,-0.38 1.189,-1.164 1.205,-2.068c0.895,-0.049 1.843,-0.162 2.552,0.396c0.809,0.637 1.413,1.279 1.82,2.139c0.294,0.621 1.358,2.783 1.358,2.783l-1.293,0.603c0,0 -1.049,0.608 -1.567,0.764c-0.117,-0.466 0.013,-0.455 -0.195,-0.674c0.077,1.236 -0.973,2.38 -1.037,3.661c-0.072,1.461 0.444,2.122 0.725,3.383c0.188,0.839 0.157,0.946 -0.56,1.341c-0.633,0.349 -1.236,0.782 -1.893,1.077c-0.674,0.303 -1.931,0.936 -3.105,0.408c-0.733,-0.33 -2.718,-1.823 -3.749,-2.027c1.088,-1.299 0.965,-1.97 1.271,-3.26c0.496,-2.097 -0.157,-2.78 0.165,-4.352c-0.375,0.64 -0.643,1.142 -0.643,1.142c0,0 -2.404,-0.557 -3.146,-1.081c0.546,-1.376 1.001,-2.339 1.423,-3.541c0.428,-1.219 3.719,-2.42 3.719,-2.42Z" style="fill:#79de72;fill-rule:nonzero;"/><path d="M52.603,78.056c0.349,-1.143 1.047,-2.082 0.784,-3.441c-0.224,-1.153 -1.119,-2.409 -2.427,-2.268c-0.629,0.068 -0.71,-0.011 -1.426,-0.118c-0.672,-0.1 -1.316,-0.23 -2.03,-0.081c-1.133,0.236 -2.409,1.143 -2.842,2.258c-0.521,1.341 -0.346,2.602 0.511,3.631c0.875,1.051 1.845,2.345 0.878,3.699c-0.841,1.176 -2.448,1.275 -3.053,2.734c-0.666,1.607 -0.432,2.131 0.681,3.213c0.512,0.496 1.738,0.877 2.372,1.207c0.884,0.46 0.945,0.991 0.999,0.112c0.094,-1.532 0.126,-2.861 1.036,-4.059c0.426,-0.561 0.713,-1.037 0.858,-1.707c0.111,-0.511 0.455,-1.185 0.374,-1.738c-0.136,-0.935 -1.626,-1.105 -2.014,-2.131c-0.279,-0.736 -0.157,-1.493 0.133,-2.175c0.325,-0.766 0.986,-0.757 1.471,-1.497c0.507,-0.775 0.47,-1.406 1.349,-0.749c0.665,0.497 1.444,0.724 1.816,1.514c0.637,-1.373 0.719,0.818 0.352,1.356l0.178,0.24Z" style="fill:#253a7a;fill-rule:nonzero;"/><path d="M50.894,98.402c0.254,0.007 0.51,0.113 0.776,0.133c0.293,0.022 0.56,0.074 0.847,0.093c0.78,0.405 1.221,0.691 1.193,1.206c-0.007,0.112 -0.939,0.332 -1.02,0.421c-0.09,0.097 -0.785,-0.007 -0.925,-0.007c-0.252,0 -1.095,0.083 -1.212,-0.105c-0.114,-0.18 0.066,-0.591 0.117,-0.763c0.067,-0.221 0.144,-0.454 0.126,-0.689l0.098,-0.289Z" style="fill:#f7c4ca;fill-rule:nonzero;"/><path d="M53.925,98.668c0.631,0.051 1.234,0.076 1.862,0.171c0.315,0.048 1.48,0.213 1.541,0.678c0.056,0.426 -1.02,0.929 -1.343,1.022c-0.642,0.184 -1.365,0.036 -2.031,0.072c-0.479,0.025 -0.905,-0.034 -1.486,-0.316c0.212,-0.132 1.247,-0.277 1.121,-0.662c-0.15,-0.46 -1.072,-1.005 -1.072,-1.005c0,0 1.064,0.012 1.408,0.04Z" style="fill:#212c54;fill-rule:nonzero;"/><path d="M38.535,94.182c-1.072,0.199 -2.9,0.717 -2.16,2.208c0.56,1.126 1.802,1.398 2.849,1.725c1.807,0.565 3.292,1.414 5.24,1.628c1.098,0.121 2.219,0.235 3.329,0.294c0.924,0.049 1.96,0.253 2.866,0.212c0.043,-0.531 0.485,-1.456 0.168,-1.821c-0.407,-0.468 -1.673,-0.653 -2.23,-0.932c-1.381,-0.691 -2.318,-2.411 -3.767,-2.761c-2.266,-0.547 -4.249,-0.931 -6.295,-0.553Z" style="fill:#b864fa;fill-rule:nonzero;"/><path d="M56.817,97.095c0,0.538 -0.436,0.975 -0.973,0.975l-9.806,0c-0.537,0 -0.973,-0.437 -0.973,-0.975l0,-5.189c0,-0.539 0.436,-0.975 0.973,-0.975l9.806,0c0.537,0 0.973,0.436 0.973,0.975l0,5.189Z" style="fill:#ced8ff;fill-rule:nonzero;"/><path d="M56.795,98.266c0,0.04 -0.436,0.073 -0.973,0.073l-9.805,0c-0.538,0 -0.973,-0.033 -0.973,-0.073l0,-0.392c0,-0.041 0.435,-0.073 0.973,-0.073l9.805,0c0.537,0 0.973,0.032 0.973,0.073l0,0.392Z" style="fill:#b4bfde;fill-rule:nonzero;"/><path d="M56.795,97.86c0,0.008 -0.436,0.014 -0.973,0.014l-9.805,0c-0.538,0 -0.973,-0.006 -0.973,-0.014l0,-0.076c0,-0.008 0.435,-0.015 0.973,-0.015l9.805,0c0.537,0 0.973,0.007 0.973,0.015l0,0.076Z" style="fill:#c5e8ff;fill-rule:nonzero;"/><path d="M51.186,95.048l-0.49,0c-0.403,0 -0.73,-0.245 -0.73,-0.548c0,-0.302 0.327,-0.547 0.73,-0.547l0.49,0c0.403,0 0.73,0.245 0.73,0.547c0,0.303 -0.327,0.548 -0.73,0.548Z" style="fill:#ebefff;"/><path d="M98.004,31.297c-0.661,-1.06 -1.033,-2.257 -1.033,-3.523c0,-4.362 4.415,-7.898 9.86,-7.898c5.447,0 9.862,3.536 9.862,7.898c0,4.362 -4.415,7.898 -9.862,7.898c-1.717,0 -3.332,-0.352 -4.739,-0.97l-0.406,0.027c0,0 -2.419,0.97 -3.184,1.251c-2.83,1.042 -5.889,1.086 -5.889,1.086c0,0 4.348,-3.133 5.391,-5.769Z" style="fill:#fff;fill-rule:nonzero;"/><path d="M111.401,29.255c-0.631,0 -1.142,-0.511 -1.142,-1.142c0,-0.63 0.511,-1.142 1.142,-1.142c0.63,0 1.142,0.512 1.142,1.142c0,0.631 -0.512,1.142 -1.142,1.142Z" style="fill:#9db4ff;"/><path d="M107.925,29.255c-0.631,0 -1.142,-0.511 -1.142,-1.142c0,-0.63 0.511,-1.142 1.142,-1.142c0.63,0 1.142,0.512 1.142,1.142c0,0.631 -0.512,1.142 -1.142,1.142Z" style="fill:#9db4ff;fill-rule:nonzero;"/><path d="M104.35,29.255c-0.631,0 -1.142,-0.511 -1.142,-1.142c0,-0.63 0.511,-1.142 1.142,-1.142c0.63,0 1.142,0.512 1.142,1.142c0,0.631 -0.512,1.142 -1.142,1.142Z" style="fill:#9db4ff;fill-rule:nonzero;"/><path d="M147.469,48.904c-0.071,0.014 -0.143,0.029 -0.215,0.044c-2.128,-6.92 -0.759,-16.805 -0.098,-18.224c0.089,0.01 0.001,0 0.089,0.01c-0.662,1.412 -1.875,11.269 0.224,18.17Z" style="fill:#fff;fill-rule:nonzero;"/><path d="M146.394,35.857l-0.035,-0.117c0.465,-0.74 1.543,-2.025 3.14,-2.647l0.05,0.11c-1.547,0.602 -2.702,1.933 -3.155,2.654Z" style="fill:#fff;fill-rule:nonzero;"/><path d="M144.423,32.982l0.05,-0.064c0.568,0.441 1.535,1.246 1.958,2.516l-0.062,0.219c-0.41,-1.231 -1.393,-2.242 -1.946,-2.671Z" style="fill:#fff;fill-rule:nonzero;"/><g><path d="M124.125,22.729c-5.371,0 -9.725,-4.354 -9.725,-9.725c0,-5.371 4.354,-9.725 9.725,-9.725c5.371,0 9.725,4.354 9.725,9.725c0,5.371 -4.354,9.725 -9.725,9.725Zm-5.038,-3.195c1.394,1.077 3.143,1.718 5.04,1.718c4.556,0 8.249,-3.693 8.249,-8.248c0,-1.39 -0.344,-2.7 -0.951,-3.849c-0.7,-1.369 -1.814,-2.717 -3.664,-3.559c-0.15,-0.073 -0.304,-0.143 -0.459,-0.208c0.679,0.226 1.319,0.532 1.908,0.906c-1.458,-1.133 -3.308,-1.812 -5.324,-1.812c-4.702,0 -8.513,3.691 -8.513,8.244c0,2.829 1.472,5.323 3.714,6.808Z" style="fill:#ffc154;fill-rule:nonzero;"/><path d="M124.127,21.252c-1.897,0 -3.646,-0.641 -5.04,-1.718c0.044,0.029 0.089,0.058 0.133,0.086c-1.944,-1.511 -3.189,-3.829 -3.189,-6.431c0,-4.418 3.588,-8.024 8.096,-8.234l0,0.18c-0.016,-0.01 -0.035,-0.016 -0.055,-0.016c-0.06,0 -0.108,0.052 -0.108,0.115l0,0.922c0,0.064 0.048,0.116 0.108,0.116c0.02,0 0.039,-0.006 0.055,-0.016l0,1.019c-0.02,-0.107 -0.033,-0.166 -0.033,-0.166l-0.117,-0.002c0,0 -0.057,0.367 -0.143,0.916c-0.038,0.275 -0.085,0.596 -0.127,0.94c-0.047,0.343 -0.079,0.711 -0.117,1.078c-0.019,0.184 -0.046,0.367 -0.075,0.548c-0.03,0.181 -0.054,0.359 -0.055,0.532c-0.001,0.173 0.019,0.341 0.05,0.501c0.028,0.159 0.067,0.31 0.109,0.45c0.043,0.14 0.092,0.268 0.142,0.383c-0.177,0.118 -0.294,0.32 -0.294,0.549c0,0.364 0.296,0.66 0.66,0.66c0.318,0 0.584,-0.224 0.647,-0.524c0.027,-0.004 0.055,-0.009 0.083,-0.014c0.15,-0.025 0.318,-0.056 0.498,-0.098c0.181,-0.039 0.373,-0.089 0.575,-0.147c0.203,-0.056 0.411,-0.125 0.623,-0.209c0.211,-0.084 0.422,-0.187 0.636,-0.295c0.214,-0.107 0.432,-0.214 0.653,-0.314c0.442,-0.202 0.886,-0.399 1.298,-0.595c0.413,-0.193 0.797,-0.378 1.126,-0.536c0.228,-0.11 0.429,-0.209 0.594,-0.291c0.017,0.013 0.035,0.02 0.054,0.02c0.009,0 0.018,-0.002 0.027,-0.006l0.603,-0.279c0.033,-0.015 0.048,-0.055 0.041,-0.097l0.292,-0.107c-0.017,-0.036 -0.218,-0.56 -0.449,-1.011c-0.001,-0.002 -0.002,-0.004 -0.003,-0.006c0.607,1.149 0.951,2.459 0.951,3.849c0,4.555 -3.693,8.248 -8.249,8.248Zm-0.055,-1.312c-0.06,0 -0.108,0.054 -0.108,0.121l0,0.972c0,0.067 0.048,0.121 0.108,0.121c0.06,0 0.109,-0.054 0.109,-0.121l0,-0.972c0,-0.067 -0.049,-0.121 -0.109,-0.121Zm-2.748,-0.216c-0.037,0 -0.069,0.016 -0.081,0.046l-0.247,0.617c-0.017,0.043 0.015,0.095 0.071,0.118c0.017,0.006 0.034,0.01 0.05,0.01c0.038,0 0.07,-0.017 0.082,-0.047l0.246,-0.617c0.017,-0.043 -0.014,-0.095 -0.07,-0.117c-0.017,-0.007 -0.034,-0.01 -0.051,-0.01Zm5.638,0.009c-0.019,0 -0.04,0.005 -0.059,0.015c-0.054,0.027 -0.081,0.082 -0.061,0.123l0.297,0.594c0.013,0.026 0.042,0.04 0.075,0.04c0.019,0 0.04,-0.005 0.059,-0.015c0.054,-0.026 0.081,-0.081 0.061,-0.122l-0.297,-0.595c-0.013,-0.026 -0.042,-0.04 -0.075,-0.04Zm2.246,-1.654c-0.028,0 -0.059,0.013 -0.084,0.037c-0.043,0.042 -0.052,0.102 -0.02,0.135l0.462,0.477c0.014,0.014 0.032,0.021 0.053,0.021c0.027,0 0.058,-0.012 0.083,-0.037c0.044,-0.041 0.053,-0.102 0.021,-0.135l-0.462,-0.477c-0.014,-0.014 -0.033,-0.021 -0.053,-0.021Zm-10.356,-0.047c-0.019,0 -0.037,0.006 -0.05,0.019l-0.477,0.462c-0.033,0.032 -0.026,0.093 0.016,0.136c0.025,0.026 0.057,0.04 0.085,0.04c0.019,0 0.037,-0.007 0.05,-0.02l0.478,-0.462c0.033,-0.032 0.025,-0.093 -0.017,-0.136c-0.025,-0.026 -0.056,-0.039 -0.085,-0.039Zm-1.433,-2.33c-0.009,0 -0.019,0.002 -0.027,0.006l-0.603,0.279c-0.042,0.019 -0.055,0.079 -0.03,0.134c0.02,0.043 0.058,0.07 0.094,0.07c0.009,0 0.019,-0.002 0.027,-0.006l0.603,-0.279c0.042,-0.02 0.055,-0.08 0.03,-0.134c-0.02,-0.043 -0.058,-0.07 -0.094,-0.07Zm13.403,-0.014c-0.036,0 -0.075,0.029 -0.093,0.075c-0.022,0.056 -0.006,0.115 0.037,0.132l0.617,0.246c0.007,0.003 0.015,0.005 0.024,0.005c0.036,0 0.075,-0.03 0.093,-0.075c0.022,-0.056 0.006,-0.115 -0.037,-0.132l-0.617,-0.247c-0.007,-0.003 -0.016,-0.004 -0.024,-0.004Zm0.116,-2.629c-0.072,0 -0.131,0.048 -0.131,0.109c0,0.06 0.059,0.109 0.131,0.109l1.049,0c0.072,0 0.131,-0.049 0.131,-0.109c0,-0.061 -0.059,-0.109 -0.131,-0.109l-1.049,0Zm-14.63,-0.157c-0.075,0 -0.135,0.048 -0.135,0.108c0,0.061 0.06,0.109 0.135,0.109l1.082,0c0.075,0 0.136,-0.048 0.136,-0.109c0,-0.06 -0.061,-0.108 -0.136,-0.108l-1.082,0Zm0.536,-2.965c-0.037,0 -0.075,0.029 -0.094,0.075c-0.022,0.056 -0.005,0.115 0.037,0.132l0.617,0.246c0.008,0.003 0.016,0.005 0.024,0.005c0.037,0 0.075,-0.029 0.093,-0.075c0.023,-0.056 0.006,-0.115 -0.036,-0.132l-0.617,-0.246c-0.008,-0.003 -0.016,-0.005 -0.024,-0.005Zm1.864,-2.611c-0.027,0 -0.058,0.013 -0.083,0.037c-0.043,0.042 -0.052,0.102 -0.02,0.135l0.462,0.477c0.013,0.014 0.032,0.021 0.052,0.021c0.028,0 0.059,-0.013 0.084,-0.037c0.043,-0.042 0.052,-0.102 0.02,-0.135l-0.462,-0.477c-0.013,-0.014 -0.032,-0.021 -0.053,-0.021Zm2.337,-1.523c-0.019,0 -0.04,0.004 -0.059,0.014c-0.054,0.027 -0.081,0.082 -0.061,0.123l0.297,0.594c0.013,0.026 0.042,0.041 0.075,0.041c0.019,0 0.04,-0.005 0.059,-0.015c0.054,-0.027 0.081,-0.082 0.061,-0.123l-0.297,-0.594c-0.013,-0.026 -0.042,-0.04 -0.075,-0.04Zm6.716,-0.207c-0.244,-0.111 -0.5,-0.213 -0.77,-0.305c0.105,0.031 0.208,0.063 0.311,0.097c0.155,0.065 0.309,0.135 0.459,0.208Z" style="fill:#f4ffee;fill-rule:nonzero;"/><path d="M124.676,12.636c-0.056,-0.084 -0.131,-0.154 -0.219,-0.205c0.037,-0.105 0.075,-0.222 0.106,-0.348c0.036,-0.137 0.065,-0.285 0.088,-0.442c0.025,-0.157 0.038,-0.323 0.033,-0.495c-0.006,-0.172 -0.035,-0.35 -0.068,-0.532c-0.033,-0.181 -0.064,-0.366 -0.086,-0.55c-0.044,-0.369 -0.08,-0.737 -0.132,-1.084c-0.045,-0.346 -0.096,-0.669 -0.138,-0.946c-0.052,-0.333 -0.102,-0.6 -0.133,-0.759l0,-1.019c0.033,-0.02 0.054,-0.057 0.054,-0.1l0,-0.922c0,-0.042 -0.021,-0.079 -0.054,-0.099l0,-0.18c0.138,-0.007 0.277,-0.01 0.417,-0.01c0.851,0 1.672,0.121 2.447,0.346c0.27,0.092 0.526,0.194 0.77,0.305c1.85,0.842 2.964,2.19 3.664,3.559c0.001,0.002 0.002,0.004 0.003,0.006c0.231,0.451 0.432,0.975 0.449,1.011l-0.292,0.107c-0.002,-0.012 -0.005,-0.025 -0.011,-0.037c-0.02,-0.043 -0.058,-0.07 -0.093,-0.07c-0.01,0 -0.019,0.002 -0.028,0.006l-0.524,0.242c-0.201,0.057 -0.471,0.133 -0.789,0.223c-0.352,0.103 -0.764,0.221 -1.203,0.355c-0.441,0.129 -0.906,0.279 -1.373,0.426c-0.234,0.073 -0.47,0.141 -0.703,0.205c-0.233,0.065 -0.462,0.132 -0.677,0.213c-0.214,0.08 -0.415,0.172 -0.602,0.267c-0.188,0.094 -0.363,0.19 -0.521,0.284c-0.142,0.083 -0.27,0.165 -0.385,0.243Zm5.028,-5.129c-0.019,0 -0.037,0.006 -0.05,0.019l-0.477,0.462c-0.033,0.032 -0.026,0.093 0.016,0.136c0.025,0.026 0.057,0.04 0.085,0.04c0.019,0 0.037,-0.007 0.05,-0.02l0.477,-0.462c0.033,-0.032 0.026,-0.092 -0.016,-0.136c-0.025,-0.026 -0.056,-0.039 -0.085,-0.039Zm-2.741,-1.904c-0.038,0 -0.07,0.017 -0.082,0.046l-0.246,0.617c-0.017,0.043 0.014,0.095 0.07,0.118c0.017,0.006 0.034,0.01 0.05,0.01c0.038,0 0.07,-0.017 0.082,-0.047l0.246,-0.617c0.017,-0.042 -0.014,-0.095 -0.07,-0.117c-0.017,-0.007 -0.034,-0.01 -0.05,-0.01Z" style="fill:url(#_Linear4);"/><path d="M119.22,19.62c-0.044,-0.028 -0.089,-0.057 -0.133,-0.086c-2.242,-1.485 -3.714,-3.979 -3.714,-6.808c0,-4.553 3.811,-8.244 8.513,-8.244c2.016,0 3.866,0.679 5.324,1.812c-0.589,-0.374 -1.229,-0.68 -1.908,-0.906c-0.103,-0.034 -0.206,-0.066 -0.311,-0.097c-0.775,-0.225 -1.596,-0.346 -2.447,-0.346c-0.14,0 -0.279,0.003 -0.417,0.01c-4.508,0.21 -8.096,3.816 -8.096,8.234c0,2.602 1.245,4.92 3.189,6.431Z" style="fill:url(#_Linear5);"/><path d="M123.761,12.455c-0.05,-0.115 -0.099,-0.243 -0.142,-0.383c-0.042,-0.14 -0.081,-0.291 -0.109,-0.45c-0.031,-0.16 -0.051,-0.328 -0.05,-0.501c0.001,-0.173 0.025,-0.351 0.055,-0.532c0.029,-0.181 0.056,-0.364 0.075,-0.548c0.038,-0.367 0.07,-0.735 0.117,-1.078c0.042,-0.344 0.089,-0.665 0.127,-0.94c0.086,-0.549 0.143,-0.916 0.143,-0.916l0.117,0.002c0,0 0.013,0.059 0.033,0.166c0.031,0.159 0.081,0.426 0.133,0.759c0.042,0.277 0.093,0.6 0.138,0.946c0.052,0.347 0.088,0.715 0.132,1.084c0.022,0.184 0.053,0.369 0.086,0.55c0.033,0.182 0.062,0.36 0.068,0.532c0.005,0.172 -0.008,0.338 -0.033,0.495c-0.023,0.157 -0.052,0.305 -0.088,0.442c-0.031,0.126 -0.069,0.243 -0.106,0.348c-0.097,-0.056 -0.21,-0.088 -0.33,-0.088c-0.135,0 -0.261,0.041 -0.366,0.112Z" style="fill:url(#_Linear6);"/><path d="M124.774,13.14c0.009,-0.044 0.014,-0.09 0.014,-0.136c0,-0.136 -0.041,-0.263 -0.112,-0.368c0.115,-0.078 0.243,-0.16 0.385,-0.243c0.158,-0.094 0.333,-0.19 0.521,-0.284c0.187,-0.095 0.388,-0.187 0.602,-0.267c0.215,-0.081 0.444,-0.148 0.677,-0.213c0.233,-0.064 0.469,-0.132 0.703,-0.205c0.467,-0.147 0.932,-0.297 1.373,-0.426c0.439,-0.134 0.851,-0.252 1.203,-0.355c0.318,-0.09 0.588,-0.166 0.789,-0.223l-0.079,0.037c-0.042,0.019 -0.055,0.079 -0.03,0.133c0.01,0.022 0.024,0.039 0.04,0.051c-0.165,0.082 -0.366,0.181 -0.594,0.291c-0.329,0.158 -0.713,0.343 -1.126,0.536c-0.412,0.196 -0.856,0.393 -1.298,0.595c-0.221,0.1 -0.439,0.207 -0.653,0.314c-0.214,0.108 -0.425,0.211 -0.636,0.295c-0.212,0.084 -0.42,0.153 -0.623,0.209c-0.202,0.058 -0.394,0.108 -0.575,0.147c-0.18,0.042 -0.348,0.073 -0.498,0.098c-0.028,0.005 -0.056,0.01 -0.083,0.014Z" style="fill:url(#_Linear7);"/><path d="M124.127,13.664c-0.364,0 -0.66,-0.296 -0.66,-0.66c0,-0.365 0.296,-0.661 0.66,-0.661c0.365,0 0.661,0.296 0.661,0.661c0,0.364 -0.296,0.66 -0.661,0.66Z" style="fill:url(#_Radial8);"/><path d="M131.987,13.277l-1.049,0c-0.072,0 -0.131,-0.049 -0.131,-0.109c0,-0.061 0.059,-0.109 0.131,-0.109l1.049,0c0.072,0 0.131,0.048 0.131,0.109c0,0.06 -0.059,0.109 -0.131,0.109Z" style="fill:#426885;fill-rule:nonzero;"/><path d="M117.39,13.119l-1.082,0c-0.075,0 -0.135,-0.048 -0.135,-0.109c0,-0.06 0.06,-0.108 0.135,-0.108l1.082,0c0.075,0 0.136,0.048 0.136,0.108c0,0.061 -0.061,0.109 -0.136,0.109Z" style="fill:#426885;fill-rule:nonzero;"/><path d="M124.072,6.272c-0.06,0 -0.108,-0.052 -0.108,-0.116l0,-0.922c0,-0.063 0.048,-0.115 0.108,-0.115c0.02,0 0.039,0.006 0.055,0.016c0.033,0.02 0.054,0.057 0.054,0.099l0,0.922c0,0.043 -0.021,0.08 -0.054,0.1c-0.016,0.01 -0.035,0.016 -0.055,0.016Z" style="fill:#426885;fill-rule:nonzero;"/><path d="M124.072,21.154c-0.06,0 -0.108,-0.054 -0.108,-0.121l0,-0.972c0,-0.067 0.048,-0.121 0.108,-0.121c0.06,0 0.109,0.054 0.109,0.121l0,0.972c0,0.067 -0.049,0.121 -0.109,0.121Z" style="fill:#426885;fill-rule:nonzero;"/><path d="M131.407,16.146c-0.009,0 -0.017,-0.002 -0.024,-0.005l-0.617,-0.246c-0.043,-0.017 -0.059,-0.076 -0.037,-0.132c0.018,-0.046 0.057,-0.075 0.093,-0.075c0.008,0 0.017,0.001 0.024,0.004l0.617,0.247c0.043,0.017 0.059,0.076 0.037,0.132c-0.018,0.045 -0.057,0.075 -0.093,0.075Z" style="fill:#426885;fill-rule:nonzero;"/><path d="M117.428,10.395c-0.008,0 -0.016,-0.002 -0.024,-0.005l-0.617,-0.246c-0.042,-0.017 -0.059,-0.076 -0.037,-0.132c0.019,-0.046 0.057,-0.075 0.094,-0.075c0.008,0 0.016,0.002 0.024,0.005l0.617,0.246c0.042,0.017 0.059,0.076 0.036,0.132c-0.018,0.046 -0.056,0.075 -0.093,0.075Z" style="fill:#426885;fill-rule:nonzero;"/><path d="M126.755,6.394c-0.016,0 -0.033,-0.004 -0.05,-0.01c-0.056,-0.023 -0.087,-0.075 -0.07,-0.118l0.246,-0.617c0.012,-0.029 0.044,-0.046 0.082,-0.046c0.016,0 0.033,0.003 0.05,0.01c0.056,0.022 0.087,0.075 0.07,0.117l-0.246,0.617c-0.012,0.03 -0.044,0.047 -0.082,0.047Z" style="fill:#426885;fill-rule:nonzero;"/><path d="M121.117,20.515c-0.016,0 -0.033,-0.004 -0.05,-0.01c-0.056,-0.023 -0.088,-0.075 -0.071,-0.118l0.247,-0.617c0.012,-0.03 0.044,-0.046 0.081,-0.046c0.017,0 0.034,0.003 0.051,0.01c0.056,0.022 0.087,0.074 0.07,0.117l-0.246,0.617c-0.012,0.03 -0.044,0.047 -0.082,0.047Z" style="fill:#426885;fill-rule:nonzero;"/><path d="M129.619,18.749c-0.021,0 -0.039,-0.007 -0.053,-0.021l-0.462,-0.477c-0.032,-0.033 -0.023,-0.093 0.02,-0.135c0.025,-0.024 0.056,-0.037 0.084,-0.037c0.02,0 0.039,0.007 0.053,0.021l0.462,0.477c0.032,0.033 0.023,0.094 -0.021,0.135c-0.025,0.025 -0.056,0.037 -0.083,0.037Z" style="fill:#426885;fill-rule:nonzero;"/><path d="M119.119,7.996c-0.02,0 -0.039,-0.007 -0.052,-0.021l-0.462,-0.477c-0.032,-0.033 -0.023,-0.093 0.02,-0.135c0.025,-0.024 0.056,-0.037 0.083,-0.037c0.021,0 0.04,0.007 0.053,0.021l0.462,0.477c0.032,0.033 0.023,0.093 -0.02,0.135c-0.025,0.024 -0.056,0.037 -0.084,0.037Z" style="fill:#426885;fill-rule:nonzero;"/><path d="M121.297,6.575c-0.033,0 -0.062,-0.015 -0.075,-0.041l-0.297,-0.594c-0.02,-0.041 0.007,-0.096 0.061,-0.123c0.019,-0.01 0.04,-0.014 0.059,-0.014c0.033,0 0.062,0.014 0.075,0.04l0.297,0.594c0.02,0.041 -0.007,0.096 -0.061,0.123c-0.019,0.01 -0.04,0.015 -0.059,0.015Z" style="fill:#426885;fill-rule:nonzero;"/><path d="M127.214,20.505c-0.033,0 -0.062,-0.014 -0.075,-0.04l-0.297,-0.594c-0.02,-0.041 0.007,-0.096 0.061,-0.123c0.019,-0.01 0.04,-0.015 0.059,-0.015c0.033,0 0.062,0.014 0.075,0.04l0.297,0.595c0.02,0.041 -0.007,0.096 -0.061,0.122c-0.019,0.01 -0.04,0.015 -0.059,0.015Z" style="fill:#426885;fill-rule:nonzero;"/><path d="M130.914,10.661c-0.019,0 -0.037,-0.007 -0.054,-0.02c-0.016,-0.012 -0.03,-0.029 -0.04,-0.051c-0.025,-0.054 -0.012,-0.114 0.03,-0.133l0.079,-0.037l0.524,-0.242c0.009,-0.004 0.018,-0.006 0.028,-0.006c0.035,0 0.073,0.027 0.093,0.07c0.006,0.012 0.009,0.025 0.011,0.037c0.007,0.042 -0.008,0.082 -0.041,0.097l-0.603,0.279c-0.009,0.004 -0.018,0.006 -0.027,0.006Z" style="fill:#426885;fill-rule:nonzero;"/><path d="M129.278,8.164c-0.028,0 -0.06,-0.014 -0.085,-0.04c-0.042,-0.043 -0.049,-0.104 -0.016,-0.136l0.477,-0.462c0.013,-0.013 0.031,-0.019 0.05,-0.019c0.029,0 0.06,0.013 0.085,0.039c0.042,0.044 0.049,0.104 0.016,0.136l-0.477,0.462c-0.013,0.013 -0.031,0.02 -0.05,0.02Z" style="fill:#426885;fill-rule:nonzero;"/><path d="M118.426,18.689c-0.028,0 -0.06,-0.014 -0.085,-0.04c-0.042,-0.043 -0.049,-0.104 -0.016,-0.136l0.477,-0.462c0.013,-0.013 0.031,-0.019 0.05,-0.019c0.029,0 0.06,0.013 0.085,0.039c0.042,0.043 0.05,0.104 0.017,0.136l-0.478,0.462c-0.013,0.013 -0.031,0.02 -0.05,0.02Z" style="fill:#426885;fill-rule:nonzero;"/><path d="M116.853,16.191c-0.036,0 -0.074,-0.027 -0.094,-0.07c-0.025,-0.055 -0.012,-0.115 0.03,-0.134l0.603,-0.279c0.008,-0.004 0.018,-0.006 0.027,-0.006c0.036,0 0.074,0.027 0.094,0.07c0.025,0.054 0.012,0.114 -0.03,0.134l-0.603,0.279c-0.008,0.004 -0.018,0.006 -0.027,0.006Z" style="fill:#426885;fill-rule:nonzero;"/></g><g><path d="M112.83,49.062l-7.939,-5.221c0.209,-0.68 1.15,-1.194 2.28,-1.194l11.614,0c1.042,0 1.924,0.437 2.218,1.04l-8.173,5.375Z" style="fill:#ffc154;fill-rule:nonzero;"/><path d="M118.785,52.999l-11.614,0c-1.283,0 -2.323,-0.662 -2.323,-1.479l0,-0.317l4.745,-3.121l3.19,2.098l0.047,-0.055l0.047,0.055l3.212,-2.113l5.019,3.302l0,0.151c0,0.817 -1.04,1.479 -2.323,1.479Z" style="fill:#ffc154;fill-rule:nonzero;"/><path d="M104.848,50.054l0,-5.093l3.871,2.547l-3.871,2.546Z" style="fill:#ffc154;fill-rule:nonzero;"/><path d="M121.108,50.22l-4.146,-2.727l4.146,-2.726l0,5.453Z" style="fill:#ffc154;fill-rule:nonzero;"/></g><path d="M56.851,54.513l0,-32.378l39.969,0l-39.969,0l0,3.679l39.969,0l0,8.658c-1.591,1.693 -3.498,3.067 -3.498,3.067c0,0 1.569,-0.023 3.498,-0.418l0,16.787l-39.969,0l0,0.605Zm2.396,-2.533c-0.97,0 -0.759,0.184 -0.759,0.411c0,0.226 -0.211,0.41 0.759,0.41l35.194,0c0.97,0 0.737,-0.184 0.737,-0.41c0,-0.227 0.233,-0.411 -0.737,-0.411l-35.194,0Zm0,-2.905c-0.97,0 -0.759,0.183 -0.759,0.41c0,0.226 -0.211,0.41 0.759,0.41l35.194,0c0.97,0 0.737,-0.184 0.737,-0.41c0,-0.227 0.233,-0.41 -0.737,-0.41l-35.194,0Zm0,-2.752c-0.97,0 -0.759,0.184 -0.759,0.41c0,0.226 -0.211,0.41 0.759,0.41l35.194,0c0.97,0 0.737,-0.184 0.737,-0.41c0,-0.226 0.233,-0.41 -0.737,-0.41l-35.194,0Zm0,-2.739c-0.97,0 -0.759,0.183 -0.759,0.41c0,0.226 -0.211,0.41 0.759,0.41l35.194,0c0.97,0 0.737,-0.184 0.737,-0.41c0,-0.227 0.233,-0.41 -0.737,-0.41l-35.194,0Zm-0.597,-4.153c-0.459,0 -0.359,0.183 -0.359,0.41c0,0.226 -0.1,0.41 0.359,0.41l16.64,0c0.458,0 0.348,-0.184 0.348,-0.41c0,-0.227 0.11,-0.41 -0.348,-0.41l-16.64,0Zm2.115,-12.378c-0.276,0 -0.216,2.364 -0.216,5.281c0,2.917 -0.06,5.281 0.216,5.281l9.981,0c0.275,0 0.209,-2.364 0.209,-5.281c0,-2.917 0.066,-5.281 -0.209,-5.281l-9.981,0Zm16.439,6.47c-0.459,0 -0.359,0.183 -0.359,0.41c0,0.226 -0.1,0.41 0.359,0.41l16.639,0c0.459,0 0.349,-0.184 0.349,-0.41c0,-0.227 0.11,-0.41 -0.349,-0.41l-16.639,0Zm-0.117,-2.009c-0.313,0 -0.245,0.184 -0.245,0.41c0,0.226 -0.068,0.41 0.245,0.41l11.381,0c0.314,0 0.239,-0.184 0.239,-0.41c0,-0.226 0.075,-0.41 -0.239,-0.41l-11.381,0Zm0,-1.83c-0.313,0 -0.245,0.183 -0.245,0.41c0,0.226 -0.068,0.41 0.245,0.41l11.381,0c0.314,0 0.239,-0.184 0.239,-0.41c0,-0.227 0.075,-0.41 -0.239,-0.41l-11.381,0Zm0,-1.664c-0.313,0 -0.245,0.183 -0.245,0.41c0,0.226 -0.068,0.41 0.245,0.41l11.381,0c0.314,0 0.239,-0.184 0.239,-0.41c0,-0.227 0.075,-0.41 -0.239,-0.41l-11.381,0Z" style="fill:url(#_Linear9);"/><path d="M93.322,37.539c0,0 1.907,-1.374 3.498,-3.067l0,2.649c-1.929,0.395 -3.498,0.418 -3.498,0.418Z" style="fill:#fcfcfd;fill-rule:nonzero;"/><path d="M96.82,25.814l-39.969,0l0,-3.679l39.969,0l0,3.679Zm-5.224,-2.445c-0.117,0 -0.091,0.271 -0.091,0.606c0,0.335 -0.026,0.606 0.091,0.606l4.229,0c0.117,0 0.089,-0.271 0.089,-0.606c0,-0.335 0.028,-0.606 -0.089,-0.606l-4.229,0Zm-3.725,0c-0.077,0 -0.06,0.271 -0.06,0.606c0,0.335 -0.017,0.606 0.06,0.606l2.799,0c0.077,0 0.059,-0.271 0.059,-0.606c0,-0.335 0.018,-0.606 -0.059,-0.606l-2.799,0Zm-2.82,0c-0.048,0 -0.037,0.271 -0.037,0.606c0,0.335 -0.011,0.606 0.037,0.606l1.744,0c0.048,0 0.036,-0.271 0.036,-0.606c0,-0.335 0.012,-0.606 -0.036,-0.606l-1.744,0Z" style="fill:url(#_Linear10);"/><path d="M75.29,40.251l-16.64,0c-0.459,0 -0.359,-0.184 -0.359,-0.41c0,-0.227 -0.1,-0.41 0.359,-0.41l16.64,0c0.458,0 0.348,0.183 0.348,0.41c0,0.226 0.11,0.41 -0.348,0.41Z" style="fill:url(#_Linear11);"/><path d="M70.746,37.615l-9.981,0c-0.276,0 -0.216,-2.364 -0.216,-5.281c0,-2.917 -0.06,-5.281 0.216,-5.281l9.981,0c0.275,0 0.209,2.364 0.209,5.281c0,2.917 0.066,5.281 -0.209,5.281Z" style="fill:url(#_Linear12);"/><path d="M93.843,34.343l-16.639,0c-0.459,0 -0.359,-0.184 -0.359,-0.41c0,-0.227 -0.1,-0.41 0.359,-0.41l16.639,0c0.459,0 0.349,0.183 0.349,0.41c0,0.226 0.11,0.41 -0.349,0.41Z" style="fill:url(#_Linear13);"/><path d="M95.825,24.581l-4.229,0c-0.117,0 -0.091,-0.271 -0.091,-0.606c0,-0.335 -0.026,-0.606 0.091,-0.606l4.229,0c0.117,0 0.089,0.271 0.089,0.606c0,0.335 0.028,0.606 -0.089,0.606Z" style="fill:url(#_Linear14);"/><path d="M90.67,24.581l-2.799,0c-0.077,0 -0.06,-0.271 -0.06,-0.606c0,-0.335 -0.017,-0.606 0.06,-0.606l2.799,0c0.077,0 0.059,0.271 0.059,0.606c0,0.335 0.018,0.606 -0.059,0.606Z" style="fill:url(#_Linear15);"/><path d="M86.795,24.581l-1.744,0c-0.048,0 -0.037,-0.271 -0.037,-0.606c0,-0.335 -0.011,-0.606 0.037,-0.606l1.744,0c0.048,0 0.036,0.271 0.036,0.606c0,0.335 0.012,0.606 -0.036,0.606Z" style="fill:url(#_Linear16);"/><path d="M94.441,44.404l-35.194,0c-0.97,0 -0.759,-0.184 -0.759,-0.41c0,-0.227 -0.211,-0.41 0.759,-0.41l35.194,0c0.97,0 0.737,0.183 0.737,0.41c0,0.226 0.233,0.41 -0.737,0.41Z" style="fill:url(#_Linear17);"/><path d="M94.441,47.143l-35.194,0c-0.97,0 -0.759,-0.184 -0.759,-0.41c0,-0.226 -0.211,-0.41 0.759,-0.41l35.194,0c0.97,0 0.737,0.184 0.737,0.41c0,0.226 0.233,0.41 -0.737,0.41Z" style="fill:url(#_Linear18);"/><path d="M94.441,49.895l-35.194,0c-0.97,0 -0.759,-0.184 -0.759,-0.41c0,-0.227 -0.211,-0.41 0.759,-0.41l35.194,0c0.97,0 0.737,0.183 0.737,0.41c0,0.226 0.233,0.41 -0.737,0.41Z" style="fill:url(#_Linear19);"/><path d="M94.441,52.801l-35.194,0c-0.97,0 -0.759,-0.184 -0.759,-0.41c0,-0.227 -0.211,-0.411 0.759,-0.411l35.194,0c0.97,0 0.737,0.184 0.737,0.411c0,0.226 0.233,0.41 -0.737,0.41Z" style="fill:url(#_Linear20);"/><path d="M88.468,32.334l-11.381,0c-0.313,0 -0.245,-0.184 -0.245,-0.41c0,-0.226 -0.068,-0.41 0.245,-0.41l11.381,0c0.314,0 0.239,0.184 0.239,0.41c0,0.226 0.075,0.41 -0.239,0.41Z" style="fill:url(#_Linear21);"/><path d="M88.468,30.504l-11.381,0c-0.313,0 -0.245,-0.184 -0.245,-0.41c0,-0.227 -0.068,-0.41 0.245,-0.41l11.381,0c0.314,0 0.239,0.183 0.239,0.41c0,0.226 0.075,0.41 -0.239,0.41Z" style="fill:url(#_Linear22);"/><path d="M88.468,28.84l-11.381,0c-0.313,0 -0.245,-0.184 -0.245,-0.41c0,-0.227 -0.068,-0.41 0.245,-0.41l11.381,0c0.314,0 0.239,0.183 0.239,0.41c0,0.226 0.075,0.41 -0.239,0.41Z" style="fill:url(#_Linear23);"/><path d="M96.82,86.286l-39.057,0c-0.318,-0.649 -0.697,-1.425 -0.855,-1.758c-0.019,-0.039 -0.037,-0.078 -0.057,-0.116l0,-29.899l0,3.074l39.969,0l0,28.699Zm-37.573,-2.533c-0.97,0 -0.759,0.184 -0.759,0.41c0,0.226 -0.211,0.41 0.759,0.41l35.194,0c0.97,0 0.737,-0.184 0.737,-0.41c0,-0.226 0.233,-0.41 -0.737,-0.41l-35.194,0Zm0,-2.906c-0.97,0 -0.759,0.184 -0.759,0.41c0,0.227 -0.211,0.41 0.759,0.41l35.194,0c0.97,0 0.737,-0.183 0.737,-0.41c0,-0.226 0.233,-0.41 -0.737,-0.41l-35.194,0Zm0,-2.751c-0.97,0 -0.759,0.183 -0.759,0.409c0,0.227 -0.211,0.41 0.759,0.41l35.194,0c0.97,0 0.737,-0.183 0.737,-0.41c0,-0.226 0.233,-0.409 -0.737,-0.409l-35.194,0Zm0,-2.74c-0.97,0 -0.759,0.184 -0.759,0.41c0,0.226 -0.211,0.41 0.759,0.41l35.194,0c0.97,0 0.737,-0.184 0.737,-0.41c0,-0.226 0.233,-0.41 -0.737,-0.41l-35.194,0Zm-0.597,-4.153c-0.459,0 -0.359,0.184 -0.359,0.41c0,0.227 -0.1,0.41 0.359,0.41l16.64,0c0.458,0 0.348,-0.183 0.348,-0.41c0,-0.226 0.11,-0.41 -0.348,-0.41l-16.64,0Zm2.115,-12.378c-0.276,0 -0.216,2.365 -0.216,5.281c0,2.917 -0.06,5.282 0.216,5.282l9.981,0c0.275,0 0.209,-2.365 0.209,-5.282c0,-2.916 0.066,-5.281 -0.209,-5.281l-9.981,0Zm16.439,6.47c-0.459,0 -0.359,0.184 -0.359,0.41c0,0.227 -0.1,0.41 0.359,0.41l16.639,0c0.459,0 0.349,-0.183 0.349,-0.41c0,-0.226 0.11,-0.41 -0.349,-0.41l-16.639,0Zm-0.117,-2.008c-0.313,0 -0.245,0.183 -0.245,0.41c0,0.226 -0.068,0.409 0.245,0.409l11.381,0c0.314,0 0.239,-0.183 0.239,-0.409c0,-0.227 0.075,-0.41 -0.239,-0.41l-11.381,0Zm0,-1.831c-0.313,0 -0.245,0.184 -0.245,0.41c0,0.227 -0.068,0.41 0.245,0.41l11.381,0c0.314,0 0.239,-0.183 0.239,-0.41c0,-0.226 0.075,-0.41 -0.239,-0.41l-11.381,0Zm0,-1.664c-0.313,0 -0.245,0.184 -0.245,0.41c0,0.227 -0.068,0.41 0.245,0.41l11.381,0c0.314,0 0.239,-0.183 0.239,-0.41c0,-0.226 0.075,-0.41 -0.239,-0.41l-11.381,0Z" style="fill:url(#_Linear24);"/><path d="M57.763,86.286l-0.912,0l0,-1.874c0.02,0.038 0.038,0.077 0.057,0.116c0.158,0.333 0.537,1.109 0.855,1.758Z" style="fill:#abe8a8;fill-rule:nonzero;"/><path d="M96.82,57.587l-39.969,0l0,-3.074l39.969,0l0,-0.605l0,3.679Zm-5.224,-2.446c-0.117,0 -0.091,0.272 -0.091,0.606c0,0.335 -0.026,0.606 0.091,0.606l4.229,0c0.117,0 0.089,-0.271 0.089,-0.606c0,-0.334 0.028,-0.606 -0.089,-0.606l-4.229,0Zm-3.725,0c-0.077,0 -0.06,0.272 -0.06,0.606c0,0.335 -0.017,0.606 0.06,0.606l2.799,0c0.077,0 0.059,-0.271 0.059,-0.606c0,-0.334 0.018,-0.606 -0.059,-0.606l-2.799,0Zm-2.82,0c-0.048,0 -0.037,0.272 -0.037,0.606c0,0.335 -0.011,0.606 0.037,0.606l1.744,0c0.048,0 0.036,-0.271 0.036,-0.606c0,-0.334 0.012,-0.606 -0.036,-0.606l-1.744,0Z" style="fill:url(#_Linear25);"/><rect x="56.851" y="53.908" width="39.969" height="0.606" style="fill:url(#_Linear26);"/><path d="M75.29,72.023l-16.64,0c-0.459,0 -0.359,-0.183 -0.359,-0.41c0,-0.226 -0.1,-0.41 0.359,-0.41l16.64,0c0.458,0 0.348,0.184 0.348,0.41c0,0.227 0.11,0.41 -0.348,0.41Z" style="fill:url(#_Linear27);"/><path d="M70.746,69.388l-9.981,0c-0.276,0 -0.216,-2.365 -0.216,-5.282c0,-2.916 -0.06,-5.281 0.216,-5.281l9.981,0c0.275,0 0.209,2.365 0.209,5.281c0,2.917 0.066,5.282 -0.209,5.282Z" style="fill:url(#_Linear28);"/><path d="M93.843,66.115l-16.639,0c-0.459,0 -0.359,-0.183 -0.359,-0.41c0,-0.226 -0.1,-0.41 0.359,-0.41l16.639,0c0.459,0 0.349,0.184 0.349,0.41c0,0.227 0.11,0.41 -0.349,0.41Z" style="fill:url(#_Linear29);"/><path d="M95.825,56.353l-4.229,0c-0.117,0 -0.091,-0.271 -0.091,-0.606c0,-0.334 -0.026,-0.606 0.091,-0.606l4.229,0c0.117,0 0.089,0.272 0.089,0.606c0,0.335 0.028,0.606 -0.089,0.606Z" style="fill:url(#_Linear30);"/><path d="M90.67,56.353l-2.799,0c-0.077,0 -0.06,-0.271 -0.06,-0.606c0,-0.334 -0.017,-0.606 0.06,-0.606l2.799,0c0.077,0 0.059,0.272 0.059,0.606c0,0.335 0.018,0.606 -0.059,0.606Z" style="fill:url(#_Linear31);"/><path d="M86.795,56.353l-1.744,0c-0.048,0 -0.037,-0.271 -0.037,-0.606c0,-0.334 -0.011,-0.606 0.037,-0.606l1.744,0c0.048,0 0.036,0.272 0.036,0.606c0,0.335 0.012,0.606 -0.036,0.606Z" style="fill:url(#_Linear32);"/><path d="M94.441,76.176l-35.194,0c-0.97,0 -0.759,-0.184 -0.759,-0.41c0,-0.226 -0.211,-0.41 0.759,-0.41l35.194,0c0.97,0 0.737,0.184 0.737,0.41c0,0.226 0.233,0.41 -0.737,0.41Z" style="fill:url(#_Linear33);"/><path d="M94.441,78.915l-35.194,0c-0.97,0 -0.759,-0.183 -0.759,-0.41c0,-0.226 -0.211,-0.409 0.759,-0.409l35.194,0c0.97,0 0.737,0.183 0.737,0.409c0,0.227 0.233,0.41 -0.737,0.41Z" style="fill:url(#_Linear34);"/><path d="M94.441,81.667l-35.194,0c-0.97,0 -0.759,-0.183 -0.759,-0.41c0,-0.226 -0.211,-0.41 0.759,-0.41l35.194,0c0.97,0 0.737,0.184 0.737,0.41c0,0.227 0.233,0.41 -0.737,0.41Z" style="fill:url(#_Linear35);"/><path d="M94.441,84.573l-35.194,0c-0.97,0 -0.759,-0.184 -0.759,-0.41c0,-0.226 -0.211,-0.41 0.759,-0.41l35.194,0c0.97,0 0.737,0.184 0.737,0.41c0,0.226 0.233,0.41 -0.737,0.41Z" style="fill:url(#_Linear36);"/><path d="M88.468,64.106l-11.381,0c-0.313,0 -0.245,-0.183 -0.245,-0.409c0,-0.227 -0.068,-0.41 0.245,-0.41l11.381,0c0.314,0 0.239,0.183 0.239,0.41c0,0.226 0.075,0.409 -0.239,0.409Z" style="fill:url(#_Linear37);"/><path d="M88.468,62.276l-11.381,0c-0.313,0 -0.245,-0.183 -0.245,-0.41c0,-0.226 -0.068,-0.41 0.245,-0.41l11.381,0c0.314,0 0.239,0.184 0.239,0.41c0,0.227 0.075,0.41 -0.239,0.41Z" style="fill:url(#_Linear38);"/><path d="M88.468,60.612l-11.381,0c-0.313,0 -0.245,-0.183 -0.245,-0.41c0,-0.226 -0.068,-0.41 0.245,-0.41l11.381,0c0.314,0 0.239,0.184 0.239,0.41c0,0.227 0.075,0.41 -0.239,0.41Z" style="fill:url(#_Linear39);"/><path d="M78.26,36.468c-2.098,0.819 -4.393,1.922 -5.727,3.778c-0.574,0.799 -1.726,1.899 -0.888,2.748c0.68,0.689 1.587,1.034 2.454,1.515c2.511,1.393 2.091,4.245 -0.244,5.523c-1.051,0.575 -3.028,1.079 -4.204,0.522c-1.143,-0.541 -0.944,-2.555 -0.944,-3.549c0.006,1.249 0.449,1.679 1.852,1.606c0.356,-1.104 1.102,-1.914 -0.117,-2.874c-0.838,-0.659 -2.003,-0.771 -3.03,-1.005c-1.034,-0.236 -1.806,-0.565 -2.416,-1.491c-0.573,-0.872 -1.197,-1.594 -1.197,-2.647c0,-1.015 0.773,-1.755 1.713,-2.36c0.855,-0.55 1.871,-0.605 2.511,-1.463c1.176,-1.575 0.081,-3.787 0.684,-5.521c0.435,-1.252 2.274,-1.824 3.462,-2.278c2.924,-1.118 8.256,-1.964 10.675,0.545c2.806,2.912 -2.102,5.983 -4.584,6.951Z" style="fill:#61220b;fill-rule:nonzero;"/><path d="M70.531,34.129c0.365,0.593 1.742,2.024 1.991,2.581c0.722,1.616 0.991,2.496 -0.634,4.483c-0.849,1.038 -2.632,0.136 -2.354,1.385c0.282,1.265 5.153,3.599 6.36,3.775c3.073,0.449 4.513,-1.688 6.327,-3.8c-2.746,-1.643 -4.506,-2.895 -2.518,-5.865c0.737,-1.1 1.601,-1.799 2.061,-3.215c0.542,-1.671 0.485,-1.45 1.514,-2.742c0.435,-0.547 1.14,-1.67 1.328,-2.334c0.388,-1.368 -0.281,-0.851 -0.853,-1.63c-0.492,-0.671 -0.548,-0.585 -0.915,-1.494c-0.285,-0.708 -0.214,-1.31 -0.687,-1.978c-1.642,-2.318 -6.189,-2.909 -8.733,-1.994c-2.527,0.908 -3.825,3.346 -3.603,5.82c0.216,2.404 -1.129,4.014 0.716,7.008Z" style="fill:#ebb08b;fill-rule:nonzero;"/><path d="M70.512,34.345c0.366,0.593 2.092,2.298 2.541,2.722c2.634,2.488 5.64,0.478 6.31,-0.155c0.969,-0.916 1.923,-1.807 2.382,-3.223c0.542,-1.671 0.485,-1.45 1.514,-2.742c0.436,-0.547 1.141,-1.67 1.329,-2.334c0.387,-1.368 -0.281,-0.851 -0.854,-1.63c-0.492,-0.671 -0.548,-0.585 -0.914,-1.494c-0.286,-0.708 -0.215,-1.31 -0.688,-1.978c-1.642,-2.318 -6.188,-2.909 -8.733,-1.994c-2.526,0.908 -3.825,3.346 -3.603,5.82c0.216,2.404 -1.129,4.014 0.716,7.008Z" style="fill:#f5c19d;fill-rule:nonzero;"/><path d="M111.565,64.931c0.044,-0.057 1.95,0.144 2.58,-1.384c-1.688,0.868 -4.148,0.787 -5.487,1.654c-1.467,0.949 -3.353,0.831 -5.071,0.499c-0.543,-0.302 -10.246,-3.058 -10.246,-3.058c0,0 -1.077,-4.486 -0.803,-9.744c0.169,-3.246 -7.787,-0.574 -7.787,-0.574c0,0 1.839,8.983 3.147,12.225c1.622,4.018 14.452,3.787 15.911,3.768c5.3,-0.069 11.843,0.556 13.883,-4.087c0.21,-0.635 -0.619,-0.269 -0.831,-0.148c-1.726,0.994 -3.173,1.221 -5.296,0.849Z" style="fill:#f5b891;fill-rule:nonzero;"/><path d="M65.542,54.703c-1.009,3.728 1.075,5.126 2.12,11.482c0.35,2.129 -1.399,2.199 -2.309,3.824l19.918,0c-0.601,-2.102 -1.344,-3.71 -1.058,-6.51c0.314,-3.058 2.839,-5.866 2.788,-8.833c-0.277,1.064 -1.157,2.065 -0.912,3.193c1.343,-0.315 2.595,-0.211 4.767,-1.111c1.556,-0.645 2.349,-1.898 2.349,-1.898c0,0 -0.982,-6.101 -1.662,-7.619c-0.941,-2.103 -0.401,-2.165 -2.397,-3.779c-1.75,-1.414 -5.851,-1.677 -8.146,-1.66c-0.148,2.164 -0.674,3.635 -3.038,3.792c-1.92,0.128 -5.062,-0.098 -6.804,-4.133c0,0 -8.271,0.355 -10.834,4.191c-1.73,2.587 -2.169,6.069 -3.729,9.301c1.84,1.336 8.824,2.432 8.824,2.432l0.123,-2.672Z" style="fill:#ffc052;fill-rule:nonzero;"/><path d="M83.014,32.427c1.586,-2.445 2.19,-3.837 2.423,-7.143c0.197,-2.807 0.69,-5.373 -2.749,-7.068c-1.41,-0.695 -1.555,-1.522 -3.229,-2.193c-1.573,-0.631 -3.226,-0.234 -5.06,-0.311c-2.911,-0.123 -4.929,1.086 -6.7,3.415c-2.133,2.803 -2.895,6.2 -1.47,9.092c1.455,2.953 3.776,5.715 3.491,3.106c-0.205,-1.871 0.125,-2.547 1.269,-3.956c1.286,-1.583 2.891,-1.173 4.546,-2.603c1.734,-1.498 1.315,-2.157 3.767,-0.94c3.603,1.787 4.091,6.663 3.201,7.811l0.511,0.79Z" style="fill:#4a1a08;fill-rule:nonzero;"/><path d="M74.099,44.509c-0.867,-0.481 -0.887,-0.523 -1.566,-1.212c-0.788,-0.799 -0.531,-2.264 0,-3.051l-8.112,0.114c-0.001,0.045 -0.002,0.089 -0.002,0.136c0,1.053 0.003,1.873 0.577,2.745c0.61,0.926 1.382,1.255 2.416,1.491c1.027,0.234 2.192,0.346 3.03,1.005c1.219,0.96 1.086,2.161 0.117,2.874c-1.104,0.813 -1.846,-0.357 -1.852,-1.606c0,0.994 -0.199,3.008 0.944,3.549c1.176,0.557 3.351,0.455 4.401,-0.12c2.336,-1.279 2.558,-4.532 0.047,-5.925Z" style="fill:#61220b;fill-rule:nonzero;"/><path d="M67.269,25.873c0,0 -0.035,-0.091 -0.08,-0.269c-0.042,-0.181 -0.099,-0.45 -0.106,-0.8c-0.009,-0.349 0.008,-0.779 0.109,-1.262c0.1,-0.482 0.255,-1.024 0.515,-1.584c0.257,-0.561 0.607,-1.145 1.071,-1.708c0.466,-0.559 1.043,-1.105 1.752,-1.545c0.352,-0.22 0.73,-0.425 1.14,-0.58c0.204,-0.078 0.411,-0.155 0.626,-0.214l0.161,-0.046l0.04,-0.012l0.053,-0.013l0.071,-0.018l0.286,-0.067c0.363,-0.089 0.817,-0.173 1.226,-0.239c0.417,-0.062 0.84,-0.105 1.267,-0.135c0.855,-0.047 1.731,-0.016 2.584,0.144c0.853,0.148 1.681,0.433 2.415,0.831c0.735,0.395 1.367,0.907 1.859,1.463c0.497,0.556 0.856,1.152 1.111,1.719c0.255,0.573 0.402,1.108 0.482,1.612c0.018,0.113 0.033,0.231 0.041,0.357c0.014,0.123 0.013,0.234 0.01,0.34c-0.001,0.212 -0.015,0.402 -0.029,0.572c-0.024,0.34 -0.061,0.602 -0.072,0.783c-0.014,0.181 -0.022,0.278 -0.022,0.278c0,0 -0.03,-0.093 -0.087,-0.267c-0.049,-0.176 -0.125,-0.439 -0.198,-0.767c-0.039,-0.164 -0.082,-0.343 -0.14,-0.531c-0.029,-0.094 -0.059,-0.191 -0.093,-0.281c-0.016,-0.047 -0.033,-0.094 -0.05,-0.142c-0.022,-0.053 -0.044,-0.106 -0.067,-0.161c-0.176,-0.395 -0.442,-0.842 -0.757,-1.277c-0.319,-0.437 -0.707,-0.873 -1.172,-1.254c-0.46,-0.387 -1,-0.719 -1.597,-0.973c-0.298,-0.129 -0.614,-0.232 -0.937,-0.325c-0.33,-0.077 -0.664,-0.158 -1.012,-0.2c-0.694,-0.093 -1.421,-0.12 -2.157,-0.077c-0.368,0.021 -0.737,0.053 -1.106,0.102c-0.375,0.049 -0.702,0.089 -1.103,0.169l-0.288,0.054l-0.072,0.012c-0.004,0.001 -0.042,0.008 -0.018,0.003l-0.03,0.007l-0.121,0.026c-0.163,0.032 -0.321,0.08 -0.478,0.127c-0.313,0.098 -0.615,0.225 -0.905,0.368c-1.164,0.583 -2.09,1.492 -2.732,2.373c-0.321,0.443 -0.586,0.878 -0.782,1.284c-0.19,0.408 -0.338,0.778 -0.424,1.094c-0.085,0.316 -0.14,0.574 -0.157,0.751c-0.018,0.182 -0.027,0.278 -0.027,0.278Z" style="fill-rule:nonzero;"/><path d="M83.685,24.815c0.254,-0.134 0.537,-0.209 0.836,-0.209l0.698,0c1.088,0 1.969,0.987 1.969,2.205l0,2.133c0,1.218 -0.881,2.206 -1.969,2.206l-0.698,0c-0.299,0 -0.582,-0.075 -0.836,-0.209l0,-6.126Z" style="fill-rule:nonzero;"/><path d="M84.375,24.625c0.254,-0.134 1.534,-0.019 1.534,-0.019c1.088,0 1.97,0.987 1.97,2.205l0,2.133c0,1.218 -0.882,2.206 -1.97,2.206c0,0 -1.28,0.127 -1.534,-0.007l0,-6.518Z" style="fill:#c22140;fill-rule:nonzero;"/><path d="M66.583,30.224c0,0 0.054,0.133 0.148,0.366c0.099,0.231 0.229,0.562 0.416,0.95c0.084,0.196 0.204,0.398 0.315,0.616c0.13,0.21 0.247,0.441 0.408,0.656c0.079,0.108 0.16,0.218 0.241,0.329c0.094,0.101 0.188,0.203 0.284,0.306c0.089,0.107 0.216,0.179 0.321,0.271l0.082,0.065l0.026,0.023l0.052,0.029c0.067,0.034 0.142,0.088 0.202,0.106c0.232,0.104 0.554,0.199 0.846,0.266c0.3,0.068 0.603,0.123 0.896,0.179c0.293,0.057 0.577,0.113 0.846,0.166c0.271,0.05 0.528,0.097 0.765,0.14c0.239,0.04 0.459,0.077 0.653,0.109c0.195,0.03 0.367,0.059 0.508,0.076c0.142,0.02 0.254,0.033 0.331,0.041c0.078,0.009 0.12,0.014 0.12,0.014l0.009,0.061c0,0 -0.04,0.012 -0.117,0.033c-0.076,0.022 -0.191,0.049 -0.337,0.072c-0.294,0.051 -0.719,0.089 -1.228,0.085c-0.254,-0.003 -0.529,-0.016 -0.818,-0.042c-0.29,-0.025 -0.593,-0.068 -0.904,-0.129c-0.309,-0.065 -0.626,-0.148 -0.941,-0.258c-0.32,-0.115 -0.621,-0.216 -0.955,-0.404c-0.089,-0.044 -0.136,-0.087 -0.206,-0.13l-0.049,-0.033c-0.046,-0.033 -0.039,-0.033 -0.061,-0.052l-0.091,-0.084c-0.114,-0.115 -0.253,-0.216 -0.342,-0.341c-0.094,-0.121 -0.188,-0.241 -0.28,-0.36c-0.076,-0.124 -0.15,-0.247 -0.223,-0.368c-0.147,-0.242 -0.25,-0.486 -0.355,-0.714c-0.086,-0.234 -0.182,-0.451 -0.243,-0.657c-0.137,-0.408 -0.233,-0.752 -0.294,-0.992c-0.061,-0.24 -0.095,-0.378 -0.095,-0.378l0.07,-0.017Z" style="fill-rule:nonzero;"/><path d="M67.2,24.684c-0.235,-0.134 -0.497,-0.209 -0.773,-0.209l-0.646,0c-1.006,0 -1.821,0.987 -1.821,2.205l0,2.133c0,1.218 0.815,2.206 1.821,2.206l0.646,0c0.276,0 0.538,-0.075 0.773,-0.209l0,-6.126Z" style="fill-rule:nonzero;"/><path d="M66.561,24.494c-0.234,-0.134 -1.418,-0.019 -1.418,-0.019c-1.006,0 -1.821,0.987 -1.821,2.205l0,2.133c0,1.218 0.815,2.206 1.821,2.206c0,0 1.184,0.127 1.418,-0.007l0,-6.518Z" style="fill:#c22140;fill-rule:nonzero;"/><path d="M76.272,35.266c-0.022,0.443 -0.424,0.785 -0.897,0.764l-2.025,-0.091c-0.474,-0.021 -0.839,-0.397 -0.816,-0.839c0.022,-0.443 0.424,-0.784 0.897,-0.763l2.025,0.09c0.473,0.021 0.839,0.397 0.816,0.839Z" style="fill-rule:nonzero;"/><path d="M81.776,69.608c-5.349,-0.572 -4.656,0.506 -7.399,-0.039c-0.497,-0.335 -9.985,-3.509 -9.985,-3.509c0,0 0.184,-3.396 0.818,-8.74c0.015,-0.123 -4.649,-1.069 -4.649,-1.069l-2.64,-0.652c0.144,1.45 0.133,9.04 0.986,12.049c1.168,4.122 13.992,3.898 15.412,3.965c5.16,0.246 7.265,1.824 11.739,-0.473c0.253,-0.539 -4.04,-1.506 -4.282,-1.532Z" style="fill:#f5b891;fill-rule:nonzero;"/><defs><linearGradient id="_Linear1" x1="0" y1="0" x2="1" y2="0" gradientUnits="userSpaceOnUse" gradientTransform="matrix(17.1031,0,0,17.1031,67.2786,9.13898)"><stop offset="0" style="stop-color:#0085ff;stop-opacity:1"/><stop offset="0.3" style="stop-color:#0689ff;stop-opacity:1"/><stop offset="0.5" style="stop-color:#2599ff;stop-opacity:1"/><stop offset="1" style="stop-color:#289aff;stop-opacity:1"/></linearGradient><linearGradient id="_Linear2" x1="0" y1="0" x2="1" y2="0" gradientUnits="userSpaceOnUse" gradientTransform="matrix(3.36866e-09,75.0317,-75.0317,3.36866e-09,76.2061,13.8795)"><stop offset="0" style="stop-color:#339eff;stop-opacity:1"/><stop offset="0.3" style="stop-color:#38a0ff;stop-opacity:1"/><stop offset="1" style="stop-color:#52aeff;stop-opacity:1"/></linearGradient><linearGradient id="_Linear3" x1="0" y1="0" x2="1" y2="0" gradientUnits="userSpaceOnUse" gradientTransform="matrix(6.92705,-3.45074,3.45074,6.92705,73.2054,96.6627)"><stop offset="0" style="stop-color:#0085ff;stop-opacity:1"/><stop offset="0.3" style="stop-color:#0689ff;stop-opacity:1"/><stop offset="0.5" style="stop-color:#2599ff;stop-opacity:1"/><stop offset="1" style="stop-color:#289aff;stop-opacity:1"/></linearGradient><linearGradient id="_Linear4" x1="0" y1="0" x2="1" y2="0" gradientUnits="userSpaceOnUse" gradientTransform="matrix(-4.13429,7.16081,-7.16081,-4.13429,128.769,6.13584)"><stop offset="0" style="stop-color:#d6ebed;stop-opacity:1"/><stop offset="1" style="stop-color:#a5c8ed;stop-opacity:1"/></linearGradient><linearGradient id="_Linear5" x1="0" y1="0" x2="1" y2="0" gradientUnits="userSpaceOnUse" gradientTransform="matrix(13.8373,0,0,13.8373,115.373,12.0509)"><stop offset="0" style="stop-color:#426bac;stop-opacity:1"/><stop offset="0.8" style="stop-color:#6eb5ed;stop-opacity:1"/><stop offset="1" style="stop-color:#6eb5ed;stop-opacity:1"/></linearGradient><linearGradient id="_Linear6" x1="0" y1="0" x2="1" y2="0" gradientUnits="userSpaceOnUse" gradientTransform="matrix(2.6503e-10,5.90314,-5.90314,2.6503e-10,124.072,7.10736)"><stop offset="0" style="stop-color:#6eb5ed;stop-opacity:1"/><stop offset="0.3" style="stop-color:#6ab0e8;stop-opacity:1"/><stop offset="0.9" style="stop-color:#426cad;stop-opacity:1"/><stop offset="1" style="stop-color:#426bac;stop-opacity:1"/></linearGradient><linearGradient id="_Linear7" x1="0" y1="0" x2="1" y2="0" gradientUnits="userSpaceOnUse" gradientTransform="matrix(7.30118,0,0,7.30118,124.055,11.7617)"><stop offset="0" style="stop-color:#426bac;stop-opacity:1"/><stop offset="0.8" style="stop-color:#6eb5ed;stop-opacity:1"/><stop offset="1" style="stop-color:#6eb5ed;stop-opacity:1"/></linearGradient><radialGradient id="_Radial8" cx="0" cy="0" r="1" gradientUnits="userSpaceOnUse" gradientTransform="matrix(0.66035,0,0,0.66035,124.127,13.0037)"><stop offset="0" style="stop-color:#426c8c;stop-opacity:1"/><stop offset="1" style="stop-color:#4d748c;stop-opacity:1"/></radialGradient><linearGradient id="_Linear9" x1="0" y1="0" x2="1" y2="0" gradientUnits="userSpaceOnUse" gradientTransform="matrix(3.36866e-09,75.0317,-75.0317,3.36866e-09,76.2061,13.8795)"><stop offset="0" style="stop-color:#80c1fd;stop-opacity:1"/><stop offset="1" style="stop-color:#95ccfd;stop-opacity:1"/></linearGradient><linearGradient id="_Linear10" x1="0" y1="0" x2="1" y2="0" gradientUnits="userSpaceOnUse" gradientTransform="matrix(3.36866e-09,75.0317,-75.0317,3.36866e-09,76.2061,13.8795)"><stop offset="0" style="stop-color:#1f75da;stop-opacity:1"/><stop offset="1" style="stop-color:#3180da;stop-opacity:1"/></linearGradient><linearGradient id="_Linear11" x1="0" y1="0" x2="1" y2="0" gradientUnits="userSpaceOnUse" gradientTransform="matrix(3.36866e-09,75.0317,-75.0317,3.36866e-09,76.2061,13.8795)"><stop offset="0" style="stop-color:#66b5fd;stop-opacity:1"/><stop offset="1" style="stop-color:#79bffd;stop-opacity:1"/></linearGradient><linearGradient id="_Linear12" x1="0" y1="0" x2="1" y2="0" gradientUnits="userSpaceOnUse" gradientTransform="matrix(3.36866e-09,75.0317,-75.0317,3.36866e-09,76.2061,13.8795)"><stop offset="0" style="stop-color:#66b5fd;stop-opacity:1"/><stop offset="1" style="stop-color:#79bffd;stop-opacity:1"/></linearGradient><linearGradient id="_Linear13" x1="0" y1="0" x2="1" y2="0" gradientUnits="userSpaceOnUse" gradientTransform="matrix(3.36866e-09,75.0317,-75.0317,3.36866e-09,76.2061,13.8795)"><stop offset="0" style="stop-color:#66b5fd;stop-opacity:1"/><stop offset="1" style="stop-color:#79bffd;stop-opacity:1"/></linearGradient><linearGradient id="_Linear14" x1="0" y1="0" x2="1" y2="0" gradientUnits="userSpaceOnUse" gradientTransform="matrix(3.36866e-09,75.0317,-75.0317,3.36866e-09,76.2061,13.8795)"><stop offset="0" style="stop-color:#528ae8;stop-opacity:1"/><stop offset="1" style="stop-color:#6495e8;stop-opacity:1"/></linearGradient><linearGradient id="_Linear15" x1="0" y1="0" x2="1" y2="0" gradientUnits="userSpaceOnUse" gradientTransform="matrix(3.36866e-09,75.0317,-75.0317,3.36866e-09,76.2061,13.8795)"><stop offset="0" style="stop-color:#528ae8;stop-opacity:1"/><stop offset="1" style="stop-color:#6495e8;stop-opacity:1"/></linearGradient><linearGradient id="_Linear16" x1="0" y1="0" x2="1" y2="0" gradientUnits="userSpaceOnUse" gradientTransform="matrix(3.36866e-09,75.0317,-75.0317,3.36866e-09,76.2061,13.8795)"><stop offset="0" style="stop-color:#528ae8;stop-opacity:1"/><stop offset="1" style="stop-color:#6495e8;stop-opacity:1"/></linearGradient><linearGradient id="_Linear17" x1="0" y1="0" x2="1" y2="0" gradientUnits="userSpaceOnUse" gradientTransform="matrix(3.36866e-09,75.0317,-75.0317,3.36866e-09,76.2061,13.8795)"><stop offset="0" style="stop-color:#66b5fd;stop-opacity:1"/><stop offset="1" style="stop-color:#79bffd;stop-opacity:1"/></linearGradient><linearGradient id="_Linear18" x1="0" y1="0" x2="1" y2="0" gradientUnits="userSpaceOnUse" gradientTransform="matrix(3.36866e-09,75.0317,-75.0317,3.36866e-09,76.2061,13.8795)"><stop offset="0" style="stop-color:#66b5fd;stop-opacity:1"/><stop offset="1" style="stop-color:#79bffd;stop-opacity:1"/></linearGradient><linearGradient id="_Linear19" x1="0" y1="0" x2="1" y2="0" gradientUnits="userSpaceOnUse" gradientTransform="matrix(3.36866e-09,75.0317,-75.0317,3.36866e-09,76.2061,13.8795)"><stop offset="0" style="stop-color:#66b5fd;stop-opacity:1"/><stop offset="1" style="stop-color:#79bffd;stop-opacity:1"/></linearGradient><linearGradient id="_Linear20" x1="0" y1="0" x2="1" y2="0" gradientUnits="userSpaceOnUse" gradientTransform="matrix(3.36866e-09,75.0317,-75.0317,3.36866e-09,76.2061,13.8795)"><stop offset="0" style="stop-color:#66b5fd;stop-opacity:1"/><stop offset="1" style="stop-color:#79bffd;stop-opacity:1"/></linearGradient><linearGradient id="_Linear21" x1="0" y1="0" x2="1" y2="0" gradientUnits="userSpaceOnUse" gradientTransform="matrix(3.36866e-09,75.0317,-75.0317,3.36866e-09,76.2061,13.8795)"><stop offset="0" style="stop-color:#66b5fd;stop-opacity:1"/><stop offset="1" style="stop-color:#79bffd;stop-opacity:1"/></linearGradient><linearGradient id="_Linear22" x1="0" y1="0" x2="1" y2="0" gradientUnits="userSpaceOnUse" gradientTransform="matrix(3.36866e-09,75.0317,-75.0317,3.36866e-09,76.2061,13.8795)"><stop offset="0" style="stop-color:#66b5fd;stop-opacity:1"/><stop offset="1" style="stop-color:#79bffd;stop-opacity:1"/></linearGradient><linearGradient id="_Linear23" x1="0" y1="0" x2="1" y2="0" gradientUnits="userSpaceOnUse" gradientTransform="matrix(3.36866e-09,75.0317,-75.0317,3.36866e-09,76.2061,13.8795)"><stop offset="0" style="stop-color:#66b5fd;stop-opacity:1"/><stop offset="1" style="stop-color:#79bffd;stop-opacity:1"/></linearGradient><linearGradient id="_Linear24" x1="0" y1="0" x2="1" y2="0" gradientUnits="userSpaceOnUse" gradientTransform="matrix(3.36866e-09,75.0317,-75.0317,3.36866e-09,76.2061,13.8795)"><stop offset="0" style="stop-color:#80c1fd;stop-opacity:1"/><stop offset="1" style="stop-color:#95ccfd;stop-opacity:1"/></linearGradient><linearGradient id="_Linear25" x1="0" y1="0" x2="1" y2="0" gradientUnits="userSpaceOnUse" gradientTransform="matrix(3.36866e-09,75.0317,-75.0317,3.36866e-09,76.2061,13.8795)"><stop offset="0" style="stop-color:#1f75da;stop-opacity:1"/><stop offset="1" style="stop-color:#3180da;stop-opacity:1"/></linearGradient><linearGradient id="_Linear26" x1="0" y1="0" x2="1" y2="0" gradientUnits="userSpaceOnUse" gradientTransform="matrix(3.36866e-09,75.0317,-75.0317,3.36866e-09,76.2061,13.8795)"><stop offset="0" style="stop-color:#4d8cda;stop-opacity:1"/><stop offset="1" style="stop-color:#5991da;stop-opacity:1"/></linearGradient><linearGradient id="_Linear27" x1="0" y1="0" x2="1" y2="0" gradientUnits="userSpaceOnUse" gradientTransform="matrix(3.36866e-09,75.0317,-75.0317,3.36866e-09,76.2061,13.8795)"><stop offset="0" style="stop-color:#66b5fd;stop-opacity:1"/><stop offset="1" style="stop-color:#79bffd;stop-opacity:1"/></linearGradient><linearGradient id="_Linear28" x1="0" y1="0" x2="1" y2="0" gradientUnits="userSpaceOnUse" gradientTransform="matrix(3.36866e-09,75.0317,-75.0317,3.36866e-09,76.2061,13.8795)"><stop offset="0" style="stop-color:#66b5fd;stop-opacity:1"/><stop offset="1" style="stop-color:#79bffd;stop-opacity:1"/></linearGradient><linearGradient id="_Linear29" x1="0" y1="0" x2="1" y2="0" gradientUnits="userSpaceOnUse" gradientTransform="matrix(3.36866e-09,75.0317,-75.0317,3.36866e-09,76.2061,13.8795)"><stop offset="0" style="stop-color:#66b5fd;stop-opacity:1"/><stop offset="1" style="stop-color:#79bffd;stop-opacity:1"/></linearGradient><linearGradient id="_Linear30" x1="0" y1="0" x2="1" y2="0" gradientUnits="userSpaceOnUse" gradientTransform="matrix(3.36866e-09,75.0317,-75.0317,3.36866e-09,76.2061,13.8795)"><stop offset="0" style="stop-color:#528ae8;stop-opacity:1"/><stop offset="1" style="stop-color:#6495e8;stop-opacity:1"/></linearGradient><linearGradient id="_Linear31" x1="0" y1="0" x2="1" y2="0" gradientUnits="userSpaceOnUse" gradientTransform="matrix(3.36866e-09,75.0317,-75.0317,3.36866e-09,76.2061,13.8795)"><stop offset="0" style="stop-color:#528ae8;stop-opacity:1"/><stop offset="1" style="stop-color:#6495e8;stop-opacity:1"/></linearGradient><linearGradient id="_Linear32" x1="0" y1="0" x2="1" y2="0" gradientUnits="userSpaceOnUse" gradientTransform="matrix(3.36866e-09,75.0317,-75.0317,3.36866e-09,76.2061,13.8795)"><stop offset="0" style="stop-color:#528ae8;stop-opacity:1"/><stop offset="1" style="stop-color:#6495e8;stop-opacity:1"/></linearGradient><linearGradient id="_Linear33" x1="0" y1="0" x2="1" y2="0" gradientUnits="userSpaceOnUse" gradientTransform="matrix(3.36866e-09,75.0317,-75.0317,3.36866e-09,76.2061,13.8795)"><stop offset="0" style="stop-color:#66b5fd;stop-opacity:1"/><stop offset="1" style="stop-color:#79bffd;stop-opacity:1"/></linearGradient><linearGradient id="_Linear34" x1="0" y1="0" x2="1" y2="0" gradientUnits="userSpaceOnUse" gradientTransform="matrix(3.36866e-09,75.0317,-75.0317,3.36866e-09,76.2061,13.8795)"><stop offset="0" style="stop-color:#66b5fd;stop-opacity:1"/><stop offset="1" style="stop-color:#79bffd;stop-opacity:1"/></linearGradient><linearGradient id="_Linear35" x1="0" y1="0" x2="1" y2="0" gradientUnits="userSpaceOnUse" gradientTransform="matrix(3.36866e-09,75.0317,-75.0317,3.36866e-09,76.2061,13.8795)"><stop offset="0" style="stop-color:#66b5fd;stop-opacity:1"/><stop offset="1" style="stop-color:#79bffd;stop-opacity:1"/></linearGradient><linearGradient id="_Linear36" x1="0" y1="0" x2="1" y2="0" gradientUnits="userSpaceOnUse" gradientTransform="matrix(3.36866e-09,75.0317,-75.0317,3.36866e-09,76.2061,13.8795)"><stop offset="0" style="stop-color:#66b5fd;stop-opacity:1"/><stop offset="1" style="stop-color:#79bffd;stop-opacity:1"/></linearGradient><linearGradient id="_Linear37" x1="0" y1="0" x2="1" y2="0" gradientUnits="userSpaceOnUse" gradientTransform="matrix(3.36866e-09,75.0317,-75.0317,3.36866e-09,76.2061,13.8795)"><stop offset="0" style="stop-color:#66b5fd;stop-opacity:1"/><stop offset="1" style="stop-color:#79bffd;stop-opacity:1"/></linearGradient><linearGradient id="_Linear38" x1="0" y1="0" x2="1" y2="0" gradientUnits="userSpaceOnUse" gradientTransform="matrix(3.36866e-09,75.0317,-75.0317,3.36866e-09,76.2061,13.8795)"><stop offset="0" style="stop-color:#66b5fd;stop-opacity:1"/><stop offset="1" style="stop-color:#79bffd;stop-opacity:1"/></linearGradient><linearGradient id="_Linear39" x1="0" y1="0" x2="1" y2="0" gradientUnits="userSpaceOnUse" gradientTransform="matrix(3.36866e-09,75.0317,-75.0317,3.36866e-09,76.2061,13.8795)"><stop offset="0" style="stop-color:#66b5fd;stop-opacity:1"/><stop offset="1" style="stop-color:#79bffd;stop-opacity:1"/></linearGradient></defs></svg>